G04 PROTEUS GERBER X2 FILE*
%TF.GenerationSoftware,Labcenter,Proteus,8.13-SP0-Build31525*%
%TF.CreationDate,2024-05-24T22:48:12+00:00*%
%TF.FileFunction,Soldermask,Bot*%
%TF.FilePolarity,Negative*%
%TF.Part,Single*%
%TF.SameCoordinates,{2b1c703f-e340-49a6-ac8d-334d6c9c77ef}*%
%FSLAX45Y45*%
%MOMM*%
G01*
%TA.AperFunction,Material*%
%ADD73C,2.032000*%
%ADD30C,1.778000*%
%AMPPAD025*
4,1,36,
-1.143000,1.270000,
1.143000,1.270000,
1.168970,1.267470,
1.192980,1.260200,
1.214580,1.248650,
1.233290,1.233290,
1.248650,1.214570,
1.260200,1.192980,
1.267470,1.168970,
1.270000,1.143000,
1.270000,-1.143000,
1.267470,-1.168970,
1.260200,-1.192980,
1.248650,-1.214570,
1.233290,-1.233290,
1.214580,-1.248650,
1.192980,-1.260200,
1.168970,-1.267470,
1.143000,-1.270000,
-1.143000,-1.270000,
-1.168970,-1.267470,
-1.192980,-1.260200,
-1.214580,-1.248650,
-1.233290,-1.233290,
-1.248650,-1.214570,
-1.260200,-1.192980,
-1.267470,-1.168970,
-1.270000,-1.143000,
-1.270000,1.143000,
-1.267470,1.168970,
-1.260200,1.192980,
-1.248650,1.214570,
-1.233290,1.233290,
-1.214580,1.248650,
-1.192980,1.260200,
-1.168970,1.267470,
-1.143000,1.270000,
0*%
%TA.AperFunction,Material*%
%ADD31PPAD025*%
%TA.AperFunction,Material*%
%ADD32C,2.540000*%
%ADD33C,3.302000*%
%AMPPAD028*
4,1,36,
-1.016000,1.143000,
1.016000,1.143000,
1.041970,1.140470,
1.065980,1.133200,
1.087580,1.121650,
1.106290,1.106290,
1.121650,1.087570,
1.133200,1.065980,
1.140470,1.041970,
1.143000,1.016000,
1.143000,-1.016000,
1.140470,-1.041970,
1.133200,-1.065980,
1.121650,-1.087570,
1.106290,-1.106290,
1.087580,-1.121650,
1.065980,-1.133200,
1.041970,-1.140470,
1.016000,-1.143000,
-1.016000,-1.143000,
-1.041970,-1.140470,
-1.065980,-1.133200,
-1.087580,-1.121650,
-1.106290,-1.106290,
-1.121650,-1.087570,
-1.133200,-1.065980,
-1.140470,-1.041970,
-1.143000,-1.016000,
-1.143000,1.016000,
-1.140470,1.041970,
-1.133200,1.065980,
-1.121650,1.087570,
-1.106290,1.106290,
-1.087580,1.121650,
-1.065980,1.133200,
-1.041970,1.140470,
-1.016000,1.143000,
0*%
%TA.AperFunction,Material*%
%ADD34PPAD028*%
%ADD35C,2.286000*%
%TA.AperFunction,Profile*%
%ADD25C,0.203200*%
%TD.AperFunction*%
D73*
X-1940031Y+1760529D03*
X-1700570Y+1743425D03*
X-1433478Y+1733650D03*
X-1168360Y+1750754D03*
X-922320Y+1758085D03*
X+3003184Y+482339D03*
X+2981521Y+187273D03*
X+2692400Y+1409700D03*
X+2968193Y-129926D03*
X+5867400Y+1498600D03*
X-1062724Y+3828137D03*
X+352233Y+1749233D03*
X+5763260Y+1010920D03*
X+1041400Y+1117600D03*
X+76200Y+3819055D03*
D30*
X-714659Y+2450221D03*
X+1012174Y+2431947D03*
D73*
X-5080000Y+3937000D03*
X-3427500Y+2620963D03*
X-787400Y+4127500D03*
X+3898896Y+4134990D03*
X+4592320Y+3848100D03*
X+1371600Y-3073400D03*
X+5539121Y-3191700D03*
X+1371600Y-2819400D03*
X+5429710Y-2901913D03*
X+3949700Y-2552700D03*
X+4013200Y-3583940D03*
X+3788598Y+1642534D03*
X+4652903Y+154988D03*
X+4053181Y+1642534D03*
X+4411838Y+160867D03*
X+1371600Y-2311306D03*
X+711200Y-2323783D03*
X+810000Y-4260000D03*
X+3789220Y-2789761D03*
X+1377606Y-1548604D03*
X+4888817Y-1391343D03*
X+1371600Y-2565400D03*
X+736600Y-2565400D03*
X+700000Y-3860000D03*
X+3619500Y-3086100D03*
X+1373665Y-1302215D03*
X+5118327Y-1289586D03*
X+5753100Y+1270000D03*
D30*
X+2214880Y+1562100D03*
X+2235200Y+965200D03*
D73*
X+6235700Y+3162300D03*
X-1991618Y+4002782D03*
X+2092960Y+3069498D03*
X+6072206Y+1813290D03*
X+5439833Y+839376D03*
X-3393416Y+4064024D03*
X+5343897Y+351297D03*
X+200660Y+4300220D03*
X+2882900Y+4297680D03*
X+7386515Y+2691423D03*
X-3152464Y+4089077D03*
X-4244340Y+3131820D03*
X-4832060Y+2788014D03*
X-4815597Y+2134199D03*
X-645764Y+1019421D03*
X-4511040Y+4373880D03*
X-5134996Y+2479696D03*
X-2519680Y+2184400D03*
X+5419201Y+608214D03*
X-255594Y+3988687D03*
X+1614408Y+2949192D03*
X+2747234Y+1803433D03*
X-1553697Y+3970803D03*
X+3027773Y+3556000D03*
X+3172820Y+4318012D03*
X+6852825Y+4238601D03*
X+6229585Y+4326795D03*
X+5664200Y+2379980D03*
X+6547681Y+3704839D03*
X+6633757Y+3909634D03*
X+6964105Y+3638702D03*
X+4413584Y-2152119D03*
X+4413584Y-3766820D03*
X+3498041Y-2675854D03*
X+7104260Y-2540000D03*
X+4216400Y-1828800D03*
X+7213600Y-1802359D03*
X+5198679Y+4349869D03*
X+3162300Y-2819400D03*
X+7104260Y-2832100D03*
X+1358900Y-2057400D03*
X+698500Y-2049920D03*
X-1530770Y-2336040D03*
X-3053080Y-2382520D03*
X+312420Y-4302760D03*
X+4182491Y-2392421D03*
X-2393004Y+4002716D03*
X-2655154Y+3898046D03*
X+1371301Y-1045063D03*
X-4871720Y+4635500D03*
X+7536395Y-430143D03*
X+7244080Y-1018540D03*
X+1640840Y+4483100D03*
X+2383932Y+4474477D03*
X+4695851Y+3466103D03*
X+5168893Y+3482347D03*
X+6935635Y+3901846D03*
X+7360920Y+3878580D03*
X+6860540Y+2362200D03*
X+7159092Y+1712611D03*
X+5201920Y+2390140D03*
X+1750060Y+2387279D03*
X-2374900Y+3241048D03*
X+4937760Y+2222500D03*
X+2662058Y-3073654D03*
X+7066463Y-3099749D03*
X+1346951Y-1803400D03*
X+714630Y-1814117D03*
X-1747520Y-1826260D03*
X-2866596Y-1840262D03*
X-3577550Y-1770828D03*
X-5288280Y+4777740D03*
X+2152187Y+4794848D03*
X+2997200Y+736600D03*
X+4678680Y-1737360D03*
X+4752591Y-4306803D03*
X+5306853Y-4481372D03*
X+7235077Y-1535980D03*
X+3007360Y+1224280D03*
X-407216Y+1716545D03*
X-133546Y+1733650D03*
X+121046Y+1758085D03*
X-2984500Y+2921000D03*
X-2712360Y+3101390D03*
D30*
X-3197202Y+2732424D03*
D73*
X+854829Y+1755795D03*
X+825500Y+1219200D03*
X+3435350Y+1585618D03*
X+3799887Y+92193D03*
X+7200900Y+1257300D03*
X+5583387Y+2082681D03*
X+7137400Y+2654300D03*
X+7302500Y+1955800D03*
X+7195765Y-217114D03*
X+1200542Y-56130D03*
X+4993640Y+142240D03*
X+546100Y+2260600D03*
X-625216Y+3720724D03*
X+1295400Y+3670300D03*
X+4639591Y+3254388D03*
X+5072332Y+3249685D03*
X+5087620Y+2659380D03*
X+6459925Y+3282611D03*
X+6205220Y+3883660D03*
X+2368454Y+1735158D03*
X+5670852Y-92147D03*
X+6017226Y-1709043D03*
X+990600Y+3119177D03*
X+1113100Y+1740981D03*
X+603871Y+1755795D03*
D31*
X-4978400Y+1498600D03*
X-4724400Y+1498600D03*
X-4470400Y+1498600D03*
X-4216400Y+1498600D03*
X-3962400Y+1498600D03*
X-3708400Y+1498600D03*
X-3454400Y+1498600D03*
X-3200400Y+1498600D03*
X-2692400Y+1498600D03*
X-2438400Y+1498600D03*
X-2184400Y+1498600D03*
X-1930400Y+1498600D03*
X-1676400Y+1498600D03*
X-1422400Y+1498600D03*
X-1168400Y+1498600D03*
X-914400Y+1498600D03*
X-406400Y+1498600D03*
X-152400Y+1498600D03*
X+101600Y+1498600D03*
X+355600Y+1498600D03*
X+609600Y+1498600D03*
X+863600Y+1498600D03*
X+1117600Y+1498600D03*
X+1371600Y+1498600D03*
X+1625600Y+990600D03*
X+1625600Y+736600D03*
X+1625600Y+482600D03*
X+1625600Y+228600D03*
X+1625600Y-25400D03*
X+1625600Y-279400D03*
X+1625600Y-533400D03*
X+1625600Y-787400D03*
X+1625600Y-1041400D03*
X+1625600Y-1295400D03*
X+1625600Y-1549400D03*
X+1625600Y-1803400D03*
X+1625600Y-2057400D03*
X+1625600Y-2311400D03*
X+1625600Y-2565400D03*
X+1625600Y-2819400D03*
X+1625600Y-3073400D03*
X+1625600Y-3327400D03*
X+1879600Y+990600D03*
X+1879600Y+736600D03*
X+1879600Y+482600D03*
X+1879600Y+228600D03*
X+1879600Y-25400D03*
X+1879600Y-279400D03*
X+1879600Y-533400D03*
X+1879600Y-787400D03*
X+1879600Y-1041400D03*
X+1879600Y-1295400D03*
X+1879600Y-1549400D03*
X+1879600Y-1803400D03*
X+1879600Y-2057400D03*
X+1879600Y-2311400D03*
X+1879600Y-2565400D03*
X+1879600Y-2819400D03*
X+1879600Y-3073400D03*
X+1879600Y-3327400D03*
X+863600Y-3327400D03*
X+609600Y-3327400D03*
X+355600Y-3327400D03*
X+101600Y-3327400D03*
X-152400Y-3327400D03*
X-406400Y-3327400D03*
X-660400Y-3327400D03*
X-914400Y-3327400D03*
X-1422400Y-3327400D03*
X-1676400Y-3327400D03*
X-1930400Y-3327400D03*
X-2184400Y-3327400D03*
X-2438400Y-3327400D03*
X-2692400Y-3327400D03*
X-2946400Y-3327400D03*
X-3200400Y-3327400D03*
X-3606800Y-3327400D03*
X-3860800Y-3327400D03*
X-4114800Y-3327400D03*
X-4368800Y-3327400D03*
X-4622800Y-3327400D03*
X-4876800Y-3327400D03*
X-5130800Y-3327400D03*
X-5384800Y-3327400D03*
X-5638800Y-3327400D03*
X-5892800Y-3327400D03*
D32*
X-4483100Y+3784600D03*
X-3467100Y+3784600D03*
D31*
X+5488940Y+4396740D03*
X+5742940Y+4396740D03*
X+5488940Y+4142740D03*
X+5742940Y+4142740D03*
X+5488940Y+3888740D03*
X+5742940Y+3888740D03*
X+5488940Y+3634740D03*
X+5742940Y+3634740D03*
X+5488940Y+3380740D03*
X+5742940Y+3380740D03*
X+5488940Y+3126740D03*
X+5742940Y+3126740D03*
X+5488940Y+2872740D03*
X+5742940Y+2872740D03*
D33*
X-6781800Y-4000500D03*
X-6781800Y-4508500D03*
D34*
X-4305300Y+2133600D03*
D35*
X-4051300Y+2133600D03*
X-3797300Y+2133600D03*
X-3543300Y+2133600D03*
X-3543300Y+2895600D03*
X-3797300Y+2895600D03*
X-4051300Y+2895600D03*
X-4305300Y+2895600D03*
D31*
X+6421120Y-4330700D03*
X+6675120Y-4330700D03*
X+6421120Y-4076700D03*
X+6675120Y-4076700D03*
X+6421120Y-3822700D03*
X+6675120Y-3822700D03*
X+6421120Y-3568700D03*
X+6675120Y-3568700D03*
X+6421120Y-3314700D03*
X+6675120Y-3314700D03*
X+6421120Y-3060700D03*
X+6675120Y-3060700D03*
X+6421120Y-2806700D03*
X+6675120Y-2806700D03*
X+6421120Y-2552700D03*
X+6675120Y-2552700D03*
X+6421120Y-2298700D03*
X+6675120Y-2298700D03*
X+6421120Y-2044700D03*
X+6675120Y-2044700D03*
X+6421120Y-1790700D03*
X+6675120Y-1790700D03*
X+6421120Y-1536700D03*
X+6675120Y-1536700D03*
X+6421120Y-1282700D03*
X+6675120Y-1282700D03*
X+6421120Y-1028700D03*
X+6675120Y-1028700D03*
X+6421120Y-774700D03*
X+6675120Y-774700D03*
X+6421120Y-520700D03*
X+6675120Y-520700D03*
X+6421120Y-266700D03*
X+6675120Y-266700D03*
X+6421120Y-12700D03*
X+6675120Y-12700D03*
X+6421120Y+241300D03*
X+6675120Y+241300D03*
X+6421120Y+495300D03*
X+6675120Y+495300D03*
X+6421120Y+749300D03*
X+6675120Y+749300D03*
X+6421120Y+1003300D03*
X+6675120Y+1003300D03*
X+6421120Y+1257300D03*
X+6675120Y+1257300D03*
X+6421120Y+1511300D03*
X+6675120Y+1511300D03*
X+6421120Y+1765300D03*
X+6675120Y+1765300D03*
D30*
X-5673700Y-4254500D03*
X-5473700Y-4254500D03*
X-5273700Y-4254500D03*
X-7645400Y-4445000D03*
X-7645400Y+4445000D03*
X+7721600Y+4648200D03*
X+7734300Y-4445000D03*
D35*
X-6083300Y+3644900D03*
X-7353300Y+3644900D03*
X-6845300Y+3898900D03*
D25*
X-8000000Y-5000000D02*
X+8000000Y-5000000D01*
X+8000000Y+5000000D01*
X-8000000Y+5000000D01*
X-8000000Y-5000000D01*
M02*
