G04 PROTEUS GERBER X2 FILE*
%TF.GenerationSoftware,Labcenter,Proteus,8.13-SP0-Build31525*%
%TF.CreationDate,2024-05-27T21:02:12+00:00*%
%TF.FileFunction,Legend,Bot*%
%TF.FilePolarity,Positive*%
%TF.Part,Single*%
%TF.SameCoordinates,{0b308d22-9aa3-4b5f-a824-e55e50807f99}*%
%FSLAX45Y45*%
%MOMM*%
G01*
%TA.AperFunction,Profile*%
%ADD23C,0.203200*%
%TA.AperFunction,Material*%
%ADD25C,0.203200*%
%ADD28C,0.063500*%
%ADD26C,0.508000*%
%TD.AperFunction*%
D23*
X-8000000Y-5000000D02*
X+8000000Y-5000000D01*
X+8000000Y+5000000D01*
X-8000000Y+5000000D01*
X-8000000Y-5000000D01*
D25*
X-7794000Y+2454000D02*
X+2112000Y+2454000D01*
X+2366000Y+2073000D02*
X+2366000Y-1356000D01*
X+2112000Y+2454000D02*
X+2112000Y+2327000D01*
X+2366000Y+2073000D01*
X+1858000Y-2880000D02*
X-7794000Y-2880000D01*
X+2366000Y-1356000D02*
X+2112000Y-1610000D01*
X+2112000Y-2626000D01*
X+1858000Y-2880000D01*
X-7794000Y-1927500D02*
X-7794000Y-2880000D01*
X-7794000Y+2136500D02*
X-7984500Y+2136500D01*
X-7984500Y+1247500D01*
X-7794000Y+1247500D02*
X-7984500Y+1247500D01*
X-7794000Y+2136500D02*
X-7794000Y+2454000D01*
X-7794000Y-784500D02*
X-8429000Y-784500D01*
X-8429000Y-1927500D01*
X-7794000Y-1927500D02*
X-8429000Y-1927500D01*
X-7794000Y+1247500D02*
X-7794000Y-784500D01*
D28*
X-3874820Y-374280D02*
X-3839260Y-374280D01*
X-3813860Y-374280D02*
X-3808780Y-374280D01*
X-3448100Y-374280D02*
X-3443020Y-374280D01*
X-2487980Y-374280D02*
X-2447340Y-374280D01*
X-2421940Y-374280D02*
X-2416860Y-374280D01*
X-1487220Y-374280D02*
X-1446580Y-374280D01*
X-1421180Y-374280D02*
X-1416100Y-374280D01*
X-4332020Y-369200D02*
X-4291380Y-369200D01*
X-4184700Y-369200D02*
X-4083100Y-369200D01*
X-4042460Y-369200D02*
X-3991660Y-369200D01*
X-3890060Y-369200D02*
X-3829100Y-369200D01*
X-3818940Y-369200D02*
X-3808780Y-369200D01*
X-3793540Y-369200D02*
X-3712260Y-369200D01*
X-3656380Y-369200D02*
X-3539540Y-369200D01*
X-3453180Y-369200D02*
X-3443020Y-369200D01*
X-3366820Y-369200D02*
X-3244900Y-369200D01*
X-3234740Y-369200D02*
X-3173780Y-369200D01*
X-3163620Y-369200D02*
X-3107740Y-369200D01*
X-3056940Y-369200D02*
X-2899460Y-369200D01*
X-2833420Y-369200D02*
X-2716580Y-369200D01*
X-2701340Y-369200D02*
X-2665780Y-369200D01*
X-2599740Y-369200D02*
X-2548940Y-369200D01*
X-2498140Y-369200D02*
X-2437180Y-369200D01*
X-2421940Y-369200D02*
X-2416860Y-369200D01*
X-2391460Y-369200D02*
X-2330500Y-369200D01*
X-2325420Y-369200D02*
X-2289860Y-369200D01*
X-2223820Y-369200D02*
X-2056180Y-369200D01*
X-2040940Y-369200D02*
X-1924100Y-369200D01*
X-1908860Y-369200D02*
X-1827580Y-369200D01*
X-1766620Y-369200D02*
X-1705660Y-369200D01*
X-1700580Y-369200D02*
X-1665020Y-369200D01*
X-1598980Y-369200D02*
X-1548180Y-369200D01*
X-1497380Y-369200D02*
X-1436420Y-369200D01*
X-1421180Y-369200D02*
X-1416100Y-369200D01*
X-4316780Y-364120D02*
X-4286300Y-364120D01*
X-4189780Y-364120D02*
X-4159300Y-364120D01*
X-4133900Y-364120D02*
X-4093260Y-364120D01*
X-4032300Y-364120D02*
X-4006900Y-364120D01*
X-3895140Y-364120D02*
X-3869740Y-364120D01*
X-3839260Y-364120D02*
X-3808780Y-364120D01*
X-3778300Y-364120D02*
X-3697020Y-364120D01*
X-3641140Y-364120D02*
X-3539540Y-364120D01*
X-3453180Y-364120D02*
X-3437940Y-364120D01*
X-3366820Y-364120D02*
X-3244900Y-364120D01*
X-3219500Y-364120D02*
X-3189020Y-364120D01*
X-3153460Y-364120D02*
X-3117900Y-364120D01*
X-3046780Y-364120D02*
X-3021380Y-364120D01*
X-3001060Y-364120D02*
X-2899460Y-364120D01*
X-2818180Y-364120D02*
X-2716580Y-364120D01*
X-2691180Y-364120D02*
X-2660700Y-364120D01*
X-2584500Y-364120D02*
X-2564180Y-364120D01*
X-2508300Y-364120D02*
X-2477820Y-364120D01*
X-2447340Y-364120D02*
X-2416860Y-364120D01*
X-2376220Y-364120D02*
X-2345740Y-364120D01*
X-2315260Y-364120D02*
X-2284780Y-364120D01*
X-2208580Y-364120D02*
X-2188260Y-364120D01*
X-2157780Y-364120D02*
X-2056180Y-364120D01*
X-2025700Y-364120D02*
X-1924100Y-364120D01*
X-1893620Y-364120D02*
X-1812340Y-364120D01*
X-1751380Y-364120D02*
X-1720900Y-364120D01*
X-1690420Y-364120D02*
X-1659940Y-364120D01*
X-1583740Y-364120D02*
X-1563420Y-364120D01*
X-1507540Y-364120D02*
X-1477060Y-364120D01*
X-1446580Y-364120D02*
X-1416100Y-364120D01*
X-4311700Y-359040D02*
X-4286300Y-359040D01*
X-4189780Y-359040D02*
X-4164380Y-359040D01*
X-4123740Y-359040D02*
X-4098340Y-359040D01*
X-4027220Y-359040D02*
X-4011980Y-359040D01*
X-3900220Y-359040D02*
X-3879900Y-359040D01*
X-3829100Y-359040D02*
X-3808780Y-359040D01*
X-3773220Y-359040D02*
X-3752900Y-359040D01*
X-3722420Y-359040D02*
X-3691940Y-359040D01*
X-3636060Y-359040D02*
X-3615740Y-359040D01*
X-3554780Y-359040D02*
X-3539540Y-359040D01*
X-3458260Y-359040D02*
X-3437940Y-359040D01*
X-3366820Y-359040D02*
X-3351580Y-359040D01*
X-3316020Y-359040D02*
X-3295700Y-359040D01*
X-3260140Y-359040D02*
X-3244900Y-359040D01*
X-3214420Y-359040D02*
X-3194100Y-359040D01*
X-3148380Y-359040D02*
X-3122980Y-359040D01*
X-3041700Y-359040D02*
X-3026460Y-359040D01*
X-2995980Y-359040D02*
X-2975660Y-359040D01*
X-2914700Y-359040D02*
X-2899460Y-359040D01*
X-2813100Y-359040D02*
X-2792780Y-359040D01*
X-2731820Y-359040D02*
X-2716580Y-359040D01*
X-2681020Y-359040D02*
X-2655620Y-359040D01*
X-2579420Y-359040D02*
X-2569260Y-359040D01*
X-2513380Y-359040D02*
X-2487980Y-359040D01*
X-2437180Y-359040D02*
X-2416860Y-359040D01*
X-2371140Y-359040D02*
X-2350820Y-359040D01*
X-2305100Y-359040D02*
X-2279700Y-359040D01*
X-2203500Y-359040D02*
X-2193340Y-359040D01*
X-2152700Y-359040D02*
X-2132380Y-359040D01*
X-2071420Y-359040D02*
X-2056180Y-359040D01*
X-2020620Y-359040D02*
X-2000300Y-359040D01*
X-1939340Y-359040D02*
X-1924100Y-359040D01*
X-1888540Y-359040D02*
X-1868220Y-359040D01*
X-1837740Y-359040D02*
X-1807260Y-359040D01*
X-1746300Y-359040D02*
X-1725980Y-359040D01*
X-1680260Y-359040D02*
X-1654860Y-359040D01*
X-1578660Y-359040D02*
X-1568500Y-359040D01*
X-1512620Y-359040D02*
X-1487220Y-359040D01*
X-1436420Y-359040D02*
X-1416100Y-359040D01*
X-4311700Y-353960D02*
X-4281220Y-353960D01*
X-4194860Y-353960D02*
X-4164380Y-353960D01*
X-4123740Y-353960D02*
X-4098340Y-353960D01*
X-4027220Y-353960D02*
X-4017060Y-353960D01*
X-3905300Y-353960D02*
X-3884980Y-353960D01*
X-3824020Y-353960D02*
X-3808780Y-353960D01*
X-3773220Y-353960D02*
X-3752900Y-353960D01*
X-3712260Y-353960D02*
X-3686860Y-353960D01*
X-3636060Y-353960D02*
X-3615740Y-353960D01*
X-3549700Y-353960D02*
X-3539540Y-353960D01*
X-3458260Y-353960D02*
X-3432860Y-353960D01*
X-3366820Y-353960D02*
X-3356660Y-353960D01*
X-3316020Y-353960D02*
X-3295700Y-353960D01*
X-3255060Y-353960D02*
X-3244900Y-353960D01*
X-3214420Y-353960D02*
X-3194100Y-353960D01*
X-3143300Y-353960D02*
X-3122980Y-353960D01*
X-3041700Y-353960D02*
X-3031540Y-353960D01*
X-2995980Y-353960D02*
X-2975660Y-353960D01*
X-2909620Y-353960D02*
X-2899460Y-353960D01*
X-2813100Y-353960D02*
X-2792780Y-353960D01*
X-2726740Y-353960D02*
X-2716580Y-353960D01*
X-2675940Y-353960D02*
X-2650540Y-353960D01*
X-2579420Y-353960D02*
X-2569260Y-353960D01*
X-2518460Y-353960D02*
X-2493060Y-353960D01*
X-2427020Y-353960D02*
X-2411780Y-353960D01*
X-2371140Y-353960D02*
X-2350820Y-353960D01*
X-2300020Y-353960D02*
X-2274620Y-353960D01*
X-2203500Y-353960D02*
X-2193340Y-353960D01*
X-2152700Y-353960D02*
X-2132380Y-353960D01*
X-2066340Y-353960D02*
X-2056180Y-353960D01*
X-2020620Y-353960D02*
X-2000300Y-353960D01*
X-1934260Y-353960D02*
X-1924100Y-353960D01*
X-1888540Y-353960D02*
X-1868220Y-353960D01*
X-1827580Y-353960D02*
X-1802180Y-353960D01*
X-1746300Y-353960D02*
X-1725980Y-353960D01*
X-1675180Y-353960D02*
X-1649780Y-353960D01*
X-1578660Y-353960D02*
X-1568500Y-353960D01*
X-1517700Y-353960D02*
X-1492300Y-353960D01*
X-1426260Y-353960D02*
X-1411020Y-353960D01*
X-4311700Y-348880D02*
X-4281220Y-348880D01*
X-4194860Y-348880D02*
X-4164380Y-348880D01*
X-4118660Y-348880D02*
X-4093260Y-348880D01*
X-4032300Y-348880D02*
X-4022140Y-348880D01*
X-3910380Y-348880D02*
X-3890060Y-348880D01*
X-3818940Y-348880D02*
X-3803700Y-348880D01*
X-3773220Y-348880D02*
X-3752900Y-348880D01*
X-3707180Y-348880D02*
X-3686860Y-348880D01*
X-3636060Y-348880D02*
X-3615740Y-348880D01*
X-3544620Y-348880D02*
X-3539540Y-348880D01*
X-3458260Y-348880D02*
X-3432860Y-348880D01*
X-3366820Y-348880D02*
X-3356660Y-348880D01*
X-3316020Y-348880D02*
X-3295700Y-348880D01*
X-3255060Y-348880D02*
X-3244900Y-348880D01*
X-3214420Y-348880D02*
X-3194100Y-348880D01*
X-3143300Y-348880D02*
X-3122980Y-348880D01*
X-3041700Y-348880D02*
X-3031540Y-348880D01*
X-2995980Y-348880D02*
X-2975660Y-348880D01*
X-2904540Y-348880D02*
X-2899460Y-348880D01*
X-2813100Y-348880D02*
X-2792780Y-348880D01*
X-2721660Y-348880D02*
X-2716580Y-348880D01*
X-2675940Y-348880D02*
X-2650540Y-348880D01*
X-2579420Y-348880D02*
X-2569260Y-348880D01*
X-2523540Y-348880D02*
X-2498140Y-348880D01*
X-2427020Y-348880D02*
X-2411780Y-348880D01*
X-2371140Y-348880D02*
X-2350820Y-348880D01*
X-2300020Y-348880D02*
X-2274620Y-348880D01*
X-2203500Y-348880D02*
X-2193340Y-348880D01*
X-2152700Y-348880D02*
X-2132380Y-348880D01*
X-2061260Y-348880D02*
X-2056180Y-348880D01*
X-2020620Y-348880D02*
X-2000300Y-348880D01*
X-1929180Y-348880D02*
X-1924100Y-348880D01*
X-1888540Y-348880D02*
X-1868220Y-348880D01*
X-1822500Y-348880D02*
X-1802180Y-348880D01*
X-1746300Y-348880D02*
X-1725980Y-348880D01*
X-1675180Y-348880D02*
X-1649780Y-348880D01*
X-1578660Y-348880D02*
X-1568500Y-348880D01*
X-1522780Y-348880D02*
X-1497380Y-348880D01*
X-1426260Y-348880D02*
X-1411020Y-348880D01*
X-4311700Y-343800D02*
X-4276140Y-343800D01*
X-4199940Y-343800D02*
X-4164380Y-343800D01*
X-4113580Y-343800D02*
X-4093260Y-343800D01*
X-4032300Y-343800D02*
X-4022140Y-343800D01*
X-3915460Y-343800D02*
X-3890060Y-343800D01*
X-3813860Y-343800D02*
X-3803700Y-343800D01*
X-3773220Y-343800D02*
X-3752900Y-343800D01*
X-3707180Y-343800D02*
X-3681780Y-343800D01*
X-3636060Y-343800D02*
X-3615740Y-343800D01*
X-3544620Y-343800D02*
X-3539540Y-343800D01*
X-3463340Y-343800D02*
X-3432860Y-343800D01*
X-3366820Y-343800D02*
X-3361740Y-343800D01*
X-3316020Y-343800D02*
X-3295700Y-343800D01*
X-3249980Y-343800D02*
X-3244900Y-343800D01*
X-3214420Y-343800D02*
X-3194100Y-343800D01*
X-3143300Y-343800D02*
X-3117900Y-343800D01*
X-3046780Y-343800D02*
X-3036620Y-343800D01*
X-2995980Y-343800D02*
X-2975660Y-343800D01*
X-2904540Y-343800D02*
X-2899460Y-343800D01*
X-2813100Y-343800D02*
X-2792780Y-343800D01*
X-2721660Y-343800D02*
X-2716580Y-343800D01*
X-2675940Y-343800D02*
X-2645460Y-343800D01*
X-2579420Y-343800D02*
X-2569260Y-343800D01*
X-2523540Y-343800D02*
X-2503220Y-343800D01*
X-2421940Y-343800D02*
X-2411780Y-343800D01*
X-2371140Y-343800D02*
X-2350820Y-343800D01*
X-2300020Y-343800D02*
X-2269540Y-343800D01*
X-2203500Y-343800D02*
X-2193340Y-343800D01*
X-2152700Y-343800D02*
X-2132380Y-343800D01*
X-2061260Y-343800D02*
X-2056180Y-343800D01*
X-2020620Y-343800D02*
X-2000300Y-343800D01*
X-1929180Y-343800D02*
X-1924100Y-343800D01*
X-1888540Y-343800D02*
X-1868220Y-343800D01*
X-1822500Y-343800D02*
X-1797100Y-343800D01*
X-1746300Y-343800D02*
X-1725980Y-343800D01*
X-1675180Y-343800D02*
X-1644700Y-343800D01*
X-1578660Y-343800D02*
X-1568500Y-343800D01*
X-1522780Y-343800D02*
X-1502460Y-343800D01*
X-1421180Y-343800D02*
X-1411020Y-343800D01*
X-4311700Y-338720D02*
X-4301540Y-338720D01*
X-4296460Y-338720D02*
X-4276140Y-338720D01*
X-4199940Y-338720D02*
X-4189780Y-338720D01*
X-4184700Y-338720D02*
X-4164380Y-338720D01*
X-4108500Y-338720D02*
X-4088180Y-338720D01*
X-4037380Y-338720D02*
X-4027220Y-338720D01*
X-3915460Y-338720D02*
X-3895140Y-338720D01*
X-3813860Y-338720D02*
X-3803700Y-338720D01*
X-3773220Y-338720D02*
X-3752900Y-338720D01*
X-3702100Y-338720D02*
X-3681780Y-338720D01*
X-3636060Y-338720D02*
X-3615740Y-338720D01*
X-3463340Y-338720D02*
X-3453180Y-338720D01*
X-3448100Y-338720D02*
X-3427780Y-338720D01*
X-3366820Y-338720D02*
X-3361740Y-338720D01*
X-3316020Y-338720D02*
X-3295700Y-338720D01*
X-3249980Y-338720D02*
X-3244900Y-338720D01*
X-3214420Y-338720D02*
X-3194100Y-338720D01*
X-3138220Y-338720D02*
X-3117900Y-338720D01*
X-3046780Y-338720D02*
X-3036620Y-338720D01*
X-2995980Y-338720D02*
X-2975660Y-338720D01*
X-2813100Y-338720D02*
X-2792780Y-338720D01*
X-2675940Y-338720D02*
X-2640380Y-338720D01*
X-2579420Y-338720D02*
X-2569260Y-338720D01*
X-2528620Y-338720D02*
X-2508300Y-338720D01*
X-2421940Y-338720D02*
X-2411780Y-338720D01*
X-2371140Y-338720D02*
X-2350820Y-338720D01*
X-2300020Y-338720D02*
X-2264460Y-338720D01*
X-2203500Y-338720D02*
X-2193340Y-338720D01*
X-2152700Y-338720D02*
X-2132380Y-338720D01*
X-2020620Y-338720D02*
X-2000300Y-338720D01*
X-1888540Y-338720D02*
X-1868220Y-338720D01*
X-1817420Y-338720D02*
X-1797100Y-338720D01*
X-1746300Y-338720D02*
X-1725980Y-338720D01*
X-1675180Y-338720D02*
X-1639620Y-338720D01*
X-1578660Y-338720D02*
X-1568500Y-338720D01*
X-1527860Y-338720D02*
X-1507540Y-338720D01*
X-1421180Y-338720D02*
X-1411020Y-338720D01*
X-4311700Y-333640D02*
X-4301540Y-333640D01*
X-4296460Y-333640D02*
X-4271060Y-333640D01*
X-4199940Y-333640D02*
X-4189780Y-333640D01*
X-4184700Y-333640D02*
X-4164380Y-333640D01*
X-4108500Y-333640D02*
X-4083100Y-333640D01*
X-4042460Y-333640D02*
X-4032300Y-333640D01*
X-3920540Y-333640D02*
X-3895140Y-333640D01*
X-3808780Y-333640D02*
X-3803700Y-333640D01*
X-3773220Y-333640D02*
X-3752900Y-333640D01*
X-3702100Y-333640D02*
X-3681780Y-333640D01*
X-3636060Y-333640D02*
X-3615740Y-333640D01*
X-3468420Y-333640D02*
X-3453180Y-333640D01*
X-3448100Y-333640D02*
X-3427780Y-333640D01*
X-3316020Y-333640D02*
X-3295700Y-333640D01*
X-3214420Y-333640D02*
X-3194100Y-333640D01*
X-3138220Y-333640D02*
X-3112820Y-333640D01*
X-3046780Y-333640D02*
X-3036620Y-333640D01*
X-2995980Y-333640D02*
X-2975660Y-333640D01*
X-2813100Y-333640D02*
X-2792780Y-333640D01*
X-2675940Y-333640D02*
X-2665780Y-333640D01*
X-2660700Y-333640D02*
X-2635300Y-333640D01*
X-2579420Y-333640D02*
X-2569260Y-333640D01*
X-2533700Y-333640D02*
X-2508300Y-333640D01*
X-2416860Y-333640D02*
X-2411780Y-333640D01*
X-2371140Y-333640D02*
X-2350820Y-333640D01*
X-2300020Y-333640D02*
X-2289860Y-333640D01*
X-2284780Y-333640D02*
X-2259380Y-333640D01*
X-2203500Y-333640D02*
X-2193340Y-333640D01*
X-2152700Y-333640D02*
X-2132380Y-333640D01*
X-2020620Y-333640D02*
X-2000300Y-333640D01*
X-1888540Y-333640D02*
X-1868220Y-333640D01*
X-1817420Y-333640D02*
X-1797100Y-333640D01*
X-1746300Y-333640D02*
X-1725980Y-333640D01*
X-1675180Y-333640D02*
X-1665020Y-333640D01*
X-1659940Y-333640D02*
X-1634540Y-333640D01*
X-1578660Y-333640D02*
X-1568500Y-333640D01*
X-1532940Y-333640D02*
X-1507540Y-333640D01*
X-1416100Y-333640D02*
X-1411020Y-333640D01*
X-4311700Y-328560D02*
X-4301540Y-328560D01*
X-4291380Y-328560D02*
X-4271060Y-328560D01*
X-4205020Y-328560D02*
X-4194860Y-328560D01*
X-4184700Y-328560D02*
X-4164380Y-328560D01*
X-4103420Y-328560D02*
X-4078020Y-328560D01*
X-4042460Y-328560D02*
X-4032300Y-328560D01*
X-3920540Y-328560D02*
X-3895140Y-328560D01*
X-3808780Y-328560D02*
X-3803700Y-328560D01*
X-3773220Y-328560D02*
X-3752900Y-328560D01*
X-3702100Y-328560D02*
X-3681780Y-328560D01*
X-3636060Y-328560D02*
X-3615740Y-328560D01*
X-3559860Y-328560D02*
X-3554780Y-328560D01*
X-3468420Y-328560D02*
X-3458260Y-328560D01*
X-3443020Y-328560D02*
X-3422700Y-328560D01*
X-3316020Y-328560D02*
X-3295700Y-328560D01*
X-3214420Y-328560D02*
X-3194100Y-328560D01*
X-3133140Y-328560D02*
X-3112820Y-328560D01*
X-3051860Y-328560D02*
X-3041700Y-328560D01*
X-2995980Y-328560D02*
X-2975660Y-328560D01*
X-2919780Y-328560D02*
X-2914700Y-328560D01*
X-2813100Y-328560D02*
X-2792780Y-328560D01*
X-2736900Y-328560D02*
X-2731820Y-328560D01*
X-2675940Y-328560D02*
X-2665780Y-328560D01*
X-2655620Y-328560D02*
X-2630220Y-328560D01*
X-2579420Y-328560D02*
X-2569260Y-328560D01*
X-2533700Y-328560D02*
X-2508300Y-328560D01*
X-2371140Y-328560D02*
X-2350820Y-328560D01*
X-2300020Y-328560D02*
X-2289860Y-328560D01*
X-2279700Y-328560D02*
X-2254300Y-328560D01*
X-2203500Y-328560D02*
X-2193340Y-328560D01*
X-2152700Y-328560D02*
X-2132380Y-328560D01*
X-2076500Y-328560D02*
X-2071420Y-328560D01*
X-2020620Y-328560D02*
X-2000300Y-328560D01*
X-1944420Y-328560D02*
X-1939340Y-328560D01*
X-1888540Y-328560D02*
X-1868220Y-328560D01*
X-1817420Y-328560D02*
X-1797100Y-328560D01*
X-1746300Y-328560D02*
X-1725980Y-328560D01*
X-1675180Y-328560D02*
X-1665020Y-328560D01*
X-1654860Y-328560D02*
X-1629460Y-328560D01*
X-1578660Y-328560D02*
X-1568500Y-328560D01*
X-1532940Y-328560D02*
X-1507540Y-328560D01*
X-4311700Y-323480D02*
X-4301540Y-323480D01*
X-4291380Y-323480D02*
X-4265980Y-323480D01*
X-4205020Y-323480D02*
X-4194860Y-323480D01*
X-4184700Y-323480D02*
X-4164380Y-323480D01*
X-4098340Y-323480D02*
X-4078020Y-323480D01*
X-4047540Y-323480D02*
X-4037380Y-323480D01*
X-3920540Y-323480D02*
X-3900220Y-323480D01*
X-3773220Y-323480D02*
X-3752900Y-323480D01*
X-3707180Y-323480D02*
X-3681780Y-323480D01*
X-3636060Y-323480D02*
X-3615740Y-323480D01*
X-3559860Y-323480D02*
X-3554780Y-323480D01*
X-3468420Y-323480D02*
X-3458260Y-323480D01*
X-3443020Y-323480D02*
X-3422700Y-323480D01*
X-3316020Y-323480D02*
X-3295700Y-323480D01*
X-3214420Y-323480D02*
X-3194100Y-323480D01*
X-3133140Y-323480D02*
X-3107740Y-323480D01*
X-3051860Y-323480D02*
X-3041700Y-323480D01*
X-2995980Y-323480D02*
X-2975660Y-323480D01*
X-2919780Y-323480D02*
X-2914700Y-323480D01*
X-2813100Y-323480D02*
X-2792780Y-323480D01*
X-2736900Y-323480D02*
X-2731820Y-323480D01*
X-2675940Y-323480D02*
X-2665780Y-323480D01*
X-2650540Y-323480D02*
X-2625140Y-323480D01*
X-2579420Y-323480D02*
X-2569260Y-323480D01*
X-2533700Y-323480D02*
X-2513380Y-323480D01*
X-2371140Y-323480D02*
X-2350820Y-323480D01*
X-2300020Y-323480D02*
X-2289860Y-323480D01*
X-2274620Y-323480D02*
X-2249220Y-323480D01*
X-2203500Y-323480D02*
X-2193340Y-323480D01*
X-2152700Y-323480D02*
X-2132380Y-323480D01*
X-2076500Y-323480D02*
X-2071420Y-323480D01*
X-2020620Y-323480D02*
X-2000300Y-323480D01*
X-1944420Y-323480D02*
X-1939340Y-323480D01*
X-1888540Y-323480D02*
X-1868220Y-323480D01*
X-1822500Y-323480D02*
X-1797100Y-323480D01*
X-1746300Y-323480D02*
X-1725980Y-323480D01*
X-1675180Y-323480D02*
X-1665020Y-323480D01*
X-1649780Y-323480D02*
X-1624380Y-323480D01*
X-1578660Y-323480D02*
X-1568500Y-323480D01*
X-1532940Y-323480D02*
X-1512620Y-323480D01*
X-4311700Y-318400D02*
X-4301540Y-318400D01*
X-4286300Y-318400D02*
X-4265980Y-318400D01*
X-4210100Y-318400D02*
X-4199940Y-318400D01*
X-4184700Y-318400D02*
X-4164380Y-318400D01*
X-4098340Y-318400D02*
X-4072940Y-318400D01*
X-4047540Y-318400D02*
X-4037380Y-318400D01*
X-3925620Y-318400D02*
X-3900220Y-318400D01*
X-3773220Y-318400D02*
X-3752900Y-318400D01*
X-3707180Y-318400D02*
X-3681780Y-318400D01*
X-3636060Y-318400D02*
X-3615740Y-318400D01*
X-3564940Y-318400D02*
X-3554780Y-318400D01*
X-3473500Y-318400D02*
X-3463340Y-318400D01*
X-3443020Y-318400D02*
X-3422700Y-318400D01*
X-3316020Y-318400D02*
X-3295700Y-318400D01*
X-3214420Y-318400D02*
X-3194100Y-318400D01*
X-3128060Y-318400D02*
X-3107740Y-318400D01*
X-3056940Y-318400D02*
X-3046780Y-318400D01*
X-2995980Y-318400D02*
X-2975660Y-318400D01*
X-2924860Y-318400D02*
X-2914700Y-318400D01*
X-2813100Y-318400D02*
X-2792780Y-318400D01*
X-2741980Y-318400D02*
X-2731820Y-318400D01*
X-2675940Y-318400D02*
X-2665780Y-318400D01*
X-2650540Y-318400D02*
X-2625140Y-318400D01*
X-2579420Y-318400D02*
X-2569260Y-318400D01*
X-2538780Y-318400D02*
X-2513380Y-318400D01*
X-2371140Y-318400D02*
X-2350820Y-318400D01*
X-2300020Y-318400D02*
X-2289860Y-318400D01*
X-2274620Y-318400D02*
X-2249220Y-318400D01*
X-2203500Y-318400D02*
X-2193340Y-318400D01*
X-2152700Y-318400D02*
X-2132380Y-318400D01*
X-2081580Y-318400D02*
X-2071420Y-318400D01*
X-2020620Y-318400D02*
X-2000300Y-318400D01*
X-1949500Y-318400D02*
X-1939340Y-318400D01*
X-1888540Y-318400D02*
X-1868220Y-318400D01*
X-1822500Y-318400D02*
X-1797100Y-318400D01*
X-1746300Y-318400D02*
X-1725980Y-318400D01*
X-1675180Y-318400D02*
X-1665020Y-318400D01*
X-1649780Y-318400D02*
X-1624380Y-318400D01*
X-1578660Y-318400D02*
X-1568500Y-318400D01*
X-1538020Y-318400D02*
X-1512620Y-318400D01*
X-4311700Y-313320D02*
X-4301540Y-313320D01*
X-4286300Y-313320D02*
X-4260900Y-313320D01*
X-4210100Y-313320D02*
X-4199940Y-313320D01*
X-4184700Y-313320D02*
X-4164380Y-313320D01*
X-4093260Y-313320D02*
X-4067860Y-313320D01*
X-4052620Y-313320D02*
X-4042460Y-313320D01*
X-3925620Y-313320D02*
X-3900220Y-313320D01*
X-3773220Y-313320D02*
X-3752900Y-313320D01*
X-3712260Y-313320D02*
X-3686860Y-313320D01*
X-3636060Y-313320D02*
X-3615740Y-313320D01*
X-3564940Y-313320D02*
X-3554780Y-313320D01*
X-3473500Y-313320D02*
X-3463340Y-313320D01*
X-3437940Y-313320D02*
X-3417620Y-313320D01*
X-3316020Y-313320D02*
X-3295700Y-313320D01*
X-3214420Y-313320D02*
X-3194100Y-313320D01*
X-3128060Y-313320D02*
X-3107740Y-313320D01*
X-3056940Y-313320D02*
X-3046780Y-313320D01*
X-2995980Y-313320D02*
X-2975660Y-313320D01*
X-2924860Y-313320D02*
X-2914700Y-313320D01*
X-2813100Y-313320D02*
X-2792780Y-313320D01*
X-2741980Y-313320D02*
X-2731820Y-313320D01*
X-2675940Y-313320D02*
X-2665780Y-313320D01*
X-2645460Y-313320D02*
X-2620060Y-313320D01*
X-2579420Y-313320D02*
X-2569260Y-313320D01*
X-2538780Y-313320D02*
X-2513380Y-313320D01*
X-2371140Y-313320D02*
X-2350820Y-313320D01*
X-2300020Y-313320D02*
X-2289860Y-313320D01*
X-2269540Y-313320D02*
X-2244140Y-313320D01*
X-2203500Y-313320D02*
X-2193340Y-313320D01*
X-2152700Y-313320D02*
X-2132380Y-313320D01*
X-2081580Y-313320D02*
X-2071420Y-313320D01*
X-2020620Y-313320D02*
X-2000300Y-313320D01*
X-1949500Y-313320D02*
X-1939340Y-313320D01*
X-1888540Y-313320D02*
X-1868220Y-313320D01*
X-1827580Y-313320D02*
X-1802180Y-313320D01*
X-1746300Y-313320D02*
X-1725980Y-313320D01*
X-1675180Y-313320D02*
X-1665020Y-313320D01*
X-1644700Y-313320D02*
X-1619300Y-313320D01*
X-1578660Y-313320D02*
X-1568500Y-313320D01*
X-1538020Y-313320D02*
X-1512620Y-313320D01*
X-4311700Y-308240D02*
X-4301540Y-308240D01*
X-4281220Y-308240D02*
X-4260900Y-308240D01*
X-4215180Y-308240D02*
X-4205020Y-308240D01*
X-4184700Y-308240D02*
X-4164380Y-308240D01*
X-4088180Y-308240D02*
X-4067860Y-308240D01*
X-4052620Y-308240D02*
X-4042460Y-308240D01*
X-3925620Y-308240D02*
X-3900220Y-308240D01*
X-3773220Y-308240D02*
X-3752900Y-308240D01*
X-3717340Y-308240D02*
X-3691940Y-308240D01*
X-3636060Y-308240D02*
X-3554780Y-308240D01*
X-3478580Y-308240D02*
X-3463340Y-308240D01*
X-3437940Y-308240D02*
X-3417620Y-308240D01*
X-3316020Y-308240D02*
X-3295700Y-308240D01*
X-3214420Y-308240D02*
X-3194100Y-308240D01*
X-3122980Y-308240D02*
X-3102660Y-308240D01*
X-3056940Y-308240D02*
X-3046780Y-308240D01*
X-2995980Y-308240D02*
X-2914700Y-308240D01*
X-2813100Y-308240D02*
X-2731820Y-308240D01*
X-2675940Y-308240D02*
X-2665780Y-308240D01*
X-2640380Y-308240D02*
X-2614980Y-308240D01*
X-2579420Y-308240D02*
X-2569260Y-308240D01*
X-2538780Y-308240D02*
X-2513380Y-308240D01*
X-2371140Y-308240D02*
X-2350820Y-308240D01*
X-2300020Y-308240D02*
X-2289860Y-308240D01*
X-2264460Y-308240D02*
X-2239060Y-308240D01*
X-2203500Y-308240D02*
X-2193340Y-308240D01*
X-2152700Y-308240D02*
X-2071420Y-308240D01*
X-2020620Y-308240D02*
X-1939340Y-308240D01*
X-1888540Y-308240D02*
X-1868220Y-308240D01*
X-1832660Y-308240D02*
X-1807260Y-308240D01*
X-1746300Y-308240D02*
X-1725980Y-308240D01*
X-1675180Y-308240D02*
X-1665020Y-308240D01*
X-1639620Y-308240D02*
X-1614220Y-308240D01*
X-1578660Y-308240D02*
X-1568500Y-308240D01*
X-1538020Y-308240D02*
X-1512620Y-308240D01*
X-4311700Y-303160D02*
X-4301540Y-303160D01*
X-4281220Y-303160D02*
X-4255820Y-303160D01*
X-4215180Y-303160D02*
X-4205020Y-303160D01*
X-4184700Y-303160D02*
X-4164380Y-303160D01*
X-4088180Y-303160D02*
X-4062780Y-303160D01*
X-4057700Y-303160D02*
X-4047540Y-303160D01*
X-3925620Y-303160D02*
X-3900220Y-303160D01*
X-3773220Y-303160D02*
X-3752900Y-303160D01*
X-3727500Y-303160D02*
X-3691940Y-303160D01*
X-3636060Y-303160D02*
X-3554780Y-303160D01*
X-3478580Y-303160D02*
X-3468420Y-303160D01*
X-3437940Y-303160D02*
X-3412540Y-303160D01*
X-3316020Y-303160D02*
X-3295700Y-303160D01*
X-3214420Y-303160D02*
X-3194100Y-303160D01*
X-3122980Y-303160D02*
X-3102660Y-303160D01*
X-3062020Y-303160D02*
X-3051860Y-303160D01*
X-2995980Y-303160D02*
X-2914700Y-303160D01*
X-2813100Y-303160D02*
X-2731820Y-303160D01*
X-2675940Y-303160D02*
X-2665780Y-303160D01*
X-2635300Y-303160D02*
X-2609900Y-303160D01*
X-2579420Y-303160D02*
X-2569260Y-303160D01*
X-2538780Y-303160D02*
X-2513380Y-303160D01*
X-2452420Y-303160D02*
X-2396540Y-303160D01*
X-2371140Y-303160D02*
X-2350820Y-303160D01*
X-2300020Y-303160D02*
X-2289860Y-303160D01*
X-2259380Y-303160D02*
X-2233980Y-303160D01*
X-2203500Y-303160D02*
X-2193340Y-303160D01*
X-2152700Y-303160D02*
X-2071420Y-303160D01*
X-2020620Y-303160D02*
X-1939340Y-303160D01*
X-1888540Y-303160D02*
X-1868220Y-303160D01*
X-1842820Y-303160D02*
X-1807260Y-303160D01*
X-1746300Y-303160D02*
X-1725980Y-303160D01*
X-1675180Y-303160D02*
X-1665020Y-303160D01*
X-1634540Y-303160D02*
X-1609140Y-303160D01*
X-1578660Y-303160D02*
X-1568500Y-303160D01*
X-1538020Y-303160D02*
X-1512620Y-303160D01*
X-1451660Y-303160D02*
X-1395780Y-303160D01*
X-4311700Y-298080D02*
X-4301540Y-298080D01*
X-4276140Y-298080D02*
X-4255820Y-298080D01*
X-4220260Y-298080D02*
X-4210100Y-298080D01*
X-4184700Y-298080D02*
X-4164380Y-298080D01*
X-4083100Y-298080D02*
X-4052620Y-298080D01*
X-3925620Y-298080D02*
X-3900220Y-298080D01*
X-3773220Y-298080D02*
X-3702100Y-298080D01*
X-3636060Y-298080D02*
X-3615740Y-298080D01*
X-3564940Y-298080D02*
X-3554780Y-298080D01*
X-3478580Y-298080D02*
X-3468420Y-298080D01*
X-3432860Y-298080D02*
X-3412540Y-298080D01*
X-3316020Y-298080D02*
X-3295700Y-298080D01*
X-3214420Y-298080D02*
X-3194100Y-298080D01*
X-3117900Y-298080D02*
X-3097580Y-298080D01*
X-3062020Y-298080D02*
X-3051860Y-298080D01*
X-2995980Y-298080D02*
X-2975660Y-298080D01*
X-2924860Y-298080D02*
X-2914700Y-298080D01*
X-2813100Y-298080D02*
X-2792780Y-298080D01*
X-2741980Y-298080D02*
X-2731820Y-298080D01*
X-2675940Y-298080D02*
X-2665780Y-298080D01*
X-2630220Y-298080D02*
X-2604820Y-298080D01*
X-2579420Y-298080D02*
X-2569260Y-298080D01*
X-2538780Y-298080D02*
X-2513380Y-298080D01*
X-2437180Y-298080D02*
X-2406700Y-298080D01*
X-2371140Y-298080D02*
X-2350820Y-298080D01*
X-2300020Y-298080D02*
X-2289860Y-298080D01*
X-2254300Y-298080D02*
X-2228900Y-298080D01*
X-2203500Y-298080D02*
X-2193340Y-298080D01*
X-2152700Y-298080D02*
X-2132380Y-298080D01*
X-2081580Y-298080D02*
X-2071420Y-298080D01*
X-2020620Y-298080D02*
X-2000300Y-298080D01*
X-1949500Y-298080D02*
X-1939340Y-298080D01*
X-1888540Y-298080D02*
X-1817420Y-298080D01*
X-1746300Y-298080D02*
X-1725980Y-298080D01*
X-1675180Y-298080D02*
X-1665020Y-298080D01*
X-1629460Y-298080D02*
X-1604060Y-298080D01*
X-1578660Y-298080D02*
X-1568500Y-298080D01*
X-1538020Y-298080D02*
X-1512620Y-298080D01*
X-1436420Y-298080D02*
X-1405940Y-298080D01*
X-4311700Y-293000D02*
X-4301540Y-293000D01*
X-4276140Y-293000D02*
X-4255820Y-293000D01*
X-4220260Y-293000D02*
X-4210100Y-293000D01*
X-4184700Y-293000D02*
X-4164380Y-293000D01*
X-4078020Y-293000D02*
X-4052620Y-293000D01*
X-3925620Y-293000D02*
X-3900220Y-293000D01*
X-3773220Y-293000D02*
X-3712260Y-293000D01*
X-3636060Y-293000D02*
X-3615740Y-293000D01*
X-3564940Y-293000D02*
X-3554780Y-293000D01*
X-3483660Y-293000D02*
X-3473500Y-293000D01*
X-3432860Y-293000D02*
X-3412540Y-293000D01*
X-3316020Y-293000D02*
X-3295700Y-293000D01*
X-3214420Y-293000D02*
X-3194100Y-293000D01*
X-3117900Y-293000D02*
X-3097580Y-293000D01*
X-3067100Y-293000D02*
X-3056940Y-293000D01*
X-2995980Y-293000D02*
X-2975660Y-293000D01*
X-2924860Y-293000D02*
X-2914700Y-293000D01*
X-2813100Y-293000D02*
X-2792780Y-293000D01*
X-2741980Y-293000D02*
X-2731820Y-293000D01*
X-2675940Y-293000D02*
X-2665780Y-293000D01*
X-2630220Y-293000D02*
X-2604820Y-293000D01*
X-2579420Y-293000D02*
X-2569260Y-293000D01*
X-2538780Y-293000D02*
X-2513380Y-293000D01*
X-2432100Y-293000D02*
X-2411780Y-293000D01*
X-2371140Y-293000D02*
X-2350820Y-293000D01*
X-2300020Y-293000D02*
X-2289860Y-293000D01*
X-2254300Y-293000D02*
X-2228900Y-293000D01*
X-2203500Y-293000D02*
X-2193340Y-293000D01*
X-2152700Y-293000D02*
X-2132380Y-293000D01*
X-2081580Y-293000D02*
X-2071420Y-293000D01*
X-2020620Y-293000D02*
X-2000300Y-293000D01*
X-1949500Y-293000D02*
X-1939340Y-293000D01*
X-1888540Y-293000D02*
X-1827580Y-293000D01*
X-1746300Y-293000D02*
X-1725980Y-293000D01*
X-1675180Y-293000D02*
X-1665020Y-293000D01*
X-1629460Y-293000D02*
X-1604060Y-293000D01*
X-1578660Y-293000D02*
X-1568500Y-293000D01*
X-1538020Y-293000D02*
X-1512620Y-293000D01*
X-1431340Y-293000D02*
X-1411020Y-293000D01*
X-4311700Y-287920D02*
X-4301540Y-287920D01*
X-4271060Y-287920D02*
X-4250740Y-287920D01*
X-4225340Y-287920D02*
X-4215180Y-287920D01*
X-4184700Y-287920D02*
X-4164380Y-287920D01*
X-4078020Y-287920D02*
X-4057700Y-287920D01*
X-3925620Y-287920D02*
X-3900220Y-287920D01*
X-3773220Y-287920D02*
X-3752900Y-287920D01*
X-3727500Y-287920D02*
X-3707180Y-287920D01*
X-3636060Y-287920D02*
X-3615740Y-287920D01*
X-3559860Y-287920D02*
X-3554780Y-287920D01*
X-3483660Y-287920D02*
X-3473500Y-287920D01*
X-3427780Y-287920D02*
X-3407460Y-287920D01*
X-3316020Y-287920D02*
X-3295700Y-287920D01*
X-3214420Y-287920D02*
X-3194100Y-287920D01*
X-3117900Y-287920D02*
X-3092500Y-287920D01*
X-3067100Y-287920D02*
X-3056940Y-287920D01*
X-2995980Y-287920D02*
X-2975660Y-287920D01*
X-2919780Y-287920D02*
X-2914700Y-287920D01*
X-2813100Y-287920D02*
X-2792780Y-287920D01*
X-2736900Y-287920D02*
X-2731820Y-287920D01*
X-2675940Y-287920D02*
X-2665780Y-287920D01*
X-2625140Y-287920D02*
X-2599740Y-287920D01*
X-2579420Y-287920D02*
X-2569260Y-287920D01*
X-2538780Y-287920D02*
X-2513380Y-287920D01*
X-2432100Y-287920D02*
X-2411780Y-287920D01*
X-2371140Y-287920D02*
X-2350820Y-287920D01*
X-2300020Y-287920D02*
X-2289860Y-287920D01*
X-2249220Y-287920D02*
X-2223820Y-287920D01*
X-2203500Y-287920D02*
X-2193340Y-287920D01*
X-2152700Y-287920D02*
X-2132380Y-287920D01*
X-2076500Y-287920D02*
X-2071420Y-287920D01*
X-2020620Y-287920D02*
X-2000300Y-287920D01*
X-1944420Y-287920D02*
X-1939340Y-287920D01*
X-1888540Y-287920D02*
X-1868220Y-287920D01*
X-1842820Y-287920D02*
X-1822500Y-287920D01*
X-1746300Y-287920D02*
X-1725980Y-287920D01*
X-1675180Y-287920D02*
X-1665020Y-287920D01*
X-1624380Y-287920D02*
X-1598980Y-287920D01*
X-1578660Y-287920D02*
X-1568500Y-287920D01*
X-1538020Y-287920D02*
X-1512620Y-287920D01*
X-1431340Y-287920D02*
X-1411020Y-287920D01*
X-4311700Y-282840D02*
X-4301540Y-282840D01*
X-4271060Y-282840D02*
X-4250740Y-282840D01*
X-4225340Y-282840D02*
X-4215180Y-282840D01*
X-4184700Y-282840D02*
X-4164380Y-282840D01*
X-4078020Y-282840D02*
X-4057700Y-282840D01*
X-3925620Y-282840D02*
X-3900220Y-282840D01*
X-3773220Y-282840D02*
X-3752900Y-282840D01*
X-3727500Y-282840D02*
X-3702100Y-282840D01*
X-3636060Y-282840D02*
X-3615740Y-282840D01*
X-3559860Y-282840D02*
X-3554780Y-282840D01*
X-3488740Y-282840D02*
X-3407460Y-282840D01*
X-3316020Y-282840D02*
X-3295700Y-282840D01*
X-3214420Y-282840D02*
X-3194100Y-282840D01*
X-3112820Y-282840D02*
X-3092500Y-282840D01*
X-3067100Y-282840D02*
X-3056940Y-282840D01*
X-2995980Y-282840D02*
X-2975660Y-282840D01*
X-2919780Y-282840D02*
X-2914700Y-282840D01*
X-2813100Y-282840D02*
X-2792780Y-282840D01*
X-2736900Y-282840D02*
X-2731820Y-282840D01*
X-2675940Y-282840D02*
X-2665780Y-282840D01*
X-2620060Y-282840D02*
X-2594660Y-282840D01*
X-2579420Y-282840D02*
X-2569260Y-282840D01*
X-2538780Y-282840D02*
X-2513380Y-282840D01*
X-2432100Y-282840D02*
X-2411780Y-282840D01*
X-2371140Y-282840D02*
X-2350820Y-282840D01*
X-2300020Y-282840D02*
X-2289860Y-282840D01*
X-2244140Y-282840D02*
X-2218740Y-282840D01*
X-2203500Y-282840D02*
X-2193340Y-282840D01*
X-2152700Y-282840D02*
X-2132380Y-282840D01*
X-2076500Y-282840D02*
X-2071420Y-282840D01*
X-2020620Y-282840D02*
X-2000300Y-282840D01*
X-1944420Y-282840D02*
X-1939340Y-282840D01*
X-1888540Y-282840D02*
X-1868220Y-282840D01*
X-1842820Y-282840D02*
X-1817420Y-282840D01*
X-1746300Y-282840D02*
X-1725980Y-282840D01*
X-1675180Y-282840D02*
X-1665020Y-282840D01*
X-1619300Y-282840D02*
X-1593900Y-282840D01*
X-1578660Y-282840D02*
X-1568500Y-282840D01*
X-1538020Y-282840D02*
X-1512620Y-282840D01*
X-1431340Y-282840D02*
X-1411020Y-282840D01*
X-4311700Y-277760D02*
X-4301540Y-277760D01*
X-4265980Y-277760D02*
X-4245660Y-277760D01*
X-4230420Y-277760D02*
X-4220260Y-277760D01*
X-4184700Y-277760D02*
X-4164380Y-277760D01*
X-4078020Y-277760D02*
X-4057700Y-277760D01*
X-3925620Y-277760D02*
X-3900220Y-277760D01*
X-3773220Y-277760D02*
X-3752900Y-277760D01*
X-3722420Y-277760D02*
X-3702100Y-277760D01*
X-3636060Y-277760D02*
X-3615740Y-277760D01*
X-3488740Y-277760D02*
X-3402380Y-277760D01*
X-3316020Y-277760D02*
X-3295700Y-277760D01*
X-3214420Y-277760D02*
X-3194100Y-277760D01*
X-3112820Y-277760D02*
X-3087420Y-277760D01*
X-3072180Y-277760D02*
X-3062020Y-277760D01*
X-2995980Y-277760D02*
X-2975660Y-277760D01*
X-2813100Y-277760D02*
X-2792780Y-277760D01*
X-2675940Y-277760D02*
X-2665780Y-277760D01*
X-2614980Y-277760D02*
X-2589580Y-277760D01*
X-2579420Y-277760D02*
X-2569260Y-277760D01*
X-2533700Y-277760D02*
X-2508300Y-277760D01*
X-2432100Y-277760D02*
X-2411780Y-277760D01*
X-2371140Y-277760D02*
X-2350820Y-277760D01*
X-2300020Y-277760D02*
X-2289860Y-277760D01*
X-2239060Y-277760D02*
X-2213660Y-277760D01*
X-2203500Y-277760D02*
X-2193340Y-277760D01*
X-2152700Y-277760D02*
X-2132380Y-277760D01*
X-2020620Y-277760D02*
X-2000300Y-277760D01*
X-1888540Y-277760D02*
X-1868220Y-277760D01*
X-1837740Y-277760D02*
X-1817420Y-277760D01*
X-1746300Y-277760D02*
X-1725980Y-277760D01*
X-1675180Y-277760D02*
X-1665020Y-277760D01*
X-1614220Y-277760D02*
X-1588820Y-277760D01*
X-1578660Y-277760D02*
X-1568500Y-277760D01*
X-1532940Y-277760D02*
X-1507540Y-277760D01*
X-1431340Y-277760D02*
X-1411020Y-277760D01*
X-4311700Y-272680D02*
X-4301540Y-272680D01*
X-4265980Y-272680D02*
X-4245660Y-272680D01*
X-4230420Y-272680D02*
X-4220260Y-272680D01*
X-4184700Y-272680D02*
X-4164380Y-272680D01*
X-4078020Y-272680D02*
X-4057700Y-272680D01*
X-3920540Y-272680D02*
X-3895140Y-272680D01*
X-3773220Y-272680D02*
X-3752900Y-272680D01*
X-3717340Y-272680D02*
X-3697020Y-272680D01*
X-3636060Y-272680D02*
X-3615740Y-272680D01*
X-3493820Y-272680D02*
X-3478580Y-272680D01*
X-3422700Y-272680D02*
X-3402380Y-272680D01*
X-3316020Y-272680D02*
X-3295700Y-272680D01*
X-3214420Y-272680D02*
X-3194100Y-272680D01*
X-3107740Y-272680D02*
X-3087420Y-272680D01*
X-3072180Y-272680D02*
X-3062020Y-272680D01*
X-2995980Y-272680D02*
X-2975660Y-272680D01*
X-2813100Y-272680D02*
X-2792780Y-272680D01*
X-2675940Y-272680D02*
X-2665780Y-272680D01*
X-2609900Y-272680D02*
X-2584500Y-272680D01*
X-2579420Y-272680D02*
X-2569260Y-272680D01*
X-2533700Y-272680D02*
X-2508300Y-272680D01*
X-2432100Y-272680D02*
X-2411780Y-272680D01*
X-2371140Y-272680D02*
X-2350820Y-272680D01*
X-2300020Y-272680D02*
X-2289860Y-272680D01*
X-2233980Y-272680D02*
X-2208580Y-272680D01*
X-2203500Y-272680D02*
X-2193340Y-272680D01*
X-2152700Y-272680D02*
X-2132380Y-272680D01*
X-2020620Y-272680D02*
X-2000300Y-272680D01*
X-1888540Y-272680D02*
X-1868220Y-272680D01*
X-1832660Y-272680D02*
X-1812340Y-272680D01*
X-1746300Y-272680D02*
X-1725980Y-272680D01*
X-1675180Y-272680D02*
X-1665020Y-272680D01*
X-1609140Y-272680D02*
X-1583740Y-272680D01*
X-1578660Y-272680D02*
X-1568500Y-272680D01*
X-1532940Y-272680D02*
X-1507540Y-272680D01*
X-1431340Y-272680D02*
X-1411020Y-272680D01*
X-4311700Y-267600D02*
X-4301540Y-267600D01*
X-4265980Y-267600D02*
X-4240580Y-267600D01*
X-4235500Y-267600D02*
X-4220260Y-267600D01*
X-4184700Y-267600D02*
X-4164380Y-267600D01*
X-4078020Y-267600D02*
X-4057700Y-267600D01*
X-3920540Y-267600D02*
X-3895140Y-267600D01*
X-3773220Y-267600D02*
X-3752900Y-267600D01*
X-3712260Y-267600D02*
X-3691940Y-267600D01*
X-3636060Y-267600D02*
X-3615740Y-267600D01*
X-3493820Y-267600D02*
X-3483660Y-267600D01*
X-3422700Y-267600D02*
X-3402380Y-267600D01*
X-3316020Y-267600D02*
X-3295700Y-267600D01*
X-3214420Y-267600D02*
X-3194100Y-267600D01*
X-3107740Y-267600D02*
X-3087420Y-267600D01*
X-3077260Y-267600D02*
X-3067100Y-267600D01*
X-2995980Y-267600D02*
X-2975660Y-267600D01*
X-2813100Y-267600D02*
X-2792780Y-267600D01*
X-2675940Y-267600D02*
X-2665780Y-267600D01*
X-2604820Y-267600D02*
X-2569260Y-267600D01*
X-2533700Y-267600D02*
X-2508300Y-267600D01*
X-2432100Y-267600D02*
X-2411780Y-267600D01*
X-2371140Y-267600D02*
X-2350820Y-267600D01*
X-2300020Y-267600D02*
X-2289860Y-267600D01*
X-2228900Y-267600D02*
X-2193340Y-267600D01*
X-2152700Y-267600D02*
X-2132380Y-267600D01*
X-2020620Y-267600D02*
X-2000300Y-267600D01*
X-1888540Y-267600D02*
X-1868220Y-267600D01*
X-1827580Y-267600D02*
X-1807260Y-267600D01*
X-1746300Y-267600D02*
X-1725980Y-267600D01*
X-1675180Y-267600D02*
X-1665020Y-267600D01*
X-1604060Y-267600D02*
X-1568500Y-267600D01*
X-1532940Y-267600D02*
X-1507540Y-267600D01*
X-1431340Y-267600D02*
X-1411020Y-267600D01*
X-4311700Y-262520D02*
X-4301540Y-262520D01*
X-4260900Y-262520D02*
X-4240580Y-262520D01*
X-4235500Y-262520D02*
X-4225340Y-262520D01*
X-4184700Y-262520D02*
X-4164380Y-262520D01*
X-4078020Y-262520D02*
X-4057700Y-262520D01*
X-3920540Y-262520D02*
X-3895140Y-262520D01*
X-3773220Y-262520D02*
X-3752900Y-262520D01*
X-3712260Y-262520D02*
X-3686860Y-262520D01*
X-3636060Y-262520D02*
X-3615740Y-262520D01*
X-3534460Y-262520D02*
X-3529380Y-262520D01*
X-3493820Y-262520D02*
X-3483660Y-262520D01*
X-3417620Y-262520D02*
X-3397300Y-262520D01*
X-3316020Y-262520D02*
X-3295700Y-262520D01*
X-3214420Y-262520D02*
X-3194100Y-262520D01*
X-3102660Y-262520D02*
X-3082340Y-262520D01*
X-3077260Y-262520D02*
X-3067100Y-262520D01*
X-2995980Y-262520D02*
X-2975660Y-262520D01*
X-2894380Y-262520D02*
X-2889300Y-262520D01*
X-2813100Y-262520D02*
X-2792780Y-262520D01*
X-2711500Y-262520D02*
X-2706420Y-262520D01*
X-2675940Y-262520D02*
X-2665780Y-262520D01*
X-2604820Y-262520D02*
X-2569260Y-262520D01*
X-2528620Y-262520D02*
X-2503220Y-262520D01*
X-2432100Y-262520D02*
X-2411780Y-262520D01*
X-2371140Y-262520D02*
X-2350820Y-262520D01*
X-2300020Y-262520D02*
X-2289860Y-262520D01*
X-2228900Y-262520D02*
X-2193340Y-262520D01*
X-2152700Y-262520D02*
X-2132380Y-262520D01*
X-2051100Y-262520D02*
X-2046020Y-262520D01*
X-2020620Y-262520D02*
X-2000300Y-262520D01*
X-1919020Y-262520D02*
X-1913940Y-262520D01*
X-1888540Y-262520D02*
X-1868220Y-262520D01*
X-1827580Y-262520D02*
X-1802180Y-262520D01*
X-1746300Y-262520D02*
X-1725980Y-262520D01*
X-1675180Y-262520D02*
X-1665020Y-262520D01*
X-1604060Y-262520D02*
X-1568500Y-262520D01*
X-1527860Y-262520D02*
X-1502460Y-262520D01*
X-1431340Y-262520D02*
X-1411020Y-262520D01*
X-4311700Y-257440D02*
X-4301540Y-257440D01*
X-4260900Y-257440D02*
X-4225340Y-257440D01*
X-4184700Y-257440D02*
X-4164380Y-257440D01*
X-4078020Y-257440D02*
X-4057700Y-257440D01*
X-3915460Y-257440D02*
X-3890060Y-257440D01*
X-3803700Y-257440D02*
X-3798620Y-257440D01*
X-3773220Y-257440D02*
X-3752900Y-257440D01*
X-3707180Y-257440D02*
X-3686860Y-257440D01*
X-3636060Y-257440D02*
X-3615740Y-257440D01*
X-3539540Y-257440D02*
X-3534460Y-257440D01*
X-3498900Y-257440D02*
X-3488740Y-257440D01*
X-3417620Y-257440D02*
X-3397300Y-257440D01*
X-3316020Y-257440D02*
X-3295700Y-257440D01*
X-3214420Y-257440D02*
X-3194100Y-257440D01*
X-3102660Y-257440D02*
X-3082340Y-257440D01*
X-3077260Y-257440D02*
X-3067100Y-257440D01*
X-2995980Y-257440D02*
X-2975660Y-257440D01*
X-2899460Y-257440D02*
X-2894380Y-257440D01*
X-2813100Y-257440D02*
X-2792780Y-257440D01*
X-2716580Y-257440D02*
X-2711500Y-257440D01*
X-2675940Y-257440D02*
X-2665780Y-257440D01*
X-2599740Y-257440D02*
X-2569260Y-257440D01*
X-2528620Y-257440D02*
X-2503220Y-257440D01*
X-2432100Y-257440D02*
X-2411780Y-257440D01*
X-2371140Y-257440D02*
X-2350820Y-257440D01*
X-2300020Y-257440D02*
X-2289860Y-257440D01*
X-2223820Y-257440D02*
X-2193340Y-257440D01*
X-2152700Y-257440D02*
X-2132380Y-257440D01*
X-2056180Y-257440D02*
X-2051100Y-257440D01*
X-2020620Y-257440D02*
X-2000300Y-257440D01*
X-1924100Y-257440D02*
X-1919020Y-257440D01*
X-1888540Y-257440D02*
X-1868220Y-257440D01*
X-1822500Y-257440D02*
X-1802180Y-257440D01*
X-1746300Y-257440D02*
X-1725980Y-257440D01*
X-1675180Y-257440D02*
X-1665020Y-257440D01*
X-1598980Y-257440D02*
X-1568500Y-257440D01*
X-1527860Y-257440D02*
X-1502460Y-257440D01*
X-1431340Y-257440D02*
X-1411020Y-257440D01*
X-4311700Y-252360D02*
X-4301540Y-252360D01*
X-4255820Y-252360D02*
X-4230420Y-252360D01*
X-4184700Y-252360D02*
X-4164380Y-252360D01*
X-4078020Y-252360D02*
X-4057700Y-252360D01*
X-3910380Y-252360D02*
X-3890060Y-252360D01*
X-3808780Y-252360D02*
X-3803700Y-252360D01*
X-3773220Y-252360D02*
X-3752900Y-252360D01*
X-3702100Y-252360D02*
X-3681780Y-252360D01*
X-3636060Y-252360D02*
X-3615740Y-252360D01*
X-3544620Y-252360D02*
X-3534460Y-252360D01*
X-3498900Y-252360D02*
X-3488740Y-252360D01*
X-3412540Y-252360D02*
X-3392220Y-252360D01*
X-3316020Y-252360D02*
X-3295700Y-252360D01*
X-3214420Y-252360D02*
X-3194100Y-252360D01*
X-3097580Y-252360D02*
X-3072180Y-252360D01*
X-2995980Y-252360D02*
X-2975660Y-252360D01*
X-2904540Y-252360D02*
X-2894380Y-252360D01*
X-2813100Y-252360D02*
X-2792780Y-252360D01*
X-2721660Y-252360D02*
X-2711500Y-252360D01*
X-2675940Y-252360D02*
X-2665780Y-252360D01*
X-2594660Y-252360D02*
X-2569260Y-252360D01*
X-2523540Y-252360D02*
X-2498140Y-252360D01*
X-2432100Y-252360D02*
X-2411780Y-252360D01*
X-2371140Y-252360D02*
X-2350820Y-252360D01*
X-2300020Y-252360D02*
X-2289860Y-252360D01*
X-2218740Y-252360D02*
X-2193340Y-252360D01*
X-2152700Y-252360D02*
X-2132380Y-252360D01*
X-2061260Y-252360D02*
X-2051100Y-252360D01*
X-2020620Y-252360D02*
X-2000300Y-252360D01*
X-1929180Y-252360D02*
X-1919020Y-252360D01*
X-1888540Y-252360D02*
X-1868220Y-252360D01*
X-1817420Y-252360D02*
X-1797100Y-252360D01*
X-1746300Y-252360D02*
X-1725980Y-252360D01*
X-1675180Y-252360D02*
X-1665020Y-252360D01*
X-1593900Y-252360D02*
X-1568500Y-252360D01*
X-1522780Y-252360D02*
X-1497380Y-252360D01*
X-1431340Y-252360D02*
X-1411020Y-252360D01*
X-4311700Y-247280D02*
X-4301540Y-247280D01*
X-4255820Y-247280D02*
X-4230420Y-247280D01*
X-4184700Y-247280D02*
X-4164380Y-247280D01*
X-4078020Y-247280D02*
X-4057700Y-247280D01*
X-3910380Y-247280D02*
X-3884980Y-247280D01*
X-3813860Y-247280D02*
X-3808780Y-247280D01*
X-3773220Y-247280D02*
X-3752900Y-247280D01*
X-3702100Y-247280D02*
X-3676700Y-247280D01*
X-3636060Y-247280D02*
X-3615740Y-247280D01*
X-3549700Y-247280D02*
X-3534460Y-247280D01*
X-3503980Y-247280D02*
X-3493820Y-247280D01*
X-3412540Y-247280D02*
X-3392220Y-247280D01*
X-3316020Y-247280D02*
X-3295700Y-247280D01*
X-3214420Y-247280D02*
X-3194100Y-247280D01*
X-3097580Y-247280D02*
X-3072180Y-247280D01*
X-2995980Y-247280D02*
X-2975660Y-247280D01*
X-2909620Y-247280D02*
X-2894380Y-247280D01*
X-2813100Y-247280D02*
X-2792780Y-247280D01*
X-2726740Y-247280D02*
X-2711500Y-247280D01*
X-2675940Y-247280D02*
X-2665780Y-247280D01*
X-2589580Y-247280D02*
X-2569260Y-247280D01*
X-2518460Y-247280D02*
X-2493060Y-247280D01*
X-2432100Y-247280D02*
X-2411780Y-247280D01*
X-2371140Y-247280D02*
X-2350820Y-247280D01*
X-2300020Y-247280D02*
X-2289860Y-247280D01*
X-2213660Y-247280D02*
X-2193340Y-247280D01*
X-2152700Y-247280D02*
X-2132380Y-247280D01*
X-2066340Y-247280D02*
X-2051100Y-247280D01*
X-2020620Y-247280D02*
X-2000300Y-247280D01*
X-1934260Y-247280D02*
X-1919020Y-247280D01*
X-1888540Y-247280D02*
X-1868220Y-247280D01*
X-1817420Y-247280D02*
X-1792020Y-247280D01*
X-1746300Y-247280D02*
X-1725980Y-247280D01*
X-1675180Y-247280D02*
X-1665020Y-247280D01*
X-1588820Y-247280D02*
X-1568500Y-247280D01*
X-1517700Y-247280D02*
X-1492300Y-247280D01*
X-1431340Y-247280D02*
X-1411020Y-247280D01*
X-4311700Y-242200D02*
X-4301540Y-242200D01*
X-4250740Y-242200D02*
X-4235500Y-242200D01*
X-4184700Y-242200D02*
X-4164380Y-242200D01*
X-4078020Y-242200D02*
X-4057700Y-242200D01*
X-3905300Y-242200D02*
X-3874820Y-242200D01*
X-3824020Y-242200D02*
X-3813860Y-242200D01*
X-3773220Y-242200D02*
X-3752900Y-242200D01*
X-3697020Y-242200D02*
X-3671620Y-242200D01*
X-3636060Y-242200D02*
X-3615740Y-242200D01*
X-3554780Y-242200D02*
X-3539540Y-242200D01*
X-3503980Y-242200D02*
X-3493820Y-242200D01*
X-3412540Y-242200D02*
X-3387140Y-242200D01*
X-3316020Y-242200D02*
X-3295700Y-242200D01*
X-3214420Y-242200D02*
X-3194100Y-242200D01*
X-3097580Y-242200D02*
X-3077260Y-242200D01*
X-2995980Y-242200D02*
X-2975660Y-242200D01*
X-2914700Y-242200D02*
X-2899460Y-242200D01*
X-2813100Y-242200D02*
X-2792780Y-242200D01*
X-2731820Y-242200D02*
X-2716580Y-242200D01*
X-2675940Y-242200D02*
X-2665780Y-242200D01*
X-2584500Y-242200D02*
X-2569260Y-242200D01*
X-2513380Y-242200D02*
X-2487980Y-242200D01*
X-2432100Y-242200D02*
X-2411780Y-242200D01*
X-2371140Y-242200D02*
X-2350820Y-242200D01*
X-2300020Y-242200D02*
X-2289860Y-242200D01*
X-2208580Y-242200D02*
X-2193340Y-242200D01*
X-2152700Y-242200D02*
X-2132380Y-242200D01*
X-2071420Y-242200D02*
X-2056180Y-242200D01*
X-2020620Y-242200D02*
X-2000300Y-242200D01*
X-1939340Y-242200D02*
X-1924100Y-242200D01*
X-1888540Y-242200D02*
X-1868220Y-242200D01*
X-1812340Y-242200D02*
X-1786940Y-242200D01*
X-1746300Y-242200D02*
X-1725980Y-242200D01*
X-1675180Y-242200D02*
X-1665020Y-242200D01*
X-1583740Y-242200D02*
X-1568500Y-242200D01*
X-1512620Y-242200D02*
X-1487220Y-242200D01*
X-1431340Y-242200D02*
X-1411020Y-242200D01*
X-4316780Y-237120D02*
X-4296460Y-237120D01*
X-4250740Y-237120D02*
X-4235500Y-237120D01*
X-4189780Y-237120D02*
X-4159300Y-237120D01*
X-4083100Y-237120D02*
X-4052620Y-237120D01*
X-3895140Y-237120D02*
X-3864660Y-237120D01*
X-3834180Y-237120D02*
X-3818940Y-237120D01*
X-3778300Y-237120D02*
X-3747820Y-237120D01*
X-3691940Y-237120D02*
X-3661460Y-237120D01*
X-3641140Y-237120D02*
X-3539540Y-237120D01*
X-3509060Y-237120D02*
X-3488740Y-237120D01*
X-3417620Y-237120D02*
X-3382060Y-237120D01*
X-3321100Y-237120D02*
X-3290620Y-237120D01*
X-3219500Y-237120D02*
X-3189020Y-237120D01*
X-3092500Y-237120D02*
X-3077260Y-237120D01*
X-3001060Y-237120D02*
X-2899460Y-237120D01*
X-2818180Y-237120D02*
X-2716580Y-237120D01*
X-2681020Y-237120D02*
X-2660700Y-237120D01*
X-2579420Y-237120D02*
X-2569260Y-237120D01*
X-2508300Y-237120D02*
X-2472740Y-237120D01*
X-2442260Y-237120D02*
X-2411780Y-237120D01*
X-2376220Y-237120D02*
X-2345740Y-237120D01*
X-2305100Y-237120D02*
X-2284780Y-237120D01*
X-2203500Y-237120D02*
X-2193340Y-237120D01*
X-2157780Y-237120D02*
X-2056180Y-237120D01*
X-2025700Y-237120D02*
X-1924100Y-237120D01*
X-1893620Y-237120D02*
X-1863140Y-237120D01*
X-1807260Y-237120D02*
X-1776780Y-237120D01*
X-1751380Y-237120D02*
X-1720900Y-237120D01*
X-1680260Y-237120D02*
X-1659940Y-237120D01*
X-1578660Y-237120D02*
X-1568500Y-237120D01*
X-1507540Y-237120D02*
X-1471980Y-237120D01*
X-1441500Y-237120D02*
X-1411020Y-237120D01*
X-4332020Y-232040D02*
X-4281220Y-232040D01*
X-4245660Y-232040D02*
X-4240580Y-232040D01*
X-4205020Y-232040D02*
X-4144060Y-232040D01*
X-4098340Y-232040D02*
X-4037380Y-232040D01*
X-3890060Y-232040D02*
X-3824020Y-232040D01*
X-3793540Y-232040D02*
X-3732580Y-232040D01*
X-3686860Y-232040D02*
X-3539540Y-232040D01*
X-3519220Y-232040D02*
X-3473500Y-232040D01*
X-3427780Y-232040D02*
X-3371900Y-232040D01*
X-3336340Y-232040D02*
X-3275380Y-232040D01*
X-3234740Y-232040D02*
X-3173780Y-232040D01*
X-3092500Y-232040D02*
X-3077260Y-232040D01*
X-3016300Y-232040D02*
X-2899460Y-232040D01*
X-2833420Y-232040D02*
X-2716580Y-232040D01*
X-2696260Y-232040D02*
X-2645460Y-232040D01*
X-2579420Y-232040D02*
X-2569260Y-232040D01*
X-2498140Y-232040D02*
X-2421940Y-232040D01*
X-2391460Y-232040D02*
X-2330500Y-232040D01*
X-2320340Y-232040D02*
X-2269540Y-232040D01*
X-2203500Y-232040D02*
X-2193340Y-232040D01*
X-2173020Y-232040D02*
X-2056180Y-232040D01*
X-2040940Y-232040D02*
X-1924100Y-232040D01*
X-1908860Y-232040D02*
X-1847900Y-232040D01*
X-1802180Y-232040D02*
X-1705660Y-232040D01*
X-1695500Y-232040D02*
X-1644700Y-232040D01*
X-1578660Y-232040D02*
X-1568500Y-232040D01*
X-1497380Y-232040D02*
X-1421180Y-232040D01*
X-3874820Y-226960D02*
X-3839260Y-226960D01*
X-3087420Y-226960D02*
X-3082340Y-226960D01*
X-2482900Y-226960D02*
X-2437180Y-226960D01*
X-1482140Y-226960D02*
X-1436420Y-226960D01*
X-4001820Y-120280D02*
X-3996740Y-120280D01*
X-3209340Y-120280D02*
X-3168700Y-120280D01*
X-2675940Y-120280D02*
X-2635300Y-120280D01*
X-2609900Y-120280D02*
X-2604820Y-120280D01*
X-2508300Y-120280D02*
X-2503220Y-120280D01*
X-4006900Y-115200D02*
X-3996740Y-115200D01*
X-3925620Y-115200D02*
X-3844340Y-115200D01*
X-3788460Y-115200D02*
X-3697020Y-115200D01*
X-3636060Y-115200D02*
X-3575100Y-115200D01*
X-3539540Y-115200D02*
X-3488740Y-115200D01*
X-3483660Y-115200D02*
X-3422700Y-115200D01*
X-3417620Y-115200D02*
X-3382060Y-115200D01*
X-3316020Y-115200D02*
X-3265220Y-115200D01*
X-3219500Y-115200D02*
X-3158540Y-115200D01*
X-3056940Y-115200D02*
X-3016300Y-115200D01*
X-2909620Y-115200D02*
X-2752140Y-115200D01*
X-2686100Y-115200D02*
X-2625140Y-115200D01*
X-2609900Y-115200D02*
X-2604820Y-115200D01*
X-2513380Y-115200D02*
X-2503220Y-115200D01*
X-2340660Y-115200D02*
X-2315260Y-115200D01*
X-2228900Y-115200D02*
X-2178100Y-115200D01*
X-2096820Y-115200D02*
X-2071420Y-115200D01*
X-2015540Y-115200D02*
X-1990140Y-115200D01*
X-1893620Y-115200D02*
X-1812340Y-115200D01*
X-1720900Y-115200D02*
X-1695500Y-115200D01*
X-4006900Y-110120D02*
X-3991660Y-110120D01*
X-3910380Y-110120D02*
X-3829100Y-110120D01*
X-3773220Y-110120D02*
X-3681780Y-110120D01*
X-3620820Y-110120D02*
X-3590340Y-110120D01*
X-3524300Y-110120D02*
X-3503980Y-110120D01*
X-3468420Y-110120D02*
X-3437940Y-110120D01*
X-3407460Y-110120D02*
X-3376980Y-110120D01*
X-3300780Y-110120D02*
X-3280460Y-110120D01*
X-3229660Y-110120D02*
X-3204260Y-110120D01*
X-3173780Y-110120D02*
X-3148380Y-110120D01*
X-3041700Y-110120D02*
X-3011220Y-110120D01*
X-2914700Y-110120D02*
X-2884220Y-110120D01*
X-2853740Y-110120D02*
X-2752140Y-110120D01*
X-2696260Y-110120D02*
X-2665780Y-110120D01*
X-2635300Y-110120D02*
X-2604820Y-110120D01*
X-2513380Y-110120D02*
X-2498140Y-110120D01*
X-2350820Y-110120D02*
X-2305100Y-110120D01*
X-2233980Y-110120D02*
X-2183180Y-110120D01*
X-2106980Y-110120D02*
X-2086660Y-110120D01*
X-2025700Y-110120D02*
X-2015540Y-110120D01*
X-1995220Y-110120D02*
X-1985060Y-110120D01*
X-1878380Y-110120D02*
X-1797100Y-110120D01*
X-1731060Y-110120D02*
X-1685340Y-110120D01*
X-4011980Y-105040D02*
X-3991660Y-105040D01*
X-3905300Y-105040D02*
X-3884980Y-105040D01*
X-3854500Y-105040D02*
X-3824020Y-105040D01*
X-3768140Y-105040D02*
X-3747820Y-105040D01*
X-3707180Y-105040D02*
X-3671620Y-105040D01*
X-3615740Y-105040D02*
X-3595420Y-105040D01*
X-3519220Y-105040D02*
X-3509060Y-105040D01*
X-3463340Y-105040D02*
X-3443020Y-105040D01*
X-3397300Y-105040D02*
X-3371900Y-105040D01*
X-3295700Y-105040D02*
X-3285540Y-105040D01*
X-3234740Y-105040D02*
X-3214420Y-105040D01*
X-3163620Y-105040D02*
X-3143300Y-105040D01*
X-3036620Y-105040D02*
X-3011220Y-105040D01*
X-2914700Y-105040D02*
X-2889300Y-105040D01*
X-2848660Y-105040D02*
X-2828340Y-105040D01*
X-2767380Y-105040D02*
X-2752140Y-105040D01*
X-2701340Y-105040D02*
X-2675940Y-105040D01*
X-2625140Y-105040D02*
X-2604820Y-105040D01*
X-2518460Y-105040D02*
X-2498140Y-105040D01*
X-2355900Y-105040D02*
X-2300020Y-105040D01*
X-2233980Y-105040D02*
X-2183180Y-105040D01*
X-2117140Y-105040D02*
X-2096820Y-105040D01*
X-2030780Y-105040D02*
X-2020620Y-105040D01*
X-1990140Y-105040D02*
X-1979980Y-105040D01*
X-1873300Y-105040D02*
X-1852980Y-105040D01*
X-1822500Y-105040D02*
X-1792020Y-105040D01*
X-1736140Y-105040D02*
X-1680260Y-105040D01*
X-4011980Y-99960D02*
X-3986580Y-99960D01*
X-3905300Y-99960D02*
X-3884980Y-99960D01*
X-3844340Y-99960D02*
X-3818940Y-99960D01*
X-3768140Y-99960D02*
X-3747820Y-99960D01*
X-3697020Y-99960D02*
X-3666540Y-99960D01*
X-3615740Y-99960D02*
X-3595420Y-99960D01*
X-3519220Y-99960D02*
X-3509060Y-99960D01*
X-3463340Y-99960D02*
X-3443020Y-99960D01*
X-3392220Y-99960D02*
X-3366820Y-99960D01*
X-3295700Y-99960D02*
X-3285540Y-99960D01*
X-3239820Y-99960D02*
X-3219500Y-99960D01*
X-3158540Y-99960D02*
X-3138220Y-99960D01*
X-3036620Y-99960D02*
X-3006140Y-99960D01*
X-2919780Y-99960D02*
X-2889300Y-99960D01*
X-2848660Y-99960D02*
X-2828340Y-99960D01*
X-2762300Y-99960D02*
X-2752140Y-99960D01*
X-2706420Y-99960D02*
X-2681020Y-99960D01*
X-2614980Y-99960D02*
X-2599740Y-99960D01*
X-2518460Y-99960D02*
X-2493060Y-99960D01*
X-2360980Y-99960D02*
X-2345740Y-99960D01*
X-2325420Y-99960D02*
X-2294940Y-99960D01*
X-2233980Y-99960D02*
X-2183180Y-99960D01*
X-2122220Y-99960D02*
X-2106980Y-99960D01*
X-2035860Y-99960D02*
X-2020620Y-99960D01*
X-1990140Y-99960D02*
X-1974900Y-99960D01*
X-1873300Y-99960D02*
X-1852980Y-99960D01*
X-1812340Y-99960D02*
X-1786940Y-99960D01*
X-1741220Y-99960D02*
X-1725980Y-99960D01*
X-1700580Y-99960D02*
X-1675180Y-99960D01*
X-4011980Y-94880D02*
X-3986580Y-94880D01*
X-3905300Y-94880D02*
X-3884980Y-94880D01*
X-3839260Y-94880D02*
X-3818940Y-94880D01*
X-3768140Y-94880D02*
X-3747820Y-94880D01*
X-3686860Y-94880D02*
X-3661460Y-94880D01*
X-3615740Y-94880D02*
X-3595420Y-94880D01*
X-3519220Y-94880D02*
X-3509060Y-94880D01*
X-3463340Y-94880D02*
X-3443020Y-94880D01*
X-3392220Y-94880D02*
X-3366820Y-94880D01*
X-3295700Y-94880D02*
X-3285540Y-94880D01*
X-3244900Y-94880D02*
X-3224580Y-94880D01*
X-3153460Y-94880D02*
X-3133140Y-94880D01*
X-3036620Y-94880D02*
X-3006140Y-94880D01*
X-2919780Y-94880D02*
X-2889300Y-94880D01*
X-2848660Y-94880D02*
X-2828340Y-94880D01*
X-2757220Y-94880D02*
X-2752140Y-94880D01*
X-2711500Y-94880D02*
X-2686100Y-94880D01*
X-2614980Y-94880D02*
X-2599740Y-94880D01*
X-2518460Y-94880D02*
X-2493060Y-94880D01*
X-2360980Y-94880D02*
X-2350820Y-94880D01*
X-2320340Y-94880D02*
X-2289860Y-94880D01*
X-2239060Y-94880D02*
X-2233980Y-94880D01*
X-2127300Y-94880D02*
X-2112060Y-94880D01*
X-2040940Y-94880D02*
X-2025700Y-94880D01*
X-1985060Y-94880D02*
X-1969820Y-94880D01*
X-1873300Y-94880D02*
X-1852980Y-94880D01*
X-1807260Y-94880D02*
X-1786940Y-94880D01*
X-1741220Y-94880D02*
X-1736140Y-94880D01*
X-1695500Y-94880D02*
X-1675180Y-94880D01*
X-4017060Y-89800D02*
X-3986580Y-89800D01*
X-3905300Y-89800D02*
X-3884980Y-89800D01*
X-3839260Y-89800D02*
X-3813860Y-89800D01*
X-3768140Y-89800D02*
X-3747820Y-89800D01*
X-3681780Y-89800D02*
X-3656380Y-89800D01*
X-3615740Y-89800D02*
X-3595420Y-89800D01*
X-3519220Y-89800D02*
X-3509060Y-89800D01*
X-3463340Y-89800D02*
X-3443020Y-89800D01*
X-3392220Y-89800D02*
X-3361740Y-89800D01*
X-3295700Y-89800D02*
X-3285540Y-89800D01*
X-3249980Y-89800D02*
X-3224580Y-89800D01*
X-3153460Y-89800D02*
X-3128060Y-89800D01*
X-3036620Y-89800D02*
X-3001060Y-89800D01*
X-2924860Y-89800D02*
X-2889300Y-89800D01*
X-2848660Y-89800D02*
X-2828340Y-89800D01*
X-2757220Y-89800D02*
X-2752140Y-89800D01*
X-2711500Y-89800D02*
X-2691180Y-89800D01*
X-2609900Y-89800D02*
X-2599740Y-89800D01*
X-2523540Y-89800D02*
X-2493060Y-89800D01*
X-2360980Y-89800D02*
X-2355900Y-89800D01*
X-2315260Y-89800D02*
X-2289860Y-89800D01*
X-2239060Y-89800D02*
X-2233980Y-89800D01*
X-2132380Y-89800D02*
X-2117140Y-89800D01*
X-2040940Y-89800D02*
X-2025700Y-89800D01*
X-1985060Y-89800D02*
X-1969820Y-89800D01*
X-1873300Y-89800D02*
X-1852980Y-89800D01*
X-1807260Y-89800D02*
X-1781860Y-89800D01*
X-1746300Y-89800D02*
X-1741220Y-89800D01*
X-1690420Y-89800D02*
X-1675180Y-89800D01*
X-4017060Y-84720D02*
X-4006900Y-84720D01*
X-4001820Y-84720D02*
X-3981500Y-84720D01*
X-3905300Y-84720D02*
X-3884980Y-84720D01*
X-3834180Y-84720D02*
X-3813860Y-84720D01*
X-3768140Y-84720D02*
X-3747820Y-84720D01*
X-3681780Y-84720D02*
X-3656380Y-84720D01*
X-3615740Y-84720D02*
X-3595420Y-84720D01*
X-3519220Y-84720D02*
X-3509060Y-84720D01*
X-3463340Y-84720D02*
X-3443020Y-84720D01*
X-3392220Y-84720D02*
X-3356660Y-84720D01*
X-3295700Y-84720D02*
X-3285540Y-84720D01*
X-3249980Y-84720D02*
X-3229660Y-84720D01*
X-3148380Y-84720D02*
X-3128060Y-84720D01*
X-3036620Y-84720D02*
X-3026460Y-84720D01*
X-3021380Y-84720D02*
X-3001060Y-84720D01*
X-2924860Y-84720D02*
X-2914700Y-84720D01*
X-2909620Y-84720D02*
X-2889300Y-84720D01*
X-2848660Y-84720D02*
X-2828340Y-84720D01*
X-2716580Y-84720D02*
X-2696260Y-84720D01*
X-2609900Y-84720D02*
X-2599740Y-84720D01*
X-2523540Y-84720D02*
X-2513380Y-84720D01*
X-2508300Y-84720D02*
X-2487980Y-84720D01*
X-2366060Y-84720D02*
X-2360980Y-84720D01*
X-2310180Y-84720D02*
X-2289860Y-84720D01*
X-2244140Y-84720D02*
X-2239060Y-84720D01*
X-2137460Y-84720D02*
X-2122220Y-84720D01*
X-2046020Y-84720D02*
X-2025700Y-84720D01*
X-1985060Y-84720D02*
X-1964740Y-84720D01*
X-1873300Y-84720D02*
X-1852980Y-84720D01*
X-1802180Y-84720D02*
X-1781860Y-84720D01*
X-1690420Y-84720D02*
X-1675180Y-84720D01*
X-4022140Y-79640D02*
X-4006900Y-79640D01*
X-4001820Y-79640D02*
X-3981500Y-79640D01*
X-3905300Y-79640D02*
X-3884980Y-79640D01*
X-3834180Y-79640D02*
X-3813860Y-79640D01*
X-3768140Y-79640D02*
X-3747820Y-79640D01*
X-3676700Y-79640D02*
X-3651300Y-79640D01*
X-3615740Y-79640D02*
X-3595420Y-79640D01*
X-3519220Y-79640D02*
X-3509060Y-79640D01*
X-3463340Y-79640D02*
X-3443020Y-79640D01*
X-3392220Y-79640D02*
X-3382060Y-79640D01*
X-3376980Y-79640D02*
X-3351580Y-79640D01*
X-3295700Y-79640D02*
X-3285540Y-79640D01*
X-3255060Y-79640D02*
X-3229660Y-79640D01*
X-3148380Y-79640D02*
X-3122980Y-79640D01*
X-3036620Y-79640D02*
X-3026460Y-79640D01*
X-3021380Y-79640D02*
X-2995980Y-79640D01*
X-2924860Y-79640D02*
X-2914700Y-79640D01*
X-2909620Y-79640D02*
X-2889300Y-79640D01*
X-2848660Y-79640D02*
X-2828340Y-79640D01*
X-2721660Y-79640D02*
X-2696260Y-79640D01*
X-2604820Y-79640D02*
X-2599740Y-79640D01*
X-2528620Y-79640D02*
X-2513380Y-79640D01*
X-2508300Y-79640D02*
X-2487980Y-79640D01*
X-2366060Y-79640D02*
X-2360980Y-79640D01*
X-2310180Y-79640D02*
X-2289860Y-79640D01*
X-2244140Y-79640D02*
X-2223820Y-79640D01*
X-2142540Y-79640D02*
X-2127300Y-79640D01*
X-2046020Y-79640D02*
X-2025700Y-79640D01*
X-1979980Y-79640D02*
X-1964740Y-79640D01*
X-1873300Y-79640D02*
X-1852980Y-79640D01*
X-1802180Y-79640D02*
X-1781860Y-79640D01*
X-1690420Y-79640D02*
X-1675180Y-79640D01*
X-4022140Y-74560D02*
X-4011980Y-74560D01*
X-3996740Y-74560D02*
X-3976420Y-74560D01*
X-3905300Y-74560D02*
X-3884980Y-74560D01*
X-3834180Y-74560D02*
X-3813860Y-74560D01*
X-3768140Y-74560D02*
X-3747820Y-74560D01*
X-3676700Y-74560D02*
X-3651300Y-74560D01*
X-3615740Y-74560D02*
X-3595420Y-74560D01*
X-3519220Y-74560D02*
X-3509060Y-74560D01*
X-3463340Y-74560D02*
X-3443020Y-74560D01*
X-3392220Y-74560D02*
X-3382060Y-74560D01*
X-3371900Y-74560D02*
X-3346500Y-74560D01*
X-3295700Y-74560D02*
X-3285540Y-74560D01*
X-3255060Y-74560D02*
X-3229660Y-74560D01*
X-3148380Y-74560D02*
X-3122980Y-74560D01*
X-3036620Y-74560D02*
X-3026460Y-74560D01*
X-3016300Y-74560D02*
X-2995980Y-74560D01*
X-2929940Y-74560D02*
X-2919780Y-74560D01*
X-2909620Y-74560D02*
X-2889300Y-74560D01*
X-2848660Y-74560D02*
X-2828340Y-74560D01*
X-2772460Y-74560D02*
X-2767380Y-74560D01*
X-2721660Y-74560D02*
X-2696260Y-74560D01*
X-2528620Y-74560D02*
X-2518460Y-74560D01*
X-2503220Y-74560D02*
X-2482900Y-74560D01*
X-2310180Y-74560D02*
X-2289860Y-74560D01*
X-2249220Y-74560D02*
X-2208580Y-74560D01*
X-2147620Y-74560D02*
X-2127300Y-74560D01*
X-2046020Y-74560D02*
X-2030780Y-74560D01*
X-1979980Y-74560D02*
X-1964740Y-74560D01*
X-1873300Y-74560D02*
X-1852980Y-74560D01*
X-1802180Y-74560D02*
X-1781860Y-74560D01*
X-1690420Y-74560D02*
X-1680260Y-74560D01*
X-4022140Y-69480D02*
X-4011980Y-69480D01*
X-3996740Y-69480D02*
X-3976420Y-69480D01*
X-3905300Y-69480D02*
X-3884980Y-69480D01*
X-3839260Y-69480D02*
X-3813860Y-69480D01*
X-3768140Y-69480D02*
X-3747820Y-69480D01*
X-3676700Y-69480D02*
X-3646220Y-69480D01*
X-3615740Y-69480D02*
X-3595420Y-69480D01*
X-3519220Y-69480D02*
X-3509060Y-69480D01*
X-3463340Y-69480D02*
X-3443020Y-69480D01*
X-3392220Y-69480D02*
X-3382060Y-69480D01*
X-3366820Y-69480D02*
X-3341420Y-69480D01*
X-3295700Y-69480D02*
X-3285540Y-69480D01*
X-3255060Y-69480D02*
X-3234740Y-69480D01*
X-3143300Y-69480D02*
X-3122980Y-69480D01*
X-3036620Y-69480D02*
X-3026460Y-69480D01*
X-3016300Y-69480D02*
X-2990900Y-69480D01*
X-2929940Y-69480D02*
X-2919780Y-69480D01*
X-2909620Y-69480D02*
X-2889300Y-69480D01*
X-2848660Y-69480D02*
X-2828340Y-69480D01*
X-2772460Y-69480D02*
X-2767380Y-69480D01*
X-2721660Y-69480D02*
X-2701340Y-69480D01*
X-2528620Y-69480D02*
X-2518460Y-69480D01*
X-2503220Y-69480D02*
X-2482900Y-69480D01*
X-2310180Y-69480D02*
X-2289860Y-69480D01*
X-2249220Y-69480D02*
X-2198420Y-69480D01*
X-2147620Y-69480D02*
X-2132380Y-69480D01*
X-2051100Y-69480D02*
X-2030780Y-69480D01*
X-1979980Y-69480D02*
X-1959660Y-69480D01*
X-1873300Y-69480D02*
X-1852980Y-69480D01*
X-1807260Y-69480D02*
X-1781860Y-69480D01*
X-1695500Y-69480D02*
X-1685340Y-69480D01*
X-4027220Y-64400D02*
X-4017060Y-64400D01*
X-3996740Y-64400D02*
X-3976420Y-64400D01*
X-3905300Y-64400D02*
X-3884980Y-64400D01*
X-3839260Y-64400D02*
X-3813860Y-64400D01*
X-3768140Y-64400D02*
X-3747820Y-64400D01*
X-3671620Y-64400D02*
X-3646220Y-64400D01*
X-3615740Y-64400D02*
X-3595420Y-64400D01*
X-3519220Y-64400D02*
X-3509060Y-64400D01*
X-3463340Y-64400D02*
X-3443020Y-64400D01*
X-3392220Y-64400D02*
X-3382060Y-64400D01*
X-3366820Y-64400D02*
X-3341420Y-64400D01*
X-3295700Y-64400D02*
X-3285540Y-64400D01*
X-3260140Y-64400D02*
X-3234740Y-64400D01*
X-3143300Y-64400D02*
X-3117900Y-64400D01*
X-3036620Y-64400D02*
X-3026460Y-64400D01*
X-3011220Y-64400D02*
X-2990900Y-64400D01*
X-2935020Y-64400D02*
X-2924860Y-64400D01*
X-2909620Y-64400D02*
X-2889300Y-64400D01*
X-2848660Y-64400D02*
X-2828340Y-64400D01*
X-2777540Y-64400D02*
X-2767380Y-64400D01*
X-2726740Y-64400D02*
X-2701340Y-64400D01*
X-2533700Y-64400D02*
X-2523540Y-64400D01*
X-2503220Y-64400D02*
X-2482900Y-64400D01*
X-2310180Y-64400D02*
X-2289860Y-64400D01*
X-2254300Y-64400D02*
X-2193340Y-64400D01*
X-2152700Y-64400D02*
X-2132380Y-64400D01*
X-2051100Y-64400D02*
X-2030780Y-64400D01*
X-1979980Y-64400D02*
X-1959660Y-64400D01*
X-1873300Y-64400D02*
X-1852980Y-64400D01*
X-1807260Y-64400D02*
X-1781860Y-64400D01*
X-1695500Y-64400D02*
X-1690420Y-64400D01*
X-4027220Y-59320D02*
X-4017060Y-59320D01*
X-3991660Y-59320D02*
X-3971340Y-59320D01*
X-3905300Y-59320D02*
X-3884980Y-59320D01*
X-3844340Y-59320D02*
X-3818940Y-59320D01*
X-3768140Y-59320D02*
X-3747820Y-59320D01*
X-3671620Y-59320D02*
X-3646220Y-59320D01*
X-3615740Y-59320D02*
X-3595420Y-59320D01*
X-3519220Y-59320D02*
X-3509060Y-59320D01*
X-3463340Y-59320D02*
X-3443020Y-59320D01*
X-3392220Y-59320D02*
X-3382060Y-59320D01*
X-3361740Y-59320D02*
X-3336340Y-59320D01*
X-3295700Y-59320D02*
X-3285540Y-59320D01*
X-3260140Y-59320D02*
X-3234740Y-59320D01*
X-3143300Y-59320D02*
X-3117900Y-59320D01*
X-3036620Y-59320D02*
X-3026460Y-59320D01*
X-3011220Y-59320D02*
X-2985820Y-59320D01*
X-2935020Y-59320D02*
X-2924860Y-59320D01*
X-2909620Y-59320D02*
X-2889300Y-59320D01*
X-2848660Y-59320D02*
X-2828340Y-59320D01*
X-2777540Y-59320D02*
X-2767380Y-59320D01*
X-2726740Y-59320D02*
X-2701340Y-59320D01*
X-2533700Y-59320D02*
X-2523540Y-59320D01*
X-2498140Y-59320D02*
X-2477820Y-59320D01*
X-2310180Y-59320D02*
X-2294940Y-59320D01*
X-2233980Y-59320D02*
X-2188260Y-59320D01*
X-2152700Y-59320D02*
X-2132380Y-59320D01*
X-2122220Y-59320D02*
X-2091740Y-59320D01*
X-2051100Y-59320D02*
X-2030780Y-59320D01*
X-1979980Y-59320D02*
X-1959660Y-59320D01*
X-1873300Y-59320D02*
X-1852980Y-59320D01*
X-1812340Y-59320D02*
X-1786940Y-59320D01*
X-1700580Y-59320D02*
X-1695500Y-59320D01*
X-4032300Y-54240D02*
X-4017060Y-54240D01*
X-3991660Y-54240D02*
X-3971340Y-54240D01*
X-3905300Y-54240D02*
X-3884980Y-54240D01*
X-3849420Y-54240D02*
X-3824020Y-54240D01*
X-3768140Y-54240D02*
X-3747820Y-54240D01*
X-3671620Y-54240D02*
X-3646220Y-54240D01*
X-3615740Y-54240D02*
X-3595420Y-54240D01*
X-3519220Y-54240D02*
X-3509060Y-54240D01*
X-3463340Y-54240D02*
X-3443020Y-54240D01*
X-3392220Y-54240D02*
X-3382060Y-54240D01*
X-3356660Y-54240D02*
X-3331260Y-54240D01*
X-3295700Y-54240D02*
X-3285540Y-54240D01*
X-3260140Y-54240D02*
X-3234740Y-54240D01*
X-3143300Y-54240D02*
X-3117900Y-54240D01*
X-3036620Y-54240D02*
X-3026460Y-54240D01*
X-3006140Y-54240D02*
X-2985820Y-54240D01*
X-2940100Y-54240D02*
X-2929940Y-54240D01*
X-2909620Y-54240D02*
X-2889300Y-54240D01*
X-2848660Y-54240D02*
X-2767380Y-54240D01*
X-2726740Y-54240D02*
X-2701340Y-54240D01*
X-2538780Y-54240D02*
X-2523540Y-54240D01*
X-2498140Y-54240D02*
X-2477820Y-54240D01*
X-2310180Y-54240D02*
X-2294940Y-54240D01*
X-2218740Y-54240D02*
X-2183180Y-54240D01*
X-2152700Y-54240D02*
X-2122220Y-54240D01*
X-2101900Y-54240D02*
X-2081580Y-54240D01*
X-2051100Y-54240D02*
X-2030780Y-54240D01*
X-1979980Y-54240D02*
X-1959660Y-54240D01*
X-1873300Y-54240D02*
X-1852980Y-54240D01*
X-1817420Y-54240D02*
X-1792020Y-54240D01*
X-1710740Y-54240D02*
X-1685340Y-54240D01*
X-4032300Y-49160D02*
X-4022140Y-49160D01*
X-3991660Y-49160D02*
X-3966260Y-49160D01*
X-3905300Y-49160D02*
X-3884980Y-49160D01*
X-3859580Y-49160D02*
X-3824020Y-49160D01*
X-3768140Y-49160D02*
X-3747820Y-49160D01*
X-3671620Y-49160D02*
X-3646220Y-49160D01*
X-3615740Y-49160D02*
X-3595420Y-49160D01*
X-3519220Y-49160D02*
X-3509060Y-49160D01*
X-3463340Y-49160D02*
X-3443020Y-49160D01*
X-3392220Y-49160D02*
X-3382060Y-49160D01*
X-3351580Y-49160D02*
X-3326180Y-49160D01*
X-3295700Y-49160D02*
X-3285540Y-49160D01*
X-3260140Y-49160D02*
X-3234740Y-49160D01*
X-3143300Y-49160D02*
X-3117900Y-49160D01*
X-3036620Y-49160D02*
X-3026460Y-49160D01*
X-3006140Y-49160D02*
X-2980740Y-49160D01*
X-2940100Y-49160D02*
X-2929940Y-49160D01*
X-2909620Y-49160D02*
X-2889300Y-49160D01*
X-2848660Y-49160D02*
X-2767380Y-49160D01*
X-2726740Y-49160D02*
X-2701340Y-49160D01*
X-2640380Y-49160D02*
X-2584500Y-49160D01*
X-2538780Y-49160D02*
X-2528620Y-49160D01*
X-2498140Y-49160D02*
X-2472740Y-49160D01*
X-2315260Y-49160D02*
X-2300020Y-49160D01*
X-2208580Y-49160D02*
X-2183180Y-49160D01*
X-2157780Y-49160D02*
X-2137460Y-49160D01*
X-2096820Y-49160D02*
X-2076500Y-49160D01*
X-2051100Y-49160D02*
X-2030780Y-49160D01*
X-1979980Y-49160D02*
X-1959660Y-49160D01*
X-1873300Y-49160D02*
X-1852980Y-49160D01*
X-1827580Y-49160D02*
X-1792020Y-49160D01*
X-1720900Y-49160D02*
X-1680260Y-49160D01*
X-4032300Y-44080D02*
X-4022140Y-44080D01*
X-3986580Y-44080D02*
X-3966260Y-44080D01*
X-3905300Y-44080D02*
X-3834180Y-44080D01*
X-3768140Y-44080D02*
X-3747820Y-44080D01*
X-3671620Y-44080D02*
X-3646220Y-44080D01*
X-3615740Y-44080D02*
X-3595420Y-44080D01*
X-3519220Y-44080D02*
X-3509060Y-44080D01*
X-3463340Y-44080D02*
X-3443020Y-44080D01*
X-3392220Y-44080D02*
X-3382060Y-44080D01*
X-3346500Y-44080D02*
X-3321100Y-44080D01*
X-3295700Y-44080D02*
X-3285540Y-44080D01*
X-3260140Y-44080D02*
X-3234740Y-44080D01*
X-3143300Y-44080D02*
X-3117900Y-44080D01*
X-3036620Y-44080D02*
X-3026460Y-44080D01*
X-3001060Y-44080D02*
X-2980740Y-44080D01*
X-2945180Y-44080D02*
X-2935020Y-44080D01*
X-2909620Y-44080D02*
X-2889300Y-44080D01*
X-2848660Y-44080D02*
X-2828340Y-44080D01*
X-2777540Y-44080D02*
X-2767380Y-44080D01*
X-2726740Y-44080D02*
X-2701340Y-44080D01*
X-2625140Y-44080D02*
X-2594660Y-44080D01*
X-2538780Y-44080D02*
X-2528620Y-44080D01*
X-2493060Y-44080D02*
X-2472740Y-44080D01*
X-2315260Y-44080D02*
X-2300020Y-44080D01*
X-2203500Y-44080D02*
X-2178100Y-44080D01*
X-2157780Y-44080D02*
X-2137460Y-44080D01*
X-2091740Y-44080D02*
X-2071420Y-44080D01*
X-2051100Y-44080D02*
X-2030780Y-44080D01*
X-1979980Y-44080D02*
X-1959660Y-44080D01*
X-1873300Y-44080D02*
X-1802180Y-44080D01*
X-1705660Y-44080D02*
X-1675180Y-44080D01*
X-4037380Y-39000D02*
X-4027220Y-39000D01*
X-3986580Y-39000D02*
X-3966260Y-39000D01*
X-3905300Y-39000D02*
X-3844340Y-39000D01*
X-3768140Y-39000D02*
X-3747820Y-39000D01*
X-3671620Y-39000D02*
X-3646220Y-39000D01*
X-3615740Y-39000D02*
X-3595420Y-39000D01*
X-3519220Y-39000D02*
X-3509060Y-39000D01*
X-3463340Y-39000D02*
X-3443020Y-39000D01*
X-3392220Y-39000D02*
X-3382060Y-39000D01*
X-3346500Y-39000D02*
X-3321100Y-39000D01*
X-3295700Y-39000D02*
X-3285540Y-39000D01*
X-3260140Y-39000D02*
X-3234740Y-39000D01*
X-3143300Y-39000D02*
X-3117900Y-39000D01*
X-3036620Y-39000D02*
X-3026460Y-39000D01*
X-3001060Y-39000D02*
X-2980740Y-39000D01*
X-2945180Y-39000D02*
X-2935020Y-39000D01*
X-2909620Y-39000D02*
X-2889300Y-39000D01*
X-2848660Y-39000D02*
X-2828340Y-39000D01*
X-2777540Y-39000D02*
X-2767380Y-39000D01*
X-2726740Y-39000D02*
X-2701340Y-39000D01*
X-2620060Y-39000D02*
X-2599740Y-39000D01*
X-2543860Y-39000D02*
X-2533700Y-39000D01*
X-2493060Y-39000D02*
X-2472740Y-39000D01*
X-2320340Y-39000D02*
X-2305100Y-39000D01*
X-2198420Y-39000D02*
X-2178100Y-39000D01*
X-2157780Y-39000D02*
X-2137460Y-39000D01*
X-2091740Y-39000D02*
X-2071420Y-39000D01*
X-2051100Y-39000D02*
X-2030780Y-39000D01*
X-1979980Y-39000D02*
X-1959660Y-39000D01*
X-1873300Y-39000D02*
X-1812340Y-39000D01*
X-1700580Y-39000D02*
X-1675180Y-39000D01*
X-4037380Y-33920D02*
X-4027220Y-33920D01*
X-3981500Y-33920D02*
X-3961180Y-33920D01*
X-3905300Y-33920D02*
X-3884980Y-33920D01*
X-3859580Y-33920D02*
X-3839260Y-33920D01*
X-3768140Y-33920D02*
X-3747820Y-33920D01*
X-3671620Y-33920D02*
X-3646220Y-33920D01*
X-3615740Y-33920D02*
X-3595420Y-33920D01*
X-3519220Y-33920D02*
X-3509060Y-33920D01*
X-3463340Y-33920D02*
X-3443020Y-33920D01*
X-3392220Y-33920D02*
X-3382060Y-33920D01*
X-3341420Y-33920D02*
X-3316020Y-33920D01*
X-3295700Y-33920D02*
X-3285540Y-33920D01*
X-3260140Y-33920D02*
X-3234740Y-33920D01*
X-3143300Y-33920D02*
X-3117900Y-33920D01*
X-3036620Y-33920D02*
X-3026460Y-33920D01*
X-2995980Y-33920D02*
X-2975660Y-33920D01*
X-2950260Y-33920D02*
X-2940100Y-33920D01*
X-2909620Y-33920D02*
X-2889300Y-33920D01*
X-2848660Y-33920D02*
X-2828340Y-33920D01*
X-2772460Y-33920D02*
X-2767380Y-33920D01*
X-2726740Y-33920D02*
X-2701340Y-33920D01*
X-2620060Y-33920D02*
X-2599740Y-33920D01*
X-2543860Y-33920D02*
X-2533700Y-33920D01*
X-2487980Y-33920D02*
X-2467660Y-33920D01*
X-2320340Y-33920D02*
X-2310180Y-33920D01*
X-2198420Y-33920D02*
X-2178100Y-33920D01*
X-2157780Y-33920D02*
X-2137460Y-33920D01*
X-2091740Y-33920D02*
X-2066340Y-33920D01*
X-2051100Y-33920D02*
X-2030780Y-33920D01*
X-1979980Y-33920D02*
X-1959660Y-33920D01*
X-1873300Y-33920D02*
X-1852980Y-33920D01*
X-1827580Y-33920D02*
X-1807260Y-33920D01*
X-1690420Y-33920D02*
X-1670100Y-33920D01*
X-4042460Y-28840D02*
X-3961180Y-28840D01*
X-3905300Y-28840D02*
X-3884980Y-28840D01*
X-3859580Y-28840D02*
X-3834180Y-28840D01*
X-3768140Y-28840D02*
X-3747820Y-28840D01*
X-3671620Y-28840D02*
X-3646220Y-28840D01*
X-3615740Y-28840D02*
X-3595420Y-28840D01*
X-3519220Y-28840D02*
X-3509060Y-28840D01*
X-3463340Y-28840D02*
X-3443020Y-28840D01*
X-3392220Y-28840D02*
X-3382060Y-28840D01*
X-3336340Y-28840D02*
X-3310940Y-28840D01*
X-3295700Y-28840D02*
X-3285540Y-28840D01*
X-3260140Y-28840D02*
X-3234740Y-28840D01*
X-3143300Y-28840D02*
X-3117900Y-28840D01*
X-3036620Y-28840D02*
X-3026460Y-28840D01*
X-2995980Y-28840D02*
X-2975660Y-28840D01*
X-2950260Y-28840D02*
X-2940100Y-28840D01*
X-2909620Y-28840D02*
X-2889300Y-28840D01*
X-2848660Y-28840D02*
X-2828340Y-28840D01*
X-2772460Y-28840D02*
X-2767380Y-28840D01*
X-2726740Y-28840D02*
X-2701340Y-28840D01*
X-2620060Y-28840D02*
X-2599740Y-28840D01*
X-2548940Y-28840D02*
X-2467660Y-28840D01*
X-2325420Y-28840D02*
X-2315260Y-28840D01*
X-2193340Y-28840D02*
X-2178100Y-28840D01*
X-2157780Y-28840D02*
X-2137460Y-28840D01*
X-2086660Y-28840D02*
X-2066340Y-28840D01*
X-2051100Y-28840D02*
X-2030780Y-28840D01*
X-1979980Y-28840D02*
X-1959660Y-28840D01*
X-1873300Y-28840D02*
X-1852980Y-28840D01*
X-1827580Y-28840D02*
X-1802180Y-28840D01*
X-1690420Y-28840D02*
X-1670100Y-28840D01*
X-4042460Y-23760D02*
X-3956100Y-23760D01*
X-3905300Y-23760D02*
X-3884980Y-23760D01*
X-3854500Y-23760D02*
X-3834180Y-23760D01*
X-3768140Y-23760D02*
X-3747820Y-23760D01*
X-3676700Y-23760D02*
X-3651300Y-23760D01*
X-3615740Y-23760D02*
X-3595420Y-23760D01*
X-3519220Y-23760D02*
X-3509060Y-23760D01*
X-3463340Y-23760D02*
X-3443020Y-23760D01*
X-3392220Y-23760D02*
X-3382060Y-23760D01*
X-3331260Y-23760D02*
X-3305860Y-23760D01*
X-3295700Y-23760D02*
X-3285540Y-23760D01*
X-3255060Y-23760D02*
X-3234740Y-23760D01*
X-3143300Y-23760D02*
X-3122980Y-23760D01*
X-3036620Y-23760D02*
X-3026460Y-23760D01*
X-2990900Y-23760D02*
X-2970580Y-23760D01*
X-2955340Y-23760D02*
X-2945180Y-23760D01*
X-2909620Y-23760D02*
X-2889300Y-23760D01*
X-2848660Y-23760D02*
X-2828340Y-23760D01*
X-2721660Y-23760D02*
X-2696260Y-23760D01*
X-2620060Y-23760D02*
X-2599740Y-23760D01*
X-2548940Y-23760D02*
X-2462580Y-23760D01*
X-2330500Y-23760D02*
X-2315260Y-23760D01*
X-2193340Y-23760D02*
X-2178100Y-23760D01*
X-2157780Y-23760D02*
X-2137460Y-23760D01*
X-2086660Y-23760D02*
X-2066340Y-23760D01*
X-2051100Y-23760D02*
X-2030780Y-23760D01*
X-1979980Y-23760D02*
X-1959660Y-23760D01*
X-1873300Y-23760D02*
X-1852980Y-23760D01*
X-1822500Y-23760D02*
X-1802180Y-23760D01*
X-1685340Y-23760D02*
X-1670100Y-23760D01*
X-4047540Y-18680D02*
X-4032300Y-18680D01*
X-3976420Y-18680D02*
X-3956100Y-18680D01*
X-3905300Y-18680D02*
X-3884980Y-18680D01*
X-3849420Y-18680D02*
X-3829100Y-18680D01*
X-3768140Y-18680D02*
X-3747820Y-18680D01*
X-3676700Y-18680D02*
X-3651300Y-18680D01*
X-3615740Y-18680D02*
X-3595420Y-18680D01*
X-3519220Y-18680D02*
X-3509060Y-18680D01*
X-3463340Y-18680D02*
X-3443020Y-18680D01*
X-3392220Y-18680D02*
X-3382060Y-18680D01*
X-3326180Y-18680D02*
X-3300780Y-18680D01*
X-3295700Y-18680D02*
X-3285540Y-18680D01*
X-3255060Y-18680D02*
X-3229660Y-18680D01*
X-3148380Y-18680D02*
X-3122980Y-18680D01*
X-3036620Y-18680D02*
X-3026460Y-18680D01*
X-2990900Y-18680D02*
X-2970580Y-18680D01*
X-2955340Y-18680D02*
X-2945180Y-18680D01*
X-2909620Y-18680D02*
X-2889300Y-18680D01*
X-2848660Y-18680D02*
X-2828340Y-18680D01*
X-2721660Y-18680D02*
X-2696260Y-18680D01*
X-2620060Y-18680D02*
X-2599740Y-18680D01*
X-2554020Y-18680D02*
X-2538780Y-18680D01*
X-2482900Y-18680D02*
X-2462580Y-18680D01*
X-2330500Y-18680D02*
X-2320340Y-18680D01*
X-2193340Y-18680D02*
X-2178100Y-18680D01*
X-2157780Y-18680D02*
X-2137460Y-18680D01*
X-2086660Y-18680D02*
X-2066340Y-18680D01*
X-2046020Y-18680D02*
X-2030780Y-18680D01*
X-1979980Y-18680D02*
X-1964740Y-18680D01*
X-1873300Y-18680D02*
X-1852980Y-18680D01*
X-1817420Y-18680D02*
X-1797100Y-18680D01*
X-1685340Y-18680D02*
X-1670100Y-18680D01*
X-4047540Y-13600D02*
X-4037380Y-13600D01*
X-3976420Y-13600D02*
X-3956100Y-13600D01*
X-3905300Y-13600D02*
X-3884980Y-13600D01*
X-3844340Y-13600D02*
X-3824020Y-13600D01*
X-3768140Y-13600D02*
X-3747820Y-13600D01*
X-3676700Y-13600D02*
X-3656380Y-13600D01*
X-3615740Y-13600D02*
X-3595420Y-13600D01*
X-3519220Y-13600D02*
X-3509060Y-13600D01*
X-3463340Y-13600D02*
X-3443020Y-13600D01*
X-3392220Y-13600D02*
X-3382060Y-13600D01*
X-3321100Y-13600D02*
X-3285540Y-13600D01*
X-3255060Y-13600D02*
X-3229660Y-13600D01*
X-3148380Y-13600D02*
X-3122980Y-13600D01*
X-3036620Y-13600D02*
X-3026460Y-13600D01*
X-2990900Y-13600D02*
X-2965500Y-13600D01*
X-2960420Y-13600D02*
X-2945180Y-13600D01*
X-2909620Y-13600D02*
X-2889300Y-13600D01*
X-2848660Y-13600D02*
X-2828340Y-13600D01*
X-2721660Y-13600D02*
X-2696260Y-13600D01*
X-2620060Y-13600D02*
X-2599740Y-13600D01*
X-2554020Y-13600D02*
X-2543860Y-13600D01*
X-2482900Y-13600D02*
X-2462580Y-13600D01*
X-2335580Y-13600D02*
X-2325420Y-13600D01*
X-2193340Y-13600D02*
X-2178100Y-13600D01*
X-2157780Y-13600D02*
X-2137460Y-13600D01*
X-2086660Y-13600D02*
X-2066340Y-13600D01*
X-2046020Y-13600D02*
X-2030780Y-13600D01*
X-1979980Y-13600D02*
X-1964740Y-13600D01*
X-1873300Y-13600D02*
X-1852980Y-13600D01*
X-1812340Y-13600D02*
X-1792020Y-13600D01*
X-1685340Y-13600D02*
X-1670100Y-13600D01*
X-4047540Y-8520D02*
X-4037380Y-8520D01*
X-3971340Y-8520D02*
X-3951020Y-8520D01*
X-3905300Y-8520D02*
X-3884980Y-8520D01*
X-3844340Y-8520D02*
X-3818940Y-8520D01*
X-3768140Y-8520D02*
X-3747820Y-8520D01*
X-3681780Y-8520D02*
X-3656380Y-8520D01*
X-3615740Y-8520D02*
X-3595420Y-8520D01*
X-3519220Y-8520D02*
X-3509060Y-8520D01*
X-3463340Y-8520D02*
X-3443020Y-8520D01*
X-3392220Y-8520D02*
X-3382060Y-8520D01*
X-3321100Y-8520D02*
X-3285540Y-8520D01*
X-3249980Y-8520D02*
X-3229660Y-8520D01*
X-3148380Y-8520D02*
X-3128060Y-8520D01*
X-3036620Y-8520D02*
X-3026460Y-8520D01*
X-2985820Y-8520D02*
X-2965500Y-8520D01*
X-2960420Y-8520D02*
X-2950260Y-8520D01*
X-2909620Y-8520D02*
X-2889300Y-8520D01*
X-2848660Y-8520D02*
X-2828340Y-8520D01*
X-2747060Y-8520D02*
X-2741980Y-8520D01*
X-2716580Y-8520D02*
X-2691180Y-8520D01*
X-2620060Y-8520D02*
X-2599740Y-8520D01*
X-2554020Y-8520D02*
X-2543860Y-8520D01*
X-2477820Y-8520D02*
X-2457500Y-8520D01*
X-2340660Y-8520D02*
X-2330500Y-8520D01*
X-2193340Y-8520D02*
X-2183180Y-8520D01*
X-2152700Y-8520D02*
X-2137460Y-8520D01*
X-2086660Y-8520D02*
X-2066340Y-8520D01*
X-2046020Y-8520D02*
X-2025700Y-8520D01*
X-1985060Y-8520D02*
X-1964740Y-8520D01*
X-1873300Y-8520D02*
X-1852980Y-8520D01*
X-1812340Y-8520D02*
X-1786940Y-8520D01*
X-1685340Y-8520D02*
X-1670100Y-8520D01*
X-4052620Y-3440D02*
X-4042460Y-3440D01*
X-3971340Y-3440D02*
X-3951020Y-3440D01*
X-3905300Y-3440D02*
X-3884980Y-3440D01*
X-3839260Y-3440D02*
X-3818940Y-3440D01*
X-3768140Y-3440D02*
X-3747820Y-3440D01*
X-3686860Y-3440D02*
X-3661460Y-3440D01*
X-3615740Y-3440D02*
X-3590340Y-3440D01*
X-3524300Y-3440D02*
X-3514140Y-3440D01*
X-3463340Y-3440D02*
X-3443020Y-3440D01*
X-3392220Y-3440D02*
X-3382060Y-3440D01*
X-3316020Y-3440D02*
X-3285540Y-3440D01*
X-3249980Y-3440D02*
X-3224580Y-3440D01*
X-3153460Y-3440D02*
X-3128060Y-3440D01*
X-3036620Y-3440D02*
X-3026460Y-3440D01*
X-2985820Y-3440D02*
X-2950260Y-3440D01*
X-2909620Y-3440D02*
X-2889300Y-3440D01*
X-2848660Y-3440D02*
X-2828340Y-3440D01*
X-2752140Y-3440D02*
X-2747060Y-3440D01*
X-2716580Y-3440D02*
X-2691180Y-3440D01*
X-2620060Y-3440D02*
X-2599740Y-3440D01*
X-2559100Y-3440D02*
X-2548940Y-3440D01*
X-2477820Y-3440D02*
X-2457500Y-3440D01*
X-2345740Y-3440D02*
X-2335580Y-3440D01*
X-2193340Y-3440D02*
X-2183180Y-3440D01*
X-2152700Y-3440D02*
X-2132380Y-3440D01*
X-2086660Y-3440D02*
X-2071420Y-3440D01*
X-2040940Y-3440D02*
X-2025700Y-3440D01*
X-1985060Y-3440D02*
X-1969820Y-3440D01*
X-1873300Y-3440D02*
X-1852980Y-3440D01*
X-1807260Y-3440D02*
X-1786940Y-3440D01*
X-1685340Y-3440D02*
X-1675180Y-3440D01*
X-4052620Y+1640D02*
X-4042460Y+1640D01*
X-3966260Y+1640D02*
X-3945940Y+1640D01*
X-3905300Y+1640D02*
X-3884980Y+1640D01*
X-3834180Y+1640D02*
X-3813860Y+1640D01*
X-3768140Y+1640D02*
X-3747820Y+1640D01*
X-3691940Y+1640D02*
X-3666540Y+1640D01*
X-3610660Y+1640D02*
X-3590340Y+1640D01*
X-3524300Y+1640D02*
X-3514140Y+1640D01*
X-3463340Y+1640D02*
X-3443020Y+1640D01*
X-3392220Y+1640D02*
X-3382060Y+1640D01*
X-3310940Y+1640D02*
X-3285540Y+1640D01*
X-3244900Y+1640D02*
X-3224580Y+1640D01*
X-3153460Y+1640D02*
X-3133140Y+1640D01*
X-3036620Y+1640D02*
X-3026460Y+1640D01*
X-2980740Y+1640D02*
X-2955340Y+1640D01*
X-2909620Y+1640D02*
X-2889300Y+1640D01*
X-2848660Y+1640D02*
X-2828340Y+1640D01*
X-2757220Y+1640D02*
X-2747060Y+1640D01*
X-2711500Y+1640D02*
X-2686100Y+1640D01*
X-2620060Y+1640D02*
X-2599740Y+1640D01*
X-2559100Y+1640D02*
X-2548940Y+1640D01*
X-2472740Y+1640D02*
X-2452420Y+1640D01*
X-2350820Y+1640D02*
X-2340660Y+1640D01*
X-2289860Y+1640D02*
X-2279700Y+1640D01*
X-2198420Y+1640D02*
X-2188260Y+1640D01*
X-2147620Y+1640D02*
X-2132380Y+1640D01*
X-2086660Y+1640D02*
X-2071420Y+1640D01*
X-2040940Y+1640D02*
X-2025700Y+1640D01*
X-1985060Y+1640D02*
X-1969820Y+1640D01*
X-1873300Y+1640D02*
X-1852980Y+1640D01*
X-1802180Y+1640D02*
X-1781860Y+1640D01*
X-1685340Y+1640D02*
X-1675180Y+1640D01*
X-4057700Y+6720D02*
X-4047540Y+6720D01*
X-3966260Y+6720D02*
X-3945940Y+6720D01*
X-3905300Y+6720D02*
X-3884980Y+6720D01*
X-3834180Y+6720D02*
X-3808780Y+6720D01*
X-3768140Y+6720D02*
X-3747820Y+6720D01*
X-3697020Y+6720D02*
X-3671620Y+6720D01*
X-3610660Y+6720D02*
X-3590340Y+6720D01*
X-3529380Y+6720D02*
X-3514140Y+6720D01*
X-3463340Y+6720D02*
X-3443020Y+6720D01*
X-3392220Y+6720D02*
X-3382060Y+6720D01*
X-3305860Y+6720D02*
X-3285540Y+6720D01*
X-3239820Y+6720D02*
X-3219500Y+6720D01*
X-3158540Y+6720D02*
X-3138220Y+6720D01*
X-3036620Y+6720D02*
X-3026460Y+6720D01*
X-2980740Y+6720D02*
X-2955340Y+6720D01*
X-2909620Y+6720D02*
X-2889300Y+6720D01*
X-2848660Y+6720D02*
X-2828340Y+6720D01*
X-2762300Y+6720D02*
X-2747060Y+6720D01*
X-2706420Y+6720D02*
X-2681020Y+6720D01*
X-2620060Y+6720D02*
X-2599740Y+6720D01*
X-2564180Y+6720D02*
X-2554020Y+6720D01*
X-2472740Y+6720D02*
X-2452420Y+6720D01*
X-2355900Y+6720D02*
X-2345740Y+6720D01*
X-2294940Y+6720D02*
X-2284780Y+6720D01*
X-2254300Y+6720D02*
X-2244140Y+6720D01*
X-2203500Y+6720D02*
X-2193340Y+6720D01*
X-2147620Y+6720D02*
X-2127300Y+6720D01*
X-2091740Y+6720D02*
X-2076500Y+6720D01*
X-2035860Y+6720D02*
X-2020620Y+6720D01*
X-1990140Y+6720D02*
X-1974900Y+6720D01*
X-1873300Y+6720D02*
X-1852980Y+6720D01*
X-1802180Y+6720D02*
X-1776780Y+6720D01*
X-1690420Y+6720D02*
X-1680260Y+6720D01*
X-4057700Y+11800D02*
X-4047540Y+11800D01*
X-3966260Y+11800D02*
X-3940860Y+11800D01*
X-3905300Y+11800D02*
X-3884980Y+11800D01*
X-3829100Y+11800D02*
X-3803700Y+11800D01*
X-3768140Y+11800D02*
X-3747820Y+11800D01*
X-3707180Y+11800D02*
X-3676700Y+11800D01*
X-3605580Y+11800D02*
X-3585260Y+11800D01*
X-3534460Y+11800D02*
X-3519220Y+11800D01*
X-3463340Y+11800D02*
X-3443020Y+11800D01*
X-3392220Y+11800D02*
X-3382060Y+11800D01*
X-3300780Y+11800D02*
X-3285540Y+11800D01*
X-3234740Y+11800D02*
X-3214420Y+11800D01*
X-3163620Y+11800D02*
X-3143300Y+11800D01*
X-3036620Y+11800D02*
X-3026460Y+11800D01*
X-2975660Y+11800D02*
X-2960420Y+11800D01*
X-2909620Y+11800D02*
X-2889300Y+11800D01*
X-2848660Y+11800D02*
X-2828340Y+11800D01*
X-2767380Y+11800D02*
X-2752140Y+11800D01*
X-2701340Y+11800D02*
X-2675940Y+11800D01*
X-2620060Y+11800D02*
X-2599740Y+11800D01*
X-2564180Y+11800D02*
X-2554020Y+11800D01*
X-2472740Y+11800D02*
X-2447340Y+11800D01*
X-2360980Y+11800D02*
X-2284780Y+11800D01*
X-2259380Y+11800D02*
X-2233980Y+11800D01*
X-2208580Y+11800D02*
X-2198420Y+11800D01*
X-2142540Y+11800D02*
X-2127300Y+11800D01*
X-2096820Y+11800D02*
X-2081580Y+11800D01*
X-2030780Y+11800D02*
X-2020620Y+11800D01*
X-1990140Y+11800D02*
X-1979980Y+11800D01*
X-1873300Y+11800D02*
X-1852980Y+11800D01*
X-1797100Y+11800D02*
X-1771700Y+11800D01*
X-1746300Y+11800D02*
X-1731060Y+11800D01*
X-1695500Y+11800D02*
X-1685340Y+11800D01*
X-4062780Y+16880D02*
X-4042460Y+16880D01*
X-3971340Y+16880D02*
X-3935780Y+16880D01*
X-3910380Y+16880D02*
X-3879900Y+16880D01*
X-3824020Y+16880D02*
X-3793540Y+16880D01*
X-3773220Y+16880D02*
X-3686860Y+16880D01*
X-3600500Y+16880D02*
X-3575100Y+16880D01*
X-3544620Y+16880D02*
X-3524300Y+16880D01*
X-3468420Y+16880D02*
X-3437940Y+16880D01*
X-3397300Y+16880D02*
X-3376980Y+16880D01*
X-3295700Y+16880D02*
X-3285540Y+16880D01*
X-3229660Y+16880D02*
X-3204260Y+16880D01*
X-3173780Y+16880D02*
X-3148380Y+16880D01*
X-3041700Y+16880D02*
X-3021380Y+16880D01*
X-2975660Y+16880D02*
X-2960420Y+16880D01*
X-2914700Y+16880D02*
X-2884220Y+16880D01*
X-2853740Y+16880D02*
X-2752140Y+16880D01*
X-2696260Y+16880D02*
X-2660700Y+16880D01*
X-2630220Y+16880D02*
X-2599740Y+16880D01*
X-2569260Y+16880D02*
X-2548940Y+16880D01*
X-2477820Y+16880D02*
X-2442260Y+16880D01*
X-2366060Y+16880D02*
X-2289860Y+16880D01*
X-2259380Y+16880D02*
X-2208580Y+16880D01*
X-2137460Y+16880D02*
X-2122220Y+16880D01*
X-2101900Y+16880D02*
X-2086660Y+16880D01*
X-2025700Y+16880D02*
X-2015540Y+16880D01*
X-1995220Y+16880D02*
X-1985060Y+16880D01*
X-1878380Y+16880D02*
X-1847900Y+16880D01*
X-1792020Y+16880D02*
X-1761540Y+16880D01*
X-1746300Y+16880D02*
X-1720900Y+16880D01*
X-1700580Y+16880D02*
X-1690420Y+16880D01*
X-4072940Y+21960D02*
X-4027220Y+21960D01*
X-3981500Y+21960D02*
X-3864660Y+21960D01*
X-3818940Y+21960D02*
X-3702100Y+21960D01*
X-3595420Y+21960D02*
X-3529380Y+21960D01*
X-3483660Y+21960D02*
X-3422700Y+21960D01*
X-3412540Y+21960D02*
X-3361740Y+21960D01*
X-3295700Y+21960D02*
X-3285540Y+21960D01*
X-3219500Y+21960D02*
X-3158540Y+21960D01*
X-3056940Y+21960D02*
X-3006140Y+21960D01*
X-2970580Y+21960D02*
X-2965500Y+21960D01*
X-2929940Y+21960D02*
X-2752140Y+21960D01*
X-2686100Y+21960D02*
X-2609900Y+21960D01*
X-2579420Y+21960D02*
X-2533700Y+21960D01*
X-2487980Y+21960D02*
X-2432100Y+21960D01*
X-2371140Y+21960D02*
X-2289860Y+21960D01*
X-2249220Y+21960D02*
X-2218740Y+21960D01*
X-2127300Y+21960D02*
X-2096820Y+21960D01*
X-2020620Y+21960D02*
X-1995220Y+21960D01*
X-1893620Y+21960D02*
X-1832660Y+21960D01*
X-1786940Y+21960D02*
X-1751380Y+21960D01*
X-1741220Y+21960D02*
X-1700580Y+21960D01*
X-3585260Y+27040D02*
X-3539540Y+27040D01*
X-3209340Y+27040D02*
X-3168700Y+27040D01*
X-2670860Y+27040D02*
X-2625140Y+27040D01*
D25*
X-5127000Y+2073000D02*
X-3095000Y+2073000D01*
X-3095000Y+2327000D01*
X-5127000Y+2327000D01*
X-5127000Y+2073000D01*
X-2841000Y+2073000D02*
X-809000Y+2073000D01*
X-809000Y+2327000D01*
X-2841000Y+2327000D01*
X-2841000Y+2073000D01*
X-555000Y+2073000D02*
X+1477000Y+2073000D01*
X+1477000Y+2327000D01*
X-555000Y+2327000D01*
X-555000Y+2073000D01*
X+1477000Y-2753000D02*
X+1985000Y-2753000D01*
X+1985000Y+1819000D01*
X+1477000Y+1819000D01*
X+1477000Y-2753000D01*
X-6041400Y-2753000D02*
X-3501400Y-2753000D01*
X-3501400Y-2499000D01*
X-6041400Y-2499000D01*
X-6041400Y-2753000D01*
X-3349000Y-2753000D02*
X-1317000Y-2753000D01*
X-1317000Y-2499000D01*
X-3349000Y-2499000D01*
X-3349000Y-2753000D01*
X-1063000Y-2753000D02*
X+969000Y-2753000D01*
X+969000Y-2499000D01*
X-1063000Y-2499000D01*
X-1063000Y-2753000D01*
X-7895840Y+83000D02*
X-7911080Y+98875D01*
X-7911080Y+162375D01*
X-7895840Y+178250D01*
X-7880600Y+178250D01*
X-7865360Y+162375D01*
X-7865360Y+98875D01*
X-7850120Y+83000D01*
X-7834880Y+83000D01*
X-7819640Y+98875D01*
X-7819640Y+162375D01*
X-7834880Y+178250D01*
X-7819640Y+225875D02*
X-7819640Y+289375D01*
X-7819640Y+257625D02*
X-7911080Y+257625D01*
X-7911080Y+225875D02*
X-7911080Y+289375D01*
X-7911080Y+337000D02*
X-7819640Y+337000D01*
X-7865360Y+384625D01*
X-7819640Y+432250D01*
X-7911080Y+432250D01*
X-7850120Y+495750D02*
X-7819640Y+527500D01*
X-7911080Y+527500D01*
D26*
X+5693600Y-2930000D02*
X+5693469Y-2926842D01*
X+5692403Y-2920524D01*
X+5690172Y-2914206D01*
X+5686527Y-2907888D01*
X+5680952Y-2901649D01*
X+5674634Y-2897053D01*
X+5668316Y-2894120D01*
X+5661998Y-2892458D01*
X+5655680Y-2891900D01*
X+5655500Y-2891900D01*
X+5617400Y-2930000D02*
X+5617531Y-2926842D01*
X+5618597Y-2920524D01*
X+5620828Y-2914206D01*
X+5624473Y-2907888D01*
X+5630048Y-2901649D01*
X+5636366Y-2897053D01*
X+5642684Y-2894120D01*
X+5649002Y-2892458D01*
X+5655320Y-2891900D01*
X+5655500Y-2891900D01*
X+5617400Y-2930000D02*
X+5617531Y-2933158D01*
X+5618597Y-2939476D01*
X+5620828Y-2945794D01*
X+5624473Y-2952112D01*
X+5630048Y-2958351D01*
X+5636366Y-2962947D01*
X+5642684Y-2965880D01*
X+5649002Y-2967542D01*
X+5655320Y-2968100D01*
X+5655500Y-2968100D01*
X+5693600Y-2930000D02*
X+5693469Y-2933158D01*
X+5692403Y-2939476D01*
X+5690172Y-2945794D01*
X+5686527Y-2952112D01*
X+5680952Y-2958351D01*
X+5674634Y-2962947D01*
X+5668316Y-2965880D01*
X+5661998Y-2967542D01*
X+5655680Y-2968100D01*
X+5655500Y-2968100D01*
X+5693600Y+1224000D02*
X+5693469Y+1227158D01*
X+5692403Y+1233476D01*
X+5690172Y+1239794D01*
X+5686527Y+1246112D01*
X+5680952Y+1252351D01*
X+5674634Y+1256947D01*
X+5668316Y+1259880D01*
X+5661998Y+1261542D01*
X+5655680Y+1262100D01*
X+5655500Y+1262100D01*
X+5617400Y+1224000D02*
X+5617531Y+1227158D01*
X+5618597Y+1233476D01*
X+5620828Y+1239794D01*
X+5624473Y+1246112D01*
X+5630048Y+1252351D01*
X+5636366Y+1256947D01*
X+5642684Y+1259880D01*
X+5649002Y+1261542D01*
X+5655320Y+1262100D01*
X+5655500Y+1262100D01*
X+5617400Y+1224000D02*
X+5617531Y+1220842D01*
X+5618597Y+1214524D01*
X+5620828Y+1208206D01*
X+5624473Y+1201888D01*
X+5630048Y+1195649D01*
X+5636366Y+1191053D01*
X+5642684Y+1188120D01*
X+5649002Y+1186458D01*
X+5655320Y+1185900D01*
X+5655500Y+1185900D01*
X+5693600Y+1224000D02*
X+5693469Y+1220842D01*
X+5692403Y+1214524D01*
X+5690172Y+1208206D01*
X+5686527Y+1201888D01*
X+5680952Y+1195649D01*
X+5674634Y+1191053D01*
X+5668316Y+1188120D01*
X+5661998Y+1186458D01*
X+5655680Y+1185900D01*
X+5655500Y+1185900D01*
X+5693600Y+4416000D02*
X+5693469Y+4419158D01*
X+5692403Y+4425476D01*
X+5690172Y+4431794D01*
X+5686527Y+4438112D01*
X+5680952Y+4444351D01*
X+5674634Y+4448947D01*
X+5668316Y+4451880D01*
X+5661998Y+4453542D01*
X+5655680Y+4454100D01*
X+5655500Y+4454100D01*
X+5617400Y+4416000D02*
X+5617531Y+4419158D01*
X+5618597Y+4425476D01*
X+5620828Y+4431794D01*
X+5624473Y+4438112D01*
X+5630048Y+4444351D01*
X+5636366Y+4448947D01*
X+5642684Y+4451880D01*
X+5649002Y+4453542D01*
X+5655320Y+4454100D01*
X+5655500Y+4454100D01*
X+5617400Y+4416000D02*
X+5617531Y+4412842D01*
X+5618597Y+4406524D01*
X+5620828Y+4400206D01*
X+5624473Y+4393888D01*
X+5630048Y+4387649D01*
X+5636366Y+4383053D01*
X+5642684Y+4380120D01*
X+5649002Y+4378458D01*
X+5655320Y+4377900D01*
X+5655500Y+4377900D01*
X+5693600Y+4416000D02*
X+5693469Y+4412842D01*
X+5692403Y+4406524D01*
X+5690172Y+4400206D01*
X+5686527Y+4393888D01*
X+5680952Y+4387649D01*
X+5674634Y+4383053D01*
X+5668316Y+4380120D01*
X+5661998Y+4378458D01*
X+5655680Y+4377900D01*
X+5655500Y+4377900D01*
D23*
X-8000000Y-5000000D02*
X+8000000Y-5000000D01*
X+8000000Y+5000000D01*
X-8000000Y+5000000D01*
X-8000000Y-5000000D01*
M02*
