G04 PROTEUS GERBER X2 FILE*
%TF.GenerationSoftware,Labcenter,Proteus,8.13-SP0-Build31525*%
%TF.CreationDate,2024-05-27T20:47:48+00:00*%
%TF.FileFunction,Copper,L2,Bot*%
%TF.FilePolarity,Positive*%
%TF.Part,Single*%
%TF.SameCoordinates,{f61d12dc-bb82-4ee6-a880-d96314c33a89}*%
%FSLAX45Y45*%
%MOMM*%
G01*
%TA.AperFunction,Conductor*%
%ADD10C,0.508000*%
%ADD11C,0.254000*%
%ADD12C,0.635000*%
%ADD14C,1.016000*%
%ADD13C,0.381000*%
%TA.AperFunction,ViaPad*%
%ADD15C,0.762000*%
%ADD16C,1.016000*%
%ADD17C,1.778000*%
%TA.AperFunction,ComponentPad*%
%ADD18R,2.032000X2.032000*%
%TA.AperFunction,ComponentPad*%
%ADD19C,2.032000*%
%TA.AperFunction,ComponentPad*%
%ADD70R,2.286000X2.286000*%
%TA.AperFunction,ComponentPad*%
%ADD71C,1.778000*%
%TA.AperFunction,ComponentPad*%
%ADD20C,2.286000*%
%TA.AperFunction,ComponentPad*%
%ADD21R,1.524000X1.524000*%
%TA.AperFunction,OtherPad,Unknown*%
%ADD22C,1.524000*%
%TA.AperFunction,ComponentPad*%
%ADD23C,3.048000*%
%TA.AperFunction,Profile*%
%ADD24C,0.203200*%
%TD.AperFunction*%
G36*
X-8000000Y-5000000D02*
X+8000000Y-5000000D01*
X+8000000Y+5000000D01*
X-8000000Y+5000000D01*
X-8000000Y-5000000D01*
G37*
%LPC*%
G36*
X-1252951Y+4965699D02*
X+6389903Y+4965699D01*
X+6540499Y+4815103D01*
X+6540499Y+3503397D01*
X+6315899Y+3278797D01*
X+6315899Y+3272999D01*
X+6758435Y+3272999D01*
X+6800135Y+3314699D01*
X+6915865Y+3314699D01*
X+6997699Y+3232865D01*
X+6997699Y+3117135D01*
X+6915865Y+3035301D01*
X+6897903Y+3035301D01*
X+6881603Y+3019001D01*
X+6315899Y+3019001D01*
X+6315899Y+2764999D01*
X+6377435Y+2764999D01*
X+6419135Y+2806699D01*
X+6534865Y+2806699D01*
X+6616699Y+2724865D01*
X+6616699Y+2609135D01*
X+6534865Y+2527301D01*
X+6516903Y+2527301D01*
X+6500603Y+2511001D01*
X+6315899Y+2511001D01*
X+6315899Y+1914101D01*
X+5630101Y+1914101D01*
X+5630101Y+3019001D01*
X+5535397Y+3019001D01*
X+5334001Y+3220397D01*
X+5334001Y+4582897D01*
X+5319497Y+4597401D01*
X+2948201Y+4597401D01*
X+3111499Y+4434103D01*
X+3111499Y+3118565D01*
X+3124199Y+3105865D01*
X+3124199Y+3046199D01*
X+3253268Y+3046199D01*
X+3296100Y+3003367D01*
X+3338932Y+3046199D01*
X+3507268Y+3046199D01*
X+3550100Y+3003367D01*
X+3592932Y+3046199D01*
X+3761268Y+3046199D01*
X+3804100Y+3003367D01*
X+3846932Y+3046199D01*
X+4015268Y+3046199D01*
X+4058100Y+3003367D01*
X+4100932Y+3046199D01*
X+4269268Y+3046199D01*
X+4321080Y+2994386D01*
X+4360193Y+3033499D01*
X+4518007Y+3033499D01*
X+4557120Y+2994386D01*
X+4608932Y+3046199D01*
X+4648199Y+3046199D01*
X+4635502Y+3058896D01*
X+4635502Y+3111500D01*
X+4635501Y+3294935D01*
X+4622801Y+3307635D01*
X+4622801Y+3423365D01*
X+4704635Y+3505199D01*
X+4820365Y+3505199D01*
X+4902199Y+3423365D01*
X+4902199Y+3307635D01*
X+4889499Y+3294935D01*
X+4889498Y+3164104D01*
X+4929403Y+3124199D01*
X+5119903Y+3124199D01*
X+5430519Y+2813583D01*
X+5430519Y+2084603D01*
X+5610124Y+1904998D01*
X+6787435Y+1904999D01*
X+6800135Y+1917699D01*
X+6915865Y+1917699D01*
X+6997699Y+1835865D01*
X+6997699Y+1720135D01*
X+6915865Y+1638301D01*
X+6800135Y+1638301D01*
X+6787435Y+1651001D01*
X+6478801Y+1651001D01*
X+6718299Y+1411503D01*
X+6718299Y-106953D01*
X+6398253Y-426999D01*
X+6315899Y-426999D01*
X+6315899Y-433547D01*
X+6413499Y-531147D01*
X+6413499Y-839435D01*
X+6426199Y-852135D01*
X+6426199Y-935001D01*
X+6893104Y-935002D01*
X+7076999Y-1118897D01*
X+7076999Y-2564103D01*
X+6910603Y-2730499D01*
X+6315899Y-2730499D01*
X+6315899Y-3565001D01*
X+6352603Y-3565001D01*
X+6626999Y-3839397D01*
X+6626999Y-4588774D01*
X+6288174Y-4927599D01*
X-1324100Y-4927599D01*
X-1587499Y-4664200D01*
X-1587499Y-4406526D01*
X-1612899Y-4381126D01*
X-1612899Y-4265199D01*
X-1616168Y-4265199D01*
X-1735199Y-4146168D01*
X-1735199Y-4000499D01*
X-1896801Y-4000499D01*
X-1896801Y-4146168D01*
X-2015832Y-4265199D01*
X-2184168Y-4265199D01*
X-2227000Y-4222367D01*
X-2269832Y-4265199D01*
X-2438168Y-4265199D01*
X-2481000Y-4222367D01*
X-2523832Y-4265199D01*
X-2692168Y-4265199D01*
X-2735000Y-4222367D01*
X-2777832Y-4265199D01*
X-2946168Y-4265199D01*
X-2989000Y-4222367D01*
X-3031832Y-4265199D01*
X-3200168Y-4265199D01*
X-3243000Y-4222367D01*
X-3285832Y-4265199D01*
X-3454168Y-4265199D01*
X-3497000Y-4222367D01*
X-3539832Y-4265199D01*
X-3708168Y-4265199D01*
X-3751000Y-4222367D01*
X-3793832Y-4265199D01*
X-3962168Y-4265199D01*
X-4005000Y-4222367D01*
X-4047832Y-4265199D01*
X-4216168Y-4265199D01*
X-4335199Y-4146168D01*
X-4335199Y-3977832D01*
X-4216168Y-3858801D01*
X-4047832Y-3858801D01*
X-4005000Y-3901633D01*
X-3962168Y-3858801D01*
X-3854403Y-3858801D01*
X-3610023Y-3614421D01*
X+1009863Y-3614421D01*
X+1189510Y-3794068D01*
X+1264966Y-3794068D01*
X+1051561Y-3580663D01*
X+1051561Y-3256279D01*
X+1024175Y-3256279D01*
X+942341Y-3174445D01*
X+942341Y-3121659D01*
X+902255Y-3121659D01*
X+889190Y-3108594D01*
X+703199Y-3104890D01*
X+703199Y-3503199D01*
X+161832Y-3503199D01*
X+119000Y-3460367D01*
X+76168Y-3503199D01*
X-92168Y-3503199D01*
X-135000Y-3460367D01*
X-177832Y-3503199D01*
X-346168Y-3503199D01*
X-389000Y-3460367D01*
X-431832Y-3503199D01*
X-600168Y-3503199D01*
X-643000Y-3460367D01*
X-685832Y-3503199D01*
X-854168Y-3503199D01*
X-897000Y-3460367D01*
X-939832Y-3503199D01*
X-1108168Y-3503199D01*
X-1151000Y-3460367D01*
X-1193832Y-3503199D01*
X-1362168Y-3503199D01*
X-1405000Y-3460367D01*
X-1447832Y-3503199D01*
X-1616168Y-3503199D01*
X-1735199Y-3384168D01*
X-1735199Y-3226999D01*
X-1896801Y-3226999D01*
X-1896801Y-3503199D01*
X-2438168Y-3503199D01*
X-2481000Y-3460367D01*
X-2523832Y-3503199D01*
X-2692168Y-3503199D01*
X-2735000Y-3460367D01*
X-2777832Y-3503199D01*
X-2946168Y-3503199D01*
X-2989000Y-3460367D01*
X-3031832Y-3503199D01*
X-3200168Y-3503199D01*
X-3243000Y-3460367D01*
X-3285832Y-3503199D01*
X-3454168Y-3503199D01*
X-3497000Y-3460367D01*
X-3539832Y-3503199D01*
X-3708168Y-3503199D01*
X-3751000Y-3460367D01*
X-3793832Y-3503199D01*
X-3962168Y-3503199D01*
X-4005000Y-3460367D01*
X-4047832Y-3503199D01*
X-4216168Y-3503199D01*
X-4335199Y-3384168D01*
X-4335199Y-3266999D01*
X-4850103Y-3266999D01*
X-5025398Y-3091704D01*
X-5025398Y-2829199D01*
X-5516482Y-2829199D01*
X-5516482Y-2916202D01*
X-5510132Y-2922552D01*
X-5510132Y-3038282D01*
X-5528020Y-3056170D01*
X-5500331Y-3083860D01*
X-5500331Y-3399961D01*
X-5176481Y-3399961D01*
X-5176481Y-3806359D01*
X-6090879Y-3806359D01*
X-6090879Y-3399961D01*
X-5767029Y-3399961D01*
X-5767029Y-3194326D01*
X-6047749Y-2913606D01*
X-6047749Y-2829199D01*
X-6117599Y-2829199D01*
X-6117599Y-2422801D01*
X-3425201Y-2422801D01*
X-3425201Y-2811197D01*
X-3425199Y-2811199D01*
X-3425199Y-2422801D01*
X-1267029Y-2422801D01*
X-1267029Y-1404927D01*
X-352323Y-490221D01*
X+994697Y-490221D01*
X+1024266Y-460652D01*
X+1134734Y-460652D01*
X+1141083Y-467001D01*
X+1341750Y-467002D01*
X+1400801Y-467001D01*
X+1400801Y-466999D01*
X+1217397Y-466999D01*
X+1079501Y-329103D01*
X+1079501Y-10897D01*
X+1131399Y+41001D01*
X+1090397Y+41001D01*
X+889001Y+242397D01*
X+889001Y+1957603D01*
X+928199Y+1996801D01*
X-508001Y+1996801D01*
X-508001Y+1915897D01*
X-645897Y+1778001D01*
X-6295803Y+1778001D01*
X-7147903Y+2630101D01*
X-7273628Y+2630101D01*
X-7400099Y+2756572D01*
X-7400099Y+2935428D01*
X-7273628Y+3061899D01*
X-7094772Y+3061899D01*
X-6968301Y+2935428D01*
X-6968301Y+2809703D01*
X-6190597Y+2031999D01*
X-5203199Y+2031999D01*
X-5203199Y+2403199D01*
X-3174999Y+2403199D01*
X-3174999Y+2931897D01*
X-3227603Y+2984501D01*
X-4180103Y+2984501D01*
X-4381499Y+3185897D01*
X-4381499Y+4546974D01*
X-4406899Y+4572374D01*
X-4406899Y+4698626D01*
X-4317626Y+4787899D01*
X-4191374Y+4787899D01*
X-4102101Y+4698626D01*
X-4102101Y+4665199D01*
X-4015832Y+4665199D01*
X-3973000Y+4622367D01*
X-3930168Y+4665199D01*
X-3761832Y+4665199D01*
X-3719000Y+4622367D01*
X-3676168Y+4665199D01*
X-3507832Y+4665199D01*
X-3465000Y+4622367D01*
X-3422168Y+4665199D01*
X-3253832Y+4665199D01*
X-3211000Y+4622367D01*
X-3168168Y+4665199D01*
X-2999832Y+4665199D01*
X-2957000Y+4622367D01*
X-2914168Y+4665199D01*
X-2745832Y+4665199D01*
X-2703000Y+4622367D01*
X-2660168Y+4665199D01*
X-2491832Y+4665199D01*
X-2372801Y+4546168D01*
X-2372801Y+4377832D01*
X-2432634Y+4317999D01*
X-2423603Y+4317999D01*
X-2303199Y+4438403D01*
X-2303199Y+4546168D01*
X-2184168Y+4665199D01*
X-2015832Y+4665199D01*
X-1973000Y+4622367D01*
X-1972999Y+4622368D01*
X-1972999Y+4815103D01*
X-1809703Y+4978399D01*
X-1265651Y+4978399D01*
X-1252951Y+4965699D01*
G37*
G36*
X-5622099Y+2756572D02*
X-5622099Y+2935428D01*
X-5495628Y+3061899D01*
X-5316772Y+3061899D01*
X-5190301Y+2935428D01*
X-5190301Y+2756572D01*
X-5316772Y+2630101D01*
X-5495628Y+2630101D01*
X-5622099Y+2756572D01*
G37*
G36*
X-6638099Y+3010572D02*
X-6638099Y+3189428D01*
X-6511628Y+3315899D01*
X-6332772Y+3315899D01*
X-6206301Y+3189428D01*
X-6206301Y+3010572D01*
X-6332772Y+2884101D01*
X-6511628Y+2884101D01*
X-6638099Y+3010572D01*
G37*
G36*
X-5622099Y+3669272D02*
X-5622099Y+3848128D01*
X-5495628Y+3974599D01*
X-5316772Y+3974599D01*
X-5190301Y+3848128D01*
X-5190301Y+3669272D01*
X-5316772Y+3542801D01*
X-5495628Y+3542801D01*
X-5622099Y+3669272D01*
G37*
G36*
X-7400099Y+3669272D02*
X-7400099Y+3848128D01*
X-7273628Y+3974599D01*
X-7094772Y+3974599D01*
X-6968301Y+3848128D01*
X-6968301Y+3669272D01*
X-7094772Y+3542801D01*
X-7273628Y+3542801D01*
X-7400099Y+3669272D01*
G37*
G36*
X-6638099Y+3923272D02*
X-6638099Y+4102128D01*
X-6511628Y+4228599D01*
X-6332772Y+4228599D01*
X-6206301Y+4102128D01*
X-6206301Y+3923272D01*
X-6332772Y+3796801D01*
X-6511628Y+3796801D01*
X-6638099Y+3923272D01*
G37*
G36*
X+7546201Y+4371353D02*
X+7546201Y+4518647D01*
X+7650353Y+4622799D01*
X+7797647Y+4622799D01*
X+7901799Y+4518647D01*
X+7901799Y+4371353D01*
X+7797647Y+4267201D01*
X+7650353Y+4267201D01*
X+7546201Y+4371353D01*
G37*
G36*
X+7546201Y-4518647D02*
X+7546201Y-4371353D01*
X+7650353Y-4267201D01*
X+7797647Y-4267201D01*
X+7901799Y-4371353D01*
X+7901799Y-4518647D01*
X+7797647Y-4622799D01*
X+7650353Y-4622799D01*
X+7546201Y-4518647D01*
G37*
G36*
X-7820799Y+4371353D02*
X-7820799Y+4518647D01*
X-7716647Y+4622799D01*
X-7569353Y+4622799D01*
X-7465201Y+4518647D01*
X-7465201Y+4371353D01*
X-7569353Y+4267201D01*
X-7716647Y+4267201D01*
X-7820799Y+4371353D01*
G37*
G36*
X-7820799Y-4518647D02*
X-7820799Y-4371353D01*
X-7716647Y-4267201D01*
X-7569353Y-4267201D01*
X-7465201Y-4371353D01*
X-7465201Y-4518647D01*
X-7569353Y-4622799D01*
X-7716647Y-4622799D01*
X-7820799Y-4518647D01*
G37*
G36*
X-6279086Y-1727691D02*
X-6279086Y-1885505D01*
X-6317186Y-1923605D01*
X-6317186Y-2692230D01*
X-6924041Y-3299085D01*
X-6924041Y-3442770D01*
X-7072830Y-3591559D01*
X-7283250Y-3591559D01*
X-7432039Y-3442770D01*
X-7432039Y-3232350D01*
X-7283250Y-3083561D01*
X-7139565Y-3083561D01*
X-6621984Y-2565980D01*
X-6621984Y-1923605D01*
X-6660084Y-1885505D01*
X-6660084Y-1727691D01*
X-6548492Y-1616099D01*
X-6390678Y-1616099D01*
X-6279086Y-1727691D01*
G37*
G36*
X-7283250Y-3591561D02*
X-7072830Y-3591561D01*
X-6924041Y-3740350D01*
X-6924041Y-3950770D01*
X-7072830Y-4099559D01*
X-7283250Y-4099559D01*
X-7432039Y-3950770D01*
X-7432039Y-3740350D01*
X-7283250Y-3591561D01*
G37*
%LPD*%
G36*
X-2936484Y+4281118D02*
X-3314403Y+3903199D01*
X-3422168Y+3903199D01*
X-3465000Y+3860367D01*
X-3507832Y+3903199D01*
X-3676168Y+3903199D01*
X-3719000Y+3860367D01*
X-3761832Y+3903199D01*
X-4127501Y+3903199D01*
X-4127501Y+4258801D01*
X-4015832Y+4258801D01*
X-3973000Y+4301633D01*
X-3930168Y+4258801D01*
X-3761832Y+4258801D01*
X-3719000Y+4301633D01*
X-3676168Y+4258801D01*
X-3507832Y+4258801D01*
X-3465000Y+4301633D01*
X-3422168Y+4258801D01*
X-3253832Y+4258801D01*
X-3211000Y+4301633D01*
X-3168168Y+4258801D01*
X-2999832Y+4258801D01*
X-2957000Y+4301633D01*
X-2936484Y+4281118D01*
G37*
G36*
X-660168Y+4258801D02*
X-552403Y+4258801D01*
X-266699Y+3973097D01*
X-266699Y+3903199D01*
X-406168Y+3903199D01*
X-449000Y+3860367D01*
X-491832Y+3903199D01*
X-660168Y+3903199D01*
X-703000Y+3860367D01*
X-745832Y+3903199D01*
X-914168Y+3903199D01*
X-957000Y+3860367D01*
X-999832Y+3903199D01*
X-1168168Y+3903199D01*
X-1211000Y+3860367D01*
X-1253832Y+3903199D01*
X-1422168Y+3903199D01*
X-1465000Y+3860367D01*
X-1507832Y+3903199D01*
X-1676168Y+3903199D01*
X-1719000Y+3860367D01*
X-1761832Y+3903199D01*
X-2067199Y+3903199D01*
X-2020696Y+3949702D01*
X-904395Y+3949702D01*
X-830001Y+4024096D01*
X-830001Y+4258801D01*
X-745832Y+4258801D01*
X-703000Y+4301633D01*
X-660168Y+4258801D01*
G37*
G36*
X+2857501Y+4328897D02*
X+2857501Y+3118565D01*
X+2844801Y+3105865D01*
X+2844801Y+3046199D01*
X+2830932Y+3046199D01*
X+2730499Y+2945766D01*
X+2730499Y+2977435D01*
X+2743199Y+2990135D01*
X+2743199Y+3105865D01*
X+2661365Y+3187699D01*
X+2545635Y+3187699D01*
X+2463801Y+3105865D01*
X+2463801Y+2990135D01*
X+2476501Y+2977435D01*
X+2476502Y+2476500D01*
X+2476501Y+1975565D01*
X+2463801Y+1962865D01*
X+2463801Y+1847135D01*
X+2545635Y+1765301D01*
X+2597728Y+1765301D01*
X+2597728Y+1733033D01*
X+2623766Y+1706995D01*
X+2660590Y+1706995D01*
X+2686628Y+1733033D01*
X+2686628Y+1769857D01*
X+2676274Y+1780210D01*
X+2743199Y+1847135D01*
X+2743199Y+1877801D01*
X+3253268Y+1877801D01*
X+3296100Y+1920633D01*
X+3338932Y+1877801D01*
X+3507268Y+1877801D01*
X+3550100Y+1920633D01*
X+3592932Y+1877801D01*
X+3761268Y+1877801D01*
X+3804100Y+1920633D01*
X+3846932Y+1877801D01*
X+4015268Y+1877801D01*
X+4058100Y+1920633D01*
X+4100932Y+1877801D01*
X+4269268Y+1877801D01*
X+4312100Y+1920633D01*
X+4354932Y+1877801D01*
X+4523268Y+1877801D01*
X+4566100Y+1920633D01*
X+4608932Y+1877801D01*
X+4777268Y+1877801D01*
X+4820100Y+1920633D01*
X+4862932Y+1877801D01*
X+5016501Y+1877801D01*
X+5016501Y+1404065D01*
X+5003801Y+1391365D01*
X+5003801Y+1275635D01*
X+5085635Y+1193801D01*
X+5113021Y+1193801D01*
X+5113021Y+1060446D01*
X+5030468Y+1142999D01*
X+4862132Y+1142999D01*
X+4819300Y+1100167D01*
X+4776468Y+1142999D01*
X+4608132Y+1142999D01*
X+4565300Y+1100167D01*
X+4522468Y+1142999D01*
X+4354132Y+1142999D01*
X+4311300Y+1100167D01*
X+4268468Y+1142999D01*
X+4100132Y+1142999D01*
X+4057300Y+1100167D01*
X+4014468Y+1142999D01*
X+3846132Y+1142999D01*
X+3803300Y+1100167D01*
X+3760468Y+1142999D01*
X+3592132Y+1142999D01*
X+3549300Y+1100167D01*
X+3506468Y+1142999D01*
X+3338132Y+1142999D01*
X+3295300Y+1100167D01*
X+3252468Y+1142999D01*
X+3084132Y+1142999D01*
X+3041300Y+1100167D01*
X+2998468Y+1142999D01*
X+2830132Y+1142999D01*
X+2711101Y+1023968D01*
X+2711101Y+855632D01*
X+2830132Y+736601D01*
X+2998468Y+736601D01*
X+3041300Y+779433D01*
X+3084132Y+736601D01*
X+3252468Y+736601D01*
X+3295300Y+779433D01*
X+3338132Y+736601D01*
X+3506468Y+736601D01*
X+3549300Y+779433D01*
X+3592132Y+736601D01*
X+3760468Y+736601D01*
X+3803300Y+779433D01*
X+3846132Y+736601D01*
X+4014468Y+736601D01*
X+4057300Y+779433D01*
X+4100132Y+736601D01*
X+4268468Y+736601D01*
X+4311300Y+779433D01*
X+4354132Y+736601D01*
X+4522468Y+736601D01*
X+4565300Y+779433D01*
X+4608132Y+736601D01*
X+4776468Y+736601D01*
X+4819300Y+779433D01*
X+4862132Y+736601D01*
X+5030468Y+736601D01*
X+5113021Y+819154D01*
X+5113021Y+298446D01*
X+5030468Y+380999D01*
X+4862132Y+380999D01*
X+4819300Y+338167D01*
X+4776468Y+380999D01*
X+4608132Y+380999D01*
X+4565300Y+338167D01*
X+4522468Y+380999D01*
X+4414703Y+380999D01*
X+4118703Y+676999D01*
X+2716063Y+676999D01*
X+2743199Y+704135D01*
X+2743199Y+819865D01*
X+2661365Y+901699D01*
X+2643403Y+901699D01*
X+2444749Y+1100353D01*
X+2444749Y+2306853D01*
X+2211604Y+2539998D01*
X+1598396Y+2539998D01*
X+1461597Y+2403199D01*
X+992761Y+2403199D01*
X+1064793Y+2475231D01*
X+1073775Y+2475231D01*
X+1151889Y+2553345D01*
X+1151889Y+2580547D01*
X+1182135Y+2550301D01*
X+1297865Y+2550301D01*
X+1379699Y+2632135D01*
X+1379699Y+2650097D01*
X+1476999Y+2747397D01*
X+1476999Y+3169399D01*
X+1892301Y+2754097D01*
X+1892301Y+2736135D01*
X+1974135Y+2654301D01*
X+2089865Y+2654301D01*
X+2171699Y+2736135D01*
X+2171699Y+2851865D01*
X+2089865Y+2933699D01*
X+2071903Y+2933699D01*
X+1662099Y+3343503D01*
X+1662099Y+3539632D01*
X+1662100Y+3539633D01*
X+1704932Y+3496801D01*
X+1873268Y+3496801D01*
X+1916100Y+3539633D01*
X+1958932Y+3496801D01*
X+2127268Y+3496801D01*
X+2170100Y+3539633D01*
X+2212932Y+3496801D01*
X+2381268Y+3496801D01*
X+2500299Y+3615832D01*
X+2500299Y+3784168D01*
X+2381268Y+3903199D01*
X+2212932Y+3903199D01*
X+2170100Y+3860367D01*
X+2127268Y+3903199D01*
X+1958932Y+3903199D01*
X+1916100Y+3860367D01*
X+1873268Y+3903199D01*
X+1704932Y+3903199D01*
X+1662100Y+3860367D01*
X+1619268Y+3903199D01*
X+1450932Y+3903199D01*
X+1408100Y+3860367D01*
X+1365268Y+3903199D01*
X+1196932Y+3903199D01*
X+1154100Y+3860367D01*
X+1111268Y+3903199D01*
X+942932Y+3903199D01*
X+900100Y+3860367D01*
X+857268Y+3903199D01*
X+688932Y+3903199D01*
X+663532Y+3877799D01*
X+504896Y+3877799D01*
X+504896Y+3900071D01*
X+541826Y+3937001D01*
X+1951703Y+3937001D01*
X+2273503Y+4258801D01*
X+2381268Y+4258801D01*
X+2500299Y+4377832D01*
X+2500299Y+4508501D01*
X+2677897Y+4508501D01*
X+2857501Y+4328897D01*
G37*
G36*
X-406168Y+3496801D02*
X-266699Y+3496801D01*
X-266699Y+2938779D01*
X-907473Y+2938779D01*
X-912553Y+2933699D01*
X-1185444Y+2933699D01*
X-1493501Y+2625642D01*
X-1493501Y+2778907D01*
X-1605093Y+2890499D01*
X-1714501Y+2890499D01*
X-1714501Y+3122397D01*
X-1674499Y+3162399D01*
X-1674499Y+3021093D01*
X-1562907Y+2909501D01*
X-1405093Y+2909501D01*
X-1293501Y+3021093D01*
X-1293501Y+3162301D01*
X-1212135Y+3162301D01*
X-1130301Y+3244135D01*
X-1130301Y+3359865D01*
X-1212135Y+3441699D01*
X-1327865Y+3441699D01*
X-1340565Y+3428999D01*
X-1767103Y+3428999D01*
X-1968499Y+3227603D01*
X-1968499Y+3206001D01*
X-2173001Y+3410503D01*
X-2173001Y+3496801D01*
X-1761832Y+3496801D01*
X-1719000Y+3539633D01*
X-1676168Y+3496801D01*
X-1507832Y+3496801D01*
X-1465000Y+3539633D01*
X-1422168Y+3496801D01*
X-1253832Y+3496801D01*
X-1211000Y+3539633D01*
X-1168168Y+3496801D01*
X-999832Y+3496801D01*
X-957000Y+3539633D01*
X-914168Y+3496801D01*
X-745832Y+3496801D01*
X-703000Y+3539633D01*
X-660168Y+3496801D01*
X-491832Y+3496801D01*
X-449000Y+3539633D01*
X-406168Y+3496801D01*
G37*
G36*
X+2830932Y+2639801D02*
X+2938697Y+2639801D01*
X+3127397Y+2451101D01*
X+4864739Y+2451101D01*
X+4845050Y+2431412D01*
X+4845050Y+2394588D01*
X+4871088Y+2368550D01*
X+4907912Y+2368550D01*
X+4933950Y+2394588D01*
X+4933950Y+2431412D01*
X+4914261Y+2451101D01*
X+4989297Y+2451101D01*
X+5016502Y+2423896D01*
X+5016502Y+2284199D01*
X+4862932Y+2284199D01*
X+4820100Y+2241367D01*
X+4777268Y+2284199D01*
X+4608932Y+2284199D01*
X+4566100Y+2241367D01*
X+4523268Y+2284199D01*
X+4354932Y+2284199D01*
X+4312100Y+2241367D01*
X+4269268Y+2284199D01*
X+4100932Y+2284199D01*
X+4058100Y+2241367D01*
X+4015268Y+2284199D01*
X+3846932Y+2284199D01*
X+3804100Y+2241367D01*
X+3761268Y+2284199D01*
X+3592932Y+2284199D01*
X+3550100Y+2241367D01*
X+3507268Y+2284199D01*
X+3338932Y+2284199D01*
X+3296100Y+2241367D01*
X+3253268Y+2284199D01*
X+2730499Y+2284199D01*
X+2730498Y+2476500D01*
X+2730499Y+2740234D01*
X+2830932Y+2639801D01*
G37*
G36*
X+1400801Y+1488801D02*
X+1400801Y+828763D01*
X+1391365Y+838199D01*
X+1371599Y+838199D01*
X+1371599Y+1699997D01*
X+1400801Y+1729199D01*
X+1400801Y+1488801D01*
G37*
G36*
X+5050167Y-1229269D02*
X+5003801Y-1275635D01*
X+5003801Y-1391365D01*
X+5009237Y-1396801D01*
X+4862132Y-1396801D01*
X+4819300Y-1439633D01*
X+4776468Y-1396801D01*
X+4668703Y-1396801D01*
X+4478401Y-1206499D01*
X+5027397Y-1206499D01*
X+5050167Y-1229269D01*
G37*
G36*
X+5630101Y-2803001D02*
X+5510826Y-2803001D01*
X+5172353Y-3141474D01*
X+5172353Y-3651803D01*
X+5030088Y-3794068D01*
X+4205784Y-3794068D01*
X+4411703Y-3588149D01*
X+4519468Y-3588149D01*
X+4562300Y-3545317D01*
X+4605132Y-3588149D01*
X+4773468Y-3588149D01*
X+4816300Y-3545317D01*
X+4859132Y-3588149D01*
X+5027468Y-3588149D01*
X+5146499Y-3469118D01*
X+5146499Y-3300782D01*
X+5027468Y-3181751D01*
X+4859132Y-3181751D01*
X+4816300Y-3224583D01*
X+4773468Y-3181751D01*
X+4665703Y-3181751D01*
X+4306953Y-2823001D01*
X+4268616Y-2823001D01*
X+4308300Y-2783317D01*
X+4351132Y-2826149D01*
X+4458897Y-2826149D01*
X+4553747Y-2920999D01*
X+5132603Y-2920999D01*
X+5323103Y-2730499D01*
X+5630101Y-2730499D01*
X+5630101Y-2803001D01*
G37*
D10*
X-2460000Y-2626000D02*
X-2460000Y-2937500D01*
X-2413000Y-2984500D01*
X-831500Y-2984500D01*
X-516000Y-3300000D01*
X-2968000Y-2626000D02*
X-2968000Y-3001000D01*
X-2869000Y-3100000D01*
X-1224000Y-3100000D01*
X-1024000Y-3300000D01*
X-4644400Y-2626000D02*
X-4644400Y-2975600D01*
X-4560000Y-3060000D01*
X-3864000Y-3060000D01*
X-3624000Y-3300000D01*
X-4898400Y-2626000D02*
X-4898400Y-3039100D01*
X-4797500Y-3140000D01*
X-4038000Y-3140000D01*
X-3878000Y-3300000D01*
X-2500000Y+3100000D02*
X-2500000Y+3238500D01*
X-2576000Y+3314500D01*
X-2576000Y+3700000D01*
X-2500000Y+3100000D02*
X-2500000Y+2540000D01*
X-2460000Y+2500000D01*
X-2460000Y+2200000D01*
X-2576000Y+3700000D02*
X-2830000Y+3700000D01*
X-2700000Y+2700000D02*
X-2700000Y+2540000D01*
X-2714000Y+2526000D01*
X-2714000Y+2200000D01*
D11*
X-3846000Y+3700000D02*
X-4100000Y+3700000D01*
D10*
X-2100000Y+4462000D02*
X-2371000Y+4191000D01*
X-2847000Y+4191000D01*
X-3338000Y+3700000D01*
X+6100000Y+4406900D02*
X+6100000Y+4400000D01*
D11*
X+6100000Y+4162000D01*
D10*
X+5846000Y+4406900D02*
X+5846000Y+4400000D01*
D11*
X+5846000Y+4162000D01*
D10*
X+6100000Y+4416000D02*
X+6100000Y+4406900D01*
X+5846000Y+4406900D01*
X+5846000Y+4416000D02*
X+5846000Y+4406900D01*
X+1858000Y-2372000D02*
X+2032000Y-2372000D01*
X+2032000Y-2997027D01*
X+2254973Y-3220000D01*
X+3030000Y-3220000D01*
X+3165300Y-3355300D01*
X+3165300Y-3384950D01*
X+2021200Y-2118000D02*
X+2159000Y-2255800D01*
X+2159000Y-2906800D01*
X+2362200Y-3110000D01*
X+3398350Y-3110000D01*
X+3673300Y-3384950D01*
X+2021200Y-2118000D02*
X+1858000Y-2118000D01*
X+1858000Y-1864000D02*
X+2118000Y-1864000D01*
X+2286000Y-2032000D01*
X+2286000Y-2921000D01*
X+2395000Y-3030000D01*
X+3826350Y-3030000D01*
X+4181300Y-3384950D01*
X+1858000Y-1610000D02*
X+2245000Y-1610000D01*
X+2413000Y-1778000D01*
X+2413000Y-2825750D01*
X+2537250Y-2950000D01*
X+4254350Y-2950000D01*
X+4689300Y-3384950D01*
X+1858000Y-1356000D02*
X+2032000Y-1356000D01*
X+2032000Y-1397000D01*
X+2159000Y-1524000D01*
X+2349500Y-1524000D01*
X+2667000Y-1841500D01*
X+2971800Y-1841500D01*
X+3168300Y-1645000D01*
X+3168300Y-1600000D01*
X+3676300Y-1600000D02*
X+3473300Y-1397000D01*
X+2413000Y-1397000D01*
X+2118000Y-1102000D01*
X+1858000Y-1102000D01*
X+3168300Y+177800D02*
X+3168300Y-254000D01*
X+3082300Y-340000D01*
X+1858000Y-340000D01*
X+3619500Y-127000D02*
X+3676300Y-70200D01*
X+3676300Y+177800D01*
X+2032000Y-127000D02*
X+2032000Y-124100D01*
X+1993900Y-86000D01*
X+1858000Y-86000D01*
X+1333500Y+698500D02*
X+1581500Y+698500D01*
X+1604000Y+676000D01*
D11*
X+5846000Y-3438001D02*
X+5846000Y-3438000D01*
X-2608000Y-4062000D02*
X-2607999Y-4062000D01*
D10*
X-1460500Y-4318000D02*
X-1460500Y-4611597D01*
X-1271497Y-4800600D01*
X+6235571Y-4800600D01*
X+6500000Y-4536171D01*
X+6500000Y-3892000D01*
X+6300000Y-3692000D01*
X+6100000Y-3692000D01*
D11*
X+5846000Y-3946000D02*
X+5846001Y-3946000D01*
D10*
X-516000Y-4062000D02*
X-171098Y-4406900D01*
X+4993100Y-4406900D01*
X+5454000Y-3946000D01*
X+5651500Y-3946000D01*
X+5846000Y-3946000D01*
D11*
X-516000Y-4062000D02*
X-515999Y-4062000D01*
D10*
X-770000Y-4394200D02*
X-770000Y-4398900D01*
X-770000Y-4062000D01*
D11*
X+5846000Y-4200000D02*
X+5846001Y-4200000D01*
D10*
X+5588000Y-4381500D02*
X+5588000Y-4294613D01*
X+5678904Y-4202396D01*
X+5846000Y-4200000D01*
X+5588000Y-4381500D02*
X+5588000Y-4445000D01*
X+5588000Y-4546600D01*
X-1019683Y-4546767D01*
X-1024000Y-4451511D01*
X-1024000Y-4062000D01*
X-1278000Y-4062000D02*
X-1278000Y-4508500D01*
X-1100200Y-4686300D01*
X+6235700Y-4686300D01*
X+6286500Y-4635500D01*
X+6286500Y-4217050D01*
X+6269450Y-4200000D01*
X+6100000Y-4200000D01*
X-1952000Y+2200000D02*
X-1952000Y+3009900D01*
X-2300000Y+3357900D01*
X-2300000Y+3850000D01*
X-2073300Y+4076700D01*
X-957000Y+4076700D01*
X-957000Y+4335000D01*
X-830000Y+4462000D01*
X+6794500Y-2413000D02*
X+6286500Y-2413000D01*
X+6100000Y-2226500D01*
X+6100000Y-1824000D01*
D11*
X+5846000Y-46001D02*
X+5846000Y-46000D01*
D10*
X+3556000Y-2413000D02*
X+3419300Y-2413000D01*
X+3419300Y-2622950D01*
X+4635500Y-1841500D02*
X+4254500Y-2222500D01*
X+4073750Y-2222500D01*
X+3673300Y-2622950D01*
X+5143500Y-1333500D02*
X+5143500Y-1660750D01*
X+4181300Y-2622950D01*
D11*
X+5846000Y-1062000D02*
X+5846001Y-1062000D01*
D10*
X+5524500Y-1460500D02*
X+5524500Y-1333500D01*
X+5524500Y-1460500D02*
X+5524500Y-2349500D01*
X+5414000Y-2460000D01*
X+4852250Y-2460000D01*
X+4689300Y-2622950D01*
X+5651500Y-1062000D02*
X+5846000Y-1062000D01*
X+5651500Y-1062000D02*
X+5524500Y-1189000D01*
X+5524500Y-1270000D01*
X+5524500Y-1333500D01*
D12*
X+6100000Y+2130000D02*
X+7014000Y+2130000D01*
X+7175500Y+1968500D01*
X+7175500Y-2603500D01*
X+7048500Y-2730500D01*
X+5397500Y-2730500D01*
X+5270500Y-2857500D01*
X+5270500Y-3057750D01*
X+4943300Y-3384950D01*
X-4381500Y+2921000D02*
X-4381500Y+2984500D01*
X-4445000Y+3048000D01*
X-4445000Y+4699000D01*
X-4318000Y+4826000D01*
X-3702000Y+4826000D01*
X-3338000Y+4462000D01*
X-1484000Y+3100000D02*
X-968500Y+3100000D01*
X-830000Y+3238500D01*
X-830000Y+3700000D01*
X-3730000Y+2200000D02*
X-3730000Y+2235200D01*
X+2857500Y+2349500D02*
X+2921000Y+2413000D01*
X+4635500Y+2413000D01*
X-1684000Y+2700000D02*
X-1484000Y+2900000D01*
X-1484000Y+3100000D01*
X-4132000Y-3300000D02*
X-5018500Y-3300000D01*
X-5143500Y-3175000D01*
X+4635500Y+2413000D02*
X+4889500Y+2413000D01*
D14*
X-5152400Y-2626000D02*
X-5152400Y-2984500D01*
X-5143500Y-2993400D01*
X-5143500Y-3175000D01*
D12*
X+4946300Y+177800D02*
X+5143500Y+375000D01*
X+5143500Y+1016000D01*
X+4947100Y+1212400D01*
X+4947100Y+2081000D01*
X-4132000Y-3300000D02*
X-3939500Y-3492500D01*
X-1724500Y-3492500D01*
X-1532000Y-3300000D01*
X+4946300Y+177800D02*
X+4324000Y-444500D01*
X+2794000Y-444500D01*
X+2667000Y-571500D01*
X+2667000Y-1079500D01*
X+2794000Y-1206500D01*
X+4552800Y-1206500D01*
X+4946300Y-1600000D01*
X+5846000Y+2384000D02*
X+5846000Y+2130000D01*
X+5846001Y+2130000D01*
X+1858000Y+1692000D02*
X+1604000Y+1692000D01*
X+6100000Y+2384000D02*
X+6100000Y+2130000D01*
X-830000Y+3700000D02*
X-576000Y+3700000D01*
X-322000Y+3700000D01*
X+4947100Y+2081000D02*
X+4947100Y+2355400D01*
X+4889500Y+2413000D01*
X+5846001Y+2384000D02*
X+5846000Y+2384000D01*
X+5846001Y+2384001D01*
X+6100000Y+2384001D01*
X+6100000Y+2384000D01*
X+5846001Y+2384000D02*
X+5846001Y+2384001D01*
X+5846000Y+2384000D01*
X-4381500Y+2921000D02*
X-4254500Y+2921000D01*
X-5406200Y+3556000D02*
X-5406200Y+3758700D01*
X+2297100Y+3700000D02*
X+2755900Y+3241200D01*
X+2755900Y+2451100D01*
X+2857500Y+2349500D01*
X+6100000Y+2130000D02*
X+6100000Y+2100000D01*
X+5846000Y+2100000D01*
X+5846000Y+2130000D01*
X-4445000Y+2921000D02*
X-4572000Y+2921000D01*
X-5080000Y+2921000D01*
X-5155000Y+2846000D01*
X-5158750Y+2846000D02*
X-5259000Y+2846000D01*
X-5270500Y+2846000D01*
X-3730000Y+2235200D02*
X-3730000Y+2396500D01*
X-4254500Y+2921000D01*
X-5393500Y+2846000D02*
X-5393500Y+2857500D01*
X-5155000Y+2846000D02*
X-5158750Y+2846000D01*
X-5406200Y+2846000D02*
X-5393500Y+2846000D01*
X-5406200Y+2857500D02*
X-5406200Y+3302000D01*
X-5406200Y+2846000D02*
X-5406200Y+2857500D01*
X-5393500Y+2857500D02*
X-5394700Y+2857500D01*
X-5406200Y+2857500D01*
X-3730000Y+2200000D02*
X-3476000Y+2200000D01*
X-5406200Y+3302000D02*
X-5406200Y+3429000D01*
X-4445000Y+2921000D02*
X-4415800Y+2921000D01*
X-4381500Y+2921000D01*
X-5270500Y+2846000D02*
X-5393500Y+2846000D01*
X-5406200Y+3429000D02*
X-5406200Y+3556000D01*
D10*
X+6100000Y+3400000D02*
X+6257500Y+3400000D01*
X+6413500Y+3556000D01*
X+6413500Y+4762500D01*
X+6337300Y+4838700D01*
X-1305554Y+4838700D01*
X-1318254Y+4851400D01*
X-1757100Y+4851400D01*
X-1846000Y+4762500D01*
X-1846000Y+4462000D01*
X+2603500Y+1905000D02*
X+2603500Y+3048000D01*
X+6477000Y+2667000D02*
X+6448000Y+2638000D01*
X+6100000Y+2638000D01*
D11*
X+5846000Y+3146000D02*
X+5846001Y+3146000D01*
D10*
X+5461000Y+3365500D02*
X+5461000Y+4635500D01*
X+5372100Y+4724400D01*
X+1797500Y+4724400D01*
X+1535100Y+4462000D01*
X+5461000Y+3365500D02*
X+5461000Y+3273000D01*
X+5588000Y+3146000D01*
X+5846000Y+3146000D01*
X+2032000Y+2794000D02*
X+1535100Y+3290900D01*
X+1535100Y+3700000D01*
X+1604000Y-2626000D02*
X+1604000Y-2603500D01*
X+1858000Y-2603500D01*
X+1858000Y-2626000D01*
X-2700000Y+2700000D02*
X-2700000Y+3081000D01*
X-2889000Y+3270000D01*
X-3416000Y+3270000D01*
X-3846000Y+3700000D01*
X-1698000Y+2200000D02*
X-1698000Y+2396500D01*
X-1841500Y+2540000D01*
X-1841500Y+3175000D01*
X-1714500Y+3302000D01*
X-1270000Y+3302000D01*
X+2984500Y+3048000D02*
X+2984500Y+4381500D01*
X+2730500Y+4635500D01*
X+2216600Y+4635500D01*
X+2043100Y+4462000D01*
X+1604000Y+168000D02*
X+1143000Y+168000D01*
X+1016000Y+295000D01*
X+1016000Y+1905000D01*
X+1143000Y+2032000D01*
X+1524000Y+2032000D01*
X+1524000Y+2286000D01*
X+1651000Y+2413000D01*
X+2159000Y+2413000D01*
X+2317750Y+2254250D01*
X+2317750Y+1047750D01*
X+2603500Y+762000D01*
X+4435300Y-2622950D02*
X+4606350Y-2794000D01*
X+5080000Y-2794000D01*
X+5270500Y-2603500D01*
X+6858000Y-2603500D01*
X+6950000Y-2511500D01*
X+6950000Y-1171500D01*
X+6840500Y-1062000D01*
X+6100000Y-1062000D01*
X+6100000Y-554000D02*
X+6256750Y-554000D01*
X+6286500Y-583750D01*
X+6286500Y-910000D01*
X+6286500Y-1170000D02*
X+6286500Y-2095500D01*
X+5334000Y-2095500D02*
X+5334000Y-1333500D01*
X+5080000Y-1079500D01*
X+3663800Y-1079500D01*
X+3422300Y-838000D01*
X+1604000Y-86000D02*
X+1419500Y-86000D01*
X+1397000Y-63500D01*
X+2222500Y+1841500D02*
X+2222500Y+825500D01*
X+2410000Y+670000D01*
X+2410000Y+340000D02*
X+3260100Y+340000D01*
X+3422300Y+177800D01*
X+4184300Y+177800D02*
X+3917600Y+444500D01*
X+2349500Y+444500D01*
X+2172970Y+267970D01*
X+3930300Y-838000D02*
X+4196800Y-571500D01*
X+4549140Y-571500D01*
X+5240020Y+119380D01*
X+5240020Y+1397000D01*
X+5453380Y+1610360D01*
X+6339840Y+1610360D01*
X+6591300Y+1358900D01*
X+6591300Y-54350D01*
X+6345650Y-300000D01*
X+6100000Y-300000D01*
X+6100000Y+1224000D02*
X+6100000Y+1397000D01*
X+5540710Y+1397000D01*
X+5540710Y+1349710D01*
X+5524500Y+1333500D01*
X+5143500Y+1333500D02*
X+5143500Y+2476500D01*
X+5041900Y+2578100D01*
X+3180000Y+2578100D01*
X+2915100Y+2843000D01*
X+4692300Y-1600000D02*
X+4402940Y-1310640D01*
X+2517140Y-1310640D01*
X+2476500Y-1270000D01*
X+2476500Y-698500D01*
X+2372000Y-594000D01*
X+1858000Y-594000D01*
X+1604000Y-1356000D02*
X+1229000Y-1356000D01*
X+1206500Y-1333500D01*
X+1604000Y-340000D02*
X+1270000Y-340000D01*
X+1206500Y-276500D01*
X+1206500Y-63500D01*
X+1333500Y+63500D01*
X+1333500Y+571500D02*
X+1244600Y+660400D01*
X+1244600Y+1752600D01*
X+1348740Y+1856740D01*
X+1996440Y+1856740D01*
X+2032000Y+1821180D01*
X+2032000Y+241300D01*
X+2095500Y+177800D01*
X+2914300Y+177800D01*
X+4438300Y+177800D02*
X+4066100Y+550000D01*
X+2183000Y+550000D01*
X+2133600Y+594909D01*
X+2133600Y+1833880D01*
X+2019300Y+1948180D01*
X+1313180Y+1948180D01*
X+1120000Y+1755000D01*
X+1120000Y+594500D01*
X+1292500Y+422000D01*
X+1604000Y+422000D01*
X-3116000Y-3300000D02*
X-3553420Y-2862580D01*
X-4122420Y-2862580D01*
X-4136400Y-2848600D01*
X-4136400Y-2626000D01*
X-3370000Y-3300000D02*
X-3710900Y-2959100D01*
X-4343400Y-2959100D01*
X-4390400Y-2912100D01*
X-4390400Y-2626000D01*
X+2911300Y-3384950D02*
X+1696720Y-3384950D01*
X+1442720Y-3130950D01*
X+1442720Y-2385965D01*
X+1456685Y-2372000D01*
X+1604000Y-2372000D01*
D13*
X+3927300Y-3384950D02*
X+3669890Y-3642360D01*
X+1419860Y-3642360D01*
X+1290320Y-3512820D01*
X+1290320Y-2011680D01*
X+1438000Y-1864000D01*
X+1604000Y-1864000D01*
D10*
X+3419300Y-3384950D02*
X+3248250Y-3556000D01*
X+1610360Y-3556000D01*
X+1366520Y-3312160D01*
X+1366520Y-2193560D01*
X+1442080Y-2118000D01*
X+1604000Y-2118000D01*
D12*
X+4692300Y-838000D02*
X+5472650Y-57650D01*
X+5484299Y-46001D01*
X+5484300Y-46000D01*
X+5846000Y-46000D01*
D11*
X+5484300Y-46000D01*
X+5484299Y-46001D01*
X+5461000Y-46001D01*
X+5472650Y-57650D01*
D10*
X+4438300Y-838000D02*
X+4641300Y-635000D01*
X+4648200Y-635000D01*
X+5334000Y+50800D01*
X+5334000Y+1358900D01*
X+5478780Y+1503680D01*
X+6268720Y+1503680D01*
X+6403340Y+1369060D01*
X+6403340Y+99320D01*
X+6258020Y-46000D01*
X+6100000Y-46000D01*
D14*
X-5379680Y-3603160D02*
X-5379680Y-3411180D01*
X-5143500Y-3175000D01*
D12*
X-5633680Y-3603160D02*
X-5633680Y-3139093D01*
X-5817807Y-2954966D01*
X-5914400Y-2858373D01*
X-5914400Y-2626000D01*
X-5649831Y-2980417D02*
X-5649831Y-2636569D01*
X-5660400Y-2626000D01*
D10*
X+878840Y-3873500D02*
X+1098346Y-4093006D01*
X+1146178Y-4093006D01*
X+5177994Y-4093006D01*
X+5397500Y-3873500D01*
X+5846000Y-3438000D02*
X+5524500Y-3438001D01*
X+5461000Y-3501501D01*
X+5461000Y-3810000D01*
X+5397500Y-3873500D01*
X+878840Y-3873500D02*
X-2419499Y-3873500D01*
X-2608000Y-4062000D01*
X-3878000Y-4062000D02*
X-3557420Y-3741420D01*
X+957260Y-3741420D01*
X+1125794Y-3909954D01*
X+1125794Y-3921067D01*
X+5082691Y-3921067D01*
X+5299352Y-3704406D01*
X+5299352Y-3194077D01*
X+5563429Y-2930000D01*
X+5846000Y-2930000D01*
D14*
X-7178040Y-3845560D02*
X-6513508Y-3845560D01*
X-6293991Y-4065077D01*
X-5449716Y-4065077D01*
X-5383944Y-3999305D01*
X-5383944Y-3607424D01*
X-5379680Y-3603160D01*
X-7178040Y-3337560D02*
X-6469585Y-2629105D01*
X-6469585Y-1806598D01*
X-5152400Y-2626000D02*
X-5152400Y-1079500D01*
X-7482840Y+1250940D01*
X-7482840Y+2961640D01*
X-7396480Y+3048000D01*
X-6858000Y+3048000D01*
X-6656000Y+2846000D01*
X-5406200Y+2846000D01*
D10*
X-1444000Y+2200000D02*
X-1444000Y+2495541D01*
X-1132841Y+2806700D01*
X-859950Y+2806700D01*
X-854870Y+2811780D01*
X-153416Y+2811780D01*
X-139700Y+2825496D01*
X-139700Y+4025700D01*
X-576000Y+4462000D01*
X+2297100Y+4462000D02*
X+1899100Y+4064000D01*
X+489223Y+4064000D01*
X+377897Y+3952674D01*
X+377897Y+3278630D01*
X+500000Y+3156527D01*
X+500000Y+2527300D01*
X-647700Y+2527300D01*
X-720000Y+2455000D01*
X-720000Y+2074000D01*
X-762000Y+2032000D01*
X-1190000Y+2032000D01*
X-1190000Y+2200000D01*
X+833120Y+2423160D02*
X+1018540Y+2608580D01*
X+833120Y+2423160D02*
X-497840Y+2423160D01*
X-635000Y+2286000D01*
X-635000Y+1968500D01*
X-698500Y+1905000D01*
X-6243200Y+1905000D01*
X-7184200Y+2846000D01*
D12*
X+1018540Y+2608580D02*
X+1018540Y+3691440D01*
X+1027100Y+3700000D01*
D10*
X-2206000Y+2200000D02*
X-2206000Y+2032000D01*
X-2921000Y+2032000D01*
X-3048000Y+2159000D01*
X-3048000Y+2984500D01*
X-3175000Y+3111500D01*
X-4127500Y+3111500D01*
X-4254500Y+3238500D01*
X-4254500Y+4635500D01*
X-1587500Y+4699000D02*
X-1539240Y+4747260D01*
X+205740Y+4747260D01*
X+317500Y+4635500D01*
X+317500Y+4381500D01*
X+444500Y+4254500D01*
X+1581600Y+4254500D01*
X+1789100Y+4462000D01*
X+6100000Y+3146000D02*
X+6829000Y+3146000D01*
X+6858000Y+3175000D01*
X+6858000Y+1778000D02*
X+5557520Y+1778000D01*
X+5303520Y+2032000D01*
X+5303520Y+2760980D01*
X+5067300Y+2997200D01*
X+4876800Y+2997200D01*
X+4762500Y+3111500D01*
X+4762500Y+3365500D01*
X+1350000Y+3370000D02*
X+1350000Y+2800000D01*
X+1240000Y+2690000D01*
X+357347Y+2690896D02*
X+187960Y+2860283D01*
X+187960Y+3160000D01*
X+182880Y+3160000D01*
X+182880Y+4127500D01*
X+48260Y+4262120D01*
X+48260Y+4448810D01*
X-138430Y+4635500D01*
X-910500Y+4635500D01*
X-1084000Y+4462000D01*
X-322000Y+4462000D02*
X-187451Y+4462000D01*
X-100904Y+4375453D01*
X-50800Y+4325349D01*
X-50800Y+4076700D01*
D12*
X-50800Y+4064000D01*
D10*
X-936000Y+2200000D02*
X-936000Y+2528560D01*
X-795020Y+2669540D01*
X-187960Y+2669540D01*
X-50800Y+2806700D01*
X-50800Y+4064000D01*
D11*
X+825500Y-2286000D02*
X+842000Y-2302500D01*
X+842000Y-2626000D01*
D10*
X-8000Y-3300000D02*
X-417480Y-2890520D01*
X-2206000Y-2890520D01*
X-2206000Y-2626000D01*
X+1604000Y-594000D02*
X+1079500Y-594000D01*
D12*
X+1056280Y-617220D01*
D10*
X-299720Y-617220D01*
X-1140030Y-1457530D01*
X-1140030Y-2764818D01*
X-1102216Y-2802632D01*
X+416080Y-2802632D01*
X+588915Y-2975467D01*
X+960120Y-2981960D01*
X+1604000Y-848000D02*
X+1374500Y-848000D01*
X+1235710Y-986790D01*
X+3422300Y-1600000D02*
X+2736300Y-2286000D01*
X+2603500Y-2286000D01*
X+1082040Y-3116580D02*
X+1079500Y-2760980D01*
X+1079500Y-1165500D01*
X+1143000Y-1102000D01*
X+1604000Y-1102000D01*
X+4435300Y-3384950D02*
X+4101690Y-3718560D01*
X+1369060Y-3718560D01*
X+1178560Y-3528060D01*
X+1178560Y-1805940D01*
X+1374500Y-1610000D01*
X+1604000Y-1610000D01*
D12*
X+2642178Y+1751445D02*
X+2698704Y+1807971D01*
X+2698704Y+2190704D01*
X+2857500Y+2349500D01*
D15*
X+3619500Y-127000D03*
X+2032000Y-127000D03*
X+1333500Y+698500D03*
X+3556000Y-2413000D03*
X+5143500Y-1333500D03*
X+2032000Y+2794000D03*
D16*
X-1460500Y-4318000D03*
X-770000Y-4394200D03*
D15*
X+2603500Y+3048000D03*
X+2984500Y+3048000D03*
X+2603500Y+1905000D03*
X+6286500Y-910000D03*
X+6286500Y-1170000D03*
X+6286500Y-2095500D03*
X+5334000Y-2095500D03*
X+1397000Y-63500D03*
X+2222500Y+1841500D03*
X+2410000Y+670000D03*
X+2410000Y+340000D03*
X+2172970Y+267970D03*
X+5524500Y+1333500D03*
X+5143500Y+1333500D03*
X+4889500Y+2413000D03*
X+6477000Y+2667000D03*
X+6794500Y-2413000D03*
X+4635500Y-1841500D03*
X+1206500Y-1333500D03*
X+1333500Y+63500D03*
X+1333500Y+571500D03*
X+2603500Y+762000D03*
X-1270000Y+3302000D03*
X-5649831Y-2980417D03*
D17*
X-6469585Y-1806598D03*
D16*
X-4254500Y+4635500D03*
X-1587500Y+4699000D03*
D15*
X+6858000Y+3175000D03*
X+6858000Y+1778000D03*
X+4762500Y+3365500D03*
X+1350000Y+3370000D03*
X+1240000Y+2690000D03*
X+357347Y+2690896D03*
X+825500Y-2286000D03*
X+960120Y-2981960D03*
X+1235710Y-986790D03*
X+2603500Y-2286000D03*
X+1082040Y-3116580D03*
X+2642178Y+1751445D03*
D10*
X-8000000Y-5000000D02*
X+8000000Y-5000000D01*
X+8000000Y+5000000D01*
X-8000000Y+5000000D01*
X-8000000Y-5000000D01*
X-1252951Y+4965699D02*
X+6389903Y+4965699D01*
X+6540499Y+4815103D01*
X+6540499Y+3503397D01*
X+6315899Y+3278797D01*
X+6315899Y+3272999D01*
X+6758435Y+3272999D01*
X+6800135Y+3314699D01*
X+6915865Y+3314699D01*
X+6997699Y+3232865D01*
X+6997699Y+3117135D01*
X+6915865Y+3035301D01*
X+6897903Y+3035301D01*
X+6881603Y+3019001D01*
X+6315899Y+3019001D01*
X+6315899Y+2764999D01*
X+6377435Y+2764999D01*
X+6419135Y+2806699D01*
X+6534865Y+2806699D01*
X+6616699Y+2724865D01*
X+6616699Y+2609135D01*
X+6534865Y+2527301D01*
X+6516903Y+2527301D01*
X+6500603Y+2511001D01*
X+6315899Y+2511001D01*
X+6315899Y+1914101D01*
X+5630101Y+1914101D01*
X+5630101Y+3019001D01*
X+5535397Y+3019001D01*
X+5334001Y+3220397D01*
X+5334001Y+4582897D01*
X+5319497Y+4597401D01*
X+2948201Y+4597401D01*
X+3111499Y+4434103D01*
X+3111499Y+3118565D01*
X+3124199Y+3105865D01*
X+3124199Y+3046199D01*
X+3253268Y+3046199D01*
X+3296100Y+3003367D01*
X+3338932Y+3046199D01*
X+3507268Y+3046199D01*
X+3550100Y+3003367D01*
X+3592932Y+3046199D01*
X+3761268Y+3046199D01*
X+3804100Y+3003367D01*
X+3846932Y+3046199D01*
X+4015268Y+3046199D01*
X+4058100Y+3003367D01*
X+4100932Y+3046199D01*
X+4269268Y+3046199D01*
X+4321080Y+2994386D01*
X+4360193Y+3033499D01*
X+4518007Y+3033499D01*
X+4557120Y+2994386D01*
X+4608932Y+3046199D01*
X+4648199Y+3046199D01*
X+4635502Y+3058896D01*
X+4635502Y+3111500D01*
X+4635501Y+3294935D01*
X+4622801Y+3307635D01*
X+4622801Y+3423365D01*
X+4704635Y+3505199D01*
X+4820365Y+3505199D01*
X+4902199Y+3423365D01*
X+4902199Y+3307635D01*
X+4889499Y+3294935D01*
X+4889498Y+3164104D01*
X+4929403Y+3124199D01*
X+5119903Y+3124199D01*
X+5430519Y+2813583D01*
X+5430519Y+2084603D01*
X+5610124Y+1904998D01*
X+6787435Y+1904999D01*
X+6800135Y+1917699D01*
X+6915865Y+1917699D01*
X+6997699Y+1835865D01*
X+6997699Y+1720135D01*
X+6915865Y+1638301D01*
X+6800135Y+1638301D01*
X+6787435Y+1651001D01*
X+6478801Y+1651001D01*
X+6718299Y+1411503D01*
X+6718299Y-106953D01*
X+6398253Y-426999D01*
X+6315899Y-426999D01*
X+6315899Y-433547D01*
X+6413499Y-531147D01*
X+6413499Y-839435D01*
X+6426199Y-852135D01*
X+6426199Y-935001D01*
X+6893104Y-935002D01*
X+7076999Y-1118897D01*
X+7076999Y-2564103D01*
X+6910603Y-2730499D01*
X+6315899Y-2730499D01*
X+6315899Y-3565001D01*
X+6352603Y-3565001D01*
X+6626999Y-3839397D01*
X+6626999Y-4588774D01*
X+6288174Y-4927599D01*
X-1324100Y-4927599D01*
X-1587499Y-4664200D01*
X-1587499Y-4406526D01*
X-1612899Y-4381126D01*
X-1612899Y-4265199D01*
X-1616168Y-4265199D01*
X-1735199Y-4146168D01*
X-1735199Y-4000499D01*
X-1896801Y-4000499D01*
X-1896801Y-4146168D01*
X-2015832Y-4265199D01*
X-2184168Y-4265199D01*
X-2227000Y-4222367D01*
X-2269832Y-4265199D01*
X-2438168Y-4265199D01*
X-2481000Y-4222367D01*
X-2523832Y-4265199D01*
X-2692168Y-4265199D01*
X-2735000Y-4222367D01*
X-2777832Y-4265199D01*
X-2946168Y-4265199D01*
X-2989000Y-4222367D01*
X-3031832Y-4265199D01*
X-3200168Y-4265199D01*
X-3243000Y-4222367D01*
X-3285832Y-4265199D01*
X-3454168Y-4265199D01*
X-3497000Y-4222367D01*
X-3539832Y-4265199D01*
X-3708168Y-4265199D01*
X-3751000Y-4222367D01*
X-3793832Y-4265199D01*
X-3962168Y-4265199D01*
X-4005000Y-4222367D01*
X-4047832Y-4265199D01*
X-4216168Y-4265199D01*
X-4335199Y-4146168D01*
X-4335199Y-3977832D01*
X-4216168Y-3858801D01*
X-4047832Y-3858801D01*
X-4005000Y-3901633D01*
X-3962168Y-3858801D01*
X-3854403Y-3858801D01*
X-3610023Y-3614421D01*
X+1009863Y-3614421D01*
X+1189510Y-3794068D01*
X+1264966Y-3794068D01*
X+1051561Y-3580663D01*
X+1051561Y-3256279D01*
X+1024175Y-3256279D01*
X+942341Y-3174445D01*
X+942341Y-3121659D01*
X+902255Y-3121659D01*
X+889190Y-3108594D01*
X+703199Y-3104890D01*
X+703199Y-3503199D01*
X+161832Y-3503199D01*
X+119000Y-3460367D01*
X+76168Y-3503199D01*
X-92168Y-3503199D01*
X-135000Y-3460367D01*
X-177832Y-3503199D01*
X-346168Y-3503199D01*
X-389000Y-3460367D01*
X-431832Y-3503199D01*
X-600168Y-3503199D01*
X-643000Y-3460367D01*
X-685832Y-3503199D01*
X-854168Y-3503199D01*
X-897000Y-3460367D01*
X-939832Y-3503199D01*
X-1108168Y-3503199D01*
X-1151000Y-3460367D01*
X-1193832Y-3503199D01*
X-1362168Y-3503199D01*
X-1405000Y-3460367D01*
X-1447832Y-3503199D01*
X-1616168Y-3503199D01*
X-1735199Y-3384168D01*
X-1735199Y-3226999D01*
X-1896801Y-3226999D01*
X-1896801Y-3503199D01*
X-2438168Y-3503199D01*
X-2481000Y-3460367D01*
X-2523832Y-3503199D01*
X-2692168Y-3503199D01*
X-2735000Y-3460367D01*
X-2777832Y-3503199D01*
X-2946168Y-3503199D01*
X-2989000Y-3460367D01*
X-3031832Y-3503199D01*
X-3200168Y-3503199D01*
X-3243000Y-3460367D01*
X-3285832Y-3503199D01*
X-3454168Y-3503199D01*
X-3497000Y-3460367D01*
X-3539832Y-3503199D01*
X-3708168Y-3503199D01*
X-3751000Y-3460367D01*
X-3793832Y-3503199D01*
X-3962168Y-3503199D01*
X-4005000Y-3460367D01*
X-4047832Y-3503199D01*
X-4216168Y-3503199D01*
X-4335199Y-3384168D01*
X-4335199Y-3266999D01*
X-4850103Y-3266999D01*
X-5025398Y-3091704D01*
X-5025398Y-2829199D01*
X-5516482Y-2829199D01*
X-5516482Y-2916202D01*
X-5510132Y-2922552D01*
X-5510132Y-3038282D01*
X-5528020Y-3056170D01*
X-5500331Y-3083860D01*
X-5500331Y-3399961D01*
X-5176481Y-3399961D01*
X-5176481Y-3806359D01*
X-6090879Y-3806359D01*
X-6090879Y-3399961D01*
X-5767029Y-3399961D01*
X-5767029Y-3194326D01*
X-6047749Y-2913606D01*
X-6047749Y-2829199D01*
X-6117599Y-2829199D01*
X-6117599Y-2422801D01*
X-3425201Y-2422801D01*
X-3425201Y-2811197D01*
X-3425199Y-2811199D01*
X-3425199Y-2422801D01*
X-1267029Y-2422801D01*
X-1267029Y-1404927D01*
X-352323Y-490221D01*
X+994697Y-490221D01*
X+1024266Y-460652D01*
X+1134734Y-460652D01*
X+1141083Y-467001D01*
X+1341750Y-467002D01*
X+1400801Y-467001D01*
X+1400801Y-466999D01*
X+1217397Y-466999D01*
X+1079501Y-329103D01*
X+1079501Y-10897D01*
X+1131399Y+41001D01*
X+1090397Y+41001D01*
X+889001Y+242397D01*
X+889001Y+1957603D01*
X+928199Y+1996801D01*
X-508001Y+1996801D01*
X-508001Y+1915897D01*
X-645897Y+1778001D01*
X-6295803Y+1778001D01*
X-7147903Y+2630101D01*
X-7273628Y+2630101D01*
X-7400099Y+2756572D01*
X-7400099Y+2935428D01*
X-7273628Y+3061899D01*
X-7094772Y+3061899D01*
X-6968301Y+2935428D01*
X-6968301Y+2809703D01*
X-6190597Y+2031999D01*
X-5203199Y+2031999D01*
X-5203199Y+2403199D01*
X-3174999Y+2403199D01*
X-3174999Y+2931897D01*
X-3227603Y+2984501D01*
X-4180103Y+2984501D01*
X-4381499Y+3185897D01*
X-4381499Y+4546974D01*
X-4406899Y+4572374D01*
X-4406899Y+4698626D01*
X-4317626Y+4787899D01*
X-4191374Y+4787899D01*
X-4102101Y+4698626D01*
X-4102101Y+4665199D01*
X-4015832Y+4665199D01*
X-3973000Y+4622367D01*
X-3930168Y+4665199D01*
X-3761832Y+4665199D01*
X-3719000Y+4622367D01*
X-3676168Y+4665199D01*
X-3507832Y+4665199D01*
X-3465000Y+4622367D01*
X-3422168Y+4665199D01*
X-3253832Y+4665199D01*
X-3211000Y+4622367D01*
X-3168168Y+4665199D01*
X-2999832Y+4665199D01*
X-2957000Y+4622367D01*
X-2914168Y+4665199D01*
X-2745832Y+4665199D01*
X-2703000Y+4622367D01*
X-2660168Y+4665199D01*
X-2491832Y+4665199D01*
X-2372801Y+4546168D01*
X-2372801Y+4377832D01*
X-2432634Y+4317999D01*
X-2423603Y+4317999D01*
X-2303199Y+4438403D01*
X-2303199Y+4546168D01*
X-2184168Y+4665199D01*
X-2015832Y+4665199D01*
X-1973000Y+4622367D01*
X-1972999Y+4622368D01*
X-1972999Y+4815103D01*
X-1809703Y+4978399D01*
X-1265651Y+4978399D01*
X-1252951Y+4965699D01*
X-5622099Y+2756572D02*
X-5622099Y+2935428D01*
X-5495628Y+3061899D01*
X-5316772Y+3061899D01*
X-5190301Y+2935428D01*
X-5190301Y+2756572D01*
X-5316772Y+2630101D01*
X-5495628Y+2630101D01*
X-5622099Y+2756572D01*
X-6638099Y+3010572D02*
X-6638099Y+3189428D01*
X-6511628Y+3315899D01*
X-6332772Y+3315899D01*
X-6206301Y+3189428D01*
X-6206301Y+3010572D01*
X-6332772Y+2884101D01*
X-6511628Y+2884101D01*
X-6638099Y+3010572D01*
X-5622099Y+3669272D02*
X-5622099Y+3848128D01*
X-5495628Y+3974599D01*
X-5316772Y+3974599D01*
X-5190301Y+3848128D01*
X-5190301Y+3669272D01*
X-5316772Y+3542801D01*
X-5495628Y+3542801D01*
X-5622099Y+3669272D01*
X-7400099Y+3669272D02*
X-7400099Y+3848128D01*
X-7273628Y+3974599D01*
X-7094772Y+3974599D01*
X-6968301Y+3848128D01*
X-6968301Y+3669272D01*
X-7094772Y+3542801D01*
X-7273628Y+3542801D01*
X-7400099Y+3669272D01*
X-6638099Y+3923272D02*
X-6638099Y+4102128D01*
X-6511628Y+4228599D01*
X-6332772Y+4228599D01*
X-6206301Y+4102128D01*
X-6206301Y+3923272D01*
X-6332772Y+3796801D01*
X-6511628Y+3796801D01*
X-6638099Y+3923272D01*
X+7546201Y+4371353D02*
X+7546201Y+4518647D01*
X+7650353Y+4622799D01*
X+7797647Y+4622799D01*
X+7901799Y+4518647D01*
X+7901799Y+4371353D01*
X+7797647Y+4267201D01*
X+7650353Y+4267201D01*
X+7546201Y+4371353D01*
X+7546201Y-4518647D02*
X+7546201Y-4371353D01*
X+7650353Y-4267201D01*
X+7797647Y-4267201D01*
X+7901799Y-4371353D01*
X+7901799Y-4518647D01*
X+7797647Y-4622799D01*
X+7650353Y-4622799D01*
X+7546201Y-4518647D01*
X-7820799Y+4371353D02*
X-7820799Y+4518647D01*
X-7716647Y+4622799D01*
X-7569353Y+4622799D01*
X-7465201Y+4518647D01*
X-7465201Y+4371353D01*
X-7569353Y+4267201D01*
X-7716647Y+4267201D01*
X-7820799Y+4371353D01*
X-7820799Y-4518647D02*
X-7820799Y-4371353D01*
X-7716647Y-4267201D01*
X-7569353Y-4267201D01*
X-7465201Y-4371353D01*
X-7465201Y-4518647D01*
X-7569353Y-4622799D01*
X-7716647Y-4622799D01*
X-7820799Y-4518647D01*
X-6279086Y-1727691D02*
X-6279086Y-1885505D01*
X-6317186Y-1923605D01*
X-6317186Y-2692230D01*
X-6924041Y-3299085D01*
X-6924041Y-3442770D01*
X-7072830Y-3591559D01*
X-7283250Y-3591559D01*
X-7432039Y-3442770D01*
X-7432039Y-3232350D01*
X-7283250Y-3083561D01*
X-7139565Y-3083561D01*
X-6621984Y-2565980D01*
X-6621984Y-1923605D01*
X-6660084Y-1885505D01*
X-6660084Y-1727691D01*
X-6548492Y-1616099D01*
X-6390678Y-1616099D01*
X-6279086Y-1727691D01*
X-7283250Y-3591561D02*
X-7072830Y-3591561D01*
X-6924041Y-3740350D01*
X-6924041Y-3950770D01*
X-7072830Y-4099559D01*
X-7283250Y-4099559D01*
X-7432039Y-3950770D01*
X-7432039Y-3740350D01*
X-7283250Y-3591561D01*
X-2936484Y+4281118D02*
X-3314403Y+3903199D01*
X-3422168Y+3903199D01*
X-3465000Y+3860367D01*
X-3507832Y+3903199D01*
X-3676168Y+3903199D01*
X-3719000Y+3860367D01*
X-3761832Y+3903199D01*
X-4127501Y+3903199D01*
X-4127501Y+4258801D01*
X-4015832Y+4258801D01*
X-3973000Y+4301633D01*
X-3930168Y+4258801D01*
X-3761832Y+4258801D01*
X-3719000Y+4301633D01*
X-3676168Y+4258801D01*
X-3507832Y+4258801D01*
X-3465000Y+4301633D01*
X-3422168Y+4258801D01*
X-3253832Y+4258801D01*
X-3211000Y+4301633D01*
X-3168168Y+4258801D01*
X-2999832Y+4258801D01*
X-2957000Y+4301633D01*
X-2936484Y+4281118D01*
X-660168Y+4258801D02*
X-552403Y+4258801D01*
X-266699Y+3973097D01*
X-266699Y+3903199D01*
X-406168Y+3903199D01*
X-449000Y+3860367D01*
X-491832Y+3903199D01*
X-660168Y+3903199D01*
X-703000Y+3860367D01*
X-745832Y+3903199D01*
X-914168Y+3903199D01*
X-957000Y+3860367D01*
X-999832Y+3903199D01*
X-1168168Y+3903199D01*
X-1211000Y+3860367D01*
X-1253832Y+3903199D01*
X-1422168Y+3903199D01*
X-1465000Y+3860367D01*
X-1507832Y+3903199D01*
X-1676168Y+3903199D01*
X-1719000Y+3860367D01*
X-1761832Y+3903199D01*
X-2067199Y+3903199D01*
X-2020696Y+3949702D01*
X-904395Y+3949702D01*
X-830001Y+4024096D01*
X-830001Y+4258801D01*
X-745832Y+4258801D01*
X-703000Y+4301633D01*
X-660168Y+4258801D01*
X+2857501Y+4328897D02*
X+2857501Y+3118565D01*
X+2844801Y+3105865D01*
X+2844801Y+3046199D01*
X+2830932Y+3046199D01*
X+2730499Y+2945766D01*
X+2730499Y+2977435D01*
X+2743199Y+2990135D01*
X+2743199Y+3105865D01*
X+2661365Y+3187699D01*
X+2545635Y+3187699D01*
X+2463801Y+3105865D01*
X+2463801Y+2990135D01*
X+2476501Y+2977435D01*
X+2476502Y+2476500D01*
X+2476501Y+1975565D01*
X+2463801Y+1962865D01*
X+2463801Y+1847135D01*
X+2545635Y+1765301D01*
X+2597728Y+1765301D01*
X+2597728Y+1733033D01*
X+2623766Y+1706995D01*
X+2660590Y+1706995D01*
X+2686628Y+1733033D01*
X+2686628Y+1769857D01*
X+2676274Y+1780210D01*
X+2743199Y+1847135D01*
X+2743199Y+1877801D01*
X+3253268Y+1877801D01*
X+3296100Y+1920633D01*
X+3338932Y+1877801D01*
X+3507268Y+1877801D01*
X+3550100Y+1920633D01*
X+3592932Y+1877801D01*
X+3761268Y+1877801D01*
X+3804100Y+1920633D01*
X+3846932Y+1877801D01*
X+4015268Y+1877801D01*
X+4058100Y+1920633D01*
X+4100932Y+1877801D01*
X+4269268Y+1877801D01*
X+4312100Y+1920633D01*
X+4354932Y+1877801D01*
X+4523268Y+1877801D01*
X+4566100Y+1920633D01*
X+4608932Y+1877801D01*
X+4777268Y+1877801D01*
X+4820100Y+1920633D01*
X+4862932Y+1877801D01*
X+5016501Y+1877801D01*
X+5016501Y+1404065D01*
X+5003801Y+1391365D01*
X+5003801Y+1275635D01*
X+5085635Y+1193801D01*
X+5113021Y+1193801D01*
X+5113021Y+1060446D01*
X+5030468Y+1142999D01*
X+4862132Y+1142999D01*
X+4819300Y+1100167D01*
X+4776468Y+1142999D01*
X+4608132Y+1142999D01*
X+4565300Y+1100167D01*
X+4522468Y+1142999D01*
X+4354132Y+1142999D01*
X+4311300Y+1100167D01*
X+4268468Y+1142999D01*
X+4100132Y+1142999D01*
X+4057300Y+1100167D01*
X+4014468Y+1142999D01*
X+3846132Y+1142999D01*
X+3803300Y+1100167D01*
X+3760468Y+1142999D01*
X+3592132Y+1142999D01*
X+3549300Y+1100167D01*
X+3506468Y+1142999D01*
X+3338132Y+1142999D01*
X+3295300Y+1100167D01*
X+3252468Y+1142999D01*
X+3084132Y+1142999D01*
X+3041300Y+1100167D01*
X+2998468Y+1142999D01*
X+2830132Y+1142999D01*
X+2711101Y+1023968D01*
X+2711101Y+855632D01*
X+2830132Y+736601D01*
X+2998468Y+736601D01*
X+3041300Y+779433D01*
X+3084132Y+736601D01*
X+3252468Y+736601D01*
X+3295300Y+779433D01*
X+3338132Y+736601D01*
X+3506468Y+736601D01*
X+3549300Y+779433D01*
X+3592132Y+736601D01*
X+3760468Y+736601D01*
X+3803300Y+779433D01*
X+3846132Y+736601D01*
X+4014468Y+736601D01*
X+4057300Y+779433D01*
X+4100132Y+736601D01*
X+4268468Y+736601D01*
X+4311300Y+779433D01*
X+4354132Y+736601D01*
X+4522468Y+736601D01*
X+4565300Y+779433D01*
X+4608132Y+736601D01*
X+4776468Y+736601D01*
X+4819300Y+779433D01*
X+4862132Y+736601D01*
X+5030468Y+736601D01*
X+5113021Y+819154D01*
X+5113021Y+298446D01*
X+5030468Y+380999D01*
X+4862132Y+380999D01*
X+4819300Y+338167D01*
X+4776468Y+380999D01*
X+4608132Y+380999D01*
X+4565300Y+338167D01*
X+4522468Y+380999D01*
X+4414703Y+380999D01*
X+4118703Y+676999D01*
X+2716063Y+676999D01*
X+2743199Y+704135D01*
X+2743199Y+819865D01*
X+2661365Y+901699D01*
X+2643403Y+901699D01*
X+2444749Y+1100353D01*
X+2444749Y+2306853D01*
X+2211604Y+2539998D01*
X+1598396Y+2539998D01*
X+1461597Y+2403199D01*
X+992761Y+2403199D01*
X+1064793Y+2475231D01*
X+1073775Y+2475231D01*
X+1151889Y+2553345D01*
X+1151889Y+2580547D01*
X+1182135Y+2550301D01*
X+1297865Y+2550301D01*
X+1379699Y+2632135D01*
X+1379699Y+2650097D01*
X+1476999Y+2747397D01*
X+1476999Y+3169399D01*
X+1892301Y+2754097D01*
X+1892301Y+2736135D01*
X+1974135Y+2654301D01*
X+2089865Y+2654301D01*
X+2171699Y+2736135D01*
X+2171699Y+2851865D01*
X+2089865Y+2933699D01*
X+2071903Y+2933699D01*
X+1662099Y+3343503D01*
X+1662099Y+3539632D01*
X+1662100Y+3539633D01*
X+1704932Y+3496801D01*
X+1873268Y+3496801D01*
X+1916100Y+3539633D01*
X+1958932Y+3496801D01*
X+2127268Y+3496801D01*
X+2170100Y+3539633D01*
X+2212932Y+3496801D01*
X+2381268Y+3496801D01*
X+2500299Y+3615832D01*
X+2500299Y+3784168D01*
X+2381268Y+3903199D01*
X+2212932Y+3903199D01*
X+2170100Y+3860367D01*
X+2127268Y+3903199D01*
X+1958932Y+3903199D01*
X+1916100Y+3860367D01*
X+1873268Y+3903199D01*
X+1704932Y+3903199D01*
X+1662100Y+3860367D01*
X+1619268Y+3903199D01*
X+1450932Y+3903199D01*
X+1408100Y+3860367D01*
X+1365268Y+3903199D01*
X+1196932Y+3903199D01*
X+1154100Y+3860367D01*
X+1111268Y+3903199D01*
X+942932Y+3903199D01*
X+900100Y+3860367D01*
X+857268Y+3903199D01*
X+688932Y+3903199D01*
X+663532Y+3877799D01*
X+504896Y+3877799D01*
X+504896Y+3900071D01*
X+541826Y+3937001D01*
X+1951703Y+3937001D01*
X+2273503Y+4258801D01*
X+2381268Y+4258801D01*
X+2500299Y+4377832D01*
X+2500299Y+4508501D01*
X+2677897Y+4508501D01*
X+2857501Y+4328897D01*
X-406168Y+3496801D02*
X-266699Y+3496801D01*
X-266699Y+2938779D01*
X-907473Y+2938779D01*
X-912553Y+2933699D01*
X-1185444Y+2933699D01*
X-1493501Y+2625642D01*
X-1493501Y+2778907D01*
X-1605093Y+2890499D01*
X-1714501Y+2890499D01*
X-1714501Y+3122397D01*
X-1674499Y+3162399D01*
X-1674499Y+3021093D01*
X-1562907Y+2909501D01*
X-1405093Y+2909501D01*
X-1293501Y+3021093D01*
X-1293501Y+3162301D01*
X-1212135Y+3162301D01*
X-1130301Y+3244135D01*
X-1130301Y+3359865D01*
X-1212135Y+3441699D01*
X-1327865Y+3441699D01*
X-1340565Y+3428999D01*
X-1767103Y+3428999D01*
X-1968499Y+3227603D01*
X-1968499Y+3206001D01*
X-2173001Y+3410503D01*
X-2173001Y+3496801D01*
X-1761832Y+3496801D01*
X-1719000Y+3539633D01*
X-1676168Y+3496801D01*
X-1507832Y+3496801D01*
X-1465000Y+3539633D01*
X-1422168Y+3496801D01*
X-1253832Y+3496801D01*
X-1211000Y+3539633D01*
X-1168168Y+3496801D01*
X-999832Y+3496801D01*
X-957000Y+3539633D01*
X-914168Y+3496801D01*
X-745832Y+3496801D01*
X-703000Y+3539633D01*
X-660168Y+3496801D01*
X-491832Y+3496801D01*
X-449000Y+3539633D01*
X-406168Y+3496801D01*
X+2830932Y+2639801D02*
X+2938697Y+2639801D01*
X+3127397Y+2451101D01*
X+4864739Y+2451101D01*
X+4845050Y+2431412D01*
X+4845050Y+2394588D01*
X+4871088Y+2368550D01*
X+4907912Y+2368550D01*
X+4933950Y+2394588D01*
X+4933950Y+2431412D01*
X+4914261Y+2451101D01*
X+4989297Y+2451101D01*
X+5016502Y+2423896D01*
X+5016502Y+2284199D01*
X+4862932Y+2284199D01*
X+4820100Y+2241367D01*
X+4777268Y+2284199D01*
X+4608932Y+2284199D01*
X+4566100Y+2241367D01*
X+4523268Y+2284199D01*
X+4354932Y+2284199D01*
X+4312100Y+2241367D01*
X+4269268Y+2284199D01*
X+4100932Y+2284199D01*
X+4058100Y+2241367D01*
X+4015268Y+2284199D01*
X+3846932Y+2284199D01*
X+3804100Y+2241367D01*
X+3761268Y+2284199D01*
X+3592932Y+2284199D01*
X+3550100Y+2241367D01*
X+3507268Y+2284199D01*
X+3338932Y+2284199D01*
X+3296100Y+2241367D01*
X+3253268Y+2284199D01*
X+2730499Y+2284199D01*
X+2730498Y+2476500D01*
X+2730499Y+2740234D01*
X+2830932Y+2639801D01*
X+1400801Y+1488801D02*
X+1400801Y+828763D01*
X+1391365Y+838199D01*
X+1371599Y+838199D01*
X+1371599Y+1699997D01*
X+1400801Y+1729199D01*
X+1400801Y+1488801D01*
X+5050167Y-1229269D02*
X+5003801Y-1275635D01*
X+5003801Y-1391365D01*
X+5009237Y-1396801D01*
X+4862132Y-1396801D01*
X+4819300Y-1439633D01*
X+4776468Y-1396801D01*
X+4668703Y-1396801D01*
X+4478401Y-1206499D01*
X+5027397Y-1206499D01*
X+5050167Y-1229269D01*
X+5630101Y-2803001D02*
X+5510826Y-2803001D01*
X+5172353Y-3141474D01*
X+5172353Y-3651803D01*
X+5030088Y-3794068D01*
X+4205784Y-3794068D01*
X+4411703Y-3588149D01*
X+4519468Y-3588149D01*
X+4562300Y-3545317D01*
X+4605132Y-3588149D01*
X+4773468Y-3588149D01*
X+4816300Y-3545317D01*
X+4859132Y-3588149D01*
X+5027468Y-3588149D01*
X+5146499Y-3469118D01*
X+5146499Y-3300782D01*
X+5027468Y-3181751D01*
X+4859132Y-3181751D01*
X+4816300Y-3224583D01*
X+4773468Y-3181751D01*
X+4665703Y-3181751D01*
X+4306953Y-2823001D01*
X+4268616Y-2823001D01*
X+4308300Y-2783317D01*
X+4351132Y-2826149D01*
X+4458897Y-2826149D01*
X+4553747Y-2920999D01*
X+5132603Y-2920999D01*
X+5323103Y-2730499D01*
X+5630101Y-2730499D01*
X+5630101Y-2803001D01*
X-3730000Y+2403199D02*
X-3730000Y+2200000D01*
X-3476000Y+2403199D02*
X-3476000Y+2200000D01*
X+1400801Y+1692000D02*
X+1604000Y+1692000D01*
X-5152400Y-2829199D02*
X-5152400Y-2626000D01*
X-5152400Y-2422801D02*
X-5152400Y-2626000D01*
X-4335199Y-3300000D02*
X-4132000Y-3300000D01*
X-4132000Y-3503199D02*
X-4132000Y-3300000D01*
X-1735199Y-3300000D02*
X-1532000Y-3300000D01*
X-1532000Y-3503199D02*
X-1532000Y-3300000D01*
X+5630101Y+2384000D02*
X+5846000Y+2384000D01*
X+6315899Y+2384000D02*
X+6100000Y+2384000D01*
X+5630101Y+2130000D02*
X+5846000Y+2130000D01*
X+5846000Y+1914101D02*
X+5846000Y+2130000D01*
X+6315899Y+2130000D02*
X+6100000Y+2130000D01*
X+6100000Y+1914101D02*
X+6100000Y+2130000D01*
X-1493501Y+2700000D02*
X-1684000Y+2700000D01*
X-1684000Y+2890499D02*
X-1684000Y+2700000D01*
X-1674499Y+3100000D02*
X-1484000Y+3100000D01*
X-1293501Y+3100000D02*
X-1484000Y+3100000D01*
X-1484000Y+2909501D02*
X-1484000Y+3100000D01*
X-3338000Y+4258801D02*
X-3338000Y+4462000D01*
X-3338000Y+4665199D02*
X-3338000Y+4462000D01*
X-5622099Y+2846000D02*
X-5406200Y+2846000D01*
X-5190301Y+2846000D02*
X-5406200Y+2846000D01*
X-5406200Y+2630101D02*
X-5406200Y+2846000D01*
X-5406200Y+3061899D02*
X-5406200Y+2846000D01*
X-5622099Y+3758700D02*
X-5406200Y+3758700D01*
X-5190301Y+3758700D02*
X-5406200Y+3758700D01*
X-5406200Y+3542801D02*
X-5406200Y+3758700D01*
X-5406200Y+3974599D02*
X-5406200Y+3758700D01*
X+1789100Y+3496801D02*
X+1789100Y+3700000D01*
X+1789100Y+3903199D02*
X+1789100Y+3700000D01*
X+2043100Y+3496801D02*
X+2043100Y+3700000D01*
X+2043100Y+3903199D02*
X+2043100Y+3700000D01*
X+2500299Y+3700000D02*
X+2297100Y+3700000D01*
X+2297100Y+3496801D02*
X+2297100Y+3700000D01*
X+2297100Y+3903199D02*
X+2297100Y+3700000D01*
X+5146499Y-3384950D02*
X+4943300Y-3384950D01*
X+4943300Y-3588149D02*
X+4943300Y-3384950D01*
X+4943300Y-3181751D02*
X+4943300Y-3384950D01*
X+4946300Y-1396801D02*
X+4946300Y-1600000D01*
X+4946300Y+380999D02*
X+4946300Y+177800D01*
X+4947100Y+1877801D02*
X+4947100Y+2081000D01*
X+4947100Y+2284199D02*
X+4947100Y+2081000D01*
X-5176481Y-3603160D02*
X-5379680Y-3603160D01*
X-5379680Y-3806359D02*
X-5379680Y-3603160D01*
X-5379680Y-3399961D02*
X-5379680Y-3603160D01*
X-830000Y+3496801D02*
X-830000Y+3700000D01*
X-830000Y+3903199D02*
X-830000Y+3700000D01*
X-576000Y+3496801D02*
X-576000Y+3700000D01*
X-576000Y+3903199D02*
X-576000Y+3700000D01*
X-322000Y+3496801D02*
X-322000Y+3700000D01*
X-322000Y+3903199D02*
X-322000Y+3700000D01*
X-7178040Y-3591561D02*
X-7178040Y-3845560D01*
X-7178040Y-4099559D02*
X-7178040Y-3845560D01*
X-7432039Y-3845560D02*
X-7178040Y-3845560D01*
X-6924041Y-3845560D02*
X-7178040Y-3845560D01*
D18*
X-5000000Y+2200000D03*
X-4746000Y+2200000D03*
X-4492000Y+2200000D03*
X-4238000Y+2200000D03*
X-3984000Y+2200000D03*
X-3730000Y+2200000D03*
X-3476000Y+2200000D03*
X-3222000Y+2200000D03*
X-2714000Y+2200000D03*
X-2460000Y+2200000D03*
X-2206000Y+2200000D03*
X-1952000Y+2200000D03*
X-1698000Y+2200000D03*
X-1444000Y+2200000D03*
X-1190000Y+2200000D03*
X-936000Y+2200000D03*
X-428000Y+2200000D03*
X-174000Y+2200000D03*
X+80000Y+2200000D03*
X+334000Y+2200000D03*
X+588000Y+2200000D03*
X+842000Y+2200000D03*
X+1096000Y+2200000D03*
X+1350000Y+2200000D03*
X+1604000Y+1692000D03*
X+1604000Y+1438000D03*
X+1604000Y+1184000D03*
X+1604000Y+930000D03*
X+1604000Y+676000D03*
X+1604000Y+422000D03*
X+1604000Y+168000D03*
X+1604000Y-86000D03*
X+1604000Y-340000D03*
X+1604000Y-594000D03*
X+1604000Y-848000D03*
X+1604000Y-1102000D03*
X+1604000Y-1356000D03*
X+1604000Y-1610000D03*
X+1604000Y-1864000D03*
X+1604000Y-2118000D03*
X+1604000Y-2372000D03*
X+1604000Y-2626000D03*
X+1858000Y+1692000D03*
X+1858000Y+1438000D03*
X+1858000Y+1184000D03*
X+1858000Y+930000D03*
X+1858000Y+676000D03*
X+1858000Y+422000D03*
X+1858000Y+168000D03*
X+1858000Y-86000D03*
X+1858000Y-340000D03*
X+1858000Y-594000D03*
X+1858000Y-848000D03*
X+1858000Y-1102000D03*
X+1858000Y-1356000D03*
X+1858000Y-1610000D03*
X+1858000Y-1864000D03*
X+1858000Y-2118000D03*
X+1858000Y-2372000D03*
X+1858000Y-2626000D03*
X+842000Y-2626000D03*
X+588000Y-2626000D03*
X+334000Y-2626000D03*
X+80000Y-2626000D03*
X-174000Y-2626000D03*
X-428000Y-2626000D03*
X-682000Y-2626000D03*
X-936000Y-2626000D03*
X-1444000Y-2626000D03*
X-1698000Y-2626000D03*
X-1952000Y-2626000D03*
X-2206000Y-2626000D03*
X-2460000Y-2626000D03*
X-2714000Y-2626000D03*
X-2968000Y-2626000D03*
X-3222000Y-2626000D03*
X-3628400Y-2626000D03*
X-3882400Y-2626000D03*
X-4136400Y-2626000D03*
X-4390400Y-2626000D03*
X-4644400Y-2626000D03*
X-4898400Y-2626000D03*
X-5152400Y-2626000D03*
X-5406400Y-2626000D03*
X-5660400Y-2626000D03*
X-5914400Y-2626000D03*
X-2100000Y-3300000D03*
D19*
X-2354000Y-3300000D03*
X-2608000Y-3300000D03*
X-2862000Y-3300000D03*
X-3116000Y-3300000D03*
X-3370000Y-3300000D03*
X-3624000Y-3300000D03*
X-3878000Y-3300000D03*
X-4132000Y-3300000D03*
X-4132000Y-4062000D03*
X-3878000Y-4062000D03*
X-3624000Y-4062000D03*
X-3370000Y-4062000D03*
X-3116000Y-4062000D03*
X-2862000Y-4062000D03*
X-2608000Y-4062000D03*
X-2354000Y-4062000D03*
X-2100000Y-4062000D03*
D18*
X+500000Y-3300000D03*
D19*
X+246000Y-3300000D03*
X-8000Y-3300000D03*
X-262000Y-3300000D03*
X-516000Y-3300000D03*
X-770000Y-3300000D03*
X-1024000Y-3300000D03*
X-1278000Y-3300000D03*
X-1532000Y-3300000D03*
X-1532000Y-4062000D03*
X-1278000Y-4062000D03*
X-1024000Y-4062000D03*
X-770000Y-4062000D03*
X-516000Y-4062000D03*
X-262000Y-4062000D03*
X-8000Y-4062000D03*
X+246000Y-4062000D03*
X+500000Y-4062000D03*
D70*
X+5846000Y-2930000D03*
X+6100000Y-2930000D03*
X+5846000Y-3184000D03*
X+6100000Y-3184000D03*
X+5846000Y-3438000D03*
X+6100000Y-3438000D03*
X+5846000Y-3692000D03*
X+6100000Y-3692000D03*
X+5846000Y-3946000D03*
X+6100000Y-3946000D03*
X+5846000Y-4200000D03*
X+6100000Y-4200000D03*
X+5846000Y-4454000D03*
X+6100000Y-4454000D03*
X+5846000Y+1224000D03*
X+6100000Y+1224000D03*
X+5846000Y+970000D03*
X+6100000Y+970000D03*
X+5846000Y+716000D03*
X+6100000Y+716000D03*
X+5846000Y+462000D03*
X+6100000Y+462000D03*
X+5846000Y+208000D03*
X+6100000Y+208000D03*
X+5846000Y-46000D03*
X+6100000Y-46000D03*
X+5846000Y-300000D03*
X+6100000Y-300000D03*
X+5846000Y-554000D03*
X+6100000Y-554000D03*
X+5846000Y-808000D03*
X+6100000Y-808000D03*
X+5846000Y-1062000D03*
X+6100000Y-1062000D03*
X+5846000Y-1316000D03*
X+6100000Y-1316000D03*
X+5846000Y-1570000D03*
X+6100000Y-1570000D03*
X+5846000Y-1824000D03*
X+6100000Y-1824000D03*
X+5846000Y+4416000D03*
X+6100000Y+4416000D03*
X+5846000Y+4162000D03*
X+6100000Y+4162000D03*
X+5846000Y+3908000D03*
X+6100000Y+3908000D03*
X+5846000Y+3654000D03*
X+6100000Y+3654000D03*
X+5846000Y+3400000D03*
X+6100000Y+3400000D03*
X+5846000Y+3146000D03*
X+6100000Y+3146000D03*
X+5846000Y+2892000D03*
X+6100000Y+2892000D03*
X+5846000Y+2638000D03*
X+6100000Y+2638000D03*
X+5846000Y+2384000D03*
X+6100000Y+2384000D03*
X+5846000Y+2130000D03*
X+6100000Y+2130000D03*
D71*
X-2700000Y+2700000D03*
X-1684000Y+2700000D03*
X-2500000Y+3100000D03*
X-1484000Y+3100000D03*
D18*
X-4100000Y+3700000D03*
D19*
X-3846000Y+3700000D03*
X-3592000Y+3700000D03*
X-3338000Y+3700000D03*
X-3084000Y+3700000D03*
X-2830000Y+3700000D03*
X-2576000Y+3700000D03*
X-2576000Y+4462000D03*
X-2830000Y+4462000D03*
X-3084000Y+4462000D03*
X-3338000Y+4462000D03*
X-3592000Y+4462000D03*
X-3846000Y+4462000D03*
X-4100000Y+4462000D03*
D20*
X-5406200Y+2846000D03*
X-7184200Y+2846000D03*
X-6422200Y+3100000D03*
X-5406200Y+3758700D03*
X-7184200Y+3758700D03*
X-6422200Y+4012700D03*
D21*
X+519100Y+3700000D03*
D19*
X+773100Y+3700000D03*
X+1027100Y+3700000D03*
X+1281100Y+3700000D03*
X+1535100Y+3700000D03*
X+1789100Y+3700000D03*
X+2043100Y+3700000D03*
X+2297100Y+3700000D03*
X+2297100Y+4462000D03*
X+2043100Y+4462000D03*
X+1789100Y+4462000D03*
X+1535100Y+4462000D03*
X+1281100Y+4462000D03*
X+1027100Y+4462000D03*
X+773100Y+4462000D03*
X+519100Y+4462000D03*
D18*
X+2911300Y-3384950D03*
D19*
X+3165300Y-3384950D03*
X+3419300Y-3384950D03*
X+3673300Y-3384950D03*
X+3927300Y-3384950D03*
X+4181300Y-3384950D03*
X+4435300Y-3384950D03*
X+4689300Y-3384950D03*
X+4943300Y-3384950D03*
X+4943300Y-2622950D03*
X+4689300Y-2622950D03*
X+4435300Y-2622950D03*
X+4181300Y-2622950D03*
X+3927300Y-2622950D03*
X+3673300Y-2622950D03*
X+3419300Y-2622950D03*
X+3165300Y-2622950D03*
X+2911300Y-2622950D03*
D18*
X+2914300Y-1600000D03*
D19*
X+3168300Y-1600000D03*
X+3422300Y-1600000D03*
X+3676300Y-1600000D03*
X+3930300Y-1600000D03*
X+4184300Y-1600000D03*
X+4438300Y-1600000D03*
X+4692300Y-1600000D03*
X+4946300Y-1600000D03*
X+4946300Y-838000D03*
X+4692300Y-838000D03*
X+4438300Y-838000D03*
X+4184300Y-838000D03*
X+3930300Y-838000D03*
X+3676300Y-838000D03*
X+3422300Y-838000D03*
X+3168300Y-838000D03*
X+2914300Y-838000D03*
D18*
X+2914300Y+177800D03*
D19*
X+3168300Y+177800D03*
X+3422300Y+177800D03*
X+3676300Y+177800D03*
X+3930300Y+177800D03*
X+4184300Y+177800D03*
X+4438300Y+177800D03*
X+4692300Y+177800D03*
X+4946300Y+177800D03*
X+4946300Y+939800D03*
X+4692300Y+939800D03*
X+4438300Y+939800D03*
X+4184300Y+939800D03*
X+3930300Y+939800D03*
X+3676300Y+939800D03*
X+3422300Y+939800D03*
X+3168300Y+939800D03*
X+2914300Y+939800D03*
D18*
X+2915100Y+2081000D03*
D19*
X+3169100Y+2081000D03*
X+3423100Y+2081000D03*
X+3677100Y+2081000D03*
X+3931100Y+2081000D03*
X+4185100Y+2081000D03*
X+4439100Y+2081000D03*
X+4693100Y+2081000D03*
X+4947100Y+2081000D03*
X+4947100Y+2843000D03*
X+4693100Y+2843000D03*
D71*
X+4439100Y+2843000D03*
D19*
X+4185100Y+2843000D03*
X+3931100Y+2843000D03*
X+3677100Y+2843000D03*
X+3423100Y+2843000D03*
X+3169100Y+2843000D03*
X+2915100Y+2843000D03*
D18*
X-5887680Y-3603160D03*
X-5633680Y-3603160D03*
X-5379680Y-3603160D03*
X-2100000Y+3700000D03*
D19*
X-1846000Y+3700000D03*
X-1592000Y+3700000D03*
X-1338000Y+3700000D03*
X-1084000Y+3700000D03*
X-830000Y+3700000D03*
X-576000Y+3700000D03*
X-322000Y+3700000D03*
X-322000Y+4462000D03*
X-576000Y+4462000D03*
X-830000Y+4462000D03*
X-1084000Y+4462000D03*
X-1338000Y+4462000D03*
X-1592000Y+4462000D03*
X-1846000Y+4462000D03*
X-2100000Y+4462000D03*
D22*
X+7724000Y+4445000D03*
X+7724000Y-4445000D03*
X-7643000Y+4445000D03*
X-7643000Y-4445000D03*
D23*
X-7178040Y-3337560D03*
X-7178040Y-3845560D03*
D24*
X-8000000Y-5000000D02*
X+8000000Y-5000000D01*
X+8000000Y+5000000D01*
X-8000000Y+5000000D01*
X-8000000Y-5000000D01*
X+8000000Y-5000000D01*
X+8000000Y+5000000D01*
X-8000000Y+5000000D01*
X-8000000Y-5000000D01*
M02*
