G04 PROTEUS GERBER X2 FILE*
%TF.GenerationSoftware,Labcenter,Proteus,8.13-SP0-Build31525*%
%TF.CreationDate,2024-05-27T20:47:48+00:00*%
%TF.FileFunction,Plated,1,2,PTH*%
%TF.FilePolarity,Positive*%
%TF.Part,Single*%
%TF.SameCoordinates,{f61d12dc-bb82-4ee6-a880-d96314c33a89}*%
%FSLAX45Y45*%
%MOMM*%
G01*
%TA.AperFunction,ViaDrill*%
%ADD53C,0.381000*%
%ADD54C,0.508000*%
%TA.AperFunction,ComponentDrill*%
%ADD55C,1.016000*%
%TA.AperFunction,ComponentDrill*%
%ADD56C,0.762000*%
%TA.AperFunction,ComponentDrill*%
%ADD57C,1.270000*%
%TA.AperFunction,OtherDrill,Unknown*%
%ADD58C,0.762000*%
%TA.AperFunction,ComponentDrill*%
%ADD59C,1.524000*%
%TD.AperFunction*%
D53*
X+3619500Y-127000D03*
X+2032000Y-127000D03*
X+1333500Y+698500D03*
X+3556000Y-2413000D03*
X+5143500Y-1333500D03*
X+2032000Y+2794000D03*
X-1460500Y-4318000D03*
X-770000Y-4394200D03*
X+2603500Y+3048000D03*
X+2984500Y+3048000D03*
X+2603500Y+1905000D03*
X+6286500Y-910000D03*
X+6286500Y-1170000D03*
X+6286500Y-2095500D03*
X+5334000Y-2095500D03*
X+1397000Y-63500D03*
X+2222500Y+1841500D03*
X+2410000Y+670000D03*
X+2410000Y+340000D03*
X+2172970Y+267970D03*
X+5524500Y+1333500D03*
X+5143500Y+1333500D03*
X+4889500Y+2413000D03*
X+6477000Y+2667000D03*
X+6794500Y-2413000D03*
X+4635500Y-1841500D03*
X+1206500Y-1333500D03*
X+1333500Y+63500D03*
X+1333500Y+571500D03*
X+2603500Y+762000D03*
X-1270000Y+3302000D03*
X-5649831Y-2980417D03*
D54*
X-6469585Y-1806598D03*
D53*
X-4254500Y+4635500D03*
X-1587500Y+4699000D03*
X+6858000Y+3175000D03*
X+6858000Y+1778000D03*
X+4762500Y+3365500D03*
X+1350000Y+3370000D03*
X+1240000Y+2690000D03*
X+357347Y+2690896D03*
X+825500Y-2286000D03*
X+960120Y-2981960D03*
X+1235710Y-986790D03*
X+2603500Y-2286000D03*
X+1082040Y-3116580D03*
X+2642178Y+1751445D03*
D55*
X-5000000Y+2200000D03*
X-4746000Y+2200000D03*
X-4492000Y+2200000D03*
X-4238000Y+2200000D03*
X-3984000Y+2200000D03*
X-3730000Y+2200000D03*
X-3476000Y+2200000D03*
X-3222000Y+2200000D03*
X-2714000Y+2200000D03*
X-2460000Y+2200000D03*
X-2206000Y+2200000D03*
X-1952000Y+2200000D03*
X-1698000Y+2200000D03*
X-1444000Y+2200000D03*
X-1190000Y+2200000D03*
X-936000Y+2200000D03*
X-428000Y+2200000D03*
X-174000Y+2200000D03*
X+80000Y+2200000D03*
X+334000Y+2200000D03*
X+588000Y+2200000D03*
X+842000Y+2200000D03*
X+1096000Y+2200000D03*
X+1350000Y+2200000D03*
X+1604000Y+1692000D03*
X+1604000Y+1438000D03*
X+1604000Y+1184000D03*
X+1604000Y+930000D03*
X+1604000Y+676000D03*
X+1604000Y+422000D03*
X+1604000Y+168000D03*
X+1604000Y-86000D03*
X+1604000Y-340000D03*
X+1604000Y-594000D03*
X+1604000Y-848000D03*
X+1604000Y-1102000D03*
X+1604000Y-1356000D03*
X+1604000Y-1610000D03*
X+1604000Y-1864000D03*
X+1604000Y-2118000D03*
X+1604000Y-2372000D03*
X+1604000Y-2626000D03*
X+1858000Y+1692000D03*
X+1858000Y+1438000D03*
X+1858000Y+1184000D03*
X+1858000Y+930000D03*
X+1858000Y+676000D03*
X+1858000Y+422000D03*
X+1858000Y+168000D03*
X+1858000Y-86000D03*
X+1858000Y-340000D03*
X+1858000Y-594000D03*
X+1858000Y-848000D03*
X+1858000Y-1102000D03*
X+1858000Y-1356000D03*
X+1858000Y-1610000D03*
X+1858000Y-1864000D03*
X+1858000Y-2118000D03*
X+1858000Y-2372000D03*
X+1858000Y-2626000D03*
X+842000Y-2626000D03*
X+588000Y-2626000D03*
X+334000Y-2626000D03*
X+80000Y-2626000D03*
X-174000Y-2626000D03*
X-428000Y-2626000D03*
X-682000Y-2626000D03*
X-936000Y-2626000D03*
X-1444000Y-2626000D03*
X-1698000Y-2626000D03*
X-1952000Y-2626000D03*
X-2206000Y-2626000D03*
X-2460000Y-2626000D03*
X-2714000Y-2626000D03*
X-2968000Y-2626000D03*
X-3222000Y-2626000D03*
X-3628400Y-2626000D03*
X-3882400Y-2626000D03*
X-4136400Y-2626000D03*
X-4390400Y-2626000D03*
X-4644400Y-2626000D03*
X-4898400Y-2626000D03*
X-5152400Y-2626000D03*
X-5406400Y-2626000D03*
X-5660400Y-2626000D03*
X-5914400Y-2626000D03*
X-2100000Y-3300000D03*
D56*
X-2354000Y-3300000D03*
X-2608000Y-3300000D03*
X-2862000Y-3300000D03*
X-3116000Y-3300000D03*
X-3370000Y-3300000D03*
X-3624000Y-3300000D03*
X-3878000Y-3300000D03*
X-4132000Y-3300000D03*
X-4132000Y-4062000D03*
X-3878000Y-4062000D03*
X-3624000Y-4062000D03*
X-3370000Y-4062000D03*
X-3116000Y-4062000D03*
X-2862000Y-4062000D03*
X-2608000Y-4062000D03*
X-2354000Y-4062000D03*
X-2100000Y-4062000D03*
D55*
X+500000Y-3300000D03*
D56*
X+246000Y-3300000D03*
X-8000Y-3300000D03*
X-262000Y-3300000D03*
X-516000Y-3300000D03*
X-770000Y-3300000D03*
X-1024000Y-3300000D03*
X-1278000Y-3300000D03*
X-1532000Y-3300000D03*
X-1532000Y-4062000D03*
X-1278000Y-4062000D03*
X-1024000Y-4062000D03*
X-770000Y-4062000D03*
X-516000Y-4062000D03*
X-262000Y-4062000D03*
X-8000Y-4062000D03*
X+246000Y-4062000D03*
X+500000Y-4062000D03*
D57*
X+5846000Y-2930000D03*
X+6100000Y-2930000D03*
X+5846000Y-3184000D03*
X+6100000Y-3184000D03*
X+5846000Y-3438000D03*
X+6100000Y-3438000D03*
X+5846000Y-3692000D03*
X+6100000Y-3692000D03*
X+5846000Y-3946000D03*
X+6100000Y-3946000D03*
X+5846000Y-4200000D03*
X+6100000Y-4200000D03*
X+5846000Y-4454000D03*
X+6100000Y-4454000D03*
X+5846000Y+1224000D03*
X+6100000Y+1224000D03*
X+5846000Y+970000D03*
X+6100000Y+970000D03*
X+5846000Y+716000D03*
X+6100000Y+716000D03*
X+5846000Y+462000D03*
X+6100000Y+462000D03*
X+5846000Y+208000D03*
X+6100000Y+208000D03*
X+5846000Y-46000D03*
X+6100000Y-46000D03*
X+5846000Y-300000D03*
X+6100000Y-300000D03*
X+5846000Y-554000D03*
X+6100000Y-554000D03*
X+5846000Y-808000D03*
X+6100000Y-808000D03*
X+5846000Y-1062000D03*
X+6100000Y-1062000D03*
X+5846000Y-1316000D03*
X+6100000Y-1316000D03*
X+5846000Y-1570000D03*
X+6100000Y-1570000D03*
X+5846000Y-1824000D03*
X+6100000Y-1824000D03*
X+5846000Y+4416000D03*
X+6100000Y+4416000D03*
X+5846000Y+4162000D03*
X+6100000Y+4162000D03*
X+5846000Y+3908000D03*
X+6100000Y+3908000D03*
X+5846000Y+3654000D03*
X+6100000Y+3654000D03*
X+5846000Y+3400000D03*
X+6100000Y+3400000D03*
X+5846000Y+3146000D03*
X+6100000Y+3146000D03*
X+5846000Y+2892000D03*
X+6100000Y+2892000D03*
X+5846000Y+2638000D03*
X+6100000Y+2638000D03*
X+5846000Y+2384000D03*
X+6100000Y+2384000D03*
X+5846000Y+2130000D03*
X+6100000Y+2130000D03*
D56*
X-2700000Y+2700000D03*
X-1684000Y+2700000D03*
X-2500000Y+3100000D03*
X-1484000Y+3100000D03*
D55*
X-4100000Y+3700000D03*
D56*
X-3846000Y+3700000D03*
X-3592000Y+3700000D03*
X-3338000Y+3700000D03*
X-3084000Y+3700000D03*
X-2830000Y+3700000D03*
X-2576000Y+3700000D03*
X-2576000Y+4462000D03*
X-2830000Y+4462000D03*
X-3084000Y+4462000D03*
X-3338000Y+4462000D03*
X-3592000Y+4462000D03*
X-3846000Y+4462000D03*
X-4100000Y+4462000D03*
D55*
X-5406200Y+2846000D03*
X-7184200Y+2846000D03*
X-6422200Y+3100000D03*
X-5406200Y+3758700D03*
X-7184200Y+3758700D03*
X-6422200Y+4012700D03*
D56*
X+519100Y+3700000D03*
X+773100Y+3700000D03*
X+1027100Y+3700000D03*
X+1281100Y+3700000D03*
X+1535100Y+3700000D03*
X+1789100Y+3700000D03*
X+2043100Y+3700000D03*
X+2297100Y+3700000D03*
X+2297100Y+4462000D03*
X+2043100Y+4462000D03*
X+1789100Y+4462000D03*
X+1535100Y+4462000D03*
X+1281100Y+4462000D03*
X+1027100Y+4462000D03*
X+773100Y+4462000D03*
X+519100Y+4462000D03*
D55*
X+2911300Y-3384950D03*
D56*
X+3165300Y-3384950D03*
X+3419300Y-3384950D03*
X+3673300Y-3384950D03*
X+3927300Y-3384950D03*
X+4181300Y-3384950D03*
X+4435300Y-3384950D03*
X+4689300Y-3384950D03*
X+4943300Y-3384950D03*
X+4943300Y-2622950D03*
X+4689300Y-2622950D03*
X+4435300Y-2622950D03*
X+4181300Y-2622950D03*
X+3927300Y-2622950D03*
X+3673300Y-2622950D03*
X+3419300Y-2622950D03*
X+3165300Y-2622950D03*
X+2911300Y-2622950D03*
D55*
X+2914300Y-1600000D03*
D56*
X+3168300Y-1600000D03*
X+3422300Y-1600000D03*
X+3676300Y-1600000D03*
X+3930300Y-1600000D03*
X+4184300Y-1600000D03*
X+4438300Y-1600000D03*
X+4692300Y-1600000D03*
X+4946300Y-1600000D03*
X+4946300Y-838000D03*
X+4692300Y-838000D03*
X+4438300Y-838000D03*
X+4184300Y-838000D03*
X+3930300Y-838000D03*
X+3676300Y-838000D03*
X+3422300Y-838000D03*
X+3168300Y-838000D03*
X+2914300Y-838000D03*
D55*
X+2914300Y+177800D03*
D56*
X+3168300Y+177800D03*
X+3422300Y+177800D03*
X+3676300Y+177800D03*
X+3930300Y+177800D03*
X+4184300Y+177800D03*
X+4438300Y+177800D03*
X+4692300Y+177800D03*
X+4946300Y+177800D03*
X+4946300Y+939800D03*
X+4692300Y+939800D03*
X+4438300Y+939800D03*
X+4184300Y+939800D03*
X+3930300Y+939800D03*
X+3676300Y+939800D03*
X+3422300Y+939800D03*
X+3168300Y+939800D03*
X+2914300Y+939800D03*
D55*
X+2915100Y+2081000D03*
D56*
X+3169100Y+2081000D03*
X+3423100Y+2081000D03*
X+3677100Y+2081000D03*
X+3931100Y+2081000D03*
X+4185100Y+2081000D03*
X+4439100Y+2081000D03*
X+4693100Y+2081000D03*
X+4947100Y+2081000D03*
X+4947100Y+2843000D03*
X+4693100Y+2843000D03*
X+4439100Y+2843000D03*
X+4185100Y+2843000D03*
X+3931100Y+2843000D03*
X+3677100Y+2843000D03*
X+3423100Y+2843000D03*
X+3169100Y+2843000D03*
X+2915100Y+2843000D03*
D55*
X-5887680Y-3603160D03*
X-5633680Y-3603160D03*
X-5379680Y-3603160D03*
X-2100000Y+3700000D03*
D56*
X-1846000Y+3700000D03*
X-1592000Y+3700000D03*
X-1338000Y+3700000D03*
X-1084000Y+3700000D03*
X-830000Y+3700000D03*
X-576000Y+3700000D03*
X-322000Y+3700000D03*
X-322000Y+4462000D03*
X-576000Y+4462000D03*
X-830000Y+4462000D03*
X-1084000Y+4462000D03*
X-1338000Y+4462000D03*
X-1592000Y+4462000D03*
X-1846000Y+4462000D03*
X-2100000Y+4462000D03*
D58*
X+7724000Y+4445000D03*
X+7724000Y-4445000D03*
X-7643000Y+4445000D03*
X-7643000Y-4445000D03*
D59*
X-7178040Y-3337560D03*
X-7178040Y-3845560D03*
M02*
