G04 PROTEUS GERBER X2 FILE*
%TF.GenerationSoftware,Labcenter,Proteus,8.13-SP0-Build31525*%
%TF.CreationDate,2024-05-27T21:02:12+00:00*%
%TF.FileFunction,AssemblyDrawing,Bot*%
%TF.FilePolarity,Positive*%
%TF.Part,Single*%
%TF.SameCoordinates,{0b308d22-9aa3-4b5f-a824-e55e50807f99}*%
%FSLAX45Y45*%
%MOMM*%
G01*
%TA.AperFunction,Profile*%
%ADD23C,0.203200*%
%TA.AperFunction,Material*%
%ADD25C,0.203200*%
%ADD38C,0.812800*%
%ADD50C,2.321980*%
%TD.AperFunction*%
D23*
X-8000000Y-5000000D02*
X+8000000Y-5000000D01*
X+8000000Y+5000000D01*
X-8000000Y+5000000D01*
X-8000000Y-5000000D01*
D25*
X-8439160Y-2890160D02*
X+2376160Y-2890160D01*
X+2376160Y+2464160D01*
X-8439160Y+2464160D01*
X-8439160Y-2890160D01*
D38*
X-5000000Y+2200000D02*
X-5000000Y+2200000D01*
D50*
X-7211068Y+98997D02*
X-6949845Y+331195D01*
X-5904953Y+331195D01*
X-5643730Y+98997D01*
X-5643730Y-133202D01*
X-5904953Y-365400D01*
X-6949845Y-365400D01*
X-7211068Y-597598D01*
X-7211068Y-829797D01*
X-6949845Y-1061995D01*
X-5904953Y-1061995D01*
X-5643730Y-829797D01*
X-4860061Y-1061995D02*
X-3815169Y-1061995D01*
X-4337615Y-1061995D02*
X-4337615Y+331195D01*
X-4860061Y+331195D02*
X-3815169Y+331195D01*
X-3031500Y+331195D02*
X-3031500Y-1061995D01*
X-2247831Y-365400D01*
X-1464162Y-1061995D01*
X-1464162Y+331195D01*
X-419270Y-597598D02*
X+103176Y-1061995D01*
X+103176Y+331195D01*
D23*
X-8000000Y-5000000D02*
X+8000000Y-5000000D01*
X+8000000Y+5000000D01*
X-8000000Y+5000000D01*
X-8000000Y-5000000D01*
M02*
