G04 PROTEUS GERBER X2 FILE*
%TF.GenerationSoftware,Labcenter,Proteus,8.13-SP0-Build31525*%
%TF.CreationDate,2024-05-27T20:47:48+00:00*%
%TF.FileFunction,Other,Mechanical 2*%
%TF.FilePolarity,Positive*%
%TF.Part,Single*%
%TF.SameCoordinates,{f61d12dc-bb82-4ee6-a880-d96314c33a89}*%
%FSLAX45Y45*%
%MOMM*%
G01*
%TA.AperFunction,Profile*%
%ADD24C,0.203200*%
%TA.AperFunction,NonMaterial*%
%ADD39C,0.203200*%
%TD.AperFunction*%
D24*
X-8000000Y-5000000D02*
X+8000000Y-5000000D01*
X+8000000Y+5000000D01*
X-8000000Y+5000000D01*
X-8000000Y-5000000D01*
D39*
X-8000000Y+5350000D02*
X+8000000Y+5350000D01*
X-8000000Y+5350000D02*
X-7873000Y+5223000D01*
X-8000000Y+5350000D02*
X-7873000Y+5477000D01*
X+8000000Y+5350000D02*
X+7873000Y+5477000D01*
X+8000000Y+5350000D02*
X+7873000Y+5223000D01*
X+31750Y+5350000D02*
X+31641Y+5352634D01*
X+30751Y+5357903D01*
X+28889Y+5363172D01*
X+25846Y+5368441D01*
X+21191Y+5373643D01*
X+15922Y+5377469D01*
X+10653Y+5379909D01*
X+5384Y+5381290D01*
X+115Y+5381750D01*
X+0Y+5381750D01*
X-31750Y+5350000D02*
X-31641Y+5352634D01*
X-30751Y+5357903D01*
X-28889Y+5363172D01*
X-25846Y+5368441D01*
X-21191Y+5373643D01*
X-15922Y+5377469D01*
X-10653Y+5379909D01*
X-5384Y+5381290D01*
X-115Y+5381750D01*
X+0Y+5381750D01*
X-31750Y+5350000D02*
X-31641Y+5347366D01*
X-30751Y+5342097D01*
X-28889Y+5336828D01*
X-25846Y+5331559D01*
X-21191Y+5326357D01*
X-15922Y+5322531D01*
X-10653Y+5320091D01*
X-5384Y+5318710D01*
X-115Y+5318250D01*
X+0Y+5318250D01*
X+31750Y+5350000D02*
X+31641Y+5347366D01*
X+30751Y+5342097D01*
X+28889Y+5336828D01*
X+25846Y+5331559D01*
X+21191Y+5326357D01*
X+15922Y+5322531D01*
X+10653Y+5320091D01*
X+5384Y+5318710D01*
X+115Y+5318250D01*
X+0Y+5318250D01*
X-349250Y+5451600D02*
X-317500Y+5482080D01*
X-317500Y+5390640D01*
X-158750Y+5466840D02*
X-174625Y+5482080D01*
X-222250Y+5482080D01*
X-238125Y+5466840D01*
X-238125Y+5405880D01*
X-222250Y+5390640D01*
X-174625Y+5390640D01*
X-158750Y+5405880D01*
X-158750Y+5421120D01*
X-174625Y+5436360D01*
X-238125Y+5436360D01*
X-127000Y+5405880D02*
X-127000Y+5466840D01*
X-111125Y+5482080D01*
X-47625Y+5482080D01*
X-31750Y+5466840D01*
X-31750Y+5405880D01*
X-47625Y+5390640D01*
X-111125Y+5390640D01*
X-127000Y+5405880D01*
X-127000Y+5390640D02*
X-31750Y+5482080D01*
X+127000Y+5390640D02*
X+127000Y+5451600D01*
X+127000Y+5436360D02*
X+142875Y+5451600D01*
X+174625Y+5421120D01*
X+206375Y+5451600D01*
X+222250Y+5436360D01*
X+222250Y+5390640D01*
X+254000Y+5390640D02*
X+254000Y+5451600D01*
X+254000Y+5436360D02*
X+269875Y+5451600D01*
X+301625Y+5421120D01*
X+333375Y+5451600D01*
X+349250Y+5436360D01*
X+349250Y+5390640D01*
X+8350000Y+5000000D02*
X+8350000Y-5000000D01*
X+8350000Y+5000000D02*
X+8223000Y+4873000D01*
X+8350000Y+5000000D02*
X+8477000Y+4873000D01*
X+8350000Y-5000000D02*
X+8477000Y-4873000D01*
X+8350000Y-5000000D02*
X+8223000Y-4873000D01*
X+8381750Y+0D02*
X+8381641Y+2634D01*
X+8380751Y+7903D01*
X+8378889Y+13172D01*
X+8375846Y+18441D01*
X+8371191Y+23643D01*
X+8365922Y+27469D01*
X+8360653Y+29909D01*
X+8355384Y+31290D01*
X+8350115Y+31750D01*
X+8350000Y+31750D01*
X+8318250Y+0D02*
X+8318359Y+2634D01*
X+8319249Y+7903D01*
X+8321111Y+13172D01*
X+8324154Y+18441D01*
X+8328809Y+23643D01*
X+8334078Y+27469D01*
X+8339347Y+29909D01*
X+8344616Y+31290D01*
X+8349885Y+31750D01*
X+8350000Y+31750D01*
X+8318250Y+0D02*
X+8318359Y-2634D01*
X+8319249Y-7903D01*
X+8321111Y-13172D01*
X+8324154Y-18441D01*
X+8328809Y-23643D01*
X+8334078Y-27469D01*
X+8339347Y-29909D01*
X+8344616Y-31290D01*
X+8349885Y-31750D01*
X+8350000Y-31750D01*
X+8381750Y+0D02*
X+8381641Y-2634D01*
X+8380751Y-7903D01*
X+8378889Y-13172D01*
X+8375846Y-18441D01*
X+8371191Y-23643D01*
X+8365922Y-27469D01*
X+8360653Y-29909D01*
X+8355384Y-31290D01*
X+8350115Y-31750D01*
X+8350000Y-31750D01*
X+8451600Y+349250D02*
X+8482080Y+317500D01*
X+8390640Y+317500D01*
X+8405880Y+254000D02*
X+8466840Y+254000D01*
X+8482080Y+238125D01*
X+8482080Y+174625D01*
X+8466840Y+158750D01*
X+8405880Y+158750D01*
X+8390640Y+174625D01*
X+8390640Y+238125D01*
X+8405880Y+254000D01*
X+8390640Y+254000D02*
X+8482080Y+158750D01*
X+8405880Y+127000D02*
X+8466840Y+127000D01*
X+8482080Y+111125D01*
X+8482080Y+47625D01*
X+8466840Y+31750D01*
X+8405880Y+31750D01*
X+8390640Y+47625D01*
X+8390640Y+111125D01*
X+8405880Y+127000D01*
X+8390640Y+127000D02*
X+8482080Y+31750D01*
X+8390640Y-127000D02*
X+8451600Y-127000D01*
X+8436360Y-127000D02*
X+8451600Y-142875D01*
X+8421120Y-174625D01*
X+8451600Y-206375D01*
X+8436360Y-222250D01*
X+8390640Y-222250D01*
X+8390640Y-254000D02*
X+8451600Y-254000D01*
X+8436360Y-254000D02*
X+8451600Y-269875D01*
X+8421120Y-301625D01*
X+8451600Y-333375D01*
X+8436360Y-349250D01*
X+8390640Y-349250D01*
D24*
X-8000000Y-5000000D02*
X+8000000Y-5000000D01*
X+8000000Y+5000000D01*
X-8000000Y+5000000D01*
X-8000000Y-5000000D01*
M02*
