G04 PROTEUS GERBER X2 FILE*
%TF.GenerationSoftware,Labcenter,Proteus,8.13-SP0-Build31525*%
%TF.CreationDate,2024-05-27T19:39:57+00:00*%
%TF.FileFunction,Copper,L3,Inr*%
%TF.FilePolarity,Positive*%
%TF.Part,Single*%
%TF.SameCoordinates,{9f387fc5-f7ba-42a6-a927-b5c1fa408f1c}*%
%FSLAX45Y45*%
%MOMM*%
G01*
%TA.AperFunction,Conductor*%
%ADD10C,0.635000*%
%TA.AperFunction,ViaPad*%
%ADD14C,1.016000*%
%ADD15C,1.524000*%
%TA.AperFunction,ComponentPad*%
%ADD17R,2.286000X2.286000*%
%TA.AperFunction,ComponentPad*%
%ADD18C,2.286000*%
%ADD19C,3.048000*%
%TA.AperFunction,ComponentPad*%
%ADD70R,2.032000X2.032000*%
%ADD71C,2.032000*%
%TA.AperFunction,OtherPad,Unknown*%
%ADD20C,1.524000*%
%TA.AperFunction,Profile*%
%ADD25C,0.203200*%
%TD.AperFunction*%
D10*
X-5892800Y-3327400D02*
X-5892800Y-3556000D01*
X-5524500Y-3924300D01*
X-5524500Y-4241800D01*
X+63500Y+2794000D02*
X+63500Y+2476500D01*
X+190500Y+2349500D01*
X+990600Y+2349500D01*
X+1117600Y+2222500D01*
X+1117600Y+1498600D01*
X-63500Y+2794000D02*
X-63500Y+1841500D01*
X+63500Y+1714500D01*
X+863600Y+1714500D01*
X+863600Y+1498600D01*
X-190500Y+2794000D02*
X-190500Y+2032000D01*
X-152400Y+1993900D01*
X-152400Y+1498600D01*
X-1079500Y+2095500D02*
X-533400Y+2095500D01*
X-406400Y+1968500D01*
X-406400Y+1498600D01*
X-1778000Y+2222500D02*
X-1676400Y+2120900D01*
X-1676400Y+1498600D01*
X-4051300Y+2133600D02*
X-4051300Y+2476500D01*
X-3797300Y+2730500D01*
X-3797300Y+2895600D01*
X+2222500Y-3111500D02*
X+2222500Y-3619500D01*
X+1333500Y-3619500D01*
X+1333500Y-2311400D01*
X+1625600Y-2311400D01*
X+2222500Y-2984500D02*
X+2146300Y-2984500D01*
X+2095500Y-3035300D01*
X+2095500Y-3514725D01*
X+1438274Y-3514725D01*
X+1438274Y-2565400D01*
X+1625600Y-2565400D01*
X+6985000Y-2603500D02*
X+6985000Y-4508500D01*
X+6858000Y-4635500D01*
X+4699000Y-4635500D01*
X+4572000Y-4508500D01*
X+4572000Y-2413000D01*
X+4445000Y-2286000D01*
X+2222500Y-2286000D01*
X+2222500Y-2438400D01*
X+2095500Y-2565400D01*
X+1879600Y-2565400D01*
X+5969000Y+3619500D02*
X+5953760Y+3634740D01*
X+5742940Y+3634740D01*
X+6675119Y-774700D02*
X+6675120Y-774700D01*
X+6985000Y-774700D01*
X+7112000Y-901700D01*
X+7112000Y-4762500D01*
X+6985000Y-4889500D01*
X+1206500Y-4889500D01*
X+1079500Y-4762500D01*
X+1079500Y-952500D01*
X+1244600Y-787400D01*
X+1625600Y-787400D01*
X+1206500Y-508000D02*
X+1206500Y+1184274D01*
X+1333500Y+1311274D01*
X+2771774Y+1311274D01*
X+2921000Y+1460500D01*
X+2921000Y+2667000D01*
X+3048000Y+2794000D01*
X+3937000Y+2794000D01*
X+6675120Y-2044700D02*
X+6858000Y-2044700D01*
X+6858000Y-4508500D01*
X+5461000Y-4508500D01*
X+5334000Y-4381500D01*
X+5334000Y-2222500D01*
X+5168900Y-2057400D01*
X+1879600Y-2057400D01*
X+3873500Y-63500D02*
X+5270500Y-63500D01*
X+5397500Y+63500D01*
X+5397500Y+1968500D01*
X+5524500Y+2095500D01*
X+6858000Y+2095500D01*
X+6985000Y+1968500D01*
X+6985000Y-635000D01*
X-190500Y+3556000D02*
X+1206500Y+3556000D01*
X+1539239Y+3888739D01*
X+5488940Y+3888740D01*
X+5488940Y+3888739D01*
X-381000Y+4254500D02*
X-127000Y+4000500D01*
X+1651000Y+4000500D01*
X+1793240Y+4142740D01*
X+5488940Y+4142740D01*
X+2349500Y-2413000D02*
X+2349500Y-3619500D01*
X+2222500Y-3746500D01*
X+1333500Y-3746500D01*
X+1206500Y-3619500D01*
X+1206500Y-1422400D01*
X+1333500Y-1295400D01*
X+1625600Y-1295400D01*
X-2095500Y+4318000D02*
X-1841500Y+4572000D01*
X+6096000Y+4572000D01*
X+6223000Y+4445000D01*
X+6223000Y+2999740D01*
X+6096000Y+2872740D01*
X+5742940Y+2872740D01*
X-2095500Y+4318000D02*
X-2095500Y+3302000D01*
X-2095500Y+4318000D02*
X-2159000Y+4381500D01*
X-4064000Y+4381500D01*
X-4191000Y+4254500D01*
X-1778000Y+3556000D02*
X-1348740Y+3126740D01*
X+5488940Y+3126740D01*
X+5488941Y+3126740D01*
X+5143500Y+1270000D02*
X+4318000Y+1270000D01*
X+4191000Y+1397000D01*
X+4191000Y+2349500D01*
X-2984500Y+2540000D02*
X-2984500Y-2819400D01*
X-2692400Y-3111500D01*
X-2692400Y-3327400D01*
X-825500Y+1968500D02*
X-698500Y+1841500D01*
X-698500Y-1879600D01*
X-1930400Y-3111500D01*
X-1930400Y-3327400D01*
X+3429000Y+762000D02*
X+2984500Y+1206500D01*
X+1460500Y+1206500D01*
X+1333500Y+1079500D01*
X+1333500Y+228600D01*
X+1625600Y+228600D01*
X+5143500Y+2349500D02*
X+5143500Y+1397000D01*
X+5905500Y+1143000D02*
X+5905500Y+1841500D01*
X+6032500Y+1968500D01*
X+6858000Y+1968500D01*
X+6858000Y+1003300D01*
X+6675120Y+1003300D01*
X+6675119Y+1003300D01*
X+5270500Y+1079500D02*
X+4064000Y+1079500D01*
X+3937000Y+1206500D01*
X+3937000Y+2667000D01*
X-1303486Y+3944921D02*
X-1553307Y+4194742D01*
X-1813288Y+4194742D01*
X-1524000Y+2095500D02*
X-1524000Y+2082800D01*
X-1168400Y+1727200D01*
X-1168400Y+1498600D01*
X+5588000Y-3568700D02*
X+5588000Y-3314700D01*
X+5842000Y-3060700D01*
X+6421120Y-3060700D01*
D14*
X+63500Y+2794000D03*
X-63500Y+2794000D03*
X+317500Y+2222500D03*
X+317500Y+2095500D03*
X-1016000Y+2222500D03*
X-190500Y+2794000D03*
X-1079500Y+2095500D03*
X-1333500Y+2794000D03*
X-1651000Y+2794000D03*
X-1778000Y+2222500D03*
X-1905000Y+2095500D03*
X-2667000Y+4254500D03*
X-1460500Y+3683000D03*
X-1016000Y+2921000D03*
X+3238500Y-4381500D03*
X+2222500Y-3111500D03*
X+2222500Y-2984500D03*
X+2095500Y-3873500D03*
X+6985000Y-2603500D03*
X+3111500Y-4254500D03*
X+5270500Y+3492500D03*
X+5969000Y+3619500D03*
X-1143000Y+3619500D03*
X-2286000Y+3873500D03*
X-1270000Y+2921000D03*
X+3937000Y+2794000D03*
X+1206500Y-508000D03*
X+6096000Y-3746500D03*
X+1397000Y-1778000D03*
X+5715000Y-3937000D03*
X+1397000Y-1524000D03*
X+6985000Y-635000D03*
X+3873500Y-63500D03*
X-1016000Y+4191000D03*
X-190500Y+3556000D03*
X-63500Y+2921000D03*
X-63500Y+3873500D03*
D15*
X+2159000Y+1587500D03*
X+4318000Y+317500D03*
D14*
X+63500Y+2984500D03*
X-381000Y+4254500D03*
X+2349500Y-2413000D03*
X-3492500Y+4191000D03*
X-1651000Y+2921000D03*
X-2095500Y+3302000D03*
X-4191000Y+4254500D03*
X-1778000Y+3556000D03*
X-2222500Y+3429000D03*
X-1841500Y+2984500D03*
X+5016500Y+444500D03*
X+3810000Y+2095500D03*
X+4191000Y+2349500D03*
X+5143500Y+1270000D03*
X+190500Y+2794000D03*
X-2984500Y+2540000D03*
X+0Y+4127500D03*
X+190500Y+2984500D03*
X+317500Y+2794000D03*
X+1079500Y+2984500D03*
X+825500Y+2095500D03*
X+6223000Y+1778000D03*
X+381000Y+4254500D03*
X-825500Y+1968500D03*
X+762000Y+4127500D03*
X+444500Y+2984500D03*
X+3810000Y+1587500D03*
X+2095500Y+762000D03*
X+2667000Y+2349500D03*
X+4445000Y+635000D03*
X+3429000Y+762000D03*
X+5778500Y+1397000D03*
X+5143500Y+1397000D03*
X+5143500Y+2349500D03*
X+3556000Y+2667000D03*
X+4508500Y+889000D03*
X+3683000Y+1016000D03*
X+5905500Y+1143000D03*
X+3937000Y+2667000D03*
X+5270500Y+1079500D03*
X+5016500Y+2984500D03*
X+3615633Y+490208D03*
X+2603500Y+558800D03*
X+2929648Y+772945D03*
X+3162300Y+1549400D03*
X+1769316Y+3504046D03*
X+1371600Y+4216400D03*
X-1333500Y+4254500D03*
X-1303486Y+3944921D03*
X-1813288Y+4194742D03*
X-1524000Y+2095500D03*
X+1460500Y-4000500D03*
X+6223000Y-3937000D03*
X+1905000Y-3873500D03*
X+5588000Y-3568700D03*
D17*
X-4978400Y+1498600D03*
X-4724400Y+1498600D03*
X-4470400Y+1498600D03*
X-4216400Y+1498600D03*
X-3962400Y+1498600D03*
X-3708400Y+1498600D03*
X-3454400Y+1498600D03*
X-3200400Y+1498600D03*
X-2692400Y+1498600D03*
X-2438400Y+1498600D03*
X-2184400Y+1498600D03*
X-1930400Y+1498600D03*
X-1676400Y+1498600D03*
X-1422400Y+1498600D03*
X-1168400Y+1498600D03*
X-914400Y+1498600D03*
X-406400Y+1498600D03*
X-152400Y+1498600D03*
X+101600Y+1498600D03*
X+355600Y+1498600D03*
X+609600Y+1498600D03*
X+863600Y+1498600D03*
X+1117600Y+1498600D03*
X+1371600Y+1498600D03*
X+1625600Y+990600D03*
X+1625600Y+736600D03*
X+1625600Y+482600D03*
X+1625600Y+228600D03*
X+1625600Y-25400D03*
X+1625600Y-279400D03*
X+1625600Y-533400D03*
X+1625600Y-787400D03*
X+1625600Y-1041400D03*
X+1625600Y-1295400D03*
X+1625600Y-1549400D03*
X+1625600Y-1803400D03*
X+1625600Y-2057400D03*
X+1625600Y-2311400D03*
X+1625600Y-2565400D03*
X+1625600Y-2819400D03*
X+1625600Y-3073400D03*
X+1625600Y-3327400D03*
X+1879600Y+990600D03*
X+1879600Y+736600D03*
X+1879600Y+482600D03*
X+1879600Y+228600D03*
X+1879600Y-25400D03*
X+1879600Y-279400D03*
X+1879600Y-533400D03*
X+1879600Y-787400D03*
X+1879600Y-1041400D03*
X+1879600Y-1295400D03*
X+1879600Y-1549400D03*
X+1879600Y-1803400D03*
X+1879600Y-2057400D03*
X+1879600Y-2311400D03*
X+1879600Y-2565400D03*
X+1879600Y-2819400D03*
X+1879600Y-3073400D03*
X+1879600Y-3327400D03*
X+863600Y-3327400D03*
X+609600Y-3327400D03*
X+355600Y-3327400D03*
X+101600Y-3327400D03*
X-152400Y-3327400D03*
X-406400Y-3327400D03*
X-660400Y-3327400D03*
X-914400Y-3327400D03*
X-1422400Y-3327400D03*
X-1676400Y-3327400D03*
X-1930400Y-3327400D03*
X-2184400Y-3327400D03*
X-2438400Y-3327400D03*
X-2692400Y-3327400D03*
X-2946400Y-3327400D03*
X-3200400Y-3327400D03*
X-3606800Y-3327400D03*
X-3860800Y-3327400D03*
X-4114800Y-3327400D03*
X-4368800Y-3327400D03*
X-4622800Y-3327400D03*
X-4876800Y-3327400D03*
X-5130800Y-3327400D03*
X-5384800Y-3327400D03*
X-5638800Y-3327400D03*
X-5892800Y-3327400D03*
D18*
X-4483100Y+3784600D03*
X-3467100Y+3784600D03*
D17*
X+5488940Y+4396740D03*
X+5742940Y+4396740D03*
X+5488940Y+4142740D03*
X+5742940Y+4142740D03*
X+5488940Y+3888740D03*
X+5742940Y+3888740D03*
X+5488940Y+3634740D03*
X+5742940Y+3634740D03*
X+5488940Y+3380740D03*
X+5742940Y+3380740D03*
X+5488940Y+3126740D03*
X+5742940Y+3126740D03*
X+5488940Y+2872740D03*
X+5742940Y+2872740D03*
D19*
X-6781800Y-4000500D03*
X-6781800Y-4508500D03*
D70*
X-4305300Y+2133600D03*
D71*
X-4051300Y+2133600D03*
X-3797300Y+2133600D03*
X-3543300Y+2133600D03*
X-3543300Y+2895600D03*
X-3797300Y+2895600D03*
X-4051300Y+2895600D03*
X-4305300Y+2895600D03*
D17*
X+6421120Y-4330700D03*
X+6675120Y-4330700D03*
X+6421120Y-4076700D03*
X+6675120Y-4076700D03*
X+6421120Y-3822700D03*
X+6675120Y-3822700D03*
X+6421120Y-3568700D03*
X+6675120Y-3568700D03*
X+6421120Y-3314700D03*
X+6675120Y-3314700D03*
X+6421120Y-3060700D03*
X+6675120Y-3060700D03*
X+6421120Y-2806700D03*
X+6675120Y-2806700D03*
X+6421120Y-2552700D03*
X+6675120Y-2552700D03*
X+6421120Y-2298700D03*
X+6675120Y-2298700D03*
X+6421120Y-2044700D03*
X+6675120Y-2044700D03*
X+6421120Y-1790700D03*
X+6675120Y-1790700D03*
X+6421120Y-1536700D03*
X+6675120Y-1536700D03*
X+6421120Y-1282700D03*
X+6675120Y-1282700D03*
X+6421120Y-1028700D03*
X+6675120Y-1028700D03*
X+6421120Y-774700D03*
X+6675120Y-774700D03*
X+6421120Y-520700D03*
X+6675120Y-520700D03*
X+6421120Y-266700D03*
X+6675120Y-266700D03*
X+6421120Y-12700D03*
X+6675120Y-12700D03*
X+6421120Y+241300D03*
X+6675120Y+241300D03*
X+6421120Y+495300D03*
X+6675120Y+495300D03*
X+6421120Y+749300D03*
X+6675120Y+749300D03*
X+6421120Y+1003300D03*
X+6675120Y+1003300D03*
X+6421120Y+1257300D03*
X+6675120Y+1257300D03*
X+6421120Y+1511300D03*
X+6675120Y+1511300D03*
X+6421120Y+1765300D03*
X+6675120Y+1765300D03*
D20*
X-7645400Y-4445000D03*
X-7645400Y+4445000D03*
X+7721600Y+4648200D03*
X+7734300Y-4445000D03*
D71*
X-6083300Y+3644900D03*
X-7353300Y+3644900D03*
X-6845300Y+3898900D03*
D70*
X-5778500Y-4241800D03*
X-5524500Y-4241800D03*
X-5270500Y-4241800D03*
D25*
X-8000000Y-5000000D02*
X+8000000Y-5000000D01*
X+8000000Y+5000000D01*
X-8000000Y+5000000D01*
X-8000000Y-5000000D01*
M02*
