G04 PROTEUS GERBER X2 FILE*
%TF.GenerationSoftware,Labcenter,Proteus,8.13-SP0-Build31525*%
%TF.CreationDate,2024-05-27T19:39:57+00:00*%
%TF.FileFunction,Soldermask,Top*%
%TF.FilePolarity,Negative*%
%TF.Part,Single*%
%TF.SameCoordinates,{9f387fc5-f7ba-42a6-a927-b5c1fa408f1c}*%
%FSLAX45Y45*%
%MOMM*%
G01*
%TA.AperFunction,Material*%
%ADD31C,1.270000*%
%ADD32C,1.778000*%
%AMPPAD027*
4,1,36,
-1.143000,1.270000,
1.143000,1.270000,
1.168970,1.267470,
1.192980,1.260200,
1.214580,1.248650,
1.233290,1.233290,
1.248650,1.214570,
1.260200,1.192980,
1.267470,1.168970,
1.270000,1.143000,
1.270000,-1.143000,
1.267470,-1.168970,
1.260200,-1.192980,
1.248650,-1.214570,
1.233290,-1.233290,
1.214580,-1.248650,
1.192980,-1.260200,
1.168970,-1.267470,
1.143000,-1.270000,
-1.143000,-1.270000,
-1.168970,-1.267470,
-1.192980,-1.260200,
-1.214580,-1.248650,
-1.233290,-1.233290,
-1.248650,-1.214570,
-1.260200,-1.192980,
-1.267470,-1.168970,
-1.270000,-1.143000,
-1.270000,1.143000,
-1.267470,1.168970,
-1.260200,1.192980,
-1.248650,1.214570,
-1.233290,1.233290,
-1.214580,1.248650,
-1.192980,1.260200,
-1.168970,1.267470,
-1.143000,1.270000,
0*%
%TA.AperFunction,Material*%
%ADD33PPAD027*%
%TA.AperFunction,Material*%
%ADD34C,2.540000*%
%ADD35C,3.302000*%
%AMPPAD030*
4,1,36,
-1.016000,1.143000,
1.016000,1.143000,
1.041970,1.140470,
1.065980,1.133200,
1.087580,1.121650,
1.106290,1.106290,
1.121650,1.087570,
1.133200,1.065980,
1.140470,1.041970,
1.143000,1.016000,
1.143000,-1.016000,
1.140470,-1.041970,
1.133200,-1.065980,
1.121650,-1.087570,
1.106290,-1.106290,
1.087580,-1.121650,
1.065980,-1.133200,
1.041970,-1.140470,
1.016000,-1.143000,
-1.016000,-1.143000,
-1.041970,-1.140470,
-1.065980,-1.133200,
-1.087580,-1.121650,
-1.106290,-1.106290,
-1.121650,-1.087570,
-1.133200,-1.065980,
-1.140470,-1.041970,
-1.143000,-1.016000,
-1.143000,1.016000,
-1.140470,1.041970,
-1.133200,1.065980,
-1.121650,1.087570,
-1.106290,1.106290,
-1.087580,1.121650,
-1.065980,1.133200,
-1.041970,1.140470,
-1.016000,1.143000,
0*%
%TA.AperFunction,Material*%
%ADD36PPAD030*%
%ADD37C,2.286000*%
%AMPPAD032*
4,1,4,
-0.469900,1.625600,
0.469900,1.625600,
0.469900,-1.625600,
-0.469900,-1.625600,
-0.469900,1.625600,
0*%
%TA.AperFunction,Material*%
%ADD38PPAD032*%
%AMPPAD033*
4,1,4,
0.901700,0.571500,
0.901700,-0.571500,
-0.901700,-0.571500,
-0.901700,0.571500,
0.901700,0.571500,
0*%
%TA.AperFunction,Material*%
%ADD39PPAD033*%
%AMPPAD034*
4,1,4,
-1.625600,-0.469900,
-1.625600,0.469900,
1.625600,0.469900,
1.625600,-0.469900,
-1.625600,-0.469900,
0*%
%TA.AperFunction,Material*%
%ADD40PPAD034*%
%AMPPAD035*
4,1,36,
1.143000,0.635000,
1.143000,-0.635000,
1.140470,-0.660970,
1.133200,-0.684980,
1.121650,-0.706580,
1.106290,-0.725290,
1.087570,-0.740650,
1.065980,-0.752200,
1.041970,-0.759470,
1.016000,-0.762000,
-1.016000,-0.762000,
-1.041970,-0.759470,
-1.065980,-0.752200,
-1.087570,-0.740650,
-1.106290,-0.725290,
-1.121650,-0.706580,
-1.133200,-0.684980,
-1.140470,-0.660970,
-1.143000,-0.635000,
-1.143000,0.635000,
-1.140470,0.660970,
-1.133200,0.684980,
-1.121650,0.706580,
-1.106290,0.725290,
-1.087570,0.740650,
-1.065980,0.752200,
-1.041970,0.759470,
-1.016000,0.762000,
1.016000,0.762000,
1.041970,0.759470,
1.065980,0.752200,
1.087570,0.740650,
1.106290,0.725290,
1.121650,0.706580,
1.133200,0.684980,
1.140470,0.660970,
1.143000,0.635000,
0*%
%TA.AperFunction,Material*%
%ADD41PPAD035*%
%TA.AperFunction,Profile*%
%ADD25C,0.203200*%
%TD.AperFunction*%
D31*
X+63500Y+2794000D03*
X-63500Y+2794000D03*
X+317500Y+2222500D03*
X+317500Y+2095500D03*
X-1016000Y+2222500D03*
X-190500Y+2794000D03*
X-1079500Y+2095500D03*
X-1333500Y+2794000D03*
X-1651000Y+2794000D03*
X-1778000Y+2222500D03*
X-1905000Y+2095500D03*
X-2667000Y+4254500D03*
X-1460500Y+3683000D03*
X-1016000Y+2921000D03*
X+3238500Y-4381500D03*
X+2222500Y-3111500D03*
X+2222500Y-2984500D03*
X+2095500Y-3873500D03*
X+6985000Y-2603500D03*
X+3111500Y-4254500D03*
X+5270500Y+3492500D03*
X+5969000Y+3619500D03*
X-1143000Y+3619500D03*
X-2286000Y+3873500D03*
X-1270000Y+2921000D03*
X+3937000Y+2794000D03*
X+1206500Y-508000D03*
X+6096000Y-3746500D03*
X+1397000Y-1778000D03*
X+5715000Y-3937000D03*
X+1397000Y-1524000D03*
X+6985000Y-635000D03*
X+3873500Y-63500D03*
X-1016000Y+4191000D03*
X-190500Y+3556000D03*
X-63500Y+2921000D03*
X-63500Y+3873500D03*
D32*
X+2159000Y+1587500D03*
X+4318000Y+317500D03*
D31*
X+63500Y+2984500D03*
X-381000Y+4254500D03*
X+2349500Y-2413000D03*
X-3492500Y+4191000D03*
X-1651000Y+2921000D03*
X-2095500Y+3302000D03*
X-4191000Y+4254500D03*
X-1778000Y+3556000D03*
X-2222500Y+3429000D03*
X-1841500Y+2984500D03*
X+5016500Y+444500D03*
X+3810000Y+2095500D03*
X+4191000Y+2349500D03*
X+5143500Y+1270000D03*
X+190500Y+2794000D03*
X-2984500Y+2540000D03*
X+0Y+4127500D03*
X+190500Y+2984500D03*
X+317500Y+2794000D03*
X+1079500Y+2984500D03*
X+825500Y+2095500D03*
X+6223000Y+1778000D03*
X+381000Y+4254500D03*
X-825500Y+1968500D03*
X+762000Y+4127500D03*
X+444500Y+2984500D03*
X+3810000Y+1587500D03*
X+2095500Y+762000D03*
X+2667000Y+2349500D03*
X+4445000Y+635000D03*
X+3429000Y+762000D03*
X+5778500Y+1397000D03*
X+5143500Y+1397000D03*
X+5143500Y+2349500D03*
X+3556000Y+2667000D03*
X+4508500Y+889000D03*
X+3683000Y+1016000D03*
X+5905500Y+1143000D03*
X+3937000Y+2667000D03*
X+5270500Y+1079500D03*
X+5016500Y+2984500D03*
X+3615633Y+490208D03*
X+2603500Y+558800D03*
X+2929648Y+772945D03*
X+3162300Y+1549400D03*
X+1769316Y+3504046D03*
X+1371600Y+4216400D03*
X-1333500Y+4254500D03*
X-1303486Y+3944921D03*
X-1813288Y+4194742D03*
X-1524000Y+2095500D03*
X+1460500Y-4000500D03*
X+6223000Y-3937000D03*
X+1905000Y-3873500D03*
X+5588000Y-3568700D03*
D33*
X-4978400Y+1498600D03*
X-4724400Y+1498600D03*
X-4470400Y+1498600D03*
X-4216400Y+1498600D03*
X-3962400Y+1498600D03*
X-3708400Y+1498600D03*
X-3454400Y+1498600D03*
X-3200400Y+1498600D03*
X-2692400Y+1498600D03*
X-2438400Y+1498600D03*
X-2184400Y+1498600D03*
X-1930400Y+1498600D03*
X-1676400Y+1498600D03*
X-1422400Y+1498600D03*
X-1168400Y+1498600D03*
X-914400Y+1498600D03*
X-406400Y+1498600D03*
X-152400Y+1498600D03*
X+101600Y+1498600D03*
X+355600Y+1498600D03*
X+609600Y+1498600D03*
X+863600Y+1498600D03*
X+1117600Y+1498600D03*
X+1371600Y+1498600D03*
X+1625600Y+990600D03*
X+1625600Y+736600D03*
X+1625600Y+482600D03*
X+1625600Y+228600D03*
X+1625600Y-25400D03*
X+1625600Y-279400D03*
X+1625600Y-533400D03*
X+1625600Y-787400D03*
X+1625600Y-1041400D03*
X+1625600Y-1295400D03*
X+1625600Y-1549400D03*
X+1625600Y-1803400D03*
X+1625600Y-2057400D03*
X+1625600Y-2311400D03*
X+1625600Y-2565400D03*
X+1625600Y-2819400D03*
X+1625600Y-3073400D03*
X+1625600Y-3327400D03*
X+1879600Y+990600D03*
X+1879600Y+736600D03*
X+1879600Y+482600D03*
X+1879600Y+228600D03*
X+1879600Y-25400D03*
X+1879600Y-279400D03*
X+1879600Y-533400D03*
X+1879600Y-787400D03*
X+1879600Y-1041400D03*
X+1879600Y-1295400D03*
X+1879600Y-1549400D03*
X+1879600Y-1803400D03*
X+1879600Y-2057400D03*
X+1879600Y-2311400D03*
X+1879600Y-2565400D03*
X+1879600Y-2819400D03*
X+1879600Y-3073400D03*
X+1879600Y-3327400D03*
X+863600Y-3327400D03*
X+609600Y-3327400D03*
X+355600Y-3327400D03*
X+101600Y-3327400D03*
X-152400Y-3327400D03*
X-406400Y-3327400D03*
X-660400Y-3327400D03*
X-914400Y-3327400D03*
X-1422400Y-3327400D03*
X-1676400Y-3327400D03*
X-1930400Y-3327400D03*
X-2184400Y-3327400D03*
X-2438400Y-3327400D03*
X-2692400Y-3327400D03*
X-2946400Y-3327400D03*
X-3200400Y-3327400D03*
X-3606800Y-3327400D03*
X-3860800Y-3327400D03*
X-4114800Y-3327400D03*
X-4368800Y-3327400D03*
X-4622800Y-3327400D03*
X-4876800Y-3327400D03*
X-5130800Y-3327400D03*
X-5384800Y-3327400D03*
X-5638800Y-3327400D03*
X-5892800Y-3327400D03*
D34*
X-4483100Y+3784600D03*
X-3467100Y+3784600D03*
D33*
X+5488940Y+4396740D03*
X+5742940Y+4396740D03*
X+5488940Y+4142740D03*
X+5742940Y+4142740D03*
X+5488940Y+3888740D03*
X+5742940Y+3888740D03*
X+5488940Y+3634740D03*
X+5742940Y+3634740D03*
X+5488940Y+3380740D03*
X+5742940Y+3380740D03*
X+5488940Y+3126740D03*
X+5742940Y+3126740D03*
X+5488940Y+2872740D03*
X+5742940Y+2872740D03*
D35*
X-6781800Y-4000500D03*
X-6781800Y-4508500D03*
D36*
X-4305300Y+2133600D03*
D37*
X-4051300Y+2133600D03*
X-3797300Y+2133600D03*
X-3543300Y+2133600D03*
X-3543300Y+2895600D03*
X-3797300Y+2895600D03*
X-4051300Y+2895600D03*
X-4305300Y+2895600D03*
D33*
X+6421120Y-4330700D03*
X+6675120Y-4330700D03*
X+6421120Y-4076700D03*
X+6675120Y-4076700D03*
X+6421120Y-3822700D03*
X+6675120Y-3822700D03*
X+6421120Y-3568700D03*
X+6675120Y-3568700D03*
X+6421120Y-3314700D03*
X+6675120Y-3314700D03*
X+6421120Y-3060700D03*
X+6675120Y-3060700D03*
X+6421120Y-2806700D03*
X+6675120Y-2806700D03*
X+6421120Y-2552700D03*
X+6675120Y-2552700D03*
X+6421120Y-2298700D03*
X+6675120Y-2298700D03*
X+6421120Y-2044700D03*
X+6675120Y-2044700D03*
X+6421120Y-1790700D03*
X+6675120Y-1790700D03*
X+6421120Y-1536700D03*
X+6675120Y-1536700D03*
X+6421120Y-1282700D03*
X+6675120Y-1282700D03*
X+6421120Y-1028700D03*
X+6675120Y-1028700D03*
X+6421120Y-774700D03*
X+6675120Y-774700D03*
X+6421120Y-520700D03*
X+6675120Y-520700D03*
X+6421120Y-266700D03*
X+6675120Y-266700D03*
X+6421120Y-12700D03*
X+6675120Y-12700D03*
X+6421120Y+241300D03*
X+6675120Y+241300D03*
X+6421120Y+495300D03*
X+6675120Y+495300D03*
X+6421120Y+749300D03*
X+6675120Y+749300D03*
X+6421120Y+1003300D03*
X+6675120Y+1003300D03*
X+6421120Y+1257300D03*
X+6675120Y+1257300D03*
X+6421120Y+1511300D03*
X+6675120Y+1511300D03*
X+6421120Y+1765300D03*
X+6675120Y+1765300D03*
D32*
X-7645400Y-4445000D03*
X-7645400Y+4445000D03*
X+7721600Y+4648200D03*
X+7734300Y-4445000D03*
D37*
X-6083300Y+3644900D03*
X-7353300Y+3644900D03*
X-6845300Y+3898900D03*
D38*
X-1930400Y+2540748D03*
X-1803400Y+2540748D03*
X-1676400Y+2540748D03*
X-1549400Y+2540748D03*
X-1422400Y+2540748D03*
X-1295400Y+2540748D03*
X-1168400Y+2540748D03*
X-1041400Y+2540748D03*
X-914400Y+2540748D03*
X-914400Y+3264648D03*
X-1041400Y+3264648D03*
X-1168400Y+3264648D03*
X-1295400Y+3264648D03*
X-1422400Y+3264648D03*
X-1549400Y+3264648D03*
X-1676400Y+3264648D03*
X-1803400Y+3264648D03*
X-1930400Y+3264648D03*
D39*
X-4191000Y+4731813D03*
X-4191000Y+4441813D03*
X-3860800Y+4731813D03*
X-3860800Y+4441813D03*
X-3505200Y+4731813D03*
X-3505200Y+4441813D03*
X-3175000Y+4731813D03*
X-3175000Y+4441813D03*
X-2832100Y+4731813D03*
X-2832100Y+4441813D03*
X-2451100Y+4731813D03*
X-2451100Y+4441813D03*
X-2070100Y+4731813D03*
X-2070100Y+4441813D03*
X-1676400Y+4731813D03*
X-1676400Y+4441813D03*
D38*
X-304800Y+2540748D03*
X-177800Y+2540748D03*
X-50800Y+2540748D03*
X+76200Y+2540748D03*
X+203200Y+2540748D03*
X+330200Y+2540748D03*
X+457200Y+2540748D03*
X+584200Y+2540748D03*
X+711200Y+2540748D03*
X+711200Y+3264648D03*
X+584200Y+3264648D03*
X+457200Y+3264648D03*
X+330200Y+3264648D03*
X+203200Y+3264648D03*
X+76200Y+3264648D03*
X-50800Y+3264648D03*
X-177800Y+3264648D03*
X-304800Y+3264648D03*
D39*
X-1308100Y+4731813D03*
X-1308100Y+4441813D03*
X-1016000Y+4731813D03*
X-1016000Y+4441813D03*
X-698500Y+4731813D03*
X-698500Y+4441813D03*
X-381000Y+4731813D03*
X-381000Y+4441813D03*
X+0Y+4731813D03*
X+0Y+4441813D03*
X+381000Y+4731813D03*
X+381000Y+4441813D03*
X+762000Y+4731813D03*
X+762000Y+4441813D03*
D40*
X+4044950Y+1409700D03*
X+4044950Y+1282700D03*
X+4044950Y+1155700D03*
X+4044950Y+1028700D03*
X+4044950Y+901700D03*
X+4044950Y+774700D03*
X+4044950Y+647700D03*
X+4044950Y+520700D03*
X+4044950Y+393700D03*
X+4768850Y+393700D03*
X+4768850Y+520700D03*
X+4768850Y+647700D03*
X+4768850Y+774700D03*
X+4768850Y+901700D03*
X+4768850Y+1028700D03*
X+4768850Y+1155700D03*
X+4768850Y+1282700D03*
X+4768850Y+1409700D03*
D41*
X+4813300Y+2957000D03*
X+4813300Y+2667000D03*
X+4495800Y+2957000D03*
X+4495800Y+2667000D03*
X+4152900Y+2957000D03*
X+4152900Y+2667000D03*
X+3733800Y+2957000D03*
X+3733800Y+2667000D03*
X+3327400Y+2957000D03*
X+3327400Y+2667000D03*
X+2984500Y+2957000D03*
X+2984500Y+2667000D03*
X+2641600Y+2957000D03*
X+2641600Y+2667000D03*
X+2298700Y+2957000D03*
X+2298700Y+2667000D03*
D36*
X-5778500Y-4241800D03*
X-5524500Y-4241800D03*
X-5270500Y-4241800D03*
D25*
X-8000000Y-5000000D02*
X+8000000Y-5000000D01*
X+8000000Y+5000000D01*
X-8000000Y+5000000D01*
X-8000000Y-5000000D01*
M02*
