G04 PROTEUS GERBER X2 FILE*
%TF.GenerationSoftware,Labcenter,Proteus,8.13-SP0-Build31525*%
%TF.CreationDate,2023-09-28T22:20:41+00:00*%
%TF.FileFunction,Legend,Top*%
%TF.FilePolarity,Positive*%
%TF.Part,Single*%
%TF.SameCoordinates,{6b1b6182-4d37-414e-9227-abf112f8db44}*%
%FSLAX45Y45*%
%MOMM*%
G01*
%TA.AperFunction,Profile*%
%ADD20C,0.203200*%
%TA.AperFunction,Material*%
%ADD22C,0.203200*%
%ADD23C,0.508000*%
%ADD24C,0.152400*%
%TD.AperFunction*%
D20*
X-8000000Y-5000000D02*
X+8000000Y-5000000D01*
X+8000000Y+5000000D01*
X-8000000Y+5000000D01*
X-8000000Y-5000000D01*
D22*
X-7988300Y+4241800D02*
X-4787900Y+4241800D01*
X-7988300Y+4241800D02*
X-7988300Y+3581400D01*
X-4787900Y+3581400D01*
X-4787900Y+4241800D02*
X-4787900Y+3581400D01*
X-7988300Y+4089400D02*
X-8140700Y+4089400D01*
X-8140700Y+3733800D01*
X-7988300Y+3733800D01*
X-6616700Y+4277360D02*
X-6616700Y+4353560D01*
X-6553200Y+4353560D01*
X-6540500Y+4340860D01*
X-6540500Y+4328160D01*
X-6553200Y+4315460D01*
X-6616700Y+4315460D01*
X-6553200Y+4315460D02*
X-6540500Y+4302760D01*
X-6540500Y+4277360D01*
X-6515100Y+4353560D02*
X-6515100Y+4315460D01*
X-6477000Y+4277360D01*
X-6438900Y+4315460D01*
X-6438900Y+4353560D01*
X-6388100Y+4328160D02*
X-6362700Y+4353560D01*
X-6362700Y+4277360D01*
X-4234180Y+3649980D02*
X-3716020Y+3649980D01*
X-3716020Y+3916680D01*
X-4234180Y+3916680D01*
X-4234180Y+3649980D01*
X-3797300Y+3652520D02*
X-3797300Y+3914140D01*
X-3644900Y+3784600D02*
X-3716020Y+3784600D01*
X-4234180Y+3784600D02*
X-4305300Y+3784600D01*
X-4076700Y+3538220D02*
X-4076700Y+3614420D01*
X-4025900Y+3614420D01*
X-4000500Y+3589020D01*
X-4000500Y+3563620D01*
X-4025900Y+3538220D01*
X-4076700Y+3538220D01*
X-3949700Y+3589020D02*
X-3924300Y+3614420D01*
X-3924300Y+3538220D01*
X-2527300Y+4406900D02*
X-2527300Y+4279900D01*
X-2590800Y+3771900D02*
X-2463800Y+3771900D01*
X-2463800Y+4279900D01*
X-2590800Y+4279900D01*
X-2590800Y+3771900D01*
X-2527300Y+3771900D02*
X-2527300Y+3644900D01*
X-2352040Y+3924300D02*
X-2428240Y+3924300D01*
X-2428240Y+3987800D01*
X-2415540Y+4000500D01*
X-2402840Y+4000500D01*
X-2390140Y+3987800D01*
X-2390140Y+3924300D01*
X-2390140Y+3987800D02*
X-2377440Y+4000500D01*
X-2352040Y+4000500D01*
X-2402840Y+4051300D02*
X-2428240Y+4076700D01*
X-2352040Y+4076700D01*
X-2222500Y+4406900D02*
X-2222500Y+4279900D01*
X-2286000Y+3771900D02*
X-2159000Y+3771900D01*
X-2159000Y+4279900D01*
X-2286000Y+4279900D01*
X-2286000Y+3771900D01*
X-2222500Y+3771900D02*
X-2222500Y+3644900D01*
X-2047240Y+3924300D02*
X-2123440Y+3924300D01*
X-2123440Y+3987800D01*
X-2110740Y+4000500D01*
X-2098040Y+4000500D01*
X-2085340Y+3987800D01*
X-2085340Y+3924300D01*
X-2085340Y+3987800D02*
X-2072640Y+4000500D01*
X-2047240Y+4000500D01*
X-2110740Y+4038600D02*
X-2123440Y+4051300D01*
X-2123440Y+4089400D01*
X-2110740Y+4102100D01*
X-2098040Y+4102100D01*
X-2085340Y+4089400D01*
X-2085340Y+4051300D01*
X-2072640Y+4038600D01*
X-2047240Y+4038600D01*
X-2047240Y+4102100D01*
X-1917700Y+4406900D02*
X-1917700Y+4279900D01*
X-1981200Y+3771900D02*
X-1854200Y+3771900D01*
X-1854200Y+4279900D01*
X-1981200Y+4279900D01*
X-1981200Y+3771900D01*
X-1917700Y+3771900D02*
X-1917700Y+3644900D01*
X-1742440Y+3924300D02*
X-1818640Y+3924300D01*
X-1818640Y+3987800D01*
X-1805940Y+4000500D01*
X-1793240Y+4000500D01*
X-1780540Y+3987800D01*
X-1780540Y+3924300D01*
X-1780540Y+3987800D02*
X-1767840Y+4000500D01*
X-1742440Y+4000500D01*
X-1805940Y+4038600D02*
X-1818640Y+4051300D01*
X-1818640Y+4089400D01*
X-1805940Y+4102100D01*
X-1793240Y+4102100D01*
X-1780540Y+4089400D01*
X-1767840Y+4102100D01*
X-1755140Y+4102100D01*
X-1742440Y+4089400D01*
X-1742440Y+4051300D01*
X-1755140Y+4038600D01*
X-1780540Y+4064000D02*
X-1780540Y+4089400D01*
X-1612900Y+4406900D02*
X-1612900Y+4279900D01*
X-1676400Y+3771900D02*
X-1549400Y+3771900D01*
X-1549400Y+4279900D01*
X-1676400Y+4279900D01*
X-1676400Y+3771900D01*
X-1612900Y+3771900D02*
X-1612900Y+3644900D01*
X-1437640Y+3924300D02*
X-1513840Y+3924300D01*
X-1513840Y+3987800D01*
X-1501140Y+4000500D01*
X-1488440Y+4000500D01*
X-1475740Y+3987800D01*
X-1475740Y+3924300D01*
X-1475740Y+3987800D02*
X-1463040Y+4000500D01*
X-1437640Y+4000500D01*
X-1463040Y+4102100D02*
X-1463040Y+4025900D01*
X-1513840Y+4076700D01*
X-1437640Y+4076700D01*
X-1320800Y+4406900D02*
X-1320800Y+4279900D01*
X-1384300Y+3771900D02*
X-1257300Y+3771900D01*
X-1257300Y+4279900D01*
X-1384300Y+4279900D01*
X-1384300Y+3771900D01*
X-1320800Y+3771900D02*
X-1320800Y+3644900D01*
X-1145540Y+3924300D02*
X-1221740Y+3924300D01*
X-1221740Y+3987800D01*
X-1209040Y+4000500D01*
X-1196340Y+4000500D01*
X-1183640Y+3987800D01*
X-1183640Y+3924300D01*
X-1183640Y+3987800D02*
X-1170940Y+4000500D01*
X-1145540Y+4000500D01*
X-1221740Y+4102100D02*
X-1221740Y+4038600D01*
X-1196340Y+4038600D01*
X-1196340Y+4089400D01*
X-1183640Y+4102100D01*
X-1158240Y+4102100D01*
X-1145540Y+4089400D01*
X-1145540Y+4051300D01*
X-1158240Y+4038600D01*
X-1016000Y+4406900D02*
X-1016000Y+4279900D01*
X-1079500Y+3771900D02*
X-952500Y+3771900D01*
X-952500Y+4279900D01*
X-1079500Y+4279900D01*
X-1079500Y+3771900D01*
X-1016000Y+3771900D02*
X-1016000Y+3644900D01*
X-840740Y+3924300D02*
X-916940Y+3924300D01*
X-916940Y+3987800D01*
X-904240Y+4000500D01*
X-891540Y+4000500D01*
X-878840Y+3987800D01*
X-878840Y+3924300D01*
X-878840Y+3987800D02*
X-866140Y+4000500D01*
X-840740Y+4000500D01*
X-904240Y+4102100D02*
X-916940Y+4089400D01*
X-916940Y+4051300D01*
X-904240Y+4038600D01*
X-853440Y+4038600D01*
X-840740Y+4051300D01*
X-840740Y+4089400D01*
X-853440Y+4102100D01*
X-866140Y+4102100D01*
X-878840Y+4089400D01*
X-878840Y+4038600D01*
X-685800Y+4406900D02*
X-685800Y+4279900D01*
X-749300Y+3771900D02*
X-622300Y+3771900D01*
X-622300Y+4279900D01*
X-749300Y+4279900D01*
X-749300Y+3771900D01*
X-685800Y+3771900D02*
X-685800Y+3644900D01*
X-510540Y+3924300D02*
X-586740Y+3924300D01*
X-586740Y+3987800D01*
X-574040Y+4000500D01*
X-561340Y+4000500D01*
X-548640Y+3987800D01*
X-548640Y+3924300D01*
X-548640Y+3987800D02*
X-535940Y+4000500D01*
X-510540Y+4000500D01*
X-586740Y+4038600D02*
X-586740Y+4102100D01*
X-574040Y+4102100D01*
X-510540Y+4038600D01*
X-393700Y+4406900D02*
X-393700Y+4279900D01*
X-457200Y+3771900D02*
X-330200Y+3771900D01*
X-330200Y+4279900D01*
X-457200Y+4279900D01*
X-457200Y+3771900D01*
X-393700Y+3771900D02*
X-393700Y+3644900D01*
X-218440Y+3924300D02*
X-294640Y+3924300D01*
X-294640Y+3987800D01*
X-281940Y+4000500D01*
X-269240Y+4000500D01*
X-256540Y+3987800D01*
X-256540Y+3924300D01*
X-256540Y+3987800D02*
X-243840Y+4000500D01*
X-218440Y+4000500D01*
X-256540Y+4051300D02*
X-269240Y+4038600D01*
X-281940Y+4038600D01*
X-294640Y+4051300D01*
X-294640Y+4089400D01*
X-281940Y+4102100D01*
X-269240Y+4102100D01*
X-256540Y+4089400D01*
X-256540Y+4051300D01*
X-243840Y+4038600D01*
X-231140Y+4038600D01*
X-218440Y+4051300D01*
X-218440Y+4089400D01*
X-231140Y+4102100D01*
X-243840Y+4102100D01*
X-256540Y+4089400D01*
X-101600Y+4406900D02*
X-101600Y+4279900D01*
X-165100Y+3771900D02*
X-38100Y+3771900D01*
X-38100Y+4279900D01*
X-165100Y+4279900D01*
X-165100Y+3771900D01*
X-101600Y+3771900D02*
X-101600Y+3644900D01*
X-56340Y+3934300D02*
X-132540Y+3934300D01*
X-132540Y+3997800D01*
X-119840Y+4010500D01*
X-107140Y+4010500D01*
X-94440Y+3997800D01*
X-94440Y+3934300D01*
X-94440Y+3997800D02*
X-81740Y+4010500D01*
X-56340Y+4010500D01*
X-107140Y+4112100D02*
X-94440Y+4099400D01*
X-94440Y+4061300D01*
X-107140Y+4048600D01*
X-119840Y+4048600D01*
X-132540Y+4061300D01*
X-132540Y+4099400D01*
X-119840Y+4112100D01*
X-69040Y+4112100D01*
X-56340Y+4099400D01*
X-56340Y+4061300D01*
X+190500Y+4406900D02*
X+190500Y+4279900D01*
X+127000Y+3771900D02*
X+254000Y+3771900D01*
X+254000Y+4279900D01*
X+127000Y+4279900D01*
X+127000Y+3771900D01*
X+190500Y+3771900D02*
X+190500Y+3644900D01*
X+235760Y+3893500D02*
X+159560Y+3893500D01*
X+159560Y+3957000D01*
X+172260Y+3969700D01*
X+184960Y+3969700D01*
X+197660Y+3957000D01*
X+197660Y+3893500D01*
X+197660Y+3957000D02*
X+210360Y+3969700D01*
X+235760Y+3969700D01*
X+184960Y+4020500D02*
X+159560Y+4045900D01*
X+235760Y+4045900D01*
X+223060Y+4096700D02*
X+172260Y+4096700D01*
X+159560Y+4109400D01*
X+159560Y+4160200D01*
X+172260Y+4172900D01*
X+223060Y+4172900D01*
X+235760Y+4160200D01*
X+235760Y+4109400D01*
X+223060Y+4096700D01*
X+235760Y+4096700D02*
X+159560Y+4172900D01*
X+508000Y+4406900D02*
X+508000Y+4279900D01*
X+444500Y+3771900D02*
X+571500Y+3771900D01*
X+571500Y+4279900D01*
X+444500Y+4279900D01*
X+444500Y+3771900D01*
X+508000Y+3771900D02*
X+508000Y+3644900D01*
X+553260Y+3883500D02*
X+477060Y+3883500D01*
X+477060Y+3947000D01*
X+489760Y+3959700D01*
X+502460Y+3959700D01*
X+515160Y+3947000D01*
X+515160Y+3883500D01*
X+515160Y+3947000D02*
X+527860Y+3959700D01*
X+553260Y+3959700D01*
X+502460Y+4010500D02*
X+477060Y+4035900D01*
X+553260Y+4035900D01*
X+502460Y+4112100D02*
X+477060Y+4137500D01*
X+553260Y+4137500D01*
X+838200Y+4406900D02*
X+838200Y+4279900D01*
X+774700Y+3771900D02*
X+901700Y+3771900D01*
X+901700Y+4279900D01*
X+774700Y+4279900D01*
X+774700Y+3771900D01*
X+838200Y+3771900D02*
X+838200Y+3644900D01*
X+883460Y+3883500D02*
X+807260Y+3883500D01*
X+807260Y+3947000D01*
X+819960Y+3959700D01*
X+832660Y+3959700D01*
X+845360Y+3947000D01*
X+845360Y+3883500D01*
X+845360Y+3947000D02*
X+858060Y+3959700D01*
X+883460Y+3959700D01*
X+832660Y+4010500D02*
X+807260Y+4035900D01*
X+883460Y+4035900D01*
X+819960Y+4099400D02*
X+807260Y+4112100D01*
X+807260Y+4150200D01*
X+819960Y+4162900D01*
X+832660Y+4162900D01*
X+845360Y+4150200D01*
X+845360Y+4112100D01*
X+858060Y+4099400D01*
X+883460Y+4099400D01*
X+883460Y+4162900D01*
X-2641600Y+2260600D02*
X-2641600Y+2387600D01*
X-2514600Y+2514600D02*
X-2517036Y+2540476D01*
X-2524085Y+2564448D01*
X-2535362Y+2586038D01*
X-2550478Y+2604770D01*
X-2569046Y+2620169D01*
X-2590681Y+2631758D01*
X-2614994Y+2639060D01*
X-2641600Y+2641600D01*
X-2514600Y+2514600D02*
X-2517036Y+2487994D01*
X-2524085Y+2463681D01*
X-2535362Y+2442046D01*
X-2550478Y+2423478D01*
X-2569046Y+2408362D01*
X-2590681Y+2397085D01*
X-2614994Y+2390036D01*
X-2641600Y+2387600D01*
X-2641600Y+2641600D02*
X-2641600Y+2768600D01*
X-355600Y+2260600D02*
X-355600Y+2768600D01*
X-2641600Y+2260600D02*
X-355600Y+2260600D01*
X-355600Y+2768600D02*
X-2641600Y+2768600D01*
X-2753360Y+2413000D02*
X-2689860Y+2413000D01*
X-2677160Y+2425700D01*
X-2677160Y+2476500D01*
X-2689860Y+2489200D01*
X-2753360Y+2489200D01*
X-2727960Y+2540000D02*
X-2753360Y+2565400D01*
X-2677160Y+2565400D01*
X+76200Y+2298700D02*
X+76200Y+2425700D01*
X+203200Y+2552700D02*
X+200764Y+2578576D01*
X+193715Y+2602548D01*
X+182438Y+2624138D01*
X+167322Y+2642870D01*
X+148754Y+2658269D01*
X+127119Y+2669858D01*
X+102806Y+2677160D01*
X+76200Y+2679700D01*
X+203200Y+2552700D02*
X+200764Y+2526094D01*
X+193715Y+2501781D01*
X+182438Y+2480146D01*
X+167322Y+2461578D01*
X+148754Y+2446462D01*
X+127119Y+2435185D01*
X+102806Y+2428136D01*
X+76200Y+2425700D01*
X+76200Y+2679700D02*
X+76200Y+2806700D01*
X+2362200Y+2298700D02*
X+2362200Y+2806700D01*
X+76200Y+2298700D02*
X+2362200Y+2298700D01*
X+2362200Y+2806700D02*
X+76200Y+2806700D01*
X-35560Y+2451100D02*
X+27940Y+2451100D01*
X+40640Y+2463800D01*
X+40640Y+2514600D01*
X+27940Y+2527300D01*
X-35560Y+2527300D01*
X-22860Y+2565400D02*
X-35560Y+2578100D01*
X-35560Y+2616200D01*
X-22860Y+2628900D01*
X-10160Y+2628900D01*
X+2540Y+2616200D01*
X+2540Y+2578100D01*
X+15240Y+2565400D01*
X+40640Y+2565400D01*
X+40640Y+2628900D01*
D23*
X+5359400Y+4102100D02*
X+5359269Y+4105258D01*
X+5358203Y+4111576D01*
X+5355972Y+4117894D01*
X+5352327Y+4124212D01*
X+5346752Y+4130451D01*
X+5340434Y+4135047D01*
X+5334116Y+4137980D01*
X+5327798Y+4139642D01*
X+5321480Y+4140200D01*
X+5321300Y+4140200D01*
X+5283200Y+4102100D02*
X+5283331Y+4105258D01*
X+5284397Y+4111576D01*
X+5286628Y+4117894D01*
X+5290273Y+4124212D01*
X+5295848Y+4130451D01*
X+5302166Y+4135047D01*
X+5308484Y+4137980D01*
X+5314802Y+4139642D01*
X+5321120Y+4140200D01*
X+5321300Y+4140200D01*
X+5283200Y+4102100D02*
X+5283331Y+4098942D01*
X+5284397Y+4092624D01*
X+5286628Y+4086306D01*
X+5290273Y+4079988D01*
X+5295848Y+4073749D01*
X+5302166Y+4069153D01*
X+5308484Y+4066220D01*
X+5314802Y+4064558D01*
X+5321120Y+4064000D01*
X+5321300Y+4064000D01*
X+5359400Y+4102100D02*
X+5359269Y+4098942D01*
X+5358203Y+4092624D01*
X+5355972Y+4086306D01*
X+5352327Y+4079988D01*
X+5346752Y+4073749D01*
X+5340434Y+4069153D01*
X+5334116Y+4066220D01*
X+5327798Y+4064558D01*
X+5321480Y+4064000D01*
X+5321300Y+4064000D01*
D24*
X+5844540Y+4462780D02*
X+5844540Y+2217420D01*
X+6776720Y+2217420D01*
X+6776720Y+4462780D01*
X+5844540Y+4462780D01*
D22*
X+6860540Y+3238500D02*
X+6873240Y+3238500D01*
X+6885940Y+3251200D01*
X+6885940Y+3302000D01*
X+6873240Y+3314700D01*
X+6809740Y+3314700D01*
X+6835140Y+3365500D02*
X+6809740Y+3390900D01*
X+6885940Y+3390900D01*
X-6273800Y-3746500D02*
X-7289800Y-3746500D01*
X-6273800Y-4762500D02*
X-7289800Y-4762500D01*
X-7289800Y-3746500D02*
X-7289800Y-4762500D01*
X-6273800Y-3746500D02*
X-6273800Y-4762500D01*
X-6187440Y-4356100D02*
X-6174740Y-4356100D01*
X-6162040Y-4343400D01*
X-6162040Y-4292600D01*
X-6174740Y-4279900D01*
X-6238240Y-4279900D01*
X-6187440Y-4178300D02*
X-6187440Y-4254500D01*
X-6238240Y-4203700D01*
X-6162040Y-4203700D01*
X-4432300Y+2641600D02*
X-4432300Y+2768600D01*
X-3416300Y+2768600D01*
X-3416300Y+2260600D01*
X-4432300Y+2260600D01*
X-4432300Y+2387600D01*
X-4305300Y+2514600D02*
X-4307736Y+2540476D01*
X-4314785Y+2564448D01*
X-4326062Y+2586038D01*
X-4341178Y+2604770D01*
X-4359746Y+2620169D01*
X-4381381Y+2631758D01*
X-4405694Y+2639060D01*
X-4432300Y+2641600D01*
X-4305300Y+2514600D02*
X-4307736Y+2487994D01*
X-4314785Y+2463681D01*
X-4326062Y+2442046D01*
X-4341178Y+2423478D01*
X-4359746Y+2408362D01*
X-4381381Y+2397085D01*
X-4405694Y+2390036D01*
X-4432300Y+2387600D01*
X-4544060Y+2413000D02*
X-4480560Y+2413000D01*
X-4467860Y+2425700D01*
X-4467860Y+2476500D01*
X-4480560Y+2489200D01*
X-4544060Y+2489200D01*
X-4531360Y+2527300D02*
X-4544060Y+2540000D01*
X-4544060Y+2578100D01*
X-4531360Y+2590800D01*
X-4518660Y+2590800D01*
X-4505960Y+2578100D01*
X-4493260Y+2590800D01*
X-4480560Y+2590800D01*
X-4467860Y+2578100D01*
X-4467860Y+2540000D01*
X-4480560Y+2527300D01*
X-4505960Y+2552700D02*
X-4505960Y+2578100D01*
D23*
X+6007100Y-4445000D02*
X+6006969Y-4441842D01*
X+6005903Y-4435524D01*
X+6003672Y-4429206D01*
X+6000027Y-4422888D01*
X+5994452Y-4416649D01*
X+5988134Y-4412053D01*
X+5981816Y-4409120D01*
X+5975498Y-4407458D01*
X+5969180Y-4406900D01*
X+5969000Y-4406900D01*
X+5930900Y-4445000D02*
X+5931031Y-4441842D01*
X+5932097Y-4435524D01*
X+5934328Y-4429206D01*
X+5937973Y-4422888D01*
X+5943548Y-4416649D01*
X+5949866Y-4412053D01*
X+5956184Y-4409120D01*
X+5962502Y-4407458D01*
X+5968820Y-4406900D01*
X+5969000Y-4406900D01*
X+5930900Y-4445000D02*
X+5931031Y-4448158D01*
X+5932097Y-4454476D01*
X+5934328Y-4460794D01*
X+5937973Y-4467112D01*
X+5943548Y-4473351D01*
X+5949866Y-4477947D01*
X+5956184Y-4480880D01*
X+5962502Y-4482542D01*
X+5968820Y-4483100D01*
X+5969000Y-4483100D01*
X+6007100Y-4445000D02*
X+6006969Y-4448158D01*
X+6005903Y-4454476D01*
X+6003672Y-4460794D01*
X+6000027Y-4467112D01*
X+5994452Y-4473351D01*
X+5988134Y-4477947D01*
X+5981816Y-4480880D01*
X+5975498Y-4482542D01*
X+5969180Y-4483100D01*
X+5969000Y-4483100D01*
X-5635600Y-4064000D02*
X-5635731Y-4060842D01*
X-5636797Y-4054524D01*
X-5639028Y-4048206D01*
X-5642673Y-4041888D01*
X-5648248Y-4035649D01*
X-5654566Y-4031053D01*
X-5660884Y-4028120D01*
X-5667202Y-4026458D01*
X-5673520Y-4025900D01*
X-5673700Y-4025900D01*
X-5711800Y-4064000D02*
X-5711669Y-4060842D01*
X-5710603Y-4054524D01*
X-5708372Y-4048206D01*
X-5704727Y-4041888D01*
X-5699152Y-4035649D01*
X-5692834Y-4031053D01*
X-5686516Y-4028120D01*
X-5680198Y-4026458D01*
X-5673880Y-4025900D01*
X-5673700Y-4025900D01*
X-5711800Y-4064000D02*
X-5711669Y-4067158D01*
X-5710603Y-4073476D01*
X-5708372Y-4079794D01*
X-5704727Y-4086112D01*
X-5699152Y-4092351D01*
X-5692834Y-4096947D01*
X-5686516Y-4099880D01*
X-5680198Y-4101542D01*
X-5673880Y-4102100D01*
X-5673700Y-4102100D01*
X-5635600Y-4064000D02*
X-5635731Y-4067158D01*
X-5636797Y-4073476D01*
X-5639028Y-4079794D01*
X-5642673Y-4086112D01*
X-5648248Y-4092351D01*
X-5654566Y-4096947D01*
X-5660884Y-4099880D01*
X-5667202Y-4101542D01*
X-5673520Y-4102100D01*
X-5673700Y-4102100D01*
D24*
X-5203850Y-4135120D02*
X-5743550Y-4135120D01*
X-5743550Y-4178635D01*
X-5743550Y-4373880D02*
X-5203850Y-4373880D01*
X-5203850Y-4330365D01*
X-5203850Y-4178635D02*
X-5203850Y-4135120D01*
X-5743550Y-4330365D02*
X-5743550Y-4373880D01*
D22*
X-5575300Y-4457700D02*
X-5575300Y-4470400D01*
X-5562600Y-4483100D01*
X-5511800Y-4483100D01*
X-5499100Y-4470400D01*
X-5499100Y-4406900D01*
X-5461000Y-4419600D02*
X-5448300Y-4406900D01*
X-5410200Y-4406900D01*
X-5397500Y-4419600D01*
X-5397500Y-4432300D01*
X-5410200Y-4445000D01*
X-5397500Y-4457700D01*
X-5397500Y-4470400D01*
X-5410200Y-4483100D01*
X-5448300Y-4483100D01*
X-5461000Y-4470400D01*
X-5435600Y-4445000D02*
X-5410200Y-4445000D01*
M02*
