G04 PROTEUS GERBER X2 FILE*
%TF.GenerationSoftware,Labcenter,Proteus,8.13-SP0-Build31525*%
%TF.CreationDate,2023-09-28T22:20:41+00:00*%
%TF.FileFunction,Soldermask,Top*%
%TF.FilePolarity,Negative*%
%TF.Part,Single*%
%TF.SameCoordinates,{6b1b6182-4d37-414e-9227-abf112f8db44}*%
%FSLAX45Y45*%
%MOMM*%
G01*
%TA.AperFunction,Material*%
%ADD26C,1.778000*%
%ADD27C,2.032000*%
%AMPPAD020*
4,1,36,
-1.016000,-1.143000,
1.016000,-1.143000,
1.041970,-1.140470,
1.065980,-1.133200,
1.087580,-1.121650,
1.106290,-1.106290,
1.121650,-1.087570,
1.133200,-1.065980,
1.140470,-1.041970,
1.143000,-1.016000,
1.143000,1.016000,
1.140470,1.041970,
1.133200,1.065980,
1.121650,1.087570,
1.106290,1.106290,
1.087580,1.121650,
1.065980,1.133200,
1.041970,1.140470,
1.016000,1.143000,
-1.016000,1.143000,
-1.041970,1.140470,
-1.065980,1.133200,
-1.087580,1.121650,
-1.106290,1.106290,
-1.121650,1.087570,
-1.133200,1.065980,
-1.140470,1.041970,
-1.143000,1.016000,
-1.143000,-1.016000,
-1.140470,-1.041970,
-1.133200,-1.065980,
-1.121650,-1.087570,
-1.106290,-1.106290,
-1.087580,-1.121650,
-1.065980,-1.133200,
-1.041970,-1.140470,
-1.016000,-1.143000,
0*%
%TA.AperFunction,Material*%
%ADD28PPAD020*%
%AMPPAD021*
4,1,36,
-1.016000,1.143000,
1.016000,1.143000,
1.041970,1.140470,
1.065980,1.133200,
1.087580,1.121650,
1.106290,1.106290,
1.121650,1.087570,
1.133200,1.065980,
1.140470,1.041970,
1.143000,1.016000,
1.143000,-1.016000,
1.140470,-1.041970,
1.133200,-1.065980,
1.121650,-1.087570,
1.106290,-1.106290,
1.087580,-1.121650,
1.065980,-1.133200,
1.041970,-1.140470,
1.016000,-1.143000,
-1.016000,-1.143000,
-1.041970,-1.140470,
-1.065980,-1.133200,
-1.087580,-1.121650,
-1.106290,-1.106290,
-1.121650,-1.087570,
-1.133200,-1.065980,
-1.140470,-1.041970,
-1.143000,-1.016000,
-1.143000,1.016000,
-1.140470,1.041970,
-1.133200,1.065980,
-1.121650,1.087570,
-1.106290,1.106290,
-1.087580,1.121650,
-1.065980,1.133200,
-1.041970,1.140470,
-1.016000,1.143000,
0*%
%ADD29PPAD021*%
%TA.AperFunction,Material*%
%ADD72C,2.540000*%
%TA.AperFunction,Material*%
%ADD73C,2.286000*%
%TA.AperFunction,Material*%
%ADD30C,3.302000*%
%TA.AperFunction,Material*%
%ADD31C,1.651000*%
%TA.AperFunction,Profile*%
%ADD20C,0.203200*%
%TD.AperFunction*%
D26*
X+6032500Y+4699000D03*
X-1778000Y+3810000D03*
D27*
X+5016500Y-4191000D03*
X+698500Y-4381500D03*
D26*
X+2476500Y-3619500D03*
X+1143000Y-2540000D03*
X+1143000Y-4254500D03*
X+2667000Y-4254500D03*
X+3238500Y-3365500D03*
X+4826000Y-4318000D03*
X+4826000Y-4762500D03*
X+6731000Y-3175000D03*
X+6858000Y-4762500D03*
X+5207000Y-2413000D03*
X+1397000Y-4000500D03*
D27*
X+4635500Y+1905000D03*
X+7048500Y-4699000D03*
X-1079500Y-4699000D03*
X+3810000Y+1079500D03*
D26*
X+1270000Y-3873500D03*
D27*
X+5461000Y-3175000D03*
X+2984500Y-2921000D03*
D26*
X+3683000Y-3746500D03*
X+3683000Y-4127500D03*
X+3175000Y+2476500D03*
X+6667500Y-1905000D03*
X+1016000Y-2921000D03*
D27*
X+7112000Y-444500D03*
X+6667500Y-1587500D03*
D26*
X+3752272Y+3190792D03*
X+5905500Y+4508500D03*
X+5651500Y-3048000D03*
X+3302000Y-2857500D03*
X+3302000Y+1714500D03*
X+2222500Y+1714500D03*
X+3302000Y+1016000D03*
D27*
X-1016000Y+444500D03*
X+2413000Y-1397000D03*
X+6667500Y+3111500D03*
X+6096000Y+2857500D03*
X+6540500Y+2857500D03*
X+6540500Y+2476500D03*
X-2730500Y+2921000D03*
D26*
X+4504138Y+2978813D03*
X+3169996Y+3360454D03*
D27*
X+6921500Y+381000D03*
X+4127500Y+381000D03*
X+2222500Y+381000D03*
X+3619500Y+1714500D03*
X+2413000Y+1524000D03*
X+5842000Y+1587500D03*
X+4508500Y+1397000D03*
X+317500Y+762000D03*
X+889000Y+1016000D03*
X+4318000Y+1206500D03*
X+2603500Y+2095500D03*
X-571500Y-254000D03*
X+1079500Y-444500D03*
D26*
X+3556000Y-2286000D03*
X+1016000Y-3746500D03*
D28*
X-4978400Y+1498600D03*
X-4724400Y+1498600D03*
X-4470400Y+1498600D03*
X-4216400Y+1498600D03*
X-3962400Y+1498600D03*
X-3708400Y+1498600D03*
X-3454400Y+1498600D03*
X-3200400Y+1498600D03*
D29*
X-2692400Y+1498600D03*
D28*
X-2438400Y+1498600D03*
X-2184400Y+1498600D03*
X-1930400Y+1498600D03*
X-1676400Y+1498600D03*
X-1422400Y+1498600D03*
X-1168400Y+1498600D03*
X-914400Y+1498600D03*
X-406400Y+1498600D03*
X-152400Y+1498600D03*
X+101600Y+1498600D03*
X+355600Y+1498600D03*
X+609600Y+1498600D03*
X+863600Y+1498600D03*
X+1117600Y+1498600D03*
X+1371600Y+1498600D03*
X+1625600Y+990600D03*
X+1625600Y+736600D03*
X+1625600Y+482600D03*
X+1625600Y+228600D03*
X+1625600Y-25400D03*
X+1625600Y-279400D03*
X+1625600Y-533400D03*
X+1625600Y-787400D03*
X+1625600Y-1041400D03*
X+1625600Y-1295400D03*
X+1625600Y-1549400D03*
X+1625600Y-1803400D03*
X+1625600Y-2057400D03*
X+1625600Y-2311400D03*
X+1625600Y-2565400D03*
X+1625600Y-2819400D03*
X+1625600Y-3073400D03*
X+1625600Y-3327400D03*
X+1879600Y+990600D03*
X+1879600Y+736600D03*
X+1879600Y+482600D03*
X+1879600Y+228600D03*
X+1879600Y-25400D03*
X+1879600Y-279400D03*
X+1879600Y-533400D03*
X+1879600Y-787400D03*
X+1879600Y-1041400D03*
X+1879600Y-1295400D03*
X+1879600Y-1549400D03*
X+1879600Y-1803400D03*
X+1879600Y-2057400D03*
X+1879600Y-2311400D03*
X+1879600Y-2565400D03*
X+1879600Y-2819400D03*
X+1879600Y-3073400D03*
X+1879600Y-3327400D03*
X+863600Y-3327400D03*
X+609600Y-3327400D03*
X+355600Y-3327400D03*
X+101600Y-3327400D03*
X-152400Y-3327400D03*
X-406400Y-3327400D03*
X-660400Y-3327400D03*
X-914400Y-3327400D03*
X-1422400Y-3327400D03*
X-1676400Y-3327400D03*
X-1930400Y-3327400D03*
X-2184400Y-3327400D03*
X-2438400Y-3327400D03*
X-2692400Y-3327400D03*
X-2946400Y-3327400D03*
X-3200400Y-3327400D03*
X-3606800Y-3327400D03*
X-3860800Y-3327400D03*
X-4114800Y-3327400D03*
X-4368800Y-3327400D03*
X-4622800Y-3327400D03*
X-4876800Y-3327400D03*
X-5130800Y-3327400D03*
X-5384800Y-3327400D03*
X-5638800Y-3327400D03*
X-5892800Y-3327400D03*
D72*
X-5549900Y+3784600D03*
X-7327900Y+3784600D03*
X-6565900Y+4038600D03*
X-4483100Y+3784600D03*
X-3467100Y+3784600D03*
D27*
X-2527300Y+4533900D03*
X-2527300Y+3517900D03*
X-2222500Y+4533900D03*
X-2222500Y+3517900D03*
X-1917700Y+4533900D03*
X-1917700Y+3517900D03*
X-1612900Y+4533900D03*
X-1612900Y+3517900D03*
X-1320800Y+4533900D03*
X-1320800Y+3517900D03*
X-1016000Y+4533900D03*
X-1016000Y+3517900D03*
X-685800Y+4533900D03*
X-685800Y+3517900D03*
X-393700Y+4533900D03*
X-393700Y+3517900D03*
X-101600Y+4533900D03*
X-101600Y+3517900D03*
X+190500Y+4533900D03*
X+190500Y+3517900D03*
X+508000Y+4533900D03*
X+508000Y+3517900D03*
X+838200Y+4533900D03*
X+838200Y+3517900D03*
D29*
X-2514600Y+2133600D03*
D73*
X-2260600Y+2133600D03*
X-2006600Y+2133600D03*
X-1752600Y+2133600D03*
X-1498600Y+2133600D03*
X-1244600Y+2133600D03*
X-990600Y+2133600D03*
X-736600Y+2133600D03*
X-482600Y+2133600D03*
X-482600Y+2895600D03*
X-736600Y+2895600D03*
X-990600Y+2895600D03*
X-1244600Y+2895600D03*
X-1498600Y+2895600D03*
X-1752600Y+2895600D03*
X-2006600Y+2895600D03*
X-2260600Y+2895600D03*
X-2514600Y+2895600D03*
D29*
X+203200Y+2171700D03*
D73*
X+457200Y+2171700D03*
X+711200Y+2171700D03*
X+965200Y+2171700D03*
X+1219200Y+2171700D03*
X+1473200Y+2171700D03*
X+1727200Y+2171700D03*
X+1981200Y+2171700D03*
X+2235200Y+2171700D03*
X+2235200Y+2933700D03*
X+1981200Y+2933700D03*
X+1727200Y+2933700D03*
X+1473200Y+2933700D03*
X+1219200Y+2933700D03*
X+965200Y+2933700D03*
X+711200Y+2933700D03*
X+457200Y+2933700D03*
X+203200Y+2933700D03*
D29*
X+5511800Y+4102100D03*
X+5765800Y+4102100D03*
X+5511800Y+3848100D03*
X+5765800Y+3848100D03*
X+5511800Y+3594100D03*
X+5765800Y+3594100D03*
X+5511800Y+3340100D03*
X+5765800Y+3340100D03*
X+5511800Y+3086100D03*
X+5765800Y+3086100D03*
X+5511800Y+2832100D03*
X+5765800Y+2832100D03*
X+5511800Y+2578100D03*
X+5765800Y+2578100D03*
D30*
X-6781800Y-4000500D03*
X-6781800Y-4508500D03*
D29*
X-4305300Y+2133600D03*
D73*
X-4051300Y+2133600D03*
X-3797300Y+2133600D03*
X-3543300Y+2133600D03*
X-3543300Y+2895600D03*
X-3797300Y+2895600D03*
X-4051300Y+2895600D03*
X-4305300Y+2895600D03*
D29*
X+6159500Y-4445000D03*
X+6413500Y-4445000D03*
X+6159500Y-4191000D03*
X+6413500Y-4191000D03*
X+6159500Y-3937000D03*
X+6413500Y-3937000D03*
X+6159500Y-3683000D03*
X+6413500Y-3683000D03*
X+6159500Y-3429000D03*
X+6413500Y-3429000D03*
X+6159500Y-3175000D03*
X+6413500Y-3175000D03*
X+6159500Y-2921000D03*
X+6413500Y-2921000D03*
X+6159500Y-2667000D03*
X+6413500Y-2667000D03*
X+6159500Y-2413000D03*
X+6413500Y-2413000D03*
X+6159500Y-2159000D03*
X+6413500Y-2159000D03*
X+6159500Y-1905000D03*
X+6413500Y-1905000D03*
X+6159500Y-1651000D03*
X+6413500Y-1651000D03*
X+6159500Y-1397000D03*
X+6413500Y-1397000D03*
X+6159500Y-1143000D03*
X+6413500Y-1143000D03*
X+6159500Y-889000D03*
X+6413500Y-889000D03*
X+6159500Y-635000D03*
X+6413500Y-635000D03*
X+6159500Y-381000D03*
X+6413500Y-381000D03*
X+6159500Y-127000D03*
X+6413500Y-127000D03*
X+6159500Y+127000D03*
X+6413500Y+127000D03*
X+6159500Y+381000D03*
X+6413500Y+381000D03*
X+6159500Y+635000D03*
X+6413500Y+635000D03*
X+6159500Y+889000D03*
X+6413500Y+889000D03*
X+6159500Y+1143000D03*
X+6413500Y+1143000D03*
X+6159500Y+1397000D03*
X+6413500Y+1397000D03*
X+6159500Y+1651000D03*
X+6413500Y+1651000D03*
D31*
X-5673700Y-4254500D03*
X-5473700Y-4254500D03*
X-5273700Y-4254500D03*
D26*
X-7645400Y-4445000D03*
X-7645400Y+4445000D03*
X+7721600Y+4457700D03*
X+7734300Y-4445000D03*
D20*
X-8000000Y-5000000D02*
X+8000000Y-5000000D01*
X+8000000Y+5000000D01*
X-8000000Y+5000000D01*
X-8000000Y-5000000D01*
M02*
