G04 PROTEUS GERBER X2 FILE*
%TF.GenerationSoftware,Labcenter,Proteus,8.13-SP0-Build31525*%
%TF.CreationDate,2024-05-24T23:06:57+00:00*%
%TF.FileFunction,Copper,L4,Bot*%
%TF.FilePolarity,Positive*%
%TF.Part,Single*%
%TF.SameCoordinates,{8fa323f2-391a-4247-bf73-d987ad9beb6b}*%
%FSLAX45Y45*%
%MOMM*%
G01*
%TA.AperFunction,Conductor*%
%ADD10C,0.508000*%
%ADD11C,0.635000*%
%TA.AperFunction,ViaPad*%
%ADD12C,1.778000*%
%ADD13C,1.524000*%
%TA.AperFunction,ComponentPad*%
%ADD14R,2.286000X2.286000*%
%TA.AperFunction,ComponentPad*%
%ADD15C,2.286000*%
%ADD16C,3.048000*%
%TA.AperFunction,ComponentPad*%
%ADD17R,2.032000X2.032000*%
%ADD18C,2.032000*%
%TA.AperFunction,ComponentPad*%
%ADD19C,1.524000*%
%TA.AperFunction,OtherPad,Unknown*%
%ADD70C,1.524000*%
%TA.AperFunction,Profile*%
%ADD71C,0.203200*%
%TD.AperFunction*%
G36*
X-5472429Y+4854017D02*
X-5472429Y+4701463D01*
X-5364557Y+4593591D01*
X-5212003Y+4593591D01*
X-5148503Y+4657091D01*
X-5055869Y+4657091D01*
X-5055869Y+4559223D01*
X-4947997Y+4451351D01*
X-4850391Y+4451351D01*
X-4850091Y+4211961D01*
X-4822475Y+4159402D01*
X-4575342Y+3988705D01*
X-4658203Y+3905844D01*
X-4895851Y+3905844D01*
X-4895851Y+4013277D01*
X-5003723Y+4121149D01*
X-5156277Y+4121149D01*
X-5257877Y+4019549D01*
X-6687562Y+4019549D01*
X-6763762Y+4095749D01*
X-6926838Y+4095749D01*
X-7042149Y+3980438D01*
X-7042149Y+3817362D01*
X-6990336Y+3765549D01*
X-7195562Y+3765549D01*
X-7271762Y+3841749D01*
X-7434838Y+3841749D01*
X-7550149Y+3726438D01*
X-7550149Y+3563362D01*
X-7434838Y+3448051D01*
X-7271762Y+3448051D01*
X-7195562Y+3524251D01*
X-6593013Y+3524251D01*
X-5427810Y+2359048D01*
X-5274774Y+2359048D01*
X-5211273Y+2295547D01*
X-5058719Y+2295547D01*
X-4952709Y+2401557D01*
X-4952709Y+2257513D01*
X-4999746Y+2210476D01*
X-4999746Y+2057922D01*
X-4891874Y+1950050D01*
X-4739320Y+1950050D01*
X-4631448Y+2057922D01*
X-4631448Y+2210476D01*
X-4711411Y+2290439D01*
X-4711411Y+2648237D01*
X-4647911Y+2711737D01*
X-4647911Y+2864291D01*
X-4755783Y+2972163D01*
X-4908337Y+2972163D01*
X-5016209Y+2864291D01*
X-5016209Y+2711737D01*
X-4952709Y+2648237D01*
X-4952709Y+2557835D01*
X-5058719Y+2663845D01*
X-5211273Y+2663845D01*
X-5274774Y+2600344D01*
X-5327862Y+2600344D01*
X-6493067Y+3765549D01*
X-6700264Y+3765549D01*
X-6687562Y+3778251D01*
X-6228336Y+3778251D01*
X-6280149Y+3726438D01*
X-6280149Y+3563362D01*
X-6164838Y+3448051D01*
X-6001762Y+3448051D01*
X-5931912Y+3517901D01*
X-4929116Y+3517901D01*
X-4795171Y+3651846D01*
X-4646693Y+3651846D01*
X-4610099Y+3615252D01*
X-4610099Y+1953997D01*
X-4370603Y+1714501D01*
X-3835399Y+1714501D01*
X-3835399Y+1708149D01*
X-5187949Y+1708149D01*
X-5187949Y+1289051D01*
X-4089399Y+1289051D01*
X-4089398Y+370104D01*
X-4151790Y+307712D01*
X-6656604Y+307712D01*
X-6908799Y+55517D01*
X-6908799Y-3777270D01*
X-7029449Y-3897920D01*
X-7029449Y-4103080D01*
X-6884380Y-4248149D01*
X-6679220Y-4248149D01*
X-6534151Y-4103080D01*
X-6534151Y-3897920D01*
X-6654801Y-3777270D01*
X-6654801Y-49689D01*
X-6551396Y+53716D01*
X-4046582Y+53716D01*
X-3835402Y+264896D01*
X-3835402Y+317500D01*
X-3835401Y+1289051D01*
X-3835399Y+1289051D01*
X-3835399Y-181856D01*
X-5257799Y-1604256D01*
X-5257799Y-3117851D01*
X-6102349Y-3117851D01*
X-6102349Y-3536949D01*
X-6013449Y-3536949D01*
X-6013449Y-4558473D01*
X-5942773Y-4629149D01*
X-5550727Y-4629149D01*
X-5353051Y-4431473D01*
X-5353051Y-4417615D01*
X-5344717Y-4425949D01*
X-5202683Y-4425949D01*
X-5102251Y-4325517D01*
X-5102251Y-4262653D01*
X-5003801Y-4164203D01*
X-5003801Y-3536949D01*
X-3509453Y-3536949D01*
X-2889168Y-4157234D01*
X-1421848Y-4157234D01*
X-1148924Y-4430159D01*
X+179393Y-4430159D01*
X+236143Y-4486909D01*
X+388697Y-4486909D01*
X+496569Y-4379037D01*
X+496569Y-4249568D01*
X+550189Y-4347058D01*
X+607002Y-4380649D01*
X+670223Y-4380649D01*
X+733723Y-4444149D01*
X+886277Y-4444149D01*
X+994149Y-4336277D01*
X+994149Y-4183723D01*
X+886277Y-4075851D01*
X+733723Y-4075851D01*
X+696747Y-4112827D01*
X+658974Y-4044149D01*
X+776277Y-4044149D01*
X+884149Y-3936277D01*
X+884149Y-3783723D01*
X+776277Y-3675851D01*
X+623723Y-3675851D01*
X+560223Y-3739351D01*
X-767693Y-3739351D01*
X-970219Y-3536949D01*
X+915671Y-3536949D01*
X+915671Y-3846293D01*
X+1963968Y-4894590D01*
X-7894590Y-4894590D01*
X-7894590Y+4894590D01*
X-5431856Y+4894590D01*
X-5472429Y+4854017D01*
G37*
%LPC*%
G36*
X-6884380Y-4260851D02*
X-6679220Y-4260851D01*
X-6534151Y-4405920D01*
X-6534151Y-4611080D01*
X-6679220Y-4756149D01*
X-6884380Y-4756149D01*
X-7029449Y-4611080D01*
X-7029449Y-4405920D01*
X-6884380Y-4260851D01*
G37*
G36*
X-7816849Y-4516017D02*
X-7816849Y-4373983D01*
X-7716417Y-4273551D01*
X-7574383Y-4273551D01*
X-7473951Y-4373983D01*
X-7473951Y-4516017D01*
X-7574383Y-4616449D01*
X-7716417Y-4616449D01*
X-7816849Y-4516017D01*
G37*
G36*
X-7816849Y+4373983D02*
X-7816849Y+4516017D01*
X-7716417Y+4616449D01*
X-7574383Y+4616449D01*
X-7473951Y+4516017D01*
X-7473951Y+4373983D01*
X-7574383Y+4273551D01*
X-7716417Y+4273551D01*
X-7816849Y+4373983D01*
G37*
%LPD*%
G36*
X+7894590Y+3043092D02*
X+7664449Y+3273233D01*
X+7664449Y+4040313D01*
X+6833405Y+4871357D01*
X+4792770Y+4871357D01*
X+4677562Y+4756149D01*
X+2336336Y+4756149D01*
X+2336336Y+4871125D01*
X+2312871Y+4894590D01*
X+7894590Y+4894590D01*
X+7894590Y+3043092D01*
G37*
%LPC*%
G36*
X+7550151Y+4577183D02*
X+7550151Y+4719217D01*
X+7650583Y+4819649D01*
X+7792617Y+4819649D01*
X+7893049Y+4719217D01*
X+7893049Y+4577183D01*
X+7792617Y+4476751D01*
X+7650583Y+4476751D01*
X+7550151Y+4577183D01*
G37*
%LPD*%
G36*
X+7894590Y-4362824D02*
X+7805317Y-4273551D01*
X+7727949Y-4273551D01*
X+7727949Y-712027D01*
X+7621443Y-605521D01*
X+7720544Y-506420D01*
X+7720544Y-353866D01*
X+7689849Y-323171D01*
X+7689849Y+625667D01*
X+7894590Y+830408D01*
X+7894590Y-4362824D01*
G37*
G36*
X+7894590Y-4894590D02*
X+7455333Y-4894590D01*
X+7727949Y-4621974D01*
X+7727949Y-4616449D01*
X+7805317Y-4616449D01*
X+7894590Y-4527176D01*
X+7894590Y-4894590D01*
G37*
G36*
X+3253283Y+4497975D02*
X+3249097Y+4502161D01*
X+3096543Y+4502161D01*
X+3017694Y+4423312D01*
X+2959177Y+4481829D01*
X+2806623Y+4481829D01*
X+2743299Y+4418505D01*
X+2568081Y+4418668D01*
X+2568081Y+4514851D01*
X+3290395Y+4514851D01*
X+3253283Y+4497975D01*
G37*
G36*
X+6089808Y+4447444D02*
X+5952489Y+4447444D01*
X+5952489Y+4451351D01*
X+6093715Y+4451351D01*
X+6089808Y+4447444D01*
G37*
G36*
X+1456691Y+4419705D02*
X+340524Y+4420782D01*
X+276937Y+4484369D01*
X+124383Y+4484369D01*
X+16511Y+4376497D01*
X+16511Y+4249499D01*
X-647923Y+4248449D01*
X-711123Y+4311649D01*
X-863677Y+4311649D01*
X-971549Y+4203777D01*
X-971549Y+4051223D01*
X-863677Y+3943351D01*
X-711123Y+3943351D01*
X-647478Y+4006996D01*
X-439743Y+4007332D01*
X-439743Y+3912410D01*
X-368706Y+3841373D01*
X-485439Y+3841373D01*
X-548939Y+3904873D01*
X-701493Y+3904873D01*
X-809365Y+3797001D01*
X-809365Y+3747940D01*
X-878575Y+3817150D01*
X-878575Y+3904414D01*
X-986447Y+4012286D01*
X-1139001Y+4012286D01*
X-1246873Y+3904414D01*
X-1246873Y+3834601D01*
X-1369548Y+3957276D01*
X-1369548Y+4047080D01*
X-1477420Y+4154952D01*
X-1629974Y+4154952D01*
X-1737846Y+4047080D01*
X-1737846Y+4004309D01*
X-1807469Y+4004309D01*
X-1807469Y+4079059D01*
X-1915341Y+4186931D01*
X-2067895Y+4186931D01*
X-2175767Y+4079059D01*
X-2175767Y+3956101D01*
X-2208855Y+3989189D01*
X-2208855Y+4078993D01*
X-2316727Y+4186865D01*
X-2469281Y+4186865D01*
X-2576414Y+4079732D01*
X-2578877Y+4082195D01*
X-2731431Y+4082195D01*
X-2839303Y+3974323D01*
X-2839303Y+3821769D01*
X-2731431Y+3713897D01*
X-2639087Y+3713897D01*
X-2531614Y+3606424D01*
X-2765194Y+3606424D01*
X-3069942Y+3911172D01*
X-2968315Y+4012800D01*
X-2968315Y+4165354D01*
X-3076187Y+4273226D01*
X-3165991Y+4273226D01*
X-3219654Y+4326889D01*
X-3737467Y+4326889D01*
X-3756744Y+4307612D01*
X-3903457Y+4454325D01*
X-3903457Y+4514851D01*
X+1456691Y+4514851D01*
X+1456691Y+4419705D01*
G37*
G36*
X+5014530Y+4273592D02*
X+5016620Y+4271502D01*
X+4904404Y+4271502D01*
X+5014530Y+4381628D01*
X+5014530Y+4273592D01*
G37*
G36*
X+3791670Y+4288190D02*
X+3758974Y+4255494D01*
X+3356969Y+4254844D01*
X+3356969Y+4273307D01*
X+3384251Y+4288749D01*
X+3791670Y+4288190D01*
G37*
G36*
X+4398675Y+4287357D02*
X+4220654Y+4109336D01*
X+4083045Y+4109336D01*
X+4083045Y+4211267D01*
X+4006417Y+4287895D01*
X+4398675Y+4287357D01*
G37*
G36*
X-4184550Y+4035701D02*
X-4184550Y+4032063D01*
X-4213538Y+4032063D01*
X-4305601Y+4095652D01*
X-4244501Y+4095652D01*
X-4184550Y+4035701D01*
G37*
G36*
X+7300789Y+4062729D02*
X+7284643Y+4062729D01*
X+7244409Y+4022495D01*
X+7075412Y+4022495D01*
X+7011912Y+4085995D01*
X+6960645Y+4085995D01*
X+7036974Y+4162324D01*
X+7036974Y+4314878D01*
X+6929102Y+4422750D01*
X+6776548Y+4422750D01*
X+6668676Y+4314878D01*
X+6668676Y+4162324D01*
X+6673851Y+4157149D01*
X+6673851Y+4093783D01*
X+6638289Y+4093783D01*
X+6638289Y+4630059D01*
X+6733459Y+4630059D01*
X+7300789Y+4062729D01*
G37*
G36*
X+6352992Y+3996314D02*
X+6332295Y+4017011D01*
X+6373688Y+4017011D01*
X+6352992Y+3996314D01*
G37*
G36*
X+5279391Y+4009389D02*
X+5225607Y+4009389D01*
X+5149407Y+3933189D01*
X+4767657Y+3933189D01*
X+4670642Y+4030204D01*
X+5279391Y+4030204D01*
X+5279391Y+4009389D01*
G37*
G36*
X-107949Y+3841373D02*
X-142482Y+3841373D01*
X-115817Y+3868038D01*
X-107949Y+3868038D01*
X-107949Y+3841373D01*
G37*
G36*
X-2344225Y+3783315D02*
X-2367261Y+3783315D01*
X-2402513Y+3818567D01*
X-2379477Y+3818567D01*
X-2344225Y+3783315D01*
G37*
G36*
X-5175325Y+3771899D02*
X-5931912Y+3771899D01*
X-5938264Y+3778251D01*
X-5181677Y+3778251D01*
X-5175325Y+3771899D01*
G37*
G36*
X+6073065Y+3755389D02*
X+5952489Y+3755389D01*
X+5952489Y+3792633D01*
X+6035821Y+3792633D01*
X+6073065Y+3755389D01*
G37*
G36*
X-891358Y+3488689D02*
X-900961Y+3488689D01*
X-1056260Y+3643988D01*
X-1046657Y+3643988D01*
X-891358Y+3488689D01*
G37*
G36*
X+6685140Y+3414062D02*
X+6637020Y+3365942D01*
X+6536202Y+3466760D01*
X+6512663Y+3466760D01*
X+6566593Y+3520690D01*
X+6623958Y+3520690D01*
X+6685140Y+3581872D01*
X+6685140Y+3414062D01*
G37*
G36*
X-2059118Y+3361697D02*
X-2235123Y+3361697D01*
X-2238552Y+3365126D01*
X-2062547Y+3365126D01*
X-2059118Y+3361697D01*
G37*
G36*
X-4350634Y+3285952D02*
X-4356101Y+3280485D01*
X-4356101Y+3615252D01*
X-4350634Y+3620719D01*
X-4350634Y+3285952D01*
G37*
G36*
X+7284643Y+3694431D02*
X+7423151Y+3694431D01*
X+7423151Y+3255009D01*
X+6986712Y+3255009D01*
X+7004049Y+3272346D01*
X+7004049Y+3454553D01*
X+7040382Y+3454553D01*
X+7148254Y+3562425D01*
X+7148254Y+3714979D01*
X+7082036Y+3781197D01*
X+7197877Y+3781197D01*
X+7284643Y+3694431D01*
G37*
G36*
X-2900478Y+3400464D02*
X-2865140Y+3365126D01*
X-2511248Y+3365126D01*
X-2559049Y+3317325D01*
X-2559049Y+3208505D01*
X-2636083Y+3285539D01*
X-2788637Y+3285539D01*
X-2896509Y+3177667D01*
X-2896509Y+3093435D01*
X-2908223Y+3105149D01*
X-3060777Y+3105149D01*
X-3168649Y+2997277D01*
X-3168649Y+2903873D01*
X-3268219Y+2903873D01*
X-3346451Y+2825641D01*
X-3346451Y+2977138D01*
X-3461762Y+3092449D01*
X-3624838Y+3092449D01*
X-3670300Y+3046987D01*
X-3676651Y+3053338D01*
X-3676651Y+3404427D01*
X-3506027Y+3575051D01*
X-3380302Y+3575051D01*
X-3257551Y+3697802D01*
X-3257551Y+3757537D01*
X-2900478Y+3400464D01*
G37*
G36*
X+4511702Y+3542380D02*
X+4511702Y+3389826D01*
X+4513152Y+3388376D01*
X+4455442Y+3330665D01*
X+4455442Y+3191509D01*
X+3813242Y+3191509D01*
X+3491770Y+3512981D01*
X+3211922Y+3512981D01*
X+3211922Y+3564892D01*
X+4534214Y+3564892D01*
X+4511702Y+3542380D01*
G37*
G36*
X+770891Y+3119177D02*
X+770891Y+3069203D01*
X+773131Y+3066963D01*
X-817697Y+3066963D01*
X-901605Y+3150871D01*
X+770891Y+3150871D01*
X+770891Y+3119177D01*
G37*
G36*
X-4144755Y+4354379D02*
X-3806717Y+4016341D01*
X-3706771Y+4016341D01*
X-3637521Y+4085591D01*
X-3577565Y+4085591D01*
X-3577565Y+3987747D01*
X-3568932Y+3979114D01*
X-3676649Y+3871398D01*
X-3676649Y+3745673D01*
X-3917949Y+3504373D01*
X-3917949Y+3053338D01*
X-3924300Y+3046987D01*
X-3943252Y+3065939D01*
X-3943252Y+4135647D01*
X-4144554Y+4336950D01*
X-4303488Y+4336950D01*
X-4326891Y+4360353D01*
X-4326891Y+4402519D01*
X-4144755Y+4402519D01*
X-4144755Y+4354379D01*
G37*
G36*
X+6051551Y+3148773D02*
X+5977532Y+3074754D01*
X+5977532Y+2993389D01*
X+5952489Y+2993389D01*
X+5952489Y+3091518D01*
X+6051551Y+3190580D01*
X+6051551Y+3148773D01*
G37*
G36*
X+3574687Y+3088820D02*
X+3627544Y+3035963D01*
X+3627544Y+3015806D01*
X+3698219Y+2945131D01*
X+3798167Y+2945131D01*
X+3803247Y+2950211D01*
X+4809049Y+2950211D01*
X+4776027Y+2917189D01*
X+2201077Y+2917189D01*
X+2277109Y+2993221D01*
X+2277109Y+3145775D01*
X+2169237Y+3253647D01*
X+2016683Y+3253647D01*
X+2002862Y+3239826D01*
X+1703568Y+3239826D01*
X+1735425Y+3271683D01*
X+3391824Y+3271683D01*
X+3574687Y+3088820D01*
G37*
G36*
X+1908811Y+2993221D02*
X+1984843Y+2917189D01*
X+1798557Y+2917189D01*
X+1798557Y+2998528D01*
X+1908811Y+2998528D01*
X+1908811Y+2993221D01*
G37*
G36*
X-1210752Y+2871469D02*
X-1224905Y+2871469D01*
X-1741579Y+3388143D01*
X-1744320Y+3388143D01*
X-1898194Y+3542017D01*
X-1881300Y+3542017D01*
X-1210752Y+2871469D01*
G37*
G36*
X-3917949Y+2737862D02*
X-3917949Y+2589973D01*
X-4171948Y+2335974D01*
X-4171948Y+2330449D01*
X-4356101Y+2330449D01*
X-4356101Y+2698751D01*
X-4223762Y+2698751D01*
X-4178300Y+2744213D01*
X-4132838Y+2698751D01*
X-3969762Y+2698751D01*
X-3924300Y+2744213D01*
X-3917949Y+2737862D01*
G37*
G36*
X-3624838Y+2698751D02*
X-3610138Y+2698751D01*
X-3611649Y+2697240D01*
X-3611649Y+2607436D01*
X-3676651Y+2542434D01*
X-3676651Y+2737862D01*
X-3670300Y+2744213D01*
X-3624838Y+2698751D01*
G37*
G36*
X+6953251Y+2578023D02*
X+6959799Y+2571475D01*
X+6959799Y+2523367D01*
X+6936817Y+2546349D01*
X+6815042Y+2546349D01*
X+6953251Y+2684558D01*
X+6953251Y+2578023D01*
G37*
G36*
X+4968165Y+2518409D02*
X+1898139Y+2518409D01*
X+1888748Y+2509018D01*
X+1853954Y+2543811D01*
X+4936160Y+2543811D01*
X+4939462Y+2547112D01*
X+4968165Y+2518409D01*
G37*
G36*
X+1565911Y+2463556D02*
X+1565911Y+2432491D01*
X+1454591Y+2543811D01*
X+1646166Y+2543811D01*
X+1565911Y+2463556D01*
G37*
G36*
X+1234110Y+2423048D02*
X+1183623Y+2423048D01*
X+1183623Y+2473535D01*
X+1234110Y+2423048D01*
G37*
G36*
X-3526053Y+2330449D02*
X-3547392Y+2330449D01*
X-3441027Y+2436814D01*
X-3419688Y+2436814D01*
X-3526053Y+2330449D01*
G37*
G36*
X-2451177Y+3056899D02*
X-2298623Y+3056899D01*
X-2235123Y+3120399D01*
X-2036261Y+3120399D01*
X-1403793Y+2487931D01*
X-886108Y+2487931D01*
X-886108Y+2379204D01*
X-811953Y+2305049D01*
X-2379903Y+2305049D01*
X-2443403Y+2368549D01*
X-2595957Y+2368549D01*
X-2703829Y+2260677D01*
X-2703829Y+2108123D01*
X-2595957Y+2000251D01*
X-2443403Y+2000251D01*
X-2379903Y+2063751D01*
X-852169Y+2063751D01*
X-852169Y+1942234D01*
X-998597Y+1942234D01*
X-1049006Y+1891826D01*
X-1092083Y+1934903D01*
X-1244637Y+1934903D01*
X-1309471Y+1870069D01*
X-1357201Y+1917799D01*
X-1509755Y+1917799D01*
X-1562136Y+1865418D01*
X-1624293Y+1927574D01*
X-1776847Y+1927574D01*
X-1811748Y+1892672D01*
X-1863754Y+1944678D01*
X-2016308Y+1944678D01*
X-2124180Y+1836806D01*
X-2124180Y+1708149D01*
X-2771307Y+1708149D01*
X-2771307Y+2752089D01*
X-2591711Y+2931685D01*
X-2591711Y+2961613D01*
X-2528211Y+3025113D01*
X-2528211Y+3133933D01*
X-2451177Y+3056899D01*
G37*
G36*
X-295395Y+2204510D02*
X-497383Y+2204510D01*
X-413517Y+2288376D01*
X-211529Y+2288376D01*
X-295395Y+2204510D01*
G37*
G36*
X+7310238Y+2507274D02*
X+7352882Y+2507274D01*
X+7359651Y+2371895D01*
X+7359651Y+2139949D01*
X+7288973Y+2139949D01*
X+7211017Y+2217905D01*
X+7201095Y+2217905D01*
X+7201095Y+2470151D01*
X+7213677Y+2470151D01*
X+7280519Y+2536993D01*
X+7310238Y+2507274D01*
G37*
G36*
X+405237Y+2141037D02*
X+422663Y+2123611D01*
X-35050Y+2123611D01*
X-12629Y+2146032D01*
X+405237Y+2141037D01*
G37*
G36*
X+780553Y+2181750D02*
X+1310308Y+2181750D01*
X+1428309Y+2063749D01*
X+1194386Y+2063749D01*
X+1134524Y+2123611D01*
X+669537Y+2123611D01*
X+730249Y+2184323D01*
X+730249Y+2232054D01*
X+780553Y+2181750D01*
G37*
G36*
X-3682999Y+1968499D02*
X-3684014Y+1968499D01*
X-3682999Y+1969514D01*
X-3682999Y+1968499D01*
G37*
G36*
X-3910586Y+1968499D02*
X-3938014Y+1968499D01*
X-3924300Y+1982213D01*
X-3910586Y+1968499D01*
G37*
G36*
X+6676391Y+2285923D02*
X+6722111Y+2240203D01*
X+6722111Y+2114549D01*
X+6346088Y+2114549D01*
X+6275414Y+2043875D01*
X+6275414Y+1974849D01*
X+6211571Y+1974849D01*
X+6211571Y+1934351D01*
X+6186556Y+1959366D01*
X+6561450Y+2334261D01*
X+6602954Y+2334261D01*
X+6676391Y+2407698D01*
X+6676391Y+2285923D01*
G37*
G36*
X+7030473Y+1976607D02*
X+7111071Y+1976607D01*
X+7118351Y+1969327D01*
X+7118351Y+1896760D01*
X+7082815Y+1896760D01*
X+7072004Y+1885949D01*
X+6905431Y+1885949D01*
X+6963409Y+1943927D01*
X+6963409Y+2043671D01*
X+7030473Y+1976607D01*
G37*
G36*
X-610871Y+1881311D02*
X-610871Y+1963214D01*
X-528968Y+1963214D01*
X-610871Y+1881311D01*
G37*
G36*
X+991372Y+1879678D02*
X+988737Y+1882313D01*
X+994006Y+1882313D01*
X+991372Y+1879678D01*
G37*
G36*
X-18468Y+1878998D02*
X-21783Y+1882313D01*
X-15152Y+1882313D01*
X-18468Y+1878998D01*
G37*
G36*
X-278934Y+1848688D02*
X-290592Y+1860346D01*
X-268625Y+1882313D01*
X-245309Y+1882313D01*
X-278934Y+1848688D01*
G37*
G36*
X+2563085Y+1784478D02*
X+2552603Y+1784478D01*
X+2552603Y+1811435D01*
X+2541587Y+1822451D01*
X+2563085Y+1822451D01*
X+2563085Y+1784478D01*
G37*
G36*
X-3108857Y+1708149D02*
X-3327401Y+1708149D01*
X-3327401Y+1767105D01*
X-3401795Y+1841499D01*
X-3429001Y+1841499D01*
X-3429001Y+1969512D01*
X-3346451Y+2052062D01*
X-3346451Y+2150847D01*
X-3105559Y+2391739D01*
X-3108857Y+1708149D01*
G37*
G36*
X+5942321Y+1682749D02*
X+5909940Y+1682749D01*
X+5926130Y+1698940D01*
X+5942321Y+1682749D01*
G37*
G36*
X+6974943Y+1636334D02*
X+6994963Y+1616314D01*
X+6884669Y+1616314D01*
X+6884669Y+1644651D01*
X+6974943Y+1644651D01*
X+6974943Y+1636334D01*
G37*
G36*
X+2184305Y+1811435D02*
X+2184305Y+1733549D01*
X+2143863Y+1733549D01*
X+2043431Y+1633117D01*
X+2043431Y+1491083D01*
X+2093065Y+1441449D01*
X+1581149Y+1441449D01*
X+1581149Y+1708149D01*
X+1297249Y+1708149D01*
X+1297249Y+1817258D01*
X+1292056Y+1822451D01*
X+2195321Y+1822451D01*
X+2184305Y+1811435D01*
G37*
G36*
X+6211571Y+1390652D02*
X+6211571Y+1377949D01*
X+6158673Y+1377949D01*
X+6145970Y+1390652D01*
X+6159500Y+1390652D01*
X+6211571Y+1390652D01*
G37*
G36*
X+3056643Y+1408429D02*
X+2931083Y+1408429D01*
X+2876549Y+1353895D01*
X+2876549Y+1435101D01*
X+3029971Y+1435101D01*
X+3056643Y+1408429D01*
G37*
G36*
X+7448551Y+1434273D02*
X+7366452Y+1352174D01*
X+7309942Y+1408684D01*
X+7311611Y+1410354D01*
X+7448551Y+1547294D01*
X+7448551Y+1434273D01*
G37*
G36*
X+1222789Y+1198708D02*
X+1221754Y+1197672D01*
X+1130375Y+1289051D01*
X+1313132Y+1289051D01*
X+1222789Y+1198708D01*
G37*
G36*
X+6023389Y+1171989D02*
X+6031582Y+1163796D01*
X+5893324Y+1149798D01*
X+5937249Y+1193723D01*
X+5937249Y+1258129D01*
X+6023389Y+1171989D01*
G37*
G36*
X+2879015Y+1092199D02*
X+2350667Y+1092199D01*
X+2348014Y+1094852D01*
X+2876362Y+1094852D01*
X+2879015Y+1092199D01*
G37*
G36*
X+2119733Y+1092199D02*
X+2089149Y+1092199D01*
X+2089149Y+1094852D01*
X+2122386Y+1094852D01*
X+2119733Y+1092199D01*
G37*
G36*
X+5577353Y+1402622D02*
X+5577353Y+1354679D01*
X+5568951Y+1346277D01*
X+5568951Y+1193723D01*
X+5627294Y+1135380D01*
X+5579111Y+1087197D01*
X+5579111Y+960524D01*
X+5516110Y+1023525D01*
X+5490208Y+1023525D01*
X+5490208Y+1428306D01*
X+5577353Y+1515451D01*
X+5577353Y+1402622D01*
G37*
G36*
X+7138226Y+869949D02*
X+6884669Y+869949D01*
X+6884669Y+912755D01*
X+7181032Y+912755D01*
X+7138226Y+869949D01*
G37*
G36*
X+6211571Y+869949D02*
X+5882715Y+869949D01*
X+5914944Y+902178D01*
X+6211571Y+936904D01*
X+6211571Y+869949D01*
G37*
G36*
X+5643805Y+869949D02*
X+5624387Y+869949D01*
X+5623982Y+869544D01*
X+5623982Y+889772D01*
X+5643805Y+869949D01*
G37*
G36*
X+641351Y+1142923D02*
X+704851Y+1079423D01*
X+704852Y+623126D01*
X+1199959Y+128019D01*
X+1124265Y+128019D01*
X+1016393Y+20147D01*
X+1016393Y-132407D01*
X+1124265Y-240279D01*
X+1214069Y-240279D01*
X+1373839Y-400049D01*
X+1416051Y-400049D01*
X+1416051Y-412751D01*
X+1181926Y-412751D01*
X+915671Y-679006D01*
X+915671Y-2484045D01*
X+863518Y-2431892D01*
X+895349Y-2400060D01*
X+895349Y-2247506D01*
X+828344Y-2180502D01*
X+882649Y-2126197D01*
X+882649Y-1973643D01*
X+849090Y-1940084D01*
X+898779Y-1890394D01*
X+898779Y-1737840D01*
X+790907Y-1629968D01*
X+638353Y-1629968D01*
X+574853Y-1693468D01*
X-1619886Y-1693468D01*
X-1671243Y-1642111D01*
X-1809751Y-1642111D01*
X-1809751Y+58136D01*
X-1369854Y+498033D01*
X-1284332Y+498033D01*
X-829913Y+952452D01*
X-829913Y+943144D01*
X-722041Y+835272D01*
X-569487Y+835272D01*
X-461615Y+943144D01*
X-461615Y+1095698D01*
X-525115Y+1159198D01*
X-525115Y+1289051D01*
X+641351Y+1289051D01*
X+641351Y+1142923D01*
G37*
G36*
X+1187451Y+718727D02*
X+1162049Y+740798D01*
X+1162049Y+977823D01*
X+1187451Y+1003225D01*
X+1187451Y+718727D01*
G37*
G36*
X+2866896Y+606478D02*
X+2863668Y+603249D01*
X+2089149Y+603249D01*
X+2089149Y+615951D01*
X+2857423Y+615951D01*
X+2866896Y+606478D01*
G37*
G36*
X+7131407Y+583729D02*
X+6884669Y+583729D01*
X+6884669Y+628651D01*
X+7176329Y+628651D01*
X+7131407Y+583729D01*
G37*
G36*
X+3932532Y+1502757D02*
X+3932532Y+439250D01*
X+3909247Y+462535D01*
X+3909247Y+1502757D01*
X+3920890Y+1514400D01*
X+3932532Y+1502757D01*
G37*
G36*
X+2875848Y+349249D02*
X+2089149Y+349249D01*
X+2089149Y+361951D01*
X+2863146Y+361951D01*
X+2875848Y+349249D01*
G37*
G36*
X+4968652Y+1581830D02*
X+4972051Y+1578431D01*
X+4972051Y+461155D01*
X+4872992Y+362096D01*
X+4872992Y+282018D01*
X+4829646Y+238672D01*
X+4729180Y+339137D01*
X+4576626Y+339137D01*
X+4535310Y+297821D01*
X+4488115Y+345016D01*
X+4335561Y+345016D01*
X+4289114Y+298569D01*
X+4173830Y+413853D01*
X+4173830Y+1502757D01*
X+4237330Y+1566257D01*
X+4237330Y+1682784D01*
X+4962155Y+1682784D01*
X+4968652Y+1581830D01*
G37*
G36*
X+6211571Y+539751D02*
X+6211571Y-143140D01*
X+5855001Y-143140D01*
X+5855001Y-15870D01*
X+5747129Y+92002D01*
X+5594575Y+92002D01*
X+5543227Y+40654D01*
X+5152480Y+40654D01*
X+5177789Y+65963D01*
X+5177789Y+218517D01*
X+5124223Y+272083D01*
X+5159748Y+307608D01*
X+5159748Y+275020D01*
X+5267620Y+167148D01*
X+5420174Y+167148D01*
X+5528046Y+275020D01*
X+5528046Y+427574D01*
X+5513516Y+442104D01*
X+5558978Y+487565D01*
X+5583247Y+487565D01*
X+5724333Y+628651D01*
X+6211571Y+628651D01*
X+6211571Y+539751D01*
G37*
G36*
X+4834800Y+40654D02*
X+4798995Y+40654D01*
X+4816898Y+58556D01*
X+4834800Y+40654D01*
G37*
G36*
X+2873030Y+35338D02*
X+2847510Y+9816D01*
X+2762077Y+95249D01*
X+2089149Y+95249D01*
X+2089149Y+107951D01*
X+2800417Y+107951D01*
X+2873030Y+35338D01*
G37*
G36*
X+1416051Y-88073D02*
X+1416051Y-101017D01*
X+1384691Y-69657D01*
X+1384691Y-56713D01*
X+1416051Y-88073D01*
G37*
G36*
X+3333801Y+387657D02*
X+3615738Y+105720D01*
X+3615738Y+15916D01*
X+3723610Y-91956D01*
X+3876164Y-91956D01*
X+3943560Y-24560D01*
X+4119643Y-200644D01*
X+4733234Y-200644D01*
X+4613847Y-320031D01*
X+2972008Y-320031D01*
X+2879288Y-412751D01*
X+2089149Y-412751D01*
X+2089149Y-146049D01*
X+2662131Y-146049D01*
X+2766656Y-250574D01*
X+2828415Y-250574D01*
X+2891916Y-314075D01*
X+3044470Y-314075D01*
X+3152342Y-206203D01*
X+3152342Y-53649D01*
X+3076684Y+22010D01*
X+3165670Y+110996D01*
X+3165670Y+263550D01*
X+3105246Y+323974D01*
X+3187333Y+406062D01*
X+3187333Y+558616D01*
X+3133488Y+612462D01*
X+3181349Y+660323D01*
X+3181349Y+812877D01*
X+3144072Y+850154D01*
X+3169316Y+875399D01*
X+3333801Y+1039884D01*
X+3333801Y+387657D01*
G37*
G36*
X+7448551Y-257561D02*
X+7352246Y-353866D01*
X+7352246Y-394977D01*
X+7278328Y-394977D01*
X+7379914Y-293391D01*
X+7379914Y-140837D01*
X+7272042Y-32965D01*
X+7119488Y-32965D01*
X+7055988Y-96465D01*
X+6884669Y-96465D01*
X+6884669Y+342431D01*
X+7231353Y+342431D01*
X+7448551Y+559629D01*
X+7448551Y-257561D01*
G37*
G36*
X+7113202Y-394977D02*
X+6884669Y-394977D01*
X+6884669Y-337763D01*
X+7055988Y-337763D01*
X+7113202Y-394977D01*
G37*
G36*
X+6211571Y-390320D02*
X+5022971Y-390320D01*
X+4937040Y-476251D01*
X+4798871Y-476251D01*
X+4890684Y-384438D01*
X+6211571Y-384438D01*
X+6211571Y-390320D01*
G37*
G36*
X+6211571Y-641664D02*
X+5112871Y-641664D01*
X+5122917Y-631618D01*
X+6211571Y-631618D01*
X+6211571Y-641664D01*
G37*
G36*
X+2934527Y-666751D02*
X+2089149Y-666751D01*
X+2089149Y-654049D01*
X+2947229Y-654049D01*
X+2934527Y-666751D01*
G37*
G36*
X+7486651Y-811973D02*
X+7486651Y-828251D01*
X+7301758Y-643358D01*
X+6884669Y-643358D01*
X+6884669Y-636275D01*
X+7310953Y-636275D01*
X+7486651Y-811973D01*
G37*
G36*
X+1416051Y-666752D02*
X+1323514Y-666752D01*
X+1156969Y-833297D01*
X+1156969Y-778952D01*
X+1281872Y-654049D01*
X+1416051Y-654049D01*
X+1416051Y-666752D01*
G37*
G36*
X+7104303Y-897891D02*
X+6884669Y-897891D01*
X+6884669Y-884656D01*
X+7117538Y-884656D01*
X+7104303Y-897891D01*
G37*
G36*
X+6211571Y-900026D02*
X+3321896Y-900026D01*
X+3338960Y-882962D01*
X+6211571Y-882962D01*
X+6211571Y-900026D01*
G37*
G36*
X+2959927Y-920751D02*
X+2089149Y-920751D01*
X+2089149Y-908049D01*
X+2972629Y-908049D01*
X+2959927Y-920751D01*
G37*
G36*
X+6211571Y-1168937D02*
X+5258104Y-1168937D01*
X+5230491Y-1141324D01*
X+6211571Y-1141324D01*
X+6211571Y-1168937D01*
G37*
G36*
X+2339921Y-1174751D02*
X+2089149Y-1174751D01*
X+2089149Y-1162049D01*
X+2352623Y-1162049D01*
X+2339921Y-1174751D01*
G37*
G36*
X+7385138Y-1425615D02*
X+7311354Y-1351831D01*
X+7158800Y-1351831D01*
X+7095300Y-1415331D01*
X+6884669Y-1415332D01*
X+6884669Y-1139189D01*
X+7104303Y-1139189D01*
X+7167803Y-1202689D01*
X+7320357Y-1202689D01*
X+7385137Y-1137909D01*
X+7385138Y-1425615D01*
G37*
G36*
X+6211571Y-1416051D02*
X+5252288Y-1416051D01*
X+5258104Y-1410235D01*
X+6211571Y-1410235D01*
X+6211571Y-1416051D01*
G37*
G36*
X+6211571Y-1670051D02*
X+6201375Y-1670051D01*
X+6201375Y-1657349D01*
X+6211571Y-1657349D01*
X+6211571Y-1670051D01*
G37*
G36*
X+7095300Y-1656629D02*
X+7097102Y-1658431D01*
X+7073823Y-1681710D01*
X+6884669Y-1681710D01*
X+6884669Y-1656628D01*
X+7095300Y-1656629D01*
G37*
G36*
X+4102022Y-1682752D02*
X+2089149Y-1682751D01*
X+2089149Y-1670049D01*
X+4114726Y-1670048D01*
X+4102022Y-1682752D01*
G37*
G36*
X+7385138Y-1713471D02*
X+7351575Y-1679908D01*
X+7385138Y-1646345D01*
X+7385138Y-1713471D01*
G37*
G36*
X-3122708Y-1162738D02*
X-2813049Y-1472397D01*
X-2813049Y-1656113D01*
X-2942873Y-1656113D01*
X-3006373Y-1719613D01*
X-3393401Y-1719613D01*
X-3393401Y-1694551D01*
X-3501273Y-1586679D01*
X-3653827Y-1586679D01*
X-3761699Y-1694551D01*
X-3761699Y-1847105D01*
X-3653827Y-1954977D01*
X-3564023Y-1954977D01*
X-3558089Y-1960911D01*
X-3006373Y-1960911D01*
X-2942873Y-2024411D01*
X-2813049Y-2024411D01*
X-2813049Y-3117851D01*
X-3274395Y-3117851D01*
X-3274395Y-2601202D01*
X-3184610Y-2511416D01*
X-3129357Y-2566669D01*
X-2976803Y-2566669D01*
X-2868931Y-2458797D01*
X-2868931Y-2306243D01*
X-2976803Y-2198371D01*
X-3129357Y-2198371D01*
X-3192857Y-2261871D01*
X-3276308Y-2261871D01*
X-3515693Y-2501256D01*
X-3515693Y-3117851D01*
X-5003801Y-3117851D01*
X-5003801Y-1709462D01*
X-3581401Y-287062D01*
X-3581401Y+1289051D01*
X-3110879Y+1289051D01*
X-3122708Y-1162738D01*
G37*
G36*
X+4940293Y-1207194D02*
X+4812540Y-1207194D01*
X+4704668Y-1315066D01*
X+4704668Y-1467620D01*
X+4812540Y-1575492D01*
X+4902344Y-1575492D01*
X+4984201Y-1657349D01*
X+5833077Y-1657349D01*
X+5833077Y-1785320D01*
X+5940949Y-1893192D01*
X+6030753Y-1893192D01*
X+6048910Y-1911349D01*
X+6211571Y-1911349D01*
X+6211571Y-1924051D01*
X+5296727Y-1924051D01*
X+4949006Y-2271772D01*
X+4554357Y-2271772D01*
X+4597733Y-2228396D01*
X+4597733Y-2075842D01*
X+4489861Y-1967970D01*
X+4337656Y-1967970D01*
X+4400549Y-1905077D01*
X+4400549Y-1752523D01*
X+4318074Y-1670048D01*
X+4440746Y-1670048D01*
X+4494531Y-1723833D01*
X+4494531Y-1813637D01*
X+4602403Y-1921509D01*
X+4754957Y-1921509D01*
X+4862829Y-1813637D01*
X+4862829Y-1661083D01*
X+4754957Y-1553211D01*
X+4665153Y-1553211D01*
X+4540694Y-1428752D01*
X+4490720Y-1428752D01*
X+2089149Y-1428751D01*
X+2089149Y-1416049D01*
X+2439867Y-1416049D01*
X+2535999Y-1319917D01*
X+3182023Y-1319917D01*
X+3360616Y-1141324D01*
X+5006163Y-1141324D01*
X+4940293Y-1207194D01*
G37*
G36*
X+4140123Y-2012949D02*
X+4292328Y-2012949D01*
X+4268550Y-2036727D01*
X+2156549Y-2036727D01*
X+2089149Y-1969327D01*
X+2089149Y-1924049D01*
X+4051222Y-1924048D01*
X+4140123Y-2012949D01*
G37*
G36*
X+7385139Y-2121847D02*
X+7249800Y-1986508D01*
X+7289877Y-1986508D01*
X+7385138Y-1891247D01*
X+7385139Y-2121847D01*
G37*
G36*
X+7092393Y-2170345D02*
X+6884669Y-2170345D01*
X+6884669Y-2127279D01*
X+7049327Y-2127279D01*
X+7092393Y-2170345D01*
G37*
G36*
X-1284996Y-2183271D02*
X-1423113Y-2183271D01*
X-1454493Y-2151891D01*
X-1607047Y-2151891D01*
X-1714919Y-2259763D01*
X-1714919Y-2412317D01*
X-1607047Y-2520189D01*
X-1454493Y-2520189D01*
X-1358873Y-2424569D01*
X-1294046Y-2424569D01*
X-1322069Y-2452592D01*
X-1322069Y-3117851D01*
X-1809751Y-3117851D01*
X-1809751Y-2010409D01*
X-1671243Y-2010409D01*
X-1595600Y-1934766D01*
X-1036491Y-1934766D01*
X-1284996Y-2183271D01*
G37*
G36*
X+581356Y-2193202D02*
X+571423Y-2203134D01*
X-963615Y-2203134D01*
X-931050Y-2170569D01*
X+558723Y-2170569D01*
X+581356Y-2193202D01*
G37*
G36*
X+3998342Y-2316144D02*
X+3998342Y-2368551D01*
X+3936173Y-2368551D01*
X+3854161Y-2286539D01*
X+2177761Y-2286539D01*
X+2169245Y-2278023D01*
X+4036463Y-2278023D01*
X+3998342Y-2316144D01*
G37*
G36*
X+6964483Y-2419351D02*
X+6884669Y-2419351D01*
X+6884669Y-2411643D01*
X+6972191Y-2411643D01*
X+6964483Y-2419351D01*
G37*
G36*
X+6211571Y-2432013D02*
X+5482506Y-2432013D01*
X+5499500Y-2415019D01*
X+6211571Y-2415019D01*
X+6211571Y-2432013D01*
G37*
G36*
X+571742Y-2444751D02*
X-867459Y-2444751D01*
X-1080771Y-2652351D01*
X-1080771Y-2606270D01*
X-918933Y-2444432D01*
X+571423Y-2444432D01*
X+571742Y-2444751D01*
G37*
G36*
X+3765551Y-2539173D02*
X+3765551Y-2605612D01*
X+3712943Y-2605612D01*
X+3682190Y-2636365D01*
X+3682190Y-2599577D01*
X+3610450Y-2527837D01*
X+3754215Y-2527837D01*
X+3765551Y-2539173D01*
G37*
G36*
X+6211571Y-2173723D02*
X+5399552Y-2173723D01*
X+4904163Y-2669112D01*
X+4093714Y-2669112D01*
X+4133849Y-2628977D01*
X+4133849Y-2576570D01*
X+4258768Y-2576570D01*
X+4322268Y-2513070D01*
X+5048952Y-2513070D01*
X+5396673Y-2165349D01*
X+6211571Y-2165349D01*
X+6211571Y-2173723D01*
G37*
G36*
X+6211571Y-2686051D02*
X+5490769Y-2686051D01*
X+5503509Y-2673311D01*
X+6211571Y-2673311D01*
X+6211571Y-2686051D01*
G37*
G36*
X+3022523Y-2698751D02*
X+2089149Y-2698751D01*
X+2089149Y-2686049D01*
X+3035225Y-2686049D01*
X+3022523Y-2698751D01*
G37*
G36*
X+3313892Y-2710566D02*
X+3289375Y-2686049D01*
X+3313892Y-2686049D01*
X+3313892Y-2710566D01*
G37*
G36*
X+6989884Y-2686050D02*
X+6964483Y-2711451D01*
X+6884669Y-2711451D01*
X+6884669Y-2660649D01*
X+6964483Y-2660649D01*
X+6989884Y-2686050D01*
G37*
G36*
X+915671Y-3117851D02*
X-994411Y-3117851D01*
X-994411Y-2905011D01*
X-769425Y-2686049D01*
X+596823Y-2686049D01*
X+660323Y-2749549D01*
X+812877Y-2749549D01*
X+915671Y-2646755D01*
X+915671Y-3117851D01*
G37*
G36*
X+4870125Y-2965451D02*
X+3873956Y-2965451D01*
X+3928997Y-2910410D01*
X+4925166Y-2910410D01*
X+4870125Y-2965451D01*
G37*
G36*
X+6926686Y-2979100D02*
X+6884669Y-2979100D01*
X+6884669Y-2952749D01*
X+6953037Y-2952749D01*
X+6926686Y-2979100D01*
G37*
G36*
X+3421764Y-2860003D02*
X+3574318Y-2860003D01*
X+3605071Y-2829250D01*
X+3605071Y-2866038D01*
X+3640984Y-2901951D01*
X+3543223Y-2901951D01*
X+3435351Y-3009823D01*
X+3435351Y-3162377D01*
X+3543223Y-3270249D01*
X+3695777Y-3270249D01*
X+3759277Y-3206749D01*
X+4970071Y-3206749D01*
X+5245561Y-2931259D01*
X+5245561Y-2978190D01*
X+5353433Y-3086062D01*
X+5384333Y-3086062D01*
X+5354972Y-3115423D01*
X+5354972Y-3267977D01*
X+5462844Y-3375849D01*
X+5615398Y-3375849D01*
X+5678898Y-3312349D01*
X+5852562Y-3312349D01*
X+5987236Y-3177674D01*
X+6211571Y-3177674D01*
X+6211571Y-4387851D01*
X+6101393Y-4387851D01*
X+5469321Y-3482999D01*
X+5416897Y-3455671D01*
X+4270555Y-3455671D01*
X+4148386Y-3458700D01*
X+4089477Y-3399791D01*
X+3936923Y-3399791D01*
X+3829051Y-3507663D01*
X+3829051Y-3660217D01*
X+3936923Y-3768089D01*
X+4089477Y-3768089D01*
X+4156339Y-3701227D01*
X+4229435Y-3698590D01*
X+4229435Y-3843097D01*
X+4337307Y-3950969D01*
X+4489861Y-3950969D01*
X+4545741Y-3895089D01*
X+5084467Y-3895089D01*
X+5777889Y-4588511D01*
X+5460140Y-4588511D01*
X+5491002Y-4557649D01*
X+5491002Y-4405095D01*
X+5383130Y-4297223D01*
X+5293326Y-4297223D01*
X+5182257Y-4186154D01*
X+4892368Y-4186154D01*
X+4828868Y-4122654D01*
X+4676314Y-4122654D01*
X+4568442Y-4230526D01*
X+4568442Y-4383080D01*
X+4676314Y-4490952D01*
X+4828868Y-4490952D01*
X+4892368Y-4427452D01*
X+5082311Y-4427452D01*
X+5122704Y-4467845D01*
X+5122704Y-4557649D01*
X+5153566Y-4588511D01*
X+2209133Y-4588511D01*
X+1242026Y-3621404D01*
X+1242026Y-3204252D01*
X+1295323Y-3257549D01*
X+1416051Y-3257549D01*
X+1416051Y-3536949D01*
X+2089149Y-3536949D01*
X+2089149Y-3186873D01*
X+2182996Y-3093026D01*
X+2477909Y-3093026D01*
X+2477909Y-3149931D01*
X+2585781Y-3257803D01*
X+2738335Y-3257803D01*
X+2846207Y-3149931D01*
X+2846207Y-2997377D01*
X+2788879Y-2940049D01*
X+3022523Y-2940049D01*
X+3086023Y-3003549D01*
X+3238577Y-3003549D01*
X+3346449Y-2895677D01*
X+3346449Y-2784688D01*
X+3421764Y-2860003D01*
G37*
G36*
X+6211571Y-2936376D02*
X+5887289Y-2936376D01*
X+5752615Y-3071051D01*
X+5678898Y-3071051D01*
X+5615398Y-3007551D01*
X+5584498Y-3007551D01*
X+5613859Y-2978190D01*
X+5613859Y-2927349D01*
X+6211571Y-2927349D01*
X+6211571Y-2936376D01*
G37*
G36*
X-852169Y+1271440D02*
X-1384278Y+739331D01*
X-1469800Y+739331D01*
X-2051049Y+158082D01*
X-2051049Y-3117851D01*
X-2317751Y-3117851D01*
X-2317751Y-1373035D01*
X-2774951Y-915835D01*
X-2774951Y+969591D01*
X-2771307Y+973235D01*
X-2771307Y+1289051D01*
X-852169Y+1289051D01*
X-852169Y+1271440D01*
G37*
G36*
X-2559049Y-1472981D02*
X-2559049Y-3117851D01*
X-2571751Y-3117851D01*
X-2571751Y-1460279D01*
X-2559049Y-1472981D01*
G37*
G36*
X+5548883Y-4018261D02*
X+5227591Y-3696969D01*
X+5324449Y-3696969D01*
X+5548883Y-4018261D01*
G37*
G36*
X-5257799Y-4058997D02*
X-5281853Y-4083051D01*
X-5344717Y-4083051D01*
X-5373700Y-4112034D01*
X-5402683Y-4083051D01*
X-5544717Y-4083051D01*
X-5553051Y-4091385D01*
X-5553051Y-3536949D01*
X-5257799Y-3536949D01*
X-5257799Y-4058997D01*
G37*
G36*
X-1322069Y-3763474D02*
X-1322069Y-3813447D01*
X-954867Y-4180649D01*
X+174105Y-4180649D01*
X+165893Y-4188861D01*
X-1048977Y-4188861D01*
X-1321902Y-3915936D01*
X-2789222Y-3915936D01*
X-3168209Y-3536949D01*
X-1322069Y-3536949D01*
X-1322069Y-3763474D01*
G37*
G36*
X+468354Y-4198268D02*
X+450735Y-4180649D01*
X+458664Y-4180649D01*
X+468354Y-4198268D01*
G37*
G36*
X+6990186Y-3283898D02*
X+7123212Y-3283898D01*
X+7123212Y-4320736D01*
X+7056097Y-4387851D01*
X+6884669Y-4387851D01*
X+6884669Y-3220398D01*
X+6926686Y-3220398D01*
X+6990186Y-3283898D01*
G37*
D10*
X-5892800Y-3327400D02*
X-5892800Y-4508500D01*
X-5600700Y-4508500D01*
X-5473700Y-4381500D01*
X-5473700Y-4254500D01*
X-5638800Y-3327400D02*
X-5673700Y-3362300D01*
X-5673700Y-4254500D01*
X-3797300Y+2895600D02*
X-3797300Y+3454400D01*
X-3467100Y+3784600D01*
X-4051300Y+2133600D02*
X-4051300Y+2286000D01*
X-3797300Y+2540000D01*
X-3797300Y+2895600D01*
X+6675120Y-266700D02*
X+6675119Y-266700D01*
X+6675119Y-774700D02*
X+6675120Y-774700D01*
X+6675120Y-520700D02*
X+6675119Y-520700D01*
D11*
X-3708400Y+1498600D02*
X-3708400Y-234459D01*
X-5130800Y-1656859D01*
X-5130800Y-3327400D01*
X-4483100Y+3784600D02*
X-4483100Y+2006600D01*
X-4318000Y+1841500D01*
X-3556000Y+1841500D01*
X-5130800Y-3327400D02*
X-5130800Y-4111600D01*
X-5273700Y-4254500D01*
X-3556000Y+1841500D02*
X-3556000Y+1714500D01*
X-3454400Y+1714500D01*
X-3708400Y+1498600D02*
X-3708400Y+1689100D01*
X-3556000Y+1841500D01*
X-3543300Y+2133600D02*
X-3556000Y+2120900D01*
X-3556000Y+1841500D01*
X+1879600Y+990600D02*
X+1879600Y+990601D01*
X+1625600Y+990601D01*
X+1625600Y+990600D01*
X+6675120Y-4330700D02*
X+6675120Y-4076700D01*
X+6421120Y-4330700D02*
X+6421120Y-4076700D01*
X-3454400Y+1714500D02*
X-3454400Y+1498600D01*
D10*
X+6675120Y+1765300D02*
X+6675119Y+1765300D01*
X+6675120Y+749300D02*
X+6675119Y+749300D01*
D11*
X-6781800Y-4000500D02*
X-6781800Y+2914D01*
X-6604000Y+180714D01*
X-4099186Y+180714D01*
X-3962400Y+317500D01*
X-3962400Y+1498600D01*
X+6675120Y-3822700D02*
X+6675120Y-3568700D01*
X+6421120Y-3822700D02*
X+6421120Y-3568700D01*
X+1625600Y-3327400D02*
X+1625600Y-3327399D01*
X+1879600Y-3327399D01*
X+1879600Y-3327400D01*
X-6083300Y+3644900D02*
X-4981719Y+3644900D01*
X-4847774Y+3778845D01*
X-4488855Y+3778845D01*
X-4483100Y+3784600D01*
D10*
X-1930400Y+1498600D02*
X-1930400Y+1750898D01*
X-1940031Y+1760529D01*
X-1676400Y+1498600D02*
X-1700570Y+1522770D01*
X-1700570Y+1743425D01*
X-1422400Y+1498600D02*
X-1422400Y+1722572D01*
X-1433478Y+1733650D01*
X-1168400Y+1498600D02*
X-1168400Y+1750714D01*
X-1168360Y+1750754D01*
X-914400Y+1498600D02*
X-914400Y+1750165D01*
X-922320Y+1758085D01*
X+1879600Y+482600D02*
X+3002923Y+482600D01*
X+3003184Y+482339D01*
X+1879600Y+228600D02*
X+2940194Y+228600D01*
X+2981521Y+187273D01*
X+1625600Y+482600D02*
X+1519460Y+482600D01*
X+1308100Y+693960D01*
X+1308100Y+1113397D01*
X+1515503Y+1320800D01*
X+2298700Y+1320800D01*
X+2692400Y+1409700D01*
X+1879600Y-25400D02*
X+2712104Y-25400D01*
X+2740848Y-54144D01*
X+2816630Y-129926D01*
X+2968193Y-129926D01*
D11*
X+2235200Y+965200D02*
X+1905000Y+965200D01*
X+1879600Y+990600D01*
D10*
X+1113100Y+1740981D02*
X+1117600Y+1736481D01*
X+1117600Y+1498600D01*
X+5867400Y+1498600D02*
X+6108700Y+1257300D01*
X+6421120Y+1257300D01*
X+1879600Y-533400D02*
X+2929261Y-533400D01*
X+3021981Y-440680D01*
X+4663820Y-440680D01*
X+4840711Y-263789D01*
X+6418209Y-263789D01*
X+6421120Y-266700D01*
X+1879600Y-787400D02*
X+2984500Y-787400D01*
X+3175000Y-596900D01*
X+4987013Y-596900D01*
X+5072944Y-510969D01*
X+6419827Y-510969D01*
X+6433450Y-524592D01*
X+6421120Y-520700D01*
X+1879600Y-1041400D02*
X+3009900Y-1041400D01*
X+3288987Y-762313D01*
X+3311497Y-762313D01*
X+6408733Y-762313D01*
X+6421120Y-774700D01*
X+1879600Y-1295400D02*
X+2389894Y-1295400D01*
X+2486025Y-1199269D01*
X+3132049Y-1199269D01*
X+3310643Y-1020675D01*
X+6404063Y-1020675D01*
X+6430521Y-1047133D01*
X+6421120Y-1028700D01*
X+355600Y+1498600D02*
X+355600Y+1752600D01*
X+352233Y+1749233D01*
X+5763260Y+1010920D02*
X+6349858Y+1074562D01*
X+6421120Y+1003300D01*
X+1625600Y+228600D02*
X+1567588Y+228600D01*
X+1041400Y+685800D01*
X+1041400Y+1117600D01*
D11*
X-714659Y+2450221D02*
X-541899Y+2450221D01*
X-499262Y+2492858D01*
X+951263Y+2492858D01*
X+1012174Y+2431947D01*
D10*
X-6845300Y+3898900D02*
X-5118100Y+3898900D01*
X-5080000Y+3937000D01*
X-3427500Y+2620963D02*
X-3810000Y+2238463D01*
X-3810000Y+2235200D01*
X-3797300Y+2133600D01*
X-787400Y+4127500D02*
X+3898896Y+4134990D01*
X+1625600Y-3073400D02*
X+1371600Y-3073400D01*
X+5539121Y-3191700D02*
X+5802588Y-3191700D01*
X+5937263Y-3057025D01*
X+6417445Y-3057025D01*
X+6421120Y-3060700D01*
X+1625600Y-2819400D02*
X+1371600Y-2819400D01*
X+5429710Y-2901913D02*
X+5524923Y-2806700D01*
X+6421120Y-2806700D01*
X+1879600Y-2311400D02*
X+2032000Y-2311400D01*
X+2127788Y-2407188D01*
X+3804188Y-2407188D01*
X+3949700Y-2552700D01*
X+4013200Y-3583940D02*
X+4272280Y-3576320D01*
X+5387340Y-3576320D01*
X+6038502Y-4508500D01*
X+7106070Y-4508500D01*
X+7243861Y-4370709D01*
X+7243861Y-2327418D01*
X+7207437Y-2290994D01*
X+6697758Y-2290994D01*
X+6696918Y-2291834D01*
X+6675120Y-2298700D01*
X+3788598Y+1642534D02*
X+3788598Y+412562D01*
X+4204922Y-3762D01*
X+4447116Y-3762D01*
X+4552950Y+102072D01*
X+4599987Y+102072D01*
X+4652903Y+154988D01*
X+4053181Y+1642534D02*
X+4053181Y+363880D01*
X+4256194Y+160867D01*
X+4411838Y+160867D01*
X+1625600Y-2311400D02*
X+1406276Y-2311400D01*
X+1371600Y-2311306D01*
X+711200Y-2323783D02*
X-968906Y-2323783D01*
X-1147688Y-2502565D01*
X-1201420Y-2502565D01*
X-1201420Y-3763474D01*
X-904894Y-4060000D01*
X+529999Y-4060000D01*
X+640000Y-4260000D01*
X+810000Y-4260000D01*
X+3789220Y-2789761D02*
X+4954136Y-2789761D01*
X+5449526Y-2294371D01*
X+6430529Y-2294371D01*
X+6438900Y-2286000D01*
X+6421120Y-2298700D01*
X+1625600Y-1549400D02*
X+1378402Y-1549400D01*
X+1377606Y-1548604D01*
X+4888817Y-1391343D02*
X+5034174Y-1536700D01*
X+6421120Y-1536700D01*
X+1625600Y-2565400D02*
X+1371600Y-2565400D01*
X+736600Y-2565400D02*
X-818442Y-2565400D01*
X-1115060Y-2854076D01*
X-1115060Y-3544997D01*
X-1071800Y-3606000D01*
X-817644Y-3860000D01*
X+700000Y-3860000D01*
X+3619500Y-3086100D02*
X+4920098Y-3086100D01*
X+5453536Y-2552662D01*
X+6427825Y-2552662D01*
X+6443388Y-2537099D01*
X+6421120Y-2552700D01*
X+1625600Y-1295400D02*
X+1380480Y-1295400D01*
X+1373665Y-1302215D01*
X+5118327Y-1289586D02*
X+6411978Y-1289586D01*
X+6433262Y-1268302D01*
X+6421120Y-1282700D01*
X+5753100Y+1270000D02*
X+5698002Y+1325098D01*
X+5698002Y+1352647D01*
X+5753100Y+1270000D02*
X+5698002Y+1352648D01*
X+5698002Y+1352647D01*
X+6265033Y+4552631D02*
X+6294022Y+4523642D01*
D11*
X+2214880Y+1562100D02*
X+3082574Y+1562100D01*
X+3314700Y+1329974D01*
X+3314700Y+1200385D01*
X+3079515Y+965200D01*
X+2235200Y+965200D01*
D10*
X+5508772Y+2392192D02*
X+5512782Y+2396202D01*
X+1564640Y+3271520D02*
X+1685452Y+3392332D01*
X-1991618Y+4002782D02*
X-1991618Y+4000242D01*
X-1875036Y+3883660D01*
X-1684867Y+3883660D01*
X-1629826Y+3828619D01*
X-1624977Y+3828619D01*
X-1067878Y+3271520D01*
X+1564640Y+3271520D01*
X+891540Y+3119177D02*
X+904183Y+3119177D01*
X+891540Y+3131820D01*
X+891540Y+3119177D01*
X+1614408Y+2946314D02*
X+1617537Y+2943185D01*
X+6072206Y+1813290D02*
X+6159500Y+1511300D01*
X+6421120Y+1511300D01*
X+5698002Y+1352647D02*
X+5698002Y+1352648D01*
X+5698002Y+1582420D01*
X+5698002Y+1617980D02*
X+5698002Y+1643380D01*
X+5808004Y+1753382D01*
X+5820957Y+1766335D01*
X+6499860Y+2445238D01*
X+6509532Y+2454910D01*
X+6499860Y+2454910D02*
X+6509532Y+2454910D01*
X+5808004Y+1753382D02*
X+5809950Y+1753382D01*
X+5820957Y+1766335D02*
X+5822902Y+1766335D01*
X+6499860Y+2443293D01*
X+6499860Y+2445238D01*
X+6499860Y+2454910D01*
X+5698002Y+1582420D02*
X+5698002Y+1617980D01*
X+5347388Y+2312088D02*
X+5347826Y+2312526D01*
X+5347826Y+2354573D01*
X+5347826Y+2354595D01*
X+5347388Y+2312088D02*
X+5347826Y+2354573D01*
X+6814820Y+2875280D02*
X+6926580Y+2987040D01*
X+6958225Y+2987040D01*
X+5439833Y+839376D02*
X+5369560Y+909649D01*
X+5369560Y+1478280D01*
X+6437630Y+2546350D01*
X+6493343Y+2546350D01*
X+6814820Y+2867827D01*
X+6814820Y+2875280D01*
X+6958225Y+2987040D02*
X+7553961Y+2987040D01*
X+7658100Y+2882901D01*
X+7658100Y+1219201D01*
X+7188199Y+749300D01*
X+6675120Y+749300D01*
X+5343897Y+351297D02*
X+5279545Y+415649D01*
X+5279545Y+1520035D01*
X+5278120Y+1521460D01*
X+6405880Y+2649220D01*
X+6461759Y+2649220D01*
X+6690073Y+2877534D01*
X+6693984Y+2877534D01*
X+6693984Y+2944944D01*
X+6883400Y+3134360D01*
X+7518400Y+3134360D01*
X+7747000Y+2905760D01*
X+7747000Y+1028700D01*
X+7181380Y+463080D01*
X+6604000Y+463080D01*
X+6675120Y+495300D01*
X+200660Y+4300220D02*
X+2882900Y+4297680D01*
X+7386515Y+2691423D02*
X+7391400Y+2667000D01*
X+7454900Y+2628900D01*
X+7467600Y+2628900D01*
X+7480300Y+2374899D01*
X+7480300Y+1749665D01*
X+7226300Y+1495665D01*
X+6659756Y+1495665D01*
X+6651917Y+1503504D01*
X+6675120Y+1511300D01*
X-3152464Y+4089077D02*
X-3269627Y+4206240D01*
X-3687494Y+4206240D01*
X-3756744Y+4136990D01*
X-4024106Y+4404352D01*
X-4024106Y+4476533D01*
X-4070740Y+4523167D01*
X-4729833Y+4523167D01*
X-4729480Y+4241800D01*
X-4251153Y+3911414D01*
X-4229986Y+3911414D01*
X-4229986Y+3146174D01*
X-4244340Y+3131820D01*
X-4832060Y+2788014D02*
X-4832060Y+2150662D01*
X-4815597Y+2134199D01*
X-4051300Y+2895600D02*
X-4063901Y+2908201D01*
X-4063901Y+4085674D01*
X-4194528Y+4216301D01*
X-4353461Y+4216301D01*
X-4511040Y+4373880D01*
X-7353300Y+3644900D02*
X-6543040Y+3644900D01*
X-5377836Y+2479696D01*
X-5134996Y+2479696D01*
X-2519680Y+2184400D02*
X-688115Y+2184400D01*
X-463490Y+2409025D01*
X+723900Y+2409025D01*
X+830526Y+2302399D01*
X+1360281Y+2302399D01*
X+1590040Y+2072640D01*
X+5121308Y+2072640D01*
X+5285740Y+2250440D01*
X+5347388Y+2312088D01*
X+6509532Y+2454910D02*
X+6552981Y+2454910D01*
X+6975891Y+2877820D01*
X+7510780Y+2877820D01*
X+7569200Y+2819400D01*
X+7569200Y+1384300D01*
X+7218304Y+1033404D01*
X+6727471Y+1033404D01*
X+6668675Y+974608D01*
X+6675120Y+1003300D01*
X+5419201Y+608214D02*
X+5533274Y+608214D01*
X+5674360Y+749300D01*
X+6421120Y+749300D01*
X-1062724Y+3828137D02*
X-1062724Y+3830677D01*
X-748542Y+3516495D01*
X+1189383Y+3516495D01*
X+1201143Y+3504735D01*
X+1365381Y+3504735D01*
X+1577047Y+3716401D01*
X+3098800Y+3716401D01*
X+3129661Y+3685540D01*
X+5438140Y+3685540D01*
X+5488940Y+3634740D01*
X+76200Y+3819055D02*
X+76200Y+3821595D01*
X+4271175Y+3821595D01*
X+4600433Y+4150853D01*
X+5480827Y+4150853D01*
X+5488940Y+4142740D01*
X+4592320Y+3848100D02*
X+4592320Y+3850640D01*
X+4602480Y+3812540D01*
X+5199380Y+3812540D01*
X+5275580Y+3888740D01*
X+5488940Y+3888740D01*
X+6294022Y+4523642D02*
X+6403124Y+4414540D01*
X+6403124Y+4210406D01*
X+6360669Y+4167951D01*
X+6360669Y+4153509D01*
X+6344820Y+4137660D01*
X+5857240Y+4137660D01*
X+5742940Y+4142740D01*
X+6235700Y+3162300D02*
X+6098181Y+3024781D01*
X+6098181Y+2914689D01*
X+6056232Y+2872740D01*
X+5742940Y+2872740D01*
X+3748193Y+3065780D02*
X+3748193Y+3070860D01*
X+5102860Y+3070860D01*
X+5412740Y+3380740D01*
X+5514340Y+3380740D01*
X+5488940Y+3380740D01*
X+1685452Y+3392332D02*
X+3441797Y+3392332D01*
X+3659998Y+3174131D01*
X+3748193Y+3085936D01*
X+3748193Y+3070860D01*
X-3393416Y+4064024D02*
X-2815167Y+3485775D01*
X-2012574Y+3485775D01*
X-1794293Y+3267494D01*
X-1791552Y+3267494D01*
X-1274878Y+2750820D01*
X+1369060Y+2750820D01*
X+1455420Y+2664460D01*
X+4886187Y+2664460D01*
X+4890394Y+2668667D01*
X+4896246Y+2668667D01*
X+5105399Y+2877820D01*
X+5288280Y+2877820D01*
X+5288280Y+2891150D01*
X+5501034Y+2892352D01*
X+5488940Y+2872740D01*
X-255594Y+3988687D02*
X+4270627Y+3988687D01*
X+4613408Y+4331468D01*
X+4793748Y+4331468D01*
X+5034280Y+4572000D01*
X+6242122Y+4572000D01*
X+6290480Y+4523642D01*
X+6294022Y+4523642D01*
X+5508772Y+2392192D02*
X+5510216Y+2396202D01*
X+5504763Y+2396202D02*
X+5510216Y+2396202D01*
X+5512782Y+2396202D01*
X+1614408Y+2946314D02*
X+1614408Y+2949192D01*
X-1553697Y+3970803D02*
X-950934Y+3368040D01*
X+1549400Y+3368040D01*
X+1661160Y+3556000D01*
X+3027773Y+3556000D01*
X+3172820Y+4318012D02*
X+3352800Y+4409440D01*
X+4699067Y+4407593D01*
X+4949834Y+4658360D01*
X+6452689Y+4658360D01*
X+6517640Y+4610503D01*
X+6517640Y+3990341D01*
X+6162039Y+3634740D01*
X+5742940Y+3634740D01*
X+5417848Y+2560292D02*
X+6001992Y+2560292D01*
X+6038850Y+2597150D01*
X+5347826Y+2354595D02*
X+5349240Y+2491683D01*
X+5417848Y+2560292D01*
X+6038850Y+2597150D02*
X+6805788Y+3364088D01*
X+6805788Y+3850546D01*
X+6794500Y+3861834D01*
X+6794500Y+4180276D01*
X+6852825Y+4238601D01*
X+6229585Y+4326795D02*
X+5812885Y+4326795D01*
X+5742940Y+4396740D01*
X+5510216Y+2396202D02*
X+5506945Y+2394019D01*
X+5493823Y+2385262D01*
X+5493820Y+2385260D01*
X+5493821Y+2385260D01*
X+5664200Y+2379980D01*
X+6547681Y+3704839D02*
X+6518294Y+3696354D01*
X+6604000Y+3721100D01*
X+6498926Y+3623645D01*
X+6203681Y+3328400D01*
X+6018749Y+3328400D01*
X+5817089Y+3126740D01*
X+5742940Y+3126740D01*
X+5504763Y+2396202D02*
X+5506945Y+2394019D01*
X+5508772Y+2392192D01*
X-645764Y+1019421D02*
X-645764Y+1675796D01*
X-318598Y+2002962D01*
X+1084551Y+2002962D01*
X+1144413Y+1943100D01*
X+3420389Y+1943100D01*
X+3422929Y+1940560D01*
X+5115560Y+1940560D01*
X+5444037Y+2269037D01*
X+5444037Y+2335476D01*
X+5493821Y+2385260D01*
X+5493820Y+2385260D01*
X+5493823Y+2385262D01*
X+5504763Y+2396202D01*
X+6593766Y+3949625D02*
X+6633757Y+3909634D01*
X+6964105Y+3638702D02*
X+6883400Y+3557997D01*
X+6883400Y+3420701D01*
X+6883400Y+3377385D01*
X+2747234Y+1803433D02*
X+5101070Y+1803433D01*
X+5522677Y+2225040D01*
X+5758181Y+2225040D01*
X+6009821Y+2476680D01*
X+6037761Y+2476680D01*
X+6883400Y+3322319D01*
X+6883400Y+3377385D01*
X+5742940Y+3380740D02*
X+5961958Y+3380740D01*
X+6074756Y+3493538D01*
X+6133062Y+3493538D01*
X+6359582Y+3720058D01*
X+6364199Y+3720058D01*
X+6593766Y+3949625D01*
X+1625600Y-787400D02*
X+1373488Y-787400D01*
X+1121377Y-1039511D01*
X+1121377Y-3671377D01*
X+2159160Y-4709160D01*
X+7317740Y-4709160D01*
X+7505791Y-4521109D01*
X+7505785Y-1018007D01*
X+7251785Y-764007D01*
X+6685813Y-764007D01*
X+6675120Y-774700D01*
X+1879600Y-2057400D02*
X+2006600Y-2057400D01*
X+2106575Y-2157375D01*
X+4408328Y-2157375D01*
X+4413584Y-2152119D01*
X+4413584Y-3766820D02*
X+4420026Y-3774440D01*
X+5134440Y-3774440D01*
X+5975180Y-4615180D01*
X+7112220Y-4615180D01*
X+7353300Y-4374100D01*
X+7353300Y-2260630D01*
X+7099300Y-2006630D01*
X+6718333Y-2006630D01*
X+6688387Y-2036576D01*
X+6675120Y-2044700D01*
X+1879600Y-2565400D02*
X+3387587Y-2565400D01*
X+3498041Y-2675854D01*
X+7104260Y-2540000D02*
X+6705600Y-2540000D01*
X+6692900Y-2552700D01*
X+6675120Y-2552700D01*
X+1625600Y-533400D02*
X+1231899Y-533400D01*
X+1036320Y-728979D01*
X+1036320Y-3796320D01*
X+2030440Y-4790440D01*
X+7388861Y-4790440D01*
X+7607300Y-4572001D01*
X+7607300Y-762000D01*
X+7360926Y-515626D01*
X+6680194Y-515626D01*
X+6675120Y-520700D01*
X+1879600Y-1803400D02*
X+4191000Y-1803400D01*
X+4216400Y-1828800D01*
X+7213600Y-1802359D02*
X+6686779Y-1802359D01*
X+6675120Y-1790700D01*
X+5488940Y+4396740D02*
X+5336540Y+4295140D01*
X+5255948Y+4295140D01*
X+5198679Y+4352409D01*
X+5198679Y+4349869D01*
X+1879600Y-2819400D02*
X+3154955Y-2819400D01*
X+3157093Y-2821538D01*
X+3160162Y-2821538D01*
X+3162300Y-2819400D01*
X+7104260Y-2832100D02*
X+6700520Y-2832100D01*
X+6675120Y-2806700D01*
X+1625600Y-2057400D02*
X+1358900Y-2057400D01*
X+698500Y-2049920D02*
X-981023Y-2049920D01*
X-1235023Y-2303920D01*
X-1498650Y-2303920D01*
X-1530770Y-2336040D01*
X+4182491Y-2392421D02*
X+4998979Y-2392421D01*
X+5346700Y-2044700D01*
X+6421120Y-2044700D01*
X-1098950Y-4309510D02*
X+292705Y-4309510D01*
X+305670Y-4309510D01*
X+312420Y-4302760D01*
X-3053080Y-2382520D02*
X-3226335Y-2382520D01*
X-3395044Y-2551229D01*
X-3395044Y-3480736D01*
X-2839195Y-4036585D01*
X-1371875Y-4036585D01*
X-1098950Y-4309510D01*
X+292705Y-4309510D02*
X+312420Y-4302760D01*
X-2393004Y+4002716D02*
X-2187588Y+3797300D01*
X-1718656Y+3797300D01*
X-867670Y+2946314D01*
X+1614408Y+2946314D01*
X-2655154Y+3898046D02*
X-2655154Y+3900586D01*
X-2417234Y+3662666D01*
X-1831327Y+3662666D01*
X-1010921Y+2842260D01*
X+1447800Y+2842260D01*
X+1493520Y+2796540D01*
X+4826000Y+2796540D01*
X+4988560Y+2959100D01*
X+5242560Y+2959100D01*
X+5405201Y+3121741D01*
X+5512458Y+3121741D01*
X+5488940Y+3126740D01*
X+1625600Y-1041400D02*
X+1374964Y-1041400D01*
X+1371301Y-1045063D01*
X-4871720Y+4635500D02*
X+4727535Y+4635500D01*
X+4842743Y+4750708D01*
X+6783432Y+4750708D01*
X+7543800Y+3990340D01*
X+7543800Y+3223260D01*
X+7825929Y+2941131D01*
X+7825929Y+932369D01*
X+7569200Y+675640D01*
X+7569200Y-397338D01*
X+7536395Y-430143D01*
X+7244080Y-1018540D02*
X+6685279Y-1018540D01*
X+6675119Y-1028700D01*
X+6675120Y-1028700D01*
X+1640840Y+4483100D02*
X+1649463Y+4474477D01*
X+2383932Y+4474477D01*
X+4695851Y+3466103D02*
X+5152649Y+3466103D01*
X+5168893Y+3482347D01*
X+6935635Y+3901846D02*
X+7337654Y+3901846D01*
X+7360920Y+3878580D01*
X+6860540Y+2362200D02*
X+6842760Y+2362200D01*
X+6842760Y+1993900D01*
X+6396062Y+1993900D01*
X+6396062Y+1735852D01*
X+6421120Y+1765300D01*
X+6675120Y+1765300D02*
X+7106403Y+1765300D01*
X+7159092Y+1712611D01*
X-2374900Y+3241048D02*
X-1986288Y+3241048D01*
X-1353820Y+2608580D01*
X+1219200Y+2608580D01*
X+1609155Y+2218625D01*
X+4937760Y+2222500D01*
X+5201920Y+2390140D02*
X+5097780Y+2397760D01*
X+5201834Y+2387692D01*
X+5097780Y+2397760D01*
X+1948113Y+2397760D01*
X+1937697Y+2387279D01*
X+1879600Y-3073400D02*
X+2032000Y-3073400D01*
X+2133023Y-2972377D01*
X+2560781Y-2972377D01*
X+2662058Y-3073654D01*
X+7066463Y-3099749D02*
X+6714169Y-3099749D01*
X+6675120Y-3060700D01*
X+1625600Y-1803400D02*
X+1346951Y-1803400D01*
X+714630Y-1814117D02*
X-1735377Y-1814117D01*
X-1747520Y-1826260D01*
X-2866596Y-1840262D02*
X-3508116Y-1840262D01*
X-3577550Y-1770828D01*
X-5288280Y+4777740D02*
X+2135079Y+4777740D01*
X+2152187Y+4794848D01*
X+1879600Y+736600D02*
X+2997200Y+736600D01*
X+1879600Y-1549400D02*
X+4490720Y-1549400D01*
X+4678680Y-1737360D01*
X+4752591Y-4306803D02*
X+5132284Y-4306803D01*
X+5306853Y-4481372D01*
X+7235077Y-1535980D02*
X+6675840Y-1535980D01*
X+6675120Y-1536700D01*
X+1625600Y+736600D02*
X+1428702Y+736600D01*
X+1401557Y+763745D01*
X+1401557Y+1097241D01*
X+1519817Y+1215501D01*
X+3017520Y+1215501D01*
X+3011913Y+1225829D01*
X+3007360Y+1224280D01*
X-406400Y+1498600D02*
X-406400Y+1715729D01*
X-407216Y+1716545D01*
X-152400Y+1498600D02*
X-152400Y+1714796D01*
X-133546Y+1733650D01*
X+101600Y+1498600D02*
X+101600Y+1738639D01*
X+121046Y+1758085D01*
X-2692400Y-3327400D02*
X-2692400Y-1422424D01*
X-3001818Y-1113006D01*
X-2984500Y+2476500D01*
X-2984500Y+2921000D01*
X-2712360Y+3101390D02*
X-2712360Y+2981658D01*
X-2891956Y+2802062D01*
X-2891956Y+1023208D01*
X-2895600Y+1019564D01*
X-2895600Y-952500D01*
X-2908908Y-952500D01*
X-2438400Y-1423008D01*
X-2438400Y-3327400D01*
D11*
X-3543300Y+2133600D02*
X-3197202Y+2479698D01*
X-3197202Y+2732424D01*
D10*
X+863600Y+1498600D02*
X+863600Y+1747024D01*
X+854829Y+1755795D01*
X+1625600Y-25400D02*
X+1524000Y-25400D01*
X+825500Y+673100D01*
X+825500Y+1219200D01*
X+3435350Y+1585618D02*
X+3454450Y+1566518D01*
X+3454450Y+437630D01*
X+3799887Y+92193D01*
X+7200900Y+1257300D02*
X+6675120Y+1257300D01*
X+7137400Y+2654300D02*
X+7080447Y+2597347D01*
X+7080447Y+2097256D01*
X+7161044Y+2097256D01*
X+7302500Y+1955800D01*
X+7195765Y-217114D02*
X+6724706Y-217114D01*
X+6675120Y-266700D01*
X+5089301Y+1631804D02*
X+5092251Y+1634754D01*
X+5100767Y+1643270D01*
X+5164259Y+1706762D01*
X+5089301Y+1631804D02*
X+5088832Y+1636212D01*
X+5092251Y+1634754D01*
X+5164259Y+1706762D02*
X+5389880Y+1917795D01*
X+5583387Y+2082681D01*
X+1625600Y-279400D02*
X+1423812Y-279400D01*
X+1200542Y-56130D01*
X+4993640Y+142240D02*
X+4993640Y+312122D01*
X+5092700Y+411182D01*
X+5092700Y+1628405D01*
X+5089301Y+1631804D01*
X-1930400Y-3327400D02*
X-1930400Y+108109D01*
X-1419827Y+618682D01*
X-1334305Y+618682D01*
X-731520Y+1221467D01*
X-731520Y+2083862D01*
X-245421Y+2083862D01*
X-62004Y+2267279D01*
X+546100Y+2260600D01*
X-625216Y+3720724D02*
X-26498Y+3720724D01*
X+24737Y+3669489D01*
X+1295400Y+3670300D01*
X+4639591Y+3254388D02*
X+5067629Y+3254388D01*
X+5072332Y+3249685D01*
X+5087620Y+2659380D02*
X+5163655Y+2649220D01*
X+5948830Y+2649220D01*
X+6459925Y+3160315D01*
X+6459925Y+3282611D01*
X+6205220Y+3883660D02*
X+6172999Y+3913282D01*
X+5767482Y+3913282D01*
X+5742940Y+3888740D01*
X+2368454Y+1735158D02*
X+2439783Y+1663829D01*
X+3311554Y+1663829D01*
X+3375004Y+1727279D01*
X+3493510Y+1727279D01*
X+3575011Y+1645778D01*
X+3575011Y+514610D01*
X+4169616Y-79995D01*
X+5658700Y-79995D01*
X+5670852Y-92147D01*
X+6017226Y-1709043D02*
X+6098883Y-1790700D01*
X+6421120Y-1790700D01*
X+904183Y+3119177D02*
X+990600Y+3119177D01*
X+2043281Y+3119177D01*
X+2092960Y+3069498D01*
X+609600Y+1498600D02*
X+609600Y+1750066D01*
X+603871Y+1755795D01*
X+1750060Y+2387279D02*
X+1937632Y+2387279D01*
X+1937697Y+2387279D01*
X+1948113Y+2397760D02*
X+1937632Y+2387279D01*
D12*
X-1940031Y+1760529D03*
X-1700570Y+1743425D03*
X-1433478Y+1733650D03*
X-1168360Y+1750754D03*
X-922320Y+1758085D03*
X+3003184Y+482339D03*
X+2981521Y+187273D03*
X+2692400Y+1409700D03*
X+2968193Y-129926D03*
X+5867400Y+1498600D03*
X-1062724Y+3828137D03*
X+352233Y+1749233D03*
X+5763260Y+1010920D03*
X+1041400Y+1117600D03*
X+76200Y+3819055D03*
D13*
X-714659Y+2450221D03*
X+1012174Y+2431947D03*
D12*
X-5080000Y+3937000D03*
X-3427500Y+2620963D03*
X-787400Y+4127500D03*
X+3898896Y+4134990D03*
X+4592320Y+3848100D03*
X+1371600Y-3073400D03*
X+5539121Y-3191700D03*
X+1371600Y-2819400D03*
X+5429710Y-2901913D03*
X+3949700Y-2552700D03*
X+4013200Y-3583940D03*
X+3788598Y+1642534D03*
X+4652903Y+154988D03*
X+4053181Y+1642534D03*
X+4411838Y+160867D03*
X+1371600Y-2311306D03*
X+711200Y-2323783D03*
X+810000Y-4260000D03*
X+3789220Y-2789761D03*
X+1377606Y-1548604D03*
X+4888817Y-1391343D03*
X+1371600Y-2565400D03*
X+736600Y-2565400D03*
X+700000Y-3860000D03*
X+3619500Y-3086100D03*
X+1373665Y-1302215D03*
X+5118327Y-1289586D03*
X+5753100Y+1270000D03*
D13*
X+2214880Y+1562100D03*
X+2235200Y+965200D03*
D12*
X+6235700Y+3162300D03*
X-1991618Y+4002782D03*
X+2092960Y+3069498D03*
X+6072206Y+1813290D03*
X+5439833Y+839376D03*
X-3393416Y+4064024D03*
X+5343897Y+351297D03*
X+200660Y+4300220D03*
X+2882900Y+4297680D03*
X+7386515Y+2691423D03*
X-3152464Y+4089077D03*
X-4244340Y+3131820D03*
X-4832060Y+2788014D03*
X-4815597Y+2134199D03*
X-645764Y+1019421D03*
X-4511040Y+4373880D03*
X-5134996Y+2479696D03*
X-2519680Y+2184400D03*
X+5419201Y+608214D03*
X-255594Y+3988687D03*
X+1614408Y+2949192D03*
X+2747234Y+1803433D03*
X-1553697Y+3970803D03*
X+3027773Y+3556000D03*
X+3172820Y+4318012D03*
X+6852825Y+4238601D03*
X+6229585Y+4326795D03*
X+5664200Y+2379980D03*
X+6547681Y+3704839D03*
X+6633757Y+3909634D03*
X+6964105Y+3638702D03*
X+4413584Y-2152119D03*
X+4413584Y-3766820D03*
X+3498041Y-2675854D03*
X+7104260Y-2540000D03*
X+4216400Y-1828800D03*
X+7213600Y-1802359D03*
X+5198679Y+4349869D03*
X+3162300Y-2819400D03*
X+7104260Y-2832100D03*
X+1358900Y-2057400D03*
X+698500Y-2049920D03*
X-1530770Y-2336040D03*
X-3053080Y-2382520D03*
X+312420Y-4302760D03*
X+4182491Y-2392421D03*
X-2393004Y+4002716D03*
X-2655154Y+3898046D03*
X+1371301Y-1045063D03*
X-4871720Y+4635500D03*
X+7536395Y-430143D03*
X+7244080Y-1018540D03*
X+1640840Y+4483100D03*
X+2383932Y+4474477D03*
X+4695851Y+3466103D03*
X+5168893Y+3482347D03*
X+6935635Y+3901846D03*
X+7360920Y+3878580D03*
X+6860540Y+2362200D03*
X+7159092Y+1712611D03*
X+5201920Y+2390140D03*
X+1750060Y+2387279D03*
X-2374900Y+3241048D03*
X+4937760Y+2222500D03*
X+2662058Y-3073654D03*
X+7066463Y-3099749D03*
X+1346951Y-1803400D03*
X+714630Y-1814117D03*
X-1747520Y-1826260D03*
X-2866596Y-1840262D03*
X-3577550Y-1770828D03*
X-5288280Y+4777740D03*
X+2152187Y+4794848D03*
X+2997200Y+736600D03*
X+4678680Y-1737360D03*
X+4752591Y-4306803D03*
X+5306853Y-4481372D03*
X+7235077Y-1535980D03*
X+3007360Y+1224280D03*
X-407216Y+1716545D03*
X-133546Y+1733650D03*
X+121046Y+1758085D03*
X-2984500Y+2921000D03*
X-2712360Y+3101390D03*
D13*
X-3197202Y+2732424D03*
D12*
X+854829Y+1755795D03*
X+825500Y+1219200D03*
X+3435350Y+1585618D03*
X+3799887Y+92193D03*
X+7200900Y+1257300D03*
X+5583387Y+2082681D03*
X+7137400Y+2654300D03*
X+7302500Y+1955800D03*
X+7195765Y-217114D03*
X+1200542Y-56130D03*
X+4993640Y+142240D03*
X+546100Y+2260600D03*
X-625216Y+3720724D03*
X+1295400Y+3670300D03*
X+4639591Y+3254388D03*
X+5072332Y+3249685D03*
X+5087620Y+2659380D03*
X+6459925Y+3282611D03*
X+6205220Y+3883660D03*
X+2368454Y+1735158D03*
X+5670852Y-92147D03*
X+6017226Y-1709043D03*
X+990600Y+3119177D03*
X+1113100Y+1740981D03*
X+603871Y+1755795D03*
D11*
X-5472429Y+4854017D02*
X-5472429Y+4701463D01*
X-5364557Y+4593591D01*
X-5212003Y+4593591D01*
X-5148503Y+4657091D01*
X-5055869Y+4657091D01*
X-5055869Y+4559223D01*
X-4947997Y+4451351D01*
X-4850391Y+4451351D01*
X-4850091Y+4211961D01*
X-4822475Y+4159402D01*
X-4575342Y+3988705D01*
X-4658203Y+3905844D01*
X-4895851Y+3905844D01*
X-4895851Y+4013277D01*
X-5003723Y+4121149D01*
X-5156277Y+4121149D01*
X-5257877Y+4019549D01*
X-6687562Y+4019549D01*
X-6763762Y+4095749D01*
X-6926838Y+4095749D01*
X-7042149Y+3980438D01*
X-7042149Y+3817362D01*
X-6990336Y+3765549D01*
X-7195562Y+3765549D01*
X-7271762Y+3841749D01*
X-7434838Y+3841749D01*
X-7550149Y+3726438D01*
X-7550149Y+3563362D01*
X-7434838Y+3448051D01*
X-7271762Y+3448051D01*
X-7195562Y+3524251D01*
X-6593013Y+3524251D01*
X-5427810Y+2359048D01*
X-5274774Y+2359048D01*
X-5211273Y+2295547D01*
X-5058719Y+2295547D01*
X-4952709Y+2401557D01*
X-4952709Y+2257513D01*
X-4999746Y+2210476D01*
X-4999746Y+2057922D01*
X-4891874Y+1950050D01*
X-4739320Y+1950050D01*
X-4631448Y+2057922D01*
X-4631448Y+2210476D01*
X-4711411Y+2290439D01*
X-4711411Y+2648237D01*
X-4647911Y+2711737D01*
X-4647911Y+2864291D01*
X-4755783Y+2972163D01*
X-4908337Y+2972163D01*
X-5016209Y+2864291D01*
X-5016209Y+2711737D01*
X-4952709Y+2648237D01*
X-4952709Y+2557835D01*
X-5058719Y+2663845D01*
X-5211273Y+2663845D01*
X-5274774Y+2600344D01*
X-5327862Y+2600344D01*
X-6493067Y+3765549D01*
X-6700264Y+3765549D01*
X-6687562Y+3778251D01*
X-6228336Y+3778251D01*
X-6280149Y+3726438D01*
X-6280149Y+3563362D01*
X-6164838Y+3448051D01*
X-6001762Y+3448051D01*
X-5931912Y+3517901D01*
X-4929116Y+3517901D01*
X-4795171Y+3651846D01*
X-4646693Y+3651846D01*
X-4610099Y+3615252D01*
X-4610099Y+1953997D01*
X-4370603Y+1714501D01*
X-3835399Y+1714501D01*
X-3835399Y+1708149D01*
X-5187949Y+1708149D01*
X-5187949Y+1289051D01*
X-4089399Y+1289051D01*
X-4089398Y+370104D01*
X-4151790Y+307712D01*
X-6656604Y+307712D01*
X-6908799Y+55517D01*
X-6908799Y-3777270D01*
X-7029449Y-3897920D01*
X-7029449Y-4103080D01*
X-6884380Y-4248149D01*
X-6679220Y-4248149D01*
X-6534151Y-4103080D01*
X-6534151Y-3897920D01*
X-6654801Y-3777270D01*
X-6654801Y-49689D01*
X-6551396Y+53716D01*
X-4046582Y+53716D01*
X-3835402Y+264896D01*
X-3835402Y+317500D01*
X-3835401Y+1289051D01*
X-3835399Y+1289051D01*
X-3835399Y-181856D01*
X-5257799Y-1604256D01*
X-5257799Y-3117851D01*
X-6102349Y-3117851D01*
X-6102349Y-3536949D01*
X-6013449Y-3536949D01*
X-6013449Y-4558473D01*
X-5942773Y-4629149D01*
X-5550727Y-4629149D01*
X-5353051Y-4431473D01*
X-5353051Y-4417615D01*
X-5344717Y-4425949D01*
X-5202683Y-4425949D01*
X-5102251Y-4325517D01*
X-5102251Y-4262653D01*
X-5003801Y-4164203D01*
X-5003801Y-3536949D01*
X-3509453Y-3536949D01*
X-2889168Y-4157234D01*
X-1421848Y-4157234D01*
X-1148924Y-4430159D01*
X+179393Y-4430159D01*
X+236143Y-4486909D01*
X+388697Y-4486909D01*
X+496569Y-4379037D01*
X+496569Y-4249568D01*
X+550189Y-4347058D01*
X+607002Y-4380649D01*
X+670223Y-4380649D01*
X+733723Y-4444149D01*
X+886277Y-4444149D01*
X+994149Y-4336277D01*
X+994149Y-4183723D01*
X+886277Y-4075851D01*
X+733723Y-4075851D01*
X+696747Y-4112827D01*
X+658974Y-4044149D01*
X+776277Y-4044149D01*
X+884149Y-3936277D01*
X+884149Y-3783723D01*
X+776277Y-3675851D01*
X+623723Y-3675851D01*
X+560223Y-3739351D01*
X-767693Y-3739351D01*
X-970219Y-3536949D01*
X+915671Y-3536949D01*
X+915671Y-3846293D01*
X+1963968Y-4894590D01*
X-7894590Y-4894590D01*
X-7894590Y+4894590D01*
X-5431856Y+4894590D01*
X-5472429Y+4854017D01*
X-6884380Y-4260851D02*
X-6679220Y-4260851D01*
X-6534151Y-4405920D01*
X-6534151Y-4611080D01*
X-6679220Y-4756149D01*
X-6884380Y-4756149D01*
X-7029449Y-4611080D01*
X-7029449Y-4405920D01*
X-6884380Y-4260851D01*
X-7816849Y-4516017D02*
X-7816849Y-4373983D01*
X-7716417Y-4273551D01*
X-7574383Y-4273551D01*
X-7473951Y-4373983D01*
X-7473951Y-4516017D01*
X-7574383Y-4616449D01*
X-7716417Y-4616449D01*
X-7816849Y-4516017D01*
X-7816849Y+4373983D02*
X-7816849Y+4516017D01*
X-7716417Y+4616449D01*
X-7574383Y+4616449D01*
X-7473951Y+4516017D01*
X-7473951Y+4373983D01*
X-7574383Y+4273551D01*
X-7716417Y+4273551D01*
X-7816849Y+4373983D01*
X+7894590Y+3043092D02*
X+7664449Y+3273233D01*
X+7664449Y+4040313D01*
X+6833405Y+4871357D01*
X+4792770Y+4871357D01*
X+4677562Y+4756149D01*
X+2336336Y+4756149D01*
X+2336336Y+4871125D01*
X+2312871Y+4894590D01*
X+7894590Y+4894590D01*
X+7894590Y+3043092D01*
X+7550151Y+4577183D02*
X+7550151Y+4719217D01*
X+7650583Y+4819649D01*
X+7792617Y+4819649D01*
X+7893049Y+4719217D01*
X+7893049Y+4577183D01*
X+7792617Y+4476751D01*
X+7650583Y+4476751D01*
X+7550151Y+4577183D01*
X+7894590Y-4362824D02*
X+7805317Y-4273551D01*
X+7727949Y-4273551D01*
X+7727949Y-712027D01*
X+7621443Y-605521D01*
X+7720544Y-506420D01*
X+7720544Y-353866D01*
X+7689849Y-323171D01*
X+7689849Y+625667D01*
X+7894590Y+830408D01*
X+7894590Y-4362824D01*
X+7894590Y-4894590D02*
X+7455333Y-4894590D01*
X+7727949Y-4621974D01*
X+7727949Y-4616449D01*
X+7805317Y-4616449D01*
X+7894590Y-4527176D01*
X+7894590Y-4894590D01*
X+3253283Y+4497975D02*
X+3249097Y+4502161D01*
X+3096543Y+4502161D01*
X+3017694Y+4423312D01*
X+2959177Y+4481829D01*
X+2806623Y+4481829D01*
X+2743299Y+4418505D01*
X+2568081Y+4418668D01*
X+2568081Y+4514851D01*
X+3290395Y+4514851D01*
X+3253283Y+4497975D01*
X+6089808Y+4447444D02*
X+5952489Y+4447444D01*
X+5952489Y+4451351D01*
X+6093715Y+4451351D01*
X+6089808Y+4447444D01*
X+1456691Y+4419705D02*
X+340524Y+4420782D01*
X+276937Y+4484369D01*
X+124383Y+4484369D01*
X+16511Y+4376497D01*
X+16511Y+4249499D01*
X-647923Y+4248449D01*
X-711123Y+4311649D01*
X-863677Y+4311649D01*
X-971549Y+4203777D01*
X-971549Y+4051223D01*
X-863677Y+3943351D01*
X-711123Y+3943351D01*
X-647478Y+4006996D01*
X-439743Y+4007332D01*
X-439743Y+3912410D01*
X-368706Y+3841373D01*
X-485439Y+3841373D01*
X-548939Y+3904873D01*
X-701493Y+3904873D01*
X-809365Y+3797001D01*
X-809365Y+3747940D01*
X-878575Y+3817150D01*
X-878575Y+3904414D01*
X-986447Y+4012286D01*
X-1139001Y+4012286D01*
X-1246873Y+3904414D01*
X-1246873Y+3834601D01*
X-1369548Y+3957276D01*
X-1369548Y+4047080D01*
X-1477420Y+4154952D01*
X-1629974Y+4154952D01*
X-1737846Y+4047080D01*
X-1737846Y+4004309D01*
X-1807469Y+4004309D01*
X-1807469Y+4079059D01*
X-1915341Y+4186931D01*
X-2067895Y+4186931D01*
X-2175767Y+4079059D01*
X-2175767Y+3956101D01*
X-2208855Y+3989189D01*
X-2208855Y+4078993D01*
X-2316727Y+4186865D01*
X-2469281Y+4186865D01*
X-2576414Y+4079732D01*
X-2578877Y+4082195D01*
X-2731431Y+4082195D01*
X-2839303Y+3974323D01*
X-2839303Y+3821769D01*
X-2731431Y+3713897D01*
X-2639087Y+3713897D01*
X-2531614Y+3606424D01*
X-2765194Y+3606424D01*
X-3069942Y+3911172D01*
X-2968315Y+4012800D01*
X-2968315Y+4165354D01*
X-3076187Y+4273226D01*
X-3165991Y+4273226D01*
X-3219654Y+4326889D01*
X-3737467Y+4326889D01*
X-3756744Y+4307612D01*
X-3903457Y+4454325D01*
X-3903457Y+4514851D01*
X+1456691Y+4514851D01*
X+1456691Y+4419705D01*
X+5014530Y+4273592D02*
X+5016620Y+4271502D01*
X+4904404Y+4271502D01*
X+5014530Y+4381628D01*
X+5014530Y+4273592D01*
X+3791670Y+4288190D02*
X+3758974Y+4255494D01*
X+3356969Y+4254844D01*
X+3356969Y+4273307D01*
X+3384251Y+4288749D01*
X+3791670Y+4288190D01*
X+4398675Y+4287357D02*
X+4220654Y+4109336D01*
X+4083045Y+4109336D01*
X+4083045Y+4211267D01*
X+4006417Y+4287895D01*
X+4398675Y+4287357D01*
X-4184550Y+4035701D02*
X-4184550Y+4032063D01*
X-4213538Y+4032063D01*
X-4305601Y+4095652D01*
X-4244501Y+4095652D01*
X-4184550Y+4035701D01*
X+7300789Y+4062729D02*
X+7284643Y+4062729D01*
X+7244409Y+4022495D01*
X+7075412Y+4022495D01*
X+7011912Y+4085995D01*
X+6960645Y+4085995D01*
X+7036974Y+4162324D01*
X+7036974Y+4314878D01*
X+6929102Y+4422750D01*
X+6776548Y+4422750D01*
X+6668676Y+4314878D01*
X+6668676Y+4162324D01*
X+6673851Y+4157149D01*
X+6673851Y+4093783D01*
X+6638289Y+4093783D01*
X+6638289Y+4630059D01*
X+6733459Y+4630059D01*
X+7300789Y+4062729D01*
X+6352992Y+3996314D02*
X+6332295Y+4017011D01*
X+6373688Y+4017011D01*
X+6352992Y+3996314D01*
X+5279391Y+4009389D02*
X+5225607Y+4009389D01*
X+5149407Y+3933189D01*
X+4767657Y+3933189D01*
X+4670642Y+4030204D01*
X+5279391Y+4030204D01*
X+5279391Y+4009389D01*
X-107949Y+3841373D02*
X-142482Y+3841373D01*
X-115817Y+3868038D01*
X-107949Y+3868038D01*
X-107949Y+3841373D01*
X-2344225Y+3783315D02*
X-2367261Y+3783315D01*
X-2402513Y+3818567D01*
X-2379477Y+3818567D01*
X-2344225Y+3783315D01*
X-5175325Y+3771899D02*
X-5931912Y+3771899D01*
X-5938264Y+3778251D01*
X-5181677Y+3778251D01*
X-5175325Y+3771899D01*
X+6073065Y+3755389D02*
X+5952489Y+3755389D01*
X+5952489Y+3792633D01*
X+6035821Y+3792633D01*
X+6073065Y+3755389D01*
X-891358Y+3488689D02*
X-900961Y+3488689D01*
X-1056260Y+3643988D01*
X-1046657Y+3643988D01*
X-891358Y+3488689D01*
X+6685140Y+3414062D02*
X+6637020Y+3365942D01*
X+6536202Y+3466760D01*
X+6512663Y+3466760D01*
X+6566593Y+3520690D01*
X+6623958Y+3520690D01*
X+6685140Y+3581872D01*
X+6685140Y+3414062D01*
X-2059118Y+3361697D02*
X-2235123Y+3361697D01*
X-2238552Y+3365126D01*
X-2062547Y+3365126D01*
X-2059118Y+3361697D01*
X-4350634Y+3285952D02*
X-4356101Y+3280485D01*
X-4356101Y+3615252D01*
X-4350634Y+3620719D01*
X-4350634Y+3285952D01*
X+7284643Y+3694431D02*
X+7423151Y+3694431D01*
X+7423151Y+3255009D01*
X+6986712Y+3255009D01*
X+7004049Y+3272346D01*
X+7004049Y+3454553D01*
X+7040382Y+3454553D01*
X+7148254Y+3562425D01*
X+7148254Y+3714979D01*
X+7082036Y+3781197D01*
X+7197877Y+3781197D01*
X+7284643Y+3694431D01*
X-2900478Y+3400464D02*
X-2865140Y+3365126D01*
X-2511248Y+3365126D01*
X-2559049Y+3317325D01*
X-2559049Y+3208505D01*
X-2636083Y+3285539D01*
X-2788637Y+3285539D01*
X-2896509Y+3177667D01*
X-2896509Y+3093435D01*
X-2908223Y+3105149D01*
X-3060777Y+3105149D01*
X-3168649Y+2997277D01*
X-3168649Y+2903873D01*
X-3268219Y+2903873D01*
X-3346451Y+2825641D01*
X-3346451Y+2977138D01*
X-3461762Y+3092449D01*
X-3624838Y+3092449D01*
X-3670300Y+3046987D01*
X-3676651Y+3053338D01*
X-3676651Y+3404427D01*
X-3506027Y+3575051D01*
X-3380302Y+3575051D01*
X-3257551Y+3697802D01*
X-3257551Y+3757537D01*
X-2900478Y+3400464D01*
X+4511702Y+3542380D02*
X+4511702Y+3389826D01*
X+4513152Y+3388376D01*
X+4455442Y+3330665D01*
X+4455442Y+3191509D01*
X+3813242Y+3191509D01*
X+3491770Y+3512981D01*
X+3211922Y+3512981D01*
X+3211922Y+3564892D01*
X+4534214Y+3564892D01*
X+4511702Y+3542380D01*
X+770891Y+3119177D02*
X+770891Y+3069203D01*
X+773131Y+3066963D01*
X-817697Y+3066963D01*
X-901605Y+3150871D01*
X+770891Y+3150871D01*
X+770891Y+3119177D01*
X-4144755Y+4354379D02*
X-3806717Y+4016341D01*
X-3706771Y+4016341D01*
X-3637521Y+4085591D01*
X-3577565Y+4085591D01*
X-3577565Y+3987747D01*
X-3568932Y+3979114D01*
X-3676649Y+3871398D01*
X-3676649Y+3745673D01*
X-3917949Y+3504373D01*
X-3917949Y+3053338D01*
X-3924300Y+3046987D01*
X-3943252Y+3065939D01*
X-3943252Y+4135647D01*
X-4144554Y+4336950D01*
X-4303488Y+4336950D01*
X-4326891Y+4360353D01*
X-4326891Y+4402519D01*
X-4144755Y+4402519D01*
X-4144755Y+4354379D01*
X+6051551Y+3148773D02*
X+5977532Y+3074754D01*
X+5977532Y+2993389D01*
X+5952489Y+2993389D01*
X+5952489Y+3091518D01*
X+6051551Y+3190580D01*
X+6051551Y+3148773D01*
X+3574687Y+3088820D02*
X+3627544Y+3035963D01*
X+3627544Y+3015806D01*
X+3698219Y+2945131D01*
X+3798167Y+2945131D01*
X+3803247Y+2950211D01*
X+4809049Y+2950211D01*
X+4776027Y+2917189D01*
X+2201077Y+2917189D01*
X+2277109Y+2993221D01*
X+2277109Y+3145775D01*
X+2169237Y+3253647D01*
X+2016683Y+3253647D01*
X+2002862Y+3239826D01*
X+1703568Y+3239826D01*
X+1735425Y+3271683D01*
X+3391824Y+3271683D01*
X+3574687Y+3088820D01*
X+1908811Y+2993221D02*
X+1984843Y+2917189D01*
X+1798557Y+2917189D01*
X+1798557Y+2998528D01*
X+1908811Y+2998528D01*
X+1908811Y+2993221D01*
X-1210752Y+2871469D02*
X-1224905Y+2871469D01*
X-1741579Y+3388143D01*
X-1744320Y+3388143D01*
X-1898194Y+3542017D01*
X-1881300Y+3542017D01*
X-1210752Y+2871469D01*
X-3917949Y+2737862D02*
X-3917949Y+2589973D01*
X-4171948Y+2335974D01*
X-4171948Y+2330449D01*
X-4356101Y+2330449D01*
X-4356101Y+2698751D01*
X-4223762Y+2698751D01*
X-4178300Y+2744213D01*
X-4132838Y+2698751D01*
X-3969762Y+2698751D01*
X-3924300Y+2744213D01*
X-3917949Y+2737862D01*
X-3624838Y+2698751D02*
X-3610138Y+2698751D01*
X-3611649Y+2697240D01*
X-3611649Y+2607436D01*
X-3676651Y+2542434D01*
X-3676651Y+2737862D01*
X-3670300Y+2744213D01*
X-3624838Y+2698751D01*
X+6953251Y+2578023D02*
X+6959799Y+2571475D01*
X+6959799Y+2523367D01*
X+6936817Y+2546349D01*
X+6815042Y+2546349D01*
X+6953251Y+2684558D01*
X+6953251Y+2578023D01*
X+4968165Y+2518409D02*
X+1898139Y+2518409D01*
X+1888748Y+2509018D01*
X+1853954Y+2543811D01*
X+4936160Y+2543811D01*
X+4939462Y+2547112D01*
X+4968165Y+2518409D01*
X+1565911Y+2463556D02*
X+1565911Y+2432491D01*
X+1454591Y+2543811D01*
X+1646166Y+2543811D01*
X+1565911Y+2463556D01*
X+1234110Y+2423048D02*
X+1183623Y+2423048D01*
X+1183623Y+2473535D01*
X+1234110Y+2423048D01*
X-3526053Y+2330449D02*
X-3547392Y+2330449D01*
X-3441027Y+2436814D01*
X-3419688Y+2436814D01*
X-3526053Y+2330449D01*
X-2451177Y+3056899D02*
X-2298623Y+3056899D01*
X-2235123Y+3120399D01*
X-2036261Y+3120399D01*
X-1403793Y+2487931D01*
X-886108Y+2487931D01*
X-886108Y+2379204D01*
X-811953Y+2305049D01*
X-2379903Y+2305049D01*
X-2443403Y+2368549D01*
X-2595957Y+2368549D01*
X-2703829Y+2260677D01*
X-2703829Y+2108123D01*
X-2595957Y+2000251D01*
X-2443403Y+2000251D01*
X-2379903Y+2063751D01*
X-852169Y+2063751D01*
X-852169Y+1942234D01*
X-998597Y+1942234D01*
X-1049006Y+1891826D01*
X-1092083Y+1934903D01*
X-1244637Y+1934903D01*
X-1309471Y+1870069D01*
X-1357201Y+1917799D01*
X-1509755Y+1917799D01*
X-1562136Y+1865418D01*
X-1624293Y+1927574D01*
X-1776847Y+1927574D01*
X-1811748Y+1892672D01*
X-1863754Y+1944678D01*
X-2016308Y+1944678D01*
X-2124180Y+1836806D01*
X-2124180Y+1708149D01*
X-2771307Y+1708149D01*
X-2771307Y+2752089D01*
X-2591711Y+2931685D01*
X-2591711Y+2961613D01*
X-2528211Y+3025113D01*
X-2528211Y+3133933D01*
X-2451177Y+3056899D01*
X-295395Y+2204510D02*
X-497383Y+2204510D01*
X-413517Y+2288376D01*
X-211529Y+2288376D01*
X-295395Y+2204510D01*
X+7310238Y+2507274D02*
X+7352882Y+2507274D01*
X+7359651Y+2371895D01*
X+7359651Y+2139949D01*
X+7288973Y+2139949D01*
X+7211017Y+2217905D01*
X+7201095Y+2217905D01*
X+7201095Y+2470151D01*
X+7213677Y+2470151D01*
X+7280519Y+2536993D01*
X+7310238Y+2507274D01*
X+405237Y+2141037D02*
X+422663Y+2123611D01*
X-35050Y+2123611D01*
X-12629Y+2146032D01*
X+405237Y+2141037D01*
X+780553Y+2181750D02*
X+1310308Y+2181750D01*
X+1428309Y+2063749D01*
X+1194386Y+2063749D01*
X+1134524Y+2123611D01*
X+669537Y+2123611D01*
X+730249Y+2184323D01*
X+730249Y+2232054D01*
X+780553Y+2181750D01*
X-3682999Y+1968499D02*
X-3684014Y+1968499D01*
X-3682999Y+1969514D01*
X-3682999Y+1968499D01*
X-3910586Y+1968499D02*
X-3938014Y+1968499D01*
X-3924300Y+1982213D01*
X-3910586Y+1968499D01*
X+6676391Y+2285923D02*
X+6722111Y+2240203D01*
X+6722111Y+2114549D01*
X+6346088Y+2114549D01*
X+6275414Y+2043875D01*
X+6275414Y+1974849D01*
X+6211571Y+1974849D01*
X+6211571Y+1934351D01*
X+6186556Y+1959366D01*
X+6561450Y+2334261D01*
X+6602954Y+2334261D01*
X+6676391Y+2407698D01*
X+6676391Y+2285923D01*
X+7030473Y+1976607D02*
X+7111071Y+1976607D01*
X+7118351Y+1969327D01*
X+7118351Y+1896760D01*
X+7082815Y+1896760D01*
X+7072004Y+1885949D01*
X+6905431Y+1885949D01*
X+6963409Y+1943927D01*
X+6963409Y+2043671D01*
X+7030473Y+1976607D01*
X-610871Y+1881311D02*
X-610871Y+1963214D01*
X-528968Y+1963214D01*
X-610871Y+1881311D01*
X+991372Y+1879678D02*
X+988737Y+1882313D01*
X+994006Y+1882313D01*
X+991372Y+1879678D01*
X-18468Y+1878998D02*
X-21783Y+1882313D01*
X-15152Y+1882313D01*
X-18468Y+1878998D01*
X-278934Y+1848688D02*
X-290592Y+1860346D01*
X-268625Y+1882313D01*
X-245309Y+1882313D01*
X-278934Y+1848688D01*
X+2563085Y+1784478D02*
X+2552603Y+1784478D01*
X+2552603Y+1811435D01*
X+2541587Y+1822451D01*
X+2563085Y+1822451D01*
X+2563085Y+1784478D01*
X-3108857Y+1708149D02*
X-3327401Y+1708149D01*
X-3327401Y+1767105D01*
X-3401795Y+1841499D01*
X-3429001Y+1841499D01*
X-3429001Y+1969512D01*
X-3346451Y+2052062D01*
X-3346451Y+2150847D01*
X-3105559Y+2391739D01*
X-3108857Y+1708149D01*
X+5942321Y+1682749D02*
X+5909940Y+1682749D01*
X+5926130Y+1698940D01*
X+5942321Y+1682749D01*
X+6974943Y+1636334D02*
X+6994963Y+1616314D01*
X+6884669Y+1616314D01*
X+6884669Y+1644651D01*
X+6974943Y+1644651D01*
X+6974943Y+1636334D01*
X+2184305Y+1811435D02*
X+2184305Y+1733549D01*
X+2143863Y+1733549D01*
X+2043431Y+1633117D01*
X+2043431Y+1491083D01*
X+2093065Y+1441449D01*
X+1581149Y+1441449D01*
X+1581149Y+1708149D01*
X+1297249Y+1708149D01*
X+1297249Y+1817258D01*
X+1292056Y+1822451D01*
X+2195321Y+1822451D01*
X+2184305Y+1811435D01*
X+6211571Y+1390652D02*
X+6211571Y+1377949D01*
X+6158673Y+1377949D01*
X+6145970Y+1390652D01*
X+6159500Y+1390652D01*
X+6211571Y+1390652D01*
X+3056643Y+1408429D02*
X+2931083Y+1408429D01*
X+2876549Y+1353895D01*
X+2876549Y+1435101D01*
X+3029971Y+1435101D01*
X+3056643Y+1408429D01*
X+7448551Y+1434273D02*
X+7366452Y+1352174D01*
X+7309942Y+1408684D01*
X+7311611Y+1410354D01*
X+7448551Y+1547294D01*
X+7448551Y+1434273D01*
X+1222789Y+1198708D02*
X+1221754Y+1197672D01*
X+1130375Y+1289051D01*
X+1313132Y+1289051D01*
X+1222789Y+1198708D01*
X+6023389Y+1171989D02*
X+6031582Y+1163796D01*
X+5893324Y+1149798D01*
X+5937249Y+1193723D01*
X+5937249Y+1258129D01*
X+6023389Y+1171989D01*
X+2879015Y+1092199D02*
X+2350667Y+1092199D01*
X+2348014Y+1094852D01*
X+2876362Y+1094852D01*
X+2879015Y+1092199D01*
X+2119733Y+1092199D02*
X+2089149Y+1092199D01*
X+2089149Y+1094852D01*
X+2122386Y+1094852D01*
X+2119733Y+1092199D01*
X+5577353Y+1402622D02*
X+5577353Y+1354679D01*
X+5568951Y+1346277D01*
X+5568951Y+1193723D01*
X+5627294Y+1135380D01*
X+5579111Y+1087197D01*
X+5579111Y+960524D01*
X+5516110Y+1023525D01*
X+5490208Y+1023525D01*
X+5490208Y+1428306D01*
X+5577353Y+1515451D01*
X+5577353Y+1402622D01*
X+7138226Y+869949D02*
X+6884669Y+869949D01*
X+6884669Y+912755D01*
X+7181032Y+912755D01*
X+7138226Y+869949D01*
X+6211571Y+869949D02*
X+5882715Y+869949D01*
X+5914944Y+902178D01*
X+6211571Y+936904D01*
X+6211571Y+869949D01*
X+5643805Y+869949D02*
X+5624387Y+869949D01*
X+5623982Y+869544D01*
X+5623982Y+889772D01*
X+5643805Y+869949D01*
X+641351Y+1142923D02*
X+704851Y+1079423D01*
X+704852Y+623126D01*
X+1199959Y+128019D01*
X+1124265Y+128019D01*
X+1016393Y+20147D01*
X+1016393Y-132407D01*
X+1124265Y-240279D01*
X+1214069Y-240279D01*
X+1373839Y-400049D01*
X+1416051Y-400049D01*
X+1416051Y-412751D01*
X+1181926Y-412751D01*
X+915671Y-679006D01*
X+915671Y-2484045D01*
X+863518Y-2431892D01*
X+895349Y-2400060D01*
X+895349Y-2247506D01*
X+828344Y-2180502D01*
X+882649Y-2126197D01*
X+882649Y-1973643D01*
X+849090Y-1940084D01*
X+898779Y-1890394D01*
X+898779Y-1737840D01*
X+790907Y-1629968D01*
X+638353Y-1629968D01*
X+574853Y-1693468D01*
X-1619886Y-1693468D01*
X-1671243Y-1642111D01*
X-1809751Y-1642111D01*
X-1809751Y+58136D01*
X-1369854Y+498033D01*
X-1284332Y+498033D01*
X-829913Y+952452D01*
X-829913Y+943144D01*
X-722041Y+835272D01*
X-569487Y+835272D01*
X-461615Y+943144D01*
X-461615Y+1095698D01*
X-525115Y+1159198D01*
X-525115Y+1289051D01*
X+641351Y+1289051D01*
X+641351Y+1142923D01*
X+1187451Y+718727D02*
X+1162049Y+740798D01*
X+1162049Y+977823D01*
X+1187451Y+1003225D01*
X+1187451Y+718727D01*
X+2866896Y+606478D02*
X+2863668Y+603249D01*
X+2089149Y+603249D01*
X+2089149Y+615951D01*
X+2857423Y+615951D01*
X+2866896Y+606478D01*
X+7131407Y+583729D02*
X+6884669Y+583729D01*
X+6884669Y+628651D01*
X+7176329Y+628651D01*
X+7131407Y+583729D01*
X+3932532Y+1502757D02*
X+3932532Y+439250D01*
X+3909247Y+462535D01*
X+3909247Y+1502757D01*
X+3920890Y+1514400D01*
X+3932532Y+1502757D01*
X+2875848Y+349249D02*
X+2089149Y+349249D01*
X+2089149Y+361951D01*
X+2863146Y+361951D01*
X+2875848Y+349249D01*
X+4968652Y+1581830D02*
X+4972051Y+1578431D01*
X+4972051Y+461155D01*
X+4872992Y+362096D01*
X+4872992Y+282018D01*
X+4829646Y+238672D01*
X+4729180Y+339137D01*
X+4576626Y+339137D01*
X+4535310Y+297821D01*
X+4488115Y+345016D01*
X+4335561Y+345016D01*
X+4289114Y+298569D01*
X+4173830Y+413853D01*
X+4173830Y+1502757D01*
X+4237330Y+1566257D01*
X+4237330Y+1682784D01*
X+4962155Y+1682784D01*
X+4968652Y+1581830D01*
X+6211571Y+539751D02*
X+6211571Y-143140D01*
X+5855001Y-143140D01*
X+5855001Y-15870D01*
X+5747129Y+92002D01*
X+5594575Y+92002D01*
X+5543227Y+40654D01*
X+5152480Y+40654D01*
X+5177789Y+65963D01*
X+5177789Y+218517D01*
X+5124223Y+272083D01*
X+5159748Y+307608D01*
X+5159748Y+275020D01*
X+5267620Y+167148D01*
X+5420174Y+167148D01*
X+5528046Y+275020D01*
X+5528046Y+427574D01*
X+5513516Y+442104D01*
X+5558978Y+487565D01*
X+5583247Y+487565D01*
X+5724333Y+628651D01*
X+6211571Y+628651D01*
X+6211571Y+539751D01*
X+4834800Y+40654D02*
X+4798995Y+40654D01*
X+4816898Y+58556D01*
X+4834800Y+40654D01*
X+2873030Y+35338D02*
X+2847510Y+9816D01*
X+2762077Y+95249D01*
X+2089149Y+95249D01*
X+2089149Y+107951D01*
X+2800417Y+107951D01*
X+2873030Y+35338D01*
X+1416051Y-88073D02*
X+1416051Y-101017D01*
X+1384691Y-69657D01*
X+1384691Y-56713D01*
X+1416051Y-88073D01*
X+3333801Y+387657D02*
X+3615738Y+105720D01*
X+3615738Y+15916D01*
X+3723610Y-91956D01*
X+3876164Y-91956D01*
X+3943560Y-24560D01*
X+4119643Y-200644D01*
X+4733234Y-200644D01*
X+4613847Y-320031D01*
X+2972008Y-320031D01*
X+2879288Y-412751D01*
X+2089149Y-412751D01*
X+2089149Y-146049D01*
X+2662131Y-146049D01*
X+2766656Y-250574D01*
X+2828415Y-250574D01*
X+2891916Y-314075D01*
X+3044470Y-314075D01*
X+3152342Y-206203D01*
X+3152342Y-53649D01*
X+3076684Y+22010D01*
X+3165670Y+110996D01*
X+3165670Y+263550D01*
X+3105246Y+323974D01*
X+3187333Y+406062D01*
X+3187333Y+558616D01*
X+3133488Y+612462D01*
X+3181349Y+660323D01*
X+3181349Y+812877D01*
X+3144072Y+850154D01*
X+3169316Y+875399D01*
X+3333801Y+1039884D01*
X+3333801Y+387657D01*
X+7448551Y-257561D02*
X+7352246Y-353866D01*
X+7352246Y-394977D01*
X+7278328Y-394977D01*
X+7379914Y-293391D01*
X+7379914Y-140837D01*
X+7272042Y-32965D01*
X+7119488Y-32965D01*
X+7055988Y-96465D01*
X+6884669Y-96465D01*
X+6884669Y+342431D01*
X+7231353Y+342431D01*
X+7448551Y+559629D01*
X+7448551Y-257561D01*
X+7113202Y-394977D02*
X+6884669Y-394977D01*
X+6884669Y-337763D01*
X+7055988Y-337763D01*
X+7113202Y-394977D01*
X+6211571Y-390320D02*
X+5022971Y-390320D01*
X+4937040Y-476251D01*
X+4798871Y-476251D01*
X+4890684Y-384438D01*
X+6211571Y-384438D01*
X+6211571Y-390320D01*
X+6211571Y-641664D02*
X+5112871Y-641664D01*
X+5122917Y-631618D01*
X+6211571Y-631618D01*
X+6211571Y-641664D01*
X+2934527Y-666751D02*
X+2089149Y-666751D01*
X+2089149Y-654049D01*
X+2947229Y-654049D01*
X+2934527Y-666751D01*
X+7486651Y-811973D02*
X+7486651Y-828251D01*
X+7301758Y-643358D01*
X+6884669Y-643358D01*
X+6884669Y-636275D01*
X+7310953Y-636275D01*
X+7486651Y-811973D01*
X+1416051Y-666752D02*
X+1323514Y-666752D01*
X+1156969Y-833297D01*
X+1156969Y-778952D01*
X+1281872Y-654049D01*
X+1416051Y-654049D01*
X+1416051Y-666752D01*
X+7104303Y-897891D02*
X+6884669Y-897891D01*
X+6884669Y-884656D01*
X+7117538Y-884656D01*
X+7104303Y-897891D01*
X+6211571Y-900026D02*
X+3321896Y-900026D01*
X+3338960Y-882962D01*
X+6211571Y-882962D01*
X+6211571Y-900026D01*
X+2959927Y-920751D02*
X+2089149Y-920751D01*
X+2089149Y-908049D01*
X+2972629Y-908049D01*
X+2959927Y-920751D01*
X+6211571Y-1168937D02*
X+5258104Y-1168937D01*
X+5230491Y-1141324D01*
X+6211571Y-1141324D01*
X+6211571Y-1168937D01*
X+2339921Y-1174751D02*
X+2089149Y-1174751D01*
X+2089149Y-1162049D01*
X+2352623Y-1162049D01*
X+2339921Y-1174751D01*
X+7385138Y-1425615D02*
X+7311354Y-1351831D01*
X+7158800Y-1351831D01*
X+7095300Y-1415331D01*
X+6884669Y-1415332D01*
X+6884669Y-1139189D01*
X+7104303Y-1139189D01*
X+7167803Y-1202689D01*
X+7320357Y-1202689D01*
X+7385137Y-1137909D01*
X+7385138Y-1425615D01*
X+6211571Y-1416051D02*
X+5252288Y-1416051D01*
X+5258104Y-1410235D01*
X+6211571Y-1410235D01*
X+6211571Y-1416051D01*
X+6211571Y-1670051D02*
X+6201375Y-1670051D01*
X+6201375Y-1657349D01*
X+6211571Y-1657349D01*
X+6211571Y-1670051D01*
X+7095300Y-1656629D02*
X+7097102Y-1658431D01*
X+7073823Y-1681710D01*
X+6884669Y-1681710D01*
X+6884669Y-1656628D01*
X+7095300Y-1656629D01*
X+4102022Y-1682752D02*
X+2089149Y-1682751D01*
X+2089149Y-1670049D01*
X+4114726Y-1670048D01*
X+4102022Y-1682752D01*
X+7385138Y-1713471D02*
X+7351575Y-1679908D01*
X+7385138Y-1646345D01*
X+7385138Y-1713471D01*
X-3122708Y-1162738D02*
X-2813049Y-1472397D01*
X-2813049Y-1656113D01*
X-2942873Y-1656113D01*
X-3006373Y-1719613D01*
X-3393401Y-1719613D01*
X-3393401Y-1694551D01*
X-3501273Y-1586679D01*
X-3653827Y-1586679D01*
X-3761699Y-1694551D01*
X-3761699Y-1847105D01*
X-3653827Y-1954977D01*
X-3564023Y-1954977D01*
X-3558089Y-1960911D01*
X-3006373Y-1960911D01*
X-2942873Y-2024411D01*
X-2813049Y-2024411D01*
X-2813049Y-3117851D01*
X-3274395Y-3117851D01*
X-3274395Y-2601202D01*
X-3184610Y-2511416D01*
X-3129357Y-2566669D01*
X-2976803Y-2566669D01*
X-2868931Y-2458797D01*
X-2868931Y-2306243D01*
X-2976803Y-2198371D01*
X-3129357Y-2198371D01*
X-3192857Y-2261871D01*
X-3276308Y-2261871D01*
X-3515693Y-2501256D01*
X-3515693Y-3117851D01*
X-5003801Y-3117851D01*
X-5003801Y-1709462D01*
X-3581401Y-287062D01*
X-3581401Y+1289051D01*
X-3110879Y+1289051D01*
X-3122708Y-1162738D01*
X+4940293Y-1207194D02*
X+4812540Y-1207194D01*
X+4704668Y-1315066D01*
X+4704668Y-1467620D01*
X+4812540Y-1575492D01*
X+4902344Y-1575492D01*
X+4984201Y-1657349D01*
X+5833077Y-1657349D01*
X+5833077Y-1785320D01*
X+5940949Y-1893192D01*
X+6030753Y-1893192D01*
X+6048910Y-1911349D01*
X+6211571Y-1911349D01*
X+6211571Y-1924051D01*
X+5296727Y-1924051D01*
X+4949006Y-2271772D01*
X+4554357Y-2271772D01*
X+4597733Y-2228396D01*
X+4597733Y-2075842D01*
X+4489861Y-1967970D01*
X+4337656Y-1967970D01*
X+4400549Y-1905077D01*
X+4400549Y-1752523D01*
X+4318074Y-1670048D01*
X+4440746Y-1670048D01*
X+4494531Y-1723833D01*
X+4494531Y-1813637D01*
X+4602403Y-1921509D01*
X+4754957Y-1921509D01*
X+4862829Y-1813637D01*
X+4862829Y-1661083D01*
X+4754957Y-1553211D01*
X+4665153Y-1553211D01*
X+4540694Y-1428752D01*
X+4490720Y-1428752D01*
X+2089149Y-1428751D01*
X+2089149Y-1416049D01*
X+2439867Y-1416049D01*
X+2535999Y-1319917D01*
X+3182023Y-1319917D01*
X+3360616Y-1141324D01*
X+5006163Y-1141324D01*
X+4940293Y-1207194D01*
X+4140123Y-2012949D02*
X+4292328Y-2012949D01*
X+4268550Y-2036727D01*
X+2156549Y-2036727D01*
X+2089149Y-1969327D01*
X+2089149Y-1924049D01*
X+4051222Y-1924048D01*
X+4140123Y-2012949D01*
X+7385139Y-2121847D02*
X+7249800Y-1986508D01*
X+7289877Y-1986508D01*
X+7385138Y-1891247D01*
X+7385139Y-2121847D01*
X+7092393Y-2170345D02*
X+6884669Y-2170345D01*
X+6884669Y-2127279D01*
X+7049327Y-2127279D01*
X+7092393Y-2170345D01*
X-1284996Y-2183271D02*
X-1423113Y-2183271D01*
X-1454493Y-2151891D01*
X-1607047Y-2151891D01*
X-1714919Y-2259763D01*
X-1714919Y-2412317D01*
X-1607047Y-2520189D01*
X-1454493Y-2520189D01*
X-1358873Y-2424569D01*
X-1294046Y-2424569D01*
X-1322069Y-2452592D01*
X-1322069Y-3117851D01*
X-1809751Y-3117851D01*
X-1809751Y-2010409D01*
X-1671243Y-2010409D01*
X-1595600Y-1934766D01*
X-1036491Y-1934766D01*
X-1284996Y-2183271D01*
X+581356Y-2193202D02*
X+571423Y-2203134D01*
X-963615Y-2203134D01*
X-931050Y-2170569D01*
X+558723Y-2170569D01*
X+581356Y-2193202D01*
X+3998342Y-2316144D02*
X+3998342Y-2368551D01*
X+3936173Y-2368551D01*
X+3854161Y-2286539D01*
X+2177761Y-2286539D01*
X+2169245Y-2278023D01*
X+4036463Y-2278023D01*
X+3998342Y-2316144D01*
X+6964483Y-2419351D02*
X+6884669Y-2419351D01*
X+6884669Y-2411643D01*
X+6972191Y-2411643D01*
X+6964483Y-2419351D01*
X+6211571Y-2432013D02*
X+5482506Y-2432013D01*
X+5499500Y-2415019D01*
X+6211571Y-2415019D01*
X+6211571Y-2432013D01*
X+571742Y-2444751D02*
X-867459Y-2444751D01*
X-1080771Y-2652351D01*
X-1080771Y-2606270D01*
X-918933Y-2444432D01*
X+571423Y-2444432D01*
X+571742Y-2444751D01*
X+3765551Y-2539173D02*
X+3765551Y-2605612D01*
X+3712943Y-2605612D01*
X+3682190Y-2636365D01*
X+3682190Y-2599577D01*
X+3610450Y-2527837D01*
X+3754215Y-2527837D01*
X+3765551Y-2539173D01*
X+6211571Y-2173723D02*
X+5399552Y-2173723D01*
X+4904163Y-2669112D01*
X+4093714Y-2669112D01*
X+4133849Y-2628977D01*
X+4133849Y-2576570D01*
X+4258768Y-2576570D01*
X+4322268Y-2513070D01*
X+5048952Y-2513070D01*
X+5396673Y-2165349D01*
X+6211571Y-2165349D01*
X+6211571Y-2173723D01*
X+6211571Y-2686051D02*
X+5490769Y-2686051D01*
X+5503509Y-2673311D01*
X+6211571Y-2673311D01*
X+6211571Y-2686051D01*
X+3022523Y-2698751D02*
X+2089149Y-2698751D01*
X+2089149Y-2686049D01*
X+3035225Y-2686049D01*
X+3022523Y-2698751D01*
X+3313892Y-2710566D02*
X+3289375Y-2686049D01*
X+3313892Y-2686049D01*
X+3313892Y-2710566D01*
X+6989884Y-2686050D02*
X+6964483Y-2711451D01*
X+6884669Y-2711451D01*
X+6884669Y-2660649D01*
X+6964483Y-2660649D01*
X+6989884Y-2686050D01*
X+915671Y-3117851D02*
X-994411Y-3117851D01*
X-994411Y-2905011D01*
X-769425Y-2686049D01*
X+596823Y-2686049D01*
X+660323Y-2749549D01*
X+812877Y-2749549D01*
X+915671Y-2646755D01*
X+915671Y-3117851D01*
X+4870125Y-2965451D02*
X+3873956Y-2965451D01*
X+3928997Y-2910410D01*
X+4925166Y-2910410D01*
X+4870125Y-2965451D01*
X+6926686Y-2979100D02*
X+6884669Y-2979100D01*
X+6884669Y-2952749D01*
X+6953037Y-2952749D01*
X+6926686Y-2979100D01*
X+3421764Y-2860003D02*
X+3574318Y-2860003D01*
X+3605071Y-2829250D01*
X+3605071Y-2866038D01*
X+3640984Y-2901951D01*
X+3543223Y-2901951D01*
X+3435351Y-3009823D01*
X+3435351Y-3162377D01*
X+3543223Y-3270249D01*
X+3695777Y-3270249D01*
X+3759277Y-3206749D01*
X+4970071Y-3206749D01*
X+5245561Y-2931259D01*
X+5245561Y-2978190D01*
X+5353433Y-3086062D01*
X+5384333Y-3086062D01*
X+5354972Y-3115423D01*
X+5354972Y-3267977D01*
X+5462844Y-3375849D01*
X+5615398Y-3375849D01*
X+5678898Y-3312349D01*
X+5852562Y-3312349D01*
X+5987236Y-3177674D01*
X+6211571Y-3177674D01*
X+6211571Y-4387851D01*
X+6101393Y-4387851D01*
X+5469321Y-3482999D01*
X+5416897Y-3455671D01*
X+4270555Y-3455671D01*
X+4148386Y-3458700D01*
X+4089477Y-3399791D01*
X+3936923Y-3399791D01*
X+3829051Y-3507663D01*
X+3829051Y-3660217D01*
X+3936923Y-3768089D01*
X+4089477Y-3768089D01*
X+4156339Y-3701227D01*
X+4229435Y-3698590D01*
X+4229435Y-3843097D01*
X+4337307Y-3950969D01*
X+4489861Y-3950969D01*
X+4545741Y-3895089D01*
X+5084467Y-3895089D01*
X+5777889Y-4588511D01*
X+5460140Y-4588511D01*
X+5491002Y-4557649D01*
X+5491002Y-4405095D01*
X+5383130Y-4297223D01*
X+5293326Y-4297223D01*
X+5182257Y-4186154D01*
X+4892368Y-4186154D01*
X+4828868Y-4122654D01*
X+4676314Y-4122654D01*
X+4568442Y-4230526D01*
X+4568442Y-4383080D01*
X+4676314Y-4490952D01*
X+4828868Y-4490952D01*
X+4892368Y-4427452D01*
X+5082311Y-4427452D01*
X+5122704Y-4467845D01*
X+5122704Y-4557649D01*
X+5153566Y-4588511D01*
X+2209133Y-4588511D01*
X+1242026Y-3621404D01*
X+1242026Y-3204252D01*
X+1295323Y-3257549D01*
X+1416051Y-3257549D01*
X+1416051Y-3536949D01*
X+2089149Y-3536949D01*
X+2089149Y-3186873D01*
X+2182996Y-3093026D01*
X+2477909Y-3093026D01*
X+2477909Y-3149931D01*
X+2585781Y-3257803D01*
X+2738335Y-3257803D01*
X+2846207Y-3149931D01*
X+2846207Y-2997377D01*
X+2788879Y-2940049D01*
X+3022523Y-2940049D01*
X+3086023Y-3003549D01*
X+3238577Y-3003549D01*
X+3346449Y-2895677D01*
X+3346449Y-2784688D01*
X+3421764Y-2860003D01*
X+6211571Y-2936376D02*
X+5887289Y-2936376D01*
X+5752615Y-3071051D01*
X+5678898Y-3071051D01*
X+5615398Y-3007551D01*
X+5584498Y-3007551D01*
X+5613859Y-2978190D01*
X+5613859Y-2927349D01*
X+6211571Y-2927349D01*
X+6211571Y-2936376D01*
X-852169Y+1271440D02*
X-1384278Y+739331D01*
X-1469800Y+739331D01*
X-2051049Y+158082D01*
X-2051049Y-3117851D01*
X-2317751Y-3117851D01*
X-2317751Y-1373035D01*
X-2774951Y-915835D01*
X-2774951Y+969591D01*
X-2771307Y+973235D01*
X-2771307Y+1289051D01*
X-852169Y+1289051D01*
X-852169Y+1271440D01*
X-2559049Y-1472981D02*
X-2559049Y-3117851D01*
X-2571751Y-3117851D01*
X-2571751Y-1460279D01*
X-2559049Y-1472981D01*
X+5548883Y-4018261D02*
X+5227591Y-3696969D01*
X+5324449Y-3696969D01*
X+5548883Y-4018261D01*
X-5257799Y-4058997D02*
X-5281853Y-4083051D01*
X-5344717Y-4083051D01*
X-5373700Y-4112034D01*
X-5402683Y-4083051D01*
X-5544717Y-4083051D01*
X-5553051Y-4091385D01*
X-5553051Y-3536949D01*
X-5257799Y-3536949D01*
X-5257799Y-4058997D01*
X-1322069Y-3763474D02*
X-1322069Y-3813447D01*
X-954867Y-4180649D01*
X+174105Y-4180649D01*
X+165893Y-4188861D01*
X-1048977Y-4188861D01*
X-1321902Y-3915936D01*
X-2789222Y-3915936D01*
X-3168209Y-3536949D01*
X-1322069Y-3536949D01*
X-1322069Y-3763474D01*
X+468354Y-4198268D02*
X+450735Y-4180649D01*
X+458664Y-4180649D01*
X+468354Y-4198268D01*
X+6990186Y-3283898D02*
X+7123212Y-3283898D01*
X+7123212Y-4320736D01*
X+7056097Y-4387851D01*
X+6884669Y-4387851D01*
X+6884669Y-3220398D01*
X+6926686Y-3220398D01*
X+6990186Y-3283898D01*
D14*
X-4978400Y+1498600D03*
X-4724400Y+1498600D03*
X-4470400Y+1498600D03*
X-4216400Y+1498600D03*
X-3962400Y+1498600D03*
X-3708400Y+1498600D03*
X-3454400Y+1498600D03*
X-3200400Y+1498600D03*
X-2692400Y+1498600D03*
X-2438400Y+1498600D03*
X-2184400Y+1498600D03*
X-1930400Y+1498600D03*
X-1676400Y+1498600D03*
X-1422400Y+1498600D03*
X-1168400Y+1498600D03*
X-914400Y+1498600D03*
X-406400Y+1498600D03*
X-152400Y+1498600D03*
X+101600Y+1498600D03*
X+355600Y+1498600D03*
X+609600Y+1498600D03*
X+863600Y+1498600D03*
X+1117600Y+1498600D03*
X+1371600Y+1498600D03*
X+1625600Y+990600D03*
X+1625600Y+736600D03*
X+1625600Y+482600D03*
X+1625600Y+228600D03*
X+1625600Y-25400D03*
X+1625600Y-279400D03*
X+1625600Y-533400D03*
X+1625600Y-787400D03*
X+1625600Y-1041400D03*
X+1625600Y-1295400D03*
X+1625600Y-1549400D03*
X+1625600Y-1803400D03*
X+1625600Y-2057400D03*
X+1625600Y-2311400D03*
X+1625600Y-2565400D03*
X+1625600Y-2819400D03*
X+1625600Y-3073400D03*
X+1625600Y-3327400D03*
X+1879600Y+990600D03*
X+1879600Y+736600D03*
X+1879600Y+482600D03*
X+1879600Y+228600D03*
X+1879600Y-25400D03*
X+1879600Y-279400D03*
X+1879600Y-533400D03*
X+1879600Y-787400D03*
X+1879600Y-1041400D03*
X+1879600Y-1295400D03*
X+1879600Y-1549400D03*
X+1879600Y-1803400D03*
X+1879600Y-2057400D03*
X+1879600Y-2311400D03*
X+1879600Y-2565400D03*
X+1879600Y-2819400D03*
X+1879600Y-3073400D03*
X+1879600Y-3327400D03*
X+863600Y-3327400D03*
X+609600Y-3327400D03*
X+355600Y-3327400D03*
X+101600Y-3327400D03*
X-152400Y-3327400D03*
X-406400Y-3327400D03*
X-660400Y-3327400D03*
X-914400Y-3327400D03*
X-1422400Y-3327400D03*
X-1676400Y-3327400D03*
X-1930400Y-3327400D03*
X-2184400Y-3327400D03*
X-2438400Y-3327400D03*
X-2692400Y-3327400D03*
X-2946400Y-3327400D03*
X-3200400Y-3327400D03*
X-3606800Y-3327400D03*
X-3860800Y-3327400D03*
X-4114800Y-3327400D03*
X-4368800Y-3327400D03*
X-4622800Y-3327400D03*
X-4876800Y-3327400D03*
X-5130800Y-3327400D03*
X-5384800Y-3327400D03*
X-5638800Y-3327400D03*
X-5892800Y-3327400D03*
D15*
X-4483100Y+3784600D03*
X-3467100Y+3784600D03*
D14*
X+5488940Y+4396740D03*
X+5742940Y+4396740D03*
X+5488940Y+4142740D03*
X+5742940Y+4142740D03*
X+5488940Y+3888740D03*
X+5742940Y+3888740D03*
X+5488940Y+3634740D03*
X+5742940Y+3634740D03*
X+5488940Y+3380740D03*
X+5742940Y+3380740D03*
X+5488940Y+3126740D03*
X+5742940Y+3126740D03*
X+5488940Y+2872740D03*
X+5742940Y+2872740D03*
D16*
X-6781800Y-4000500D03*
X-6781800Y-4508500D03*
D17*
X-4305300Y+2133600D03*
D18*
X-4051300Y+2133600D03*
X-3797300Y+2133600D03*
X-3543300Y+2133600D03*
X-3543300Y+2895600D03*
X-3797300Y+2895600D03*
X-4051300Y+2895600D03*
X-4305300Y+2895600D03*
D14*
X+6421120Y-4330700D03*
X+6675120Y-4330700D03*
X+6421120Y-4076700D03*
X+6675120Y-4076700D03*
X+6421120Y-3822700D03*
X+6675120Y-3822700D03*
X+6421120Y-3568700D03*
X+6675120Y-3568700D03*
X+6421120Y-3314700D03*
X+6675120Y-3314700D03*
X+6421120Y-3060700D03*
X+6675120Y-3060700D03*
X+6421120Y-2806700D03*
X+6675120Y-2806700D03*
X+6421120Y-2552700D03*
X+6675120Y-2552700D03*
X+6421120Y-2298700D03*
X+6675120Y-2298700D03*
X+6421120Y-2044700D03*
X+6675120Y-2044700D03*
X+6421120Y-1790700D03*
X+6675120Y-1790700D03*
X+6421120Y-1536700D03*
X+6675120Y-1536700D03*
X+6421120Y-1282700D03*
X+6675120Y-1282700D03*
X+6421120Y-1028700D03*
X+6675120Y-1028700D03*
X+6421120Y-774700D03*
X+6675120Y-774700D03*
X+6421120Y-520700D03*
X+6675120Y-520700D03*
X+6421120Y-266700D03*
X+6675120Y-266700D03*
X+6421120Y-12700D03*
X+6675120Y-12700D03*
X+6421120Y+241300D03*
X+6675120Y+241300D03*
X+6421120Y+495300D03*
X+6675120Y+495300D03*
X+6421120Y+749300D03*
X+6675120Y+749300D03*
X+6421120Y+1003300D03*
X+6675120Y+1003300D03*
X+6421120Y+1257300D03*
X+6675120Y+1257300D03*
X+6421120Y+1511300D03*
X+6675120Y+1511300D03*
X+6421120Y+1765300D03*
X+6675120Y+1765300D03*
D19*
X-5673700Y-4254500D03*
X-5473700Y-4254500D03*
X-5273700Y-4254500D03*
D70*
X-7645400Y-4445000D03*
X-7645400Y+4445000D03*
X+7721600Y+4648200D03*
X+7734300Y-4445000D03*
D18*
X-6083300Y+3644900D03*
X-7353300Y+3644900D03*
X-6845300Y+3898900D03*
D71*
X-8000000Y-5000000D02*
X+8000000Y-5000000D01*
X+8000000Y+5000000D01*
X-8000000Y+5000000D01*
X-8000000Y-5000000D01*
M02*
