G04 PROTEUS GERBER X2 FILE*
%TF.GenerationSoftware,Labcenter,Proteus,8.13-SP0-Build31525*%
%TF.CreationDate,2024-05-27T19:23:28+00:00*%
%TF.FileFunction,AssemblyDrawing,Bot*%
%TF.FilePolarity,Positive*%
%TF.Part,Single*%
%TF.SameCoordinates,{9f2e17e2-6f08-49dd-ae8b-9f6cb0eb8b28}*%
%FSLAX45Y45*%
%MOMM*%
G01*
%TA.AperFunction,Profile*%
%ADD24C,0.203200*%
%TA.AperFunction,Material*%
%ADD27C,0.203200*%
%ADD46C,0.914400*%
%ADD61C,2.322400*%
%ADD29C,0.152400*%
%ADD62C,0.438810*%
%TD.AperFunction*%
D24*
X-8000000Y-5000000D02*
X+8000000Y-5000000D01*
X+8000000Y+5000000D01*
X-8000000Y+5000000D01*
X-8000000Y-5000000D01*
D27*
X-8417560Y-3591560D02*
X+2397760Y-3591560D01*
X+2397760Y+1762760D01*
X-8417560Y+1762760D01*
X-8417560Y-3591560D01*
D46*
X-4978400Y+1498600D02*
X-4978400Y+1498600D01*
D61*
X+1170432Y-1533821D02*
X+909162Y-1766062D01*
X-135921Y-1766062D01*
X-397192Y-1533821D01*
X-397192Y-1301581D01*
X-135921Y-1069340D01*
X+909162Y-1069340D01*
X+1170432Y-837099D01*
X+1170432Y-604859D01*
X+909162Y-372618D01*
X-135921Y-372618D01*
X-397192Y-604859D01*
X-1181004Y-372618D02*
X-2226087Y-372618D01*
X-1703546Y-372618D02*
X-1703546Y-1766062D01*
X-1181004Y-1766062D02*
X-2226087Y-1766062D01*
X-3009900Y-1766062D02*
X-3009900Y-372618D01*
X-3793712Y-1069340D01*
X-4577524Y-372618D01*
X-4577524Y-1766062D01*
X-5622607Y-837099D02*
X-6145149Y-372618D01*
X-6145149Y-1766062D01*
D29*
X+6903720Y-4838700D02*
X+6192520Y-4838700D01*
X+6192520Y+2273300D01*
X+6903720Y+2273300D01*
X+6903720Y-4838700D01*
X+6192520Y-4838700D01*
X+6192520Y+2273300D01*
X+6903720Y+2273300D01*
X+6903720Y-4838700D01*
D46*
X+6421120Y-4330700D02*
X+6421120Y-4330700D01*
D62*
X+6504239Y-1396959D02*
X+6460358Y-1396959D01*
X+6416477Y-1347593D01*
X+6416477Y-1150129D01*
X+6460358Y-1100763D01*
X+6679763Y-1100763D01*
X+6635882Y-952664D02*
X+6679763Y-903298D01*
X+6679763Y-755200D01*
X+6635882Y-705834D01*
X+6592001Y-705834D01*
X+6548120Y-755200D01*
X+6548120Y-903298D01*
X+6504239Y-952664D01*
X+6416477Y-952664D01*
X+6416477Y-705834D01*
M02*
